<?xml version="1.0" encoding="utf-8"?>
<!-- Generator: Adobe Illustrator 18.0.0, SVG Export Plug-In . SVG Version: 6.00 Build 0)  -->
<!DOCTYPE svg PUBLIC "-//W3C//DTD SVG 1.1//EN" "http://www.w3.org/Graphics/SVG/1.1/DTD/svg11.dtd">
<svg version="1.1" id="Layer_1" xmlns="http://www.w3.org/2000/svg" xmlns:xlink="http://www.w3.org/1999/xlink" x="0px" y="0px"
	 viewBox="0 0 612 792" enable-background="new 0 0 612 792" xml:space="preserve">
<g>
	<g>
		<circle fill="#FD8A06" cx="306" cy="396" r="187.5"/>
		<path fill="#333333" d="M306,90c-80.2,0-157.2,31.7-214.2,87.6l-13-69.7l-19.4,3.6l17.9,95.7l99.3,11l2.2-19.6l-72.1-8
			c53.2-51.6,124.7-80.9,199.3-80.9c157.8,0,286.3,128.4,286.3,286.3c0,86.1-38.3,163.5-98.7,216v-18.6c-8.4,0-16-4.7-19.7-12.2
			l-4.1-8.1c13.6-2.7,23.8-14.7,23.8-29c0-16.3-13.3-29.6-29.6-29.6h-39.5v98.7h19.7v-47l12,23.9c6.9,13.9,20.7,22.6,36.1,23
			c-50.1,43.1-115.2,69.2-186.3,69.2C148.2,682.3,19.7,553.8,19.7,396c0-29.2,4.4-58.1,13.2-85.9l-18.8-5.9C4.7,333.9,0,364.8,0,396
			c0,168.7,137.3,306,306,306s306-137.3,306-306S474.7,90,306,90z M444.2,553.9v-19.7h19.7c5.4,0,9.9,4.4,9.9,9.9
			c0,5.4-4.4,9.9-9.9,9.9L444.2,553.9L444.2,553.9z"/>
		<path fill="#333333" d="M52.9,262.4l-17.5-9.2c-3.8,7.3-7.1,13.9-9.9,20.4l18.1,7.9C46.2,275.5,49.2,269.3,52.9,262.4z"/>
		<path fill="#333333" d="M231.8,423.1L112,495c-14.3,8.6-23.2,24.2-23.2,40.9c0,26.3,21.4,47.7,47.7,47.7H306v-19.7H136.5
			c-15.4,0-27.9-12.5-27.9-27.9c0-9.8,5.2-18.9,13.6-24L242,440c39.5-23.7,64-67,64-113.1c0-59.9-48.7-108.6-108.6-108.6
			S88.8,267,88.8,326.9v19.7h19.7v-19.7c0-49,39.8-88.8,88.8-88.8s88.8,39.9,88.8,88.8C286.3,366.1,265.4,402.9,231.8,423.1z"/>
		<path fill="#333333" d="M443,223.1l-17.3-9.6l-95.8,172.4c-2.7,5-4.2,10.6-4.2,16.2c0,18.4,15,33.4,33.4,33.4h94.9v59.2h19.7
			v-59.2h88.8v-19.7h-88.8V218.3h-19.7v197.4h-94.9c-7.5,0-13.7-6.1-13.7-13.7c0-2.3,0.6-4.6,1.7-6.6L443,223.1z"/>
		<polygon fill="#333333" points="325.7,613.2 345.5,613.2 345.5,573.7 385,573.7 385,613.2 404.7,613.2 404.7,514.5 385,514.5 
			385,553.9 345.5,553.9 345.5,514.5 325.7,514.5 		"/>
	</g>
</g>
</svg>
