<?xml version="1.0" encoding="utf-8"?>
<!-- Generator: Adobe Illustrator 18.0.0, SVG Export Plug-In . SVG Version: 6.00 Build 0)  -->
<!DOCTYPE svg PUBLIC "-//W3C//DTD SVG 1.1//EN" "http://www.w3.org/Graphics/SVG/1.1/DTD/svg11.dtd">
<svg version="1.1" id="Layer_1" xmlns="http://www.w3.org/2000/svg" xmlns:xlink="http://www.w3.org/1999/xlink" x="0px" y="0px"
	 viewBox="0 0 612 792" enable-background="new 0 0 612 792" xml:space="preserve">
<g>
	<rect x="69.1" y="90" fill="#FD8A06" width="59.2" height="256.6"/>
	<rect x="167.8" y="149.2" fill="#FD8A06" width="59.2" height="197.4"/>
	<rect x="266.5" y="188.7" fill="#FD8A06" width="59.2" height="157.9"/>
	<path fill="#FD8A06" d="M572.5,425.6H375.1V90h197.4V425.6z"/>
</g>
<g>
	<path fill="#333333" d="M582.4,228.2h-9.9v19.7h9.9c5.4,0,9.9,4.4,9.9,9.9v247.8c-22.7-36.1-62.8-60.3-108.6-60.3
		c-70.8,0-128.3,57.6-128.3,128.3c0,17.5,3.5,34.2,9.9,49.4H29.6c-5.4,0-9.9-4.4-9.9-9.9V257.8c0-5.4,4.4-9.9,9.9-9.9h39.5v-19.7
		H29.6C13.3,228.2,0,241.5,0,257.8v355.4c0,16.3,13.3,29.6,29.6,29.6h128.3v39.5h-29.6V702h355.4c70.8,0,128.3-57.6,128.3-128.3
		V257.8C612,241.5,598.7,228.2,582.4,228.2z M473.8,465.6v103.7L396.4,638c-13.3-18-21.3-40.3-21.3-64.4
		C375.1,517.1,418.5,470.6,473.8,465.6z M177.7,682.3v-39.5h197.4v-1c10.3,16.4,24.1,30.2,40.5,40.5H177.7z M483.7,682.3
		c-28.7,0-54.7-11.3-74.1-29.5l77.2-68.6l101.9,17C576.4,647.7,534,682.3,483.7,682.3z M591.9,581.7l-98.3-16.4v-99.7
		c55.3,5,98.7,51.5,98.7,108.1C592.3,576.4,592.1,579,591.9,581.7z"/>
	<rect x="39.5" y="346.6" fill="#333333" width="315.9" height="19.7"/>
	<rect x="59.2" y="405.9" fill="#333333" width="266.5" height="19.7"/>
	<rect x="59.2" y="445.4" fill="#333333" width="266.5" height="19.7"/>
	<rect x="98.7" y="484.8" fill="#333333" width="227" height="19.7"/>
	<rect x="59.2" y="484.8" fill="#333333" width="19.7" height="19.7"/>
	<rect x="59.2" y="524.3" fill="#333333" width="266.5" height="19.7"/>
	<rect x="306" y="563.8" fill="#333333" width="19.7" height="19.7"/>
	<rect x="59.2" y="563.8" fill="#333333" width="227" height="19.7"/>
	<rect x="414.6" y="129.5" fill="#333333" width="118.5" height="19.7"/>
	<rect x="454.1" y="169" fill="#333333" width="79" height="19.7"/>
	<rect x="414.6" y="169" fill="#333333" width="19.7" height="19.7"/>
	<rect x="414.6" y="208.5" fill="#333333" width="118.5" height="19.7"/>
	<rect x="414.6" y="247.9" fill="#333333" width="118.5" height="19.7"/>
	<rect x="414.6" y="287.4" fill="#333333" width="118.5" height="19.7"/>
	<rect x="414.6" y="326.9" fill="#333333" width="118.5" height="19.7"/>
	<rect x="513.3" y="366.4" fill="#333333" width="19.7" height="19.7"/>
	<rect x="414.6" y="366.4" fill="#333333" width="79" height="19.7"/>
	<rect x="325.7" y="228.2" fill="#333333" width="49.4" height="19.7"/>
</g>
</svg>
