<?xml version="1.0" encoding="utf-8"?>
<!-- Generator: Adobe Illustrator 18.0.0, SVG Export Plug-In . SVG Version: 6.00 Build 0)  -->
<!DOCTYPE svg PUBLIC "-//W3C//DTD SVG 1.1//EN" "http://www.w3.org/Graphics/SVG/1.1/DTD/svg11.dtd">
<svg version="1.1" id="Layer_1" xmlns="http://www.w3.org/2000/svg" xmlns:xlink="http://www.w3.org/1999/xlink" x="0px" y="0px"
	 viewBox="0 0 612 792" enable-background="new 0 0 612 792" xml:space="preserve">
<g>
	<polygon fill="#FD8A06" points="250.2,352.3 156.6,658.6 98.7,702 99.1,649.8 205.7,301 224.6,306.7 	"/>
	<polygon fill="#FD8A06" points="387.4,306.7 406.3,301 513.3,651.2 513.3,702 455.4,658.6 454.5,655.5 361.8,352.3 	"/>
</g>
<g>
	<path fill="#333333" d="M478.6,585.9l13.3,14.6c5-4.6,9.9-9.4,14.6-14.3l-14.3-13.6C487.8,577.2,483.3,581.7,478.6,585.9z"/>
	<path fill="#333333" d="M431.8,149.9c-11.7-6-23.9-11.2-36.3-15.4l-6.4,18.7c11.5,3.9,22.9,8.8,33.7,14.3L431.8,149.9z"/>
	<path fill="#333333" d="M548.8,479.3l18.7,6.4c4.3-12.4,7.7-25.3,10.1-38.2l-19.4-3.6C555.9,455.8,552.8,467.7,548.8,479.3z"/>
	<path fill="#333333" d="M581.1,368.9l-19.6,1.9c0.8,8.3,1.2,16.7,1.2,25.2c0,3.8-0.1,7.7-0.2,11.5l19.7,0.9
		c0.2-4.1,0.3-8.2,0.3-12.3C582.4,386.9,581.9,377.8,581.1,368.9z"/>
	<path fill="#333333" d="M515.5,544.3l16.1,11.4c7.6-10.7,14.5-22.1,20.5-33.7l-17.6-9C528.9,523.8,522.5,534.4,515.5,544.3z"/>
	<path fill="#333333" d="M544.9,257c-6.6-11.3-14.1-22.3-22.3-32.6l-15.5,12.3c7.6,9.6,14.5,19.8,20.7,30.3L544.9,257z"/>
	<path fill="#333333" d="M555.3,334.7l19.2-4.7c-3.1-12.8-7.2-25.4-12.1-37.6l-18.3,7.4C548.6,311.1,552.4,322.9,555.3,334.7z"/>
	<path fill="#333333" d="M496,195.3c-9.5-9-19.8-17.4-30.5-25l-11.4,16.1c9.9,7,19.5,14.9,28.3,23.2L496,195.3z"/>
	<path fill="#333333" d="M153.2,626.3c5.7,3.8,11.6,7.4,17.4,10.7l9.7-17.2c-5.5-3.1-10.9-6.4-16.2-9.9L153.2,626.3z"/>
	<path fill="#333333" d="M306,652.6c-5.9,0.1-12.5-0.2-18.8-0.7l-1.4,19.7c6.6,0.5,13.3,0.7,19.9,0.7c6.5,0.1,13.8-0.2,20.5-0.7
		l-1.4-19.7C318.5,652.4,312.3,652.6,306,652.6z"/>
	<path fill="#333333" d="M361.8,646.6l4.3,19.3c13.2-2.9,26.2-6.8,38.7-11.6l-7.1-18.4C386.1,640.2,374,643.8,361.8,646.6z"/>
	<path fill="#333333" d="M207.1,654.1c12.5,4.8,25.6,8.7,38.7,11.7l4.3-19.3c-12.2-2.7-24.2-6.3-35.9-10.8L207.1,654.1z"/>
	<path fill="#333333" d="M431.7,619.8l9.7,17.2c5.9-3.3,11.7-6.9,17.4-10.7l-10.9-16.4C442.6,613.3,437.2,616.7,431.7,619.8z"/>
	<path fill="#333333" d="M68.1,299.6l-18.3-7.4c-4.9,12.1-9,24.8-12.2,37.5l19.2,4.7C59.7,322.6,63.5,310.8,68.1,299.6z"/>
	<path fill="#333333" d="M49.4,396c0-8.5,0.4-17.1,1.2-25.5L31,368.6c-0.9,9-1.3,18.2-1.3,27.4c0,4,0.1,8,0.3,12l19.7-0.8
		C49.4,403.5,49.4,399.7,49.4,396z"/>
	<path fill="#333333" d="M158.1,186.3l-11.4-16.1c-10.7,7.6-21,16-30.5,25l13.6,14.3C138.6,201.1,148.1,193.3,158.1,186.3z"/>
	<path fill="#333333" d="M67.2,256.8l17,10c6.1-10.5,13.1-20.7,20.7-30.2l-15.5-12.3C81.3,234.5,73.8,245.5,67.2,256.8z"/>
	<path fill="#333333" d="M223.2,153l-6.4-18.7c-12.4,4.2-24.6,9.4-36.4,15.4l9,17.6C200.3,161.8,211.7,157,223.2,153z"/>
	<path fill="#333333" d="M59.8,521.7c6,11.7,12.9,23,20.5,33.8l16.1-11.4c-7-9.9-13.4-20.5-19-31.3L59.8,521.7z"/>
	<path fill="#333333" d="M53.8,443.6l-19.4,3.6c2.4,12.9,5.8,25.7,10,38.2l18.7-6.4C59.1,467.5,56,455.6,53.8,443.6z"/>
	<path fill="#333333" d="M105.5,586.2c4.7,5,9.6,9.8,14.6,14.3l13.3-14.6c-4.6-4.2-9.2-8.7-13.6-13.3L105.5,586.2z"/>
	<path fill="#333333" d="M345.5,178.8v-36.2c2.6,0.4,5.2,0.7,7.9,1.2l3.6-19.4c-4.1-0.8-8.1-1.2-12.2-1.8
		C341.5,104.1,325.4,90,306,90s-35.5,14.1-38.8,32.5c-4.1,0.6-8.1,1-12.2,1.8l3.6,19.4c2.6-0.5,5.2-0.8,7.9-1.2v36.2
		c-43.5,0-79,35.4-79,79c0,29.2,15.9,54.6,39.5,68.3c0,0.3,0,0.5,0,0.8c0,43.5,35.4,79,79,79s79-35.4,79-79c0-0.3,0-0.5,0-0.8
		c23.6-13.7,39.5-39.1,39.5-68.3C424.5,214.3,389,178.8,345.5,178.8z M286.3,129.5c0-10.9,8.9-19.7,19.7-19.7s19.7,8.9,19.7,19.7v52
		c-7,1.8-13.6,4.5-19.7,8.1c-6.1-3.6-12.7-6.3-19.7-8.1V129.5z M325.2,250.4c-6.2-1.5-12.6-2.5-19.2-2.5s-13.1,0.9-19.2,2.5
		c1.8-14.5,8.9-27.3,19.2-36.6C316.3,223.1,323.4,235.9,325.2,250.4z M306,301.8c-9-8.1-15.6-18.9-18.3-31.2
		c5.8-1.9,11.9-2.9,18.3-2.9c6.4,0,12.5,1,18.3,2.9C321.6,282.9,315,293.7,306,301.8z M342.2,280.1c10.7,8.3,18.5,20.2,21.6,34
		c-5.8,1.9-11.9,2.9-18.3,2.9c-7.9,0-15.4-1.6-22.3-4.4C332,303.6,338.6,292.5,342.2,280.1z M288.8,312.6
		c-6.9,2.8-14.4,4.4-22.3,4.4c-6.4,0-12.5-1-18.3-2.9c3-13.7,10.8-25.6,21.6-34C273.4,292.5,280,303.6,288.8,312.6z M207.3,257.8
		c0-32.7,26.6-59.2,59.2-59.2c7.9,0,15.4,1.6,22.3,4.4c-13.8,14.2-22.3,33.5-22.3,54.8c0,0.3,0,0.5,0,0.8
		c-17.3,10-30.5,26.4-36.3,46C216.3,293.7,207.3,276.8,207.3,257.8z M306,386.1c-30.1,0-55.1-22.7-58.7-51.8
		c6.2,1.5,12.6,2.5,19.2,2.5c14.4,0,27.9-3.9,39.5-10.7c11.6,6.8,25.1,10.7,39.5,10.7c6.6,0,13.1-0.9,19.2-2.5
		C361.1,363.5,336.1,386.1,306,386.1z M381.7,304.6c-5.8-19.6-18.9-35.9-36.3-46c0-0.3,0-0.5,0-0.8c0-21.3-8.5-40.6-22.3-54.8
		c6.9-2.8,14.4-4.4,22.3-4.4c32.7,0,59.2,26.6,59.2,59.2C404.7,276.8,395.7,293.7,381.7,304.6z"/>
	<rect x="197.4" y="475" fill="#333333" width="217.2" height="19.7"/>
</g>
</svg>
