<?xml version="1.0" encoding="utf-8"?>
<!-- Generator: Adobe Illustrator 18.0.0, SVG Export Plug-In . SVG Version: 6.00 Build 0)  -->
<!DOCTYPE svg PUBLIC "-//W3C//DTD SVG 1.1//EN" "http://www.w3.org/Graphics/SVG/1.1/DTD/svg11.dtd">
<svg version="1.1" xmlns="http://www.w3.org/2000/svg" xmlns:xlink="http://www.w3.org/1999/xlink" x="0px" y="0px"
	 viewBox="0 0 512 512" enable-background="new 0 0 512 512" xml:space="preserve">
<g id="Layer_2">
	<rect x="126" y="322.4" fill="#FD8A06" stroke="#000000" stroke-miterlimit="10" width="225.5" height="129.7"/>
</g>
<g id="Layer_1">
	<g>
		<g>
			<path fill="#333333" d="M504,409.4c4.4,0,8-3.6,8-8V119.2c0-2.1-0.8-4.2-2.3-5.7L424.1,28c-1.5-1.5-3.5-2.3-5.7-2.3H238.4V24
				c0-13.3-10.8-24-24.1-24H24C10.8,0,0,10.8,0,24v258.7c0,13.3,10.8,24,24,24h61.5V504c0,4.4,3.6,8,8,8H504c4.4,0,8-3.6,8-8v-59.9
				c0-4.4-3.6-8-8-8c-4.4,0-8,3.6-8,8V496H101.5V306.8h112.8c13.3,0,24.1-10.8,24.1-24V144.8c0-4.4-3.6-8-8-8s-8,3.6-8,8v137.9
				c0,4.4-3.6,8-8,8H24c-4.4,0-8-3.6-8-8V24c0-4.4,3.6-8,8-8h190.3c4.4,0,8,3.6,8,8v78c0,4.4,3.6,8,8,8s8-3.6,8-8V41.7h172.1
				c0,0.2,0,0.4,0,0.5v77c0,4.4,3.6,8,8,8h77c0.2,0,0.4,0,0.5,0v274.2C496,405.8,499.6,409.4,504,409.4z M426.5,111.2V53l58.1,58.1
				C484.6,111.2,426.5,111.2,426.5,111.2z"/>
		</g>
	</g>
	<g>
		<g>
			<path fill="#333333" d="M198.3,367.7h-53.4c-4.4,0-8,3.6-8,8c0,4.4,3.6,8,8,8h53.4c4.4,0,8-3.6,8-8
				C206.3,371.3,202.7,367.7,198.3,367.7z"/>
		</g>
	</g>
	<g>
		<g>
			<path fill="#333333" d="M198.3,410.5h-53.4c-4.4,0-8,3.6-8,8c0,4.4,3.6,8,8,8h53.4c4.4,0,8-3.6,8-8
				C206.3,414,202.7,410.5,198.3,410.5z"/>
		</g>
	</g>
	<g>
		<g>
			<path fill="#333333" d="M358.6,248c-32.8,0-63.3,13-86,36.7c-3.1,3.2-3,8.3,0.2,11.3c3.2,3.1,8.3,3,11.3-0.2
				c19.6-20.5,46.1-31.7,74.4-31.7c56.9,0,103.1,46.3,103.1,103.1s-46.3,103.1-103.1,103.1S255.5,424,255.5,367.2
				c0-16.8,3.9-32.8,11.6-47.6c2-3.9,0.5-8.8-3.4-10.8c-3.9-2-8.8-0.5-10.8,3.4c-8.8,16.9-13.4,35.9-13.4,55
				c0,65.7,53.5,119.2,119.2,119.2s119.2-53.5,119.2-119.2S424.3,248,358.6,248z"/>
		</g>
	</g>
	<g>
		<g>
			<path fill="#333333" d="M376.9,360.2l-12.4-0.4v-44.5h28.3c4.4,0,8-3.6,8-8c0-4.4-3.6-8-8-8h-28.3v-9.1c0-4.4-3.6-8-8-8
				c-4.4,0-8,3.6-8,8v9.1h-8c-13.3,0-24,10.8-24,24v27.8c0,13.2,10.7,24,23.9,24l8.1,0.2V419h-24c-4.4,0-8,3.6-8,8c0,4.4,3.6,8,8,8
				h24v9.1c0,4.4,3.6,8,8,8c4.4,0,8-3.6,8-8V435h12.3c13.3,0,24-10.8,24-24v-26.7C400.8,371,390.1,360.3,376.9,360.2z M348.5,359.4
				l-7.8-0.2c-0.1,0-0.2,0-0.2,0c-4.4,0-8-3.6-8-8v-27.8c0-4.4,3.6-8,8-8h8L348.5,359.4L348.5,359.4z M384.8,411c0,4.4-3.6,8-8,8
				h-12.3v-43.1l12.1,0.4c0.1,0,0.2,0,0.2,0c4.4,0,8,3.6,8,8V411z"/>
		</g>
	</g>
	<g>
		<g>
			<path fill="#333333" d="M204.7,25.7h-171c-4.4,0-8,3.6-8,8v42.8c0,4.4,3.6,8,8,8h171c4.4,0,8-3.6,8-8V33.7
				C212.7,29.2,209.1,25.7,204.7,25.7z M196.7,68.4h-155V41.7h155L196.7,68.4L196.7,68.4z"/>
		</g>
	</g>
	<g>
		<g>
			<path fill="#333333" d="M67.9,94.1H33.7c-4.4,0-8,3.6-8,8v34.2c0,4.4,3.6,8,8,8h34.2c4.4,0,8-3.6,8-8v-34.2
				C75.9,97.7,72.3,94.1,67.9,94.1z M59.9,128.3H41.7v-18.2h18.2V128.3z"/>
		</g>
	</g>
	<g>
		<g>
			<path fill="#333333" d="M136.3,94.1h-34.2c-4.4,0-8,3.6-8,8v34.2c0,4.4,3.6,8,8,8h34.2c4.4,0,8-3.6,8-8v-34.2
				C144.3,97.7,140.7,94.1,136.3,94.1z M128.3,128.3h-18.2v-18.2h18.2V128.3z"/>
		</g>
	</g>
	<g>
		<g>
			<path fill="#333333" d="M204.7,94.1h-34.2c-4.4,0-8,3.6-8,8v34.2c0,4.4,3.6,8,8,8h34.2c4.4,0,8-3.6,8-8v-34.2
				C212.7,97.7,209.1,94.1,204.7,94.1z M196.7,128.3h-18.2v-18.2h18.2V128.3z"/>
		</g>
	</g>
	<g>
		<g>
			<path fill="#333333" d="M67.9,162.5H33.7c-4.4,0-8,3.6-8,8v34.2c0,4.4,3.6,8,8,8h34.2c4.4,0,8-3.6,8-8v-34.2
				C75.9,166.1,72.3,162.5,67.9,162.5z M59.9,196.7H41.7v-18.2h18.2V196.7z"/>
		</g>
	</g>
	<g>
		<g>
			<path fill="#333333" d="M136.3,162.5h-34.2c-4.4,0-8,3.6-8,8v34.2c0,4.4,3.6,8,8,8h34.2c4.4,0,8-3.6,8-8v-34.2
				C144.3,166.1,140.7,162.5,136.3,162.5z M128.3,196.7h-18.2v-18.2h18.2V196.7z"/>
		</g>
	</g>
	<g>
		<g>
			<path fill="#333333" d="M67.9,230.9H33.7c-4.4,0-8,3.6-8,8v34.2c0,4.4,3.6,8,8,8h34.2c4.4,0,8-3.6,8-8v-34.2
				C75.9,234.5,72.3,230.9,67.9,230.9z M59.9,265.1H41.7v-18.2h18.2V265.1z"/>
		</g>
	</g>
	<g>
		<g>
			<path fill="#333333" d="M136.3,230.9h-34.2c-4.4,0-8,3.6-8,8v34.2c0,4.4,3.6,8,8,8h34.2c4.4,0,8-3.6,8-8v-34.2
				C144.3,234.5,140.7,230.9,136.3,230.9z M128.3,265.1h-18.2v-18.2h18.2V265.1z"/>
		</g>
	</g>
	<g>
		<g>
			<path fill="#333333" d="M204.7,162.5h-34.2c-4.4,0-8,3.6-8,8v102.6c0,4.4,3.6,8,8,8h34.2c4.4,0,8-3.6,8-8V170.5
				C212.7,166.1,209.1,162.5,204.7,162.5z M196.7,265.1h-18.2v-86.6h18.2V265.1z"/>
		</g>
	</g>
	<g>
		<g>
			<path fill="#333333" d="M475.3,189l-43.7-41.5c-3.2-3.1-8.3-2.9-11.3,0.3c-3,3.2-2.9,8.3,0.3,11.3l37.7,35.8l-6.7,6.7L336.4,86.4
				c-1.1-1.1-2.5-1.9-4.1-2.2l-29.7-5.9l-14.3-15.8c-3-3.3-8-3.5-11.3-0.6c-3.3,3-3.5,8-0.6,11.3c0,0,16.5,18,17,18.4l5.2,26.2
				c0.3,1.6,1.1,3,2.2,4.1l127.7,127.7c4.7,4.7,10.8,7,17,7c6.2,0,12.3-2.3,17-7c0,0,0,0,0,0l1.5-1.5c9.4-9.4,9.4-24.6,0-34L463,213
				l12.5-12.5C478.6,197.4,478.5,192.1,475.3,189z M313.9,112.3l-3.2-16.1l16.1,3.2l77.3,77.3l-12.8,12.8L313.9,112.3z M452.8,236.8
				l-1.5,1.5c-3.1,3.1-8.2,3.1-11.3,0l-37.4-37.4l12.8-12.8l37.4,37.4C455.9,228.6,455.9,233.7,452.8,236.8z"/>
		</g>
	</g>
</g>
</svg>
