<?xml version="1.0" encoding="utf-8"?>
<!-- Generator: Adobe Illustrator 18.0.0, SVG Export Plug-In . SVG Version: 6.00 Build 0)  -->
<!DOCTYPE svg PUBLIC "-//W3C//DTD SVG 1.1//EN" "http://www.w3.org/Graphics/SVG/1.1/DTD/svg11.dtd">
<svg version="1.1" id="Layer_1" xmlns="http://www.w3.org/2000/svg" xmlns:xlink="http://www.w3.org/1999/xlink" x="0px" y="0px"
	 viewBox="0 0 612 792" enable-background="new 0 0 612 792" xml:space="preserve">
<path fill="#FD8A06" d="M215.9,233.1c7-9.7,11.1-21.6,11.1-34.5c0-32.7-26.5-59.2-59.2-59.2s-59.2,26.5-59.2,59.2
	c0,12.9,4.2,24.7,11.1,34.5L88.8,356.5l29.6-19.7l19.7,39.5l21-119.1c2.8,0.4,5.7,0.7,8.6,0.7s5.8-0.3,8.6-0.7l21,119.1l19.7-39.5
	l29.6,19.7L215.9,233.1z"/>
<g>
	<path fill="#333333" d="M167.8,267.7c38.1,0,69.1-31,69.1-69.1s-31-69.1-69.1-69.1s-69.1,31-69.1,69.1S129.7,267.7,167.8,267.7z
		 M167.8,149.2c27.2,0,49.4,22.1,49.4,49.4s-22.1,49.4-49.4,49.4s-49.4-22.1-49.4-49.4S140.6,149.2,167.8,149.2z"/>
	<path fill="#333333" d="M582.4,247.9c-7.6,0-14.5,3-19.7,7.7c-5.3-4.7-12.1-7.7-19.7-7.7H434.3V214L310.1,90H0v612h434.3V366.4
		h19.7V702h59.2V366.4h29.6c7.6,0,14.5-3,19.7-7.7c5.3,4.7,12.1,7.7,19.7,7.7c16.3,0,29.6-13.3,29.6-29.6v-59.2
		C612,261.2,598.7,247.9,582.4,247.9z M315.9,123.7l84.9,84.8h-84.9V123.7z M19.7,682.3V109.7h276.4v118.5h118.5v21.6
		c-3.7,1.3-7,3.3-9.9,5.9c-5.3-4.7-12.1-7.7-19.7-7.7c-16.3,0-29.6,13.3-29.6,29.6v59.2c0,16.3,13.3,29.6,29.6,29.6
		c7.6,0,14.5-3,19.7-7.7c2.9,2.6,6.2,4.6,9.9,5.9v317.7H19.7z M394.8,336.8c0,5.4-4.4,9.9-9.9,9.9s-9.9-4.4-9.9-9.9v-59.2
		c0-5.4,4.4-9.9,9.9-9.9s9.9,4.4,9.9,9.9V336.8z M493.5,682.3h-19.7V366.4h19.7V682.3z M542.9,346.6h-29.6h-59.2h-29.6
		c-5.4,0-9.9-4.4-9.9-9.9v-59.2c0-5.4,4.4-9.9,9.9-9.9h118.5c5.4,0,9.9,4.4,9.9,9.9v59.2C552.8,342.2,548.4,346.6,542.9,346.6z
		 M592.3,336.8c0,5.4-4.4,9.9-9.9,9.9c-5.4,0-9.9-4.4-9.9-9.9v-59.2c0-5.4,4.4-9.9,9.9-9.9c5.4,0,9.9,4.4,9.9,9.9V336.8z"/>
	<rect x="49.4" y="435.5" fill="#333333" width="335.6" height="19.7"/>
	<rect x="49.4" y="484.8" fill="#333333" width="335.6" height="19.7"/>
	<rect x="49.4" y="534.2" fill="#333333" width="335.6" height="19.7"/>
	<rect x="49.4" y="583.5" fill="#333333" width="335.6" height="19.7"/>
	<rect x="49.4" y="632.9" fill="#333333" width="335.6" height="19.7"/>
</g>
</svg>
