<?xml version="1.0" encoding="utf-8"?>
<!-- Generator: Adobe Illustrator 18.0.0, SVG Export Plug-In . SVG Version: 6.00 Build 0)  -->
<!DOCTYPE svg PUBLIC "-//W3C//DTD SVG 1.1//EN" "http://www.w3.org/Graphics/SVG/1.1/DTD/svg11.dtd">
<svg version="1.1" id="Layer_1" xmlns="http://www.w3.org/2000/svg" xmlns:xlink="http://www.w3.org/1999/xlink" x="0px" y="0px"
	 viewBox="0 0 612 792" enable-background="new 0 0 612 792" xml:space="preserve">
<circle fill="#FD8A06" cx="306" cy="396" r="157.9"/>
<g>
	<path fill="#333333" d="M306,178.8c-119.7,0-217.2,97.4-217.2,217.2S186.3,613.2,306,613.2S523.2,515.7,523.2,396
		S425.7,178.8,306,178.8z M306,593.4c-108.9,0-197.4-88.6-197.4-197.4S197.1,198.6,306,198.6S503.4,287.1,503.4,396
		S414.9,593.4,306,593.4z"/>
	<polygon fill="#333333" points="296.1,386.1 167.8,386.1 167.8,405.9 315.9,405.9 315.9,257.8 296.1,257.8 	"/>
	<circle fill="#333333" cx="306" cy="228.2" r="9.9"/>
	<circle fill="#333333" cx="306" cy="563.8" r="9.9"/>
	<circle fill="#333333" cx="473.8" cy="396" r="9.9"/>
	<circle fill="#333333" cx="138.2" cy="396" r="9.9"/>
	<path fill="#333333" d="M69.8,510.8l-11.4,28.5C33.1,495.8,19.7,446.7,19.7,396c0-157.8,128.4-286.3,286.3-286.3
		c65.3,0,129.2,22.6,179.9,63.6l12.4-15.3C444.1,114.2,375.8,90,306,90C137.3,90,0,227.3,0,396c0,54.6,14.5,107.5,42,154.3l-30.2-6
		l-3.9,19.3l57.4,11.5l22.8-57L69.8,510.8z"/>
	<circle fill="#333333" cx="88.8" cy="593.4" r="9.9"/>
	<path fill="#333333" d="M570,241.7l30.2,6l3.9-19.4l-57.4-11.5l-22.8,57l18.3,7.3l11.4-28.5c25.3,43.5,38.6,92.7,38.6,143.3
		c0,157.8-128.4,286.3-286.3,286.3c-65.3,0-129.2-22.6-179.9-63.6L113.7,634c54.2,43.9,122.5,68,192.3,68c168.7,0,306-137.3,306-306
		C612,341.4,597.5,288.5,570,241.7z"/>
	<circle fill="#333333" cx="523.2" cy="198.6" r="9.9"/>
</g>
</svg>
