<?xml version="1.0" encoding="iso-8859-1"?>
<!-- Generator: Adobe Illustrator 16.0.0, SVG Export Plug-In . SVG Version: 6.00 Build 0)  -->
<!DOCTYPE svg PUBLIC "-//W3C//DTD SVG 1.1//EN" "http://www.w3.org/Graphics/SVG/1.1/DTD/svg11.dtd">
<svg xmlns="http://www.w3.org/2000/svg" xmlns:xlink="http://www.w3.org/1999/xlink" version="1.1" id="Capa_1" x="0px" y="0px" width="512px" height="512px" viewBox="0 0 203.842 203.842" style="enable-background:new 0 0 203.842 203.842;" xml:space="preserve">
<g>
	<g>
		<path d="M164.975,143.28c0.155,0.025,4.422,0.115,6.578,0.115c16.537,0,29.99-11.539,29.99-25.722    c0-14.184-13.453-25.722-29.99-25.722c-1.842,0-3.609,0.013-5.294,0.036v-5.198c0-1.864-1.381-3.376-3.245-3.376    c-2.027,0-110.6,0-138.277,0c-1.864,0-3.326,1.38-3.326,3.244v44.323c0,22.358,11.213,37.662,32.822,45.345    c-3.129,1.456-5.309,4.621-5.309,8.294c0,0.83,0.121,1.634,0.33,2.399H15.718c-7.524,0-13.419,4.337-13.419,9.874v3.575    c0,1.864,1.511,3.375,3.375,3.375h176.4c1.863,0,3.375-1.511,3.375-3.375v-3.575c0-5.537-5.895-9.874-13.42-9.874h-33.614    c0.209-0.766,0.33-1.568,0.33-2.399c0-3.673-2.181-6.839-5.31-8.294C150.82,170.145,161.473,159.03,164.975,143.28z     M171.553,98.702c12.814,0,23.24,8.511,23.24,18.972s-10.426,18.972-23.24,18.972c-1.953,0-3.814-0.02-5.546-0.057    c0.165-1.818,0.252-3.686,0.252-5.607v-19.7c1.386-0.016,4.675-0.024,5.753-0.024c4.532,0,8.219,2.853,8.219,6.358    c0,2.34-1.756,4.558-4.474,5.651c-1.729,0.696-2.565,2.662-1.87,4.391c0.53,1.316,1.795,2.115,3.133,2.115    c0.42,0,0.846-0.079,1.258-0.245c5.287-2.128,8.701-6.805,8.701-11.913c0-7.228-6.715-13.108-14.968-13.108    c-0.967,0-4.221,0.008-5.753,0.024v-5.792C167.939,98.715,169.708,98.702,171.553,98.702z M123.918,187.019    c-1.864,0-3.375,1.511-3.375,3.375s1.511,3.375,3.375,3.375h48.113c4.009,0,6.668,1.88,6.668,3.124v0.2H9.049v-0.2    c0-1.243,2.66-3.124,6.669-3.124h83.9c1.864,0,3.375-1.511,3.375-3.375s-1.51-3.375-3.375-3.375H58.075    c-1.324,0-2.4-1.077-2.4-2.399c0-1.323,1.077-2.4,2.4-2.4h71.521c1.324,0,2.4,1.077,2.4,2.4c0,1.322-1.077,2.399-2.4,2.399    H123.918z M93.835,175.312c-43.578,0-65.674-14.915-65.674-44.332V89.882c0,0,127.092-0.016,131.37,0l-0.022,41.098    C159.509,160.397,137.413,175.312,93.835,175.312z" fill="#333333"/>
		<path d="M69.686,66.493c-1.012,1.565-0.564,3.655,1.002,4.667c0.566,0.366,1.201,0.541,1.829,0.541    c1.107,0,2.192-0.544,2.837-1.543c0.541-0.837,13.119-20.673,1.322-35.715c-8.209-10.465,3.419-24.714,3.537-24.857    c1.191-1.43,1-3.555-0.428-4.749c-1.43-1.196-3.558-1.006-4.754,0.424c-0.154,0.184-3.8,4.583-6.13,10.72    c-3.261,8.592-2.41,16.417,2.463,22.629C80.181,49.848,69.789,66.332,69.686,66.493z" fill="#333333"/>
		<path d="M117.13,66.493c-1.013,1.565-0.563,3.655,1.002,4.667c0.565,0.366,1.202,0.541,1.829,0.541    c1.107,0,2.191-0.544,2.837-1.543c0.541-0.837,13.119-20.673,1.321-35.715c-8.192-10.444,3.371-24.657,3.537-24.856    c1.191-1.43,1-3.556-0.428-4.75c-1.43-1.196-3.558-1.006-4.754,0.424c-0.154,0.184-3.8,4.583-6.13,10.72    c-3.261,8.592-2.409,16.417,2.464,22.629C127.625,49.848,117.232,66.332,117.13,66.493z" fill="#333333"/>
		<path d="M92.708,70.236c-1.181,1.442-0.969,3.569,0.472,4.75c0.628,0.514,1.384,0.764,2.137,0.764    c0.977,0,1.946-0.422,2.613-1.236c0.176-0.215,4.344-5.357,6.65-12.785c3.152-10.152,1.365-19.675-5.165-27.54    c-9.532-11.479,3.483-28.505,3.661-28.735c1.148-1.467,0.891-3.586-0.575-4.735c-1.467-1.149-3.588-0.893-4.738,0.574    c-0.683,0.871-16.572,21.514-3.54,37.209C106.341,53.095,93.266,69.549,92.708,70.236z" fill="#333333"/>
	</g>
</g>
<g>
</g>
<g>
</g>
<g>
</g>
<g>
</g>
<g>
</g>
<g>
</g>
<g>
</g>
<g>
</g>
<g>
</g>
<g>
</g>
<g>
</g>
<g>
</g>
<g>
</g>
<g>
</g>
<g>
</g>
</svg>
