<?xml version="1.0" encoding="utf-8"?>
<!-- Generator: Adobe Illustrator 18.0.0, SVG Export Plug-In . SVG Version: 6.00 Build 0)  -->
<!DOCTYPE svg PUBLIC "-//W3C//DTD SVG 1.1//EN" "http://www.w3.org/Graphics/SVG/1.1/DTD/svg11.dtd">
<svg version="1.1" id="Layer_1" xmlns="http://www.w3.org/2000/svg" xmlns:xlink="http://www.w3.org/1999/xlink" x="0px" y="0px"
	 viewBox="0 0 612 792" enable-background="new 0 0 612 792" xml:space="preserve">
<g>
	<rect x="79.2" y="337.2" fill="#FD8A06" width="404.2" height="19.7"/>
	<rect x="79.2" y="386.5" fill="#FD8A06" width="404.2" height="19.7"/>
	<rect x="79.2" y="435.8" fill="#FD8A06" width="404.2" height="19.7"/>
	<rect x="463.8" y="485.1" fill="#FD8A06" width="19.7" height="19.7"/>
	<rect x="414.5" y="485.1" fill="#FD8A06" width="19.7" height="19.7"/>
	<rect x="365.2" y="485.1" fill="#FD8A06" width="19.7" height="19.7"/>
</g>
<g>
	<path fill="#333333" d="M532.8,199.2v-49.3H334.6l0.5-3.7c1.8-13.2-1.8-26.3-9.9-36.8S305.3,92,292.1,90.4
		c-26.9-3.4-51.7,15.8-55.3,42.7l-2.2,16.8H29.9v502.8h49.3V702h502.8V199.2H532.8z M256.3,135.7c2.2-16.2,17.1-27.8,33.3-25.7
		c8,1,15,5,19.9,11.4s7,14.2,6,22.2l-0.8,6.3h-29.8l1.3-8.4c0.8-5.4-2.9-10.4-8.3-11.2c-5.4-0.7-10.4,2.9-11.2,8.3l-1.7,11.3h-10.5
		L256.3,135.7z M49.7,169.6h182.3l-4.3,32.6c-1.8,13.2,1.8,26.3,9.9,36.8c8.1,10.5,19.9,17.3,33.1,18.9c2.1,0.3,4.1,0.4,6.2,0.4
		c24.5,0,45.9-18.2,49.2-43.1c0.7-5.4-3.1-10.4-8.5-11.1c-5.4-0.7-10.4,3.1-11.1,8.5c-2.2,16.2-17.1,27.7-33.3,25.7
		c-8-1-15.1-5.1-20-11.4c-4.9-6.4-7-14.2-6-22.2l4.7-35.2h261.2V633H49.7L49.7,169.6L49.7,169.6z M562.3,682.3H98.9v-29.6h433.8
		V218.9h29.6V682.3z"/>
	<rect x="79.2" y="317.5" fill="#333333" width="404.2" height="19.7"/>
	<rect x="79.2" y="366.8" fill="#333333" width="404.2" height="19.7"/>
	<rect x="79.2" y="416.1" fill="#333333" width="404.2" height="19.7"/>
	<rect x="463.8" y="465.4" fill="#333333" width="19.7" height="19.7"/>
	<rect x="414.5" y="465.4" fill="#333333" width="19.7" height="19.7"/>
	<rect x="365.2" y="465.4" fill="#333333" width="19.7" height="19.7"/>
</g>
</svg>
