<?xml version="1.0" encoding="utf-8"?>
<!-- Generator: Adobe Illustrator 18.0.0, SVG Export Plug-In . SVG Version: 6.00 Build 0)  -->
<!DOCTYPE svg PUBLIC "-//W3C//DTD SVG 1.1//EN" "http://www.w3.org/Graphics/SVG/1.1/DTD/svg11.dtd">
<svg version="1.1" id="Layer_1" xmlns="http://www.w3.org/2000/svg" xmlns:xlink="http://www.w3.org/1999/xlink" x="0px" y="0px"
	 viewBox="0 0 612 792" enable-background="new 0 0 612 792" xml:space="preserve">
<g>
	<rect x="49.4" y="247.9" fill="#FD8A06" width="404.7" height="19.7"/>
	<rect x="49.4" y="297.3" fill="#FD8A06" width="404.7" height="19.7"/>
	<rect x="49.4" y="346.6" fill="#FD8A06" width="404.7" height="19.7"/>
	<rect x="49.4" y="396" fill="#FD8A06" width="404.7" height="19.7"/>
	<path fill="#FD8A06" d="M284.5,624.8l9.5-66.6l41.6-24l39.5,39.5l-24,41.6L284.5,624.8z"/>
</g>
<g>
	<polygon fill="#333333" points="324.3,571 282.2,613.2 69.1,613.2 69.1,632.9 296.1,632.9 296.1,627.1 338.3,585 	"/>
	<path fill="#333333" d="M595.6,355.8l11.2-11.2c6.9-6.9,6.9-18.3,0-25.2l-16.9-16.9c-6.9-7-18.3-6.9-25.2,0l-61.3,61.3v-185h79
		v-34.5c0-29.9-24.4-54.3-54.3-54.3H54.3C24.4,90,0,114.4,0,144.3V169v533h503.4V447.9l78.2-78.2l3.6,3.6c3.4,3.4,5.3,8,5.3,12.8
		c0,4.8-1.9,9.4-5.3,12.8l-49.3,49.3l14,14l49.3-49.3c14.8-14.8,14.8-38.8,0-53.6L595.6,355.8z M577.3,317.8l14.2,14.2l-9.8,9.8
		l-14.2-14.2L577.3,317.8z M562.7,144.3v14.8H108.6v-14.8c0-13.1-4.7-25.2-12.4-34.5h432C547.2,109.7,562.7,125.2,562.7,144.3z
		 M483.7,682.3H19.8V169v-24.7c0-19.1,15.5-34.5,34.5-34.5s34.5,15.5,34.5,34.5v14.8v9.9v9.9h394.8v204.7L331.4,535.8l42.1,42.1
		l110.2-110.2V682.3z M373.5,521.7l14.2,14.2L373.5,550l-14.2-14.2L373.5,521.7z M401.6,521.9l-14.2-14.2l166.1-166.1l14.2,14.2
		L401.6,521.9z"/>
	<rect x="49.4" y="228.2" fill="#333333" width="404.7" height="19.7"/>
	<rect x="49.4" y="277.5" fill="#333333" width="404.7" height="19.7"/>
	<rect x="49.4" y="326.9" fill="#333333" width="404.7" height="19.7"/>
	<rect x="49.4" y="376.3" fill="#333333" width="404.7" height="19.7"/>
</g>
</svg>
