<?xml version="1.0" encoding="utf-8"?>
<!-- Generator: Adobe Illustrator 18.0.0, SVG Export Plug-In . SVG Version: 6.00 Build 0)  -->
<!DOCTYPE svg PUBLIC "-//W3C//DTD SVG 1.1//EN" "http://www.w3.org/Graphics/SVG/1.1/DTD/svg11.dtd">
<svg version="1.1" id="Layer_1" xmlns="http://www.w3.org/2000/svg" xmlns:xlink="http://www.w3.org/1999/xlink" x="0px" y="0px"
	 viewBox="0 0 612 792" enable-background="new 0 0 612 792" xml:space="preserve">
<rect x="118.6" y="455.4" fill="#FD8A06" width="355.1" height="177.5"/>
<g>
	<rect x="552.6" y="455.4" fill="#333333" width="19.7" height="78.9"/>
	<rect x="158.1" y="494.9" fill="#333333" width="276.2" height="19.7"/>
	<rect x="158.1" y="534.3" fill="#333333" width="276.2" height="19.7"/>
	<rect x="414.5" y="573.8" fill="#333333" width="19.7" height="19.7"/>
	<rect x="158.1" y="573.8" fill="#333333" width="236.7" height="19.7"/>
	<path fill="#333333" d="M562.4,287.8h-88.8v-76l101.4-32.4L296.1,90L17.2,179.3l42.2,13.5V268h19.7v-68.9l39.5,12.6v76h-69
		c-27.2,0-49.3,22.1-49.3,49.3v315.6c0,27.2,22.1,49.3,49.3,49.3h512.9c27.2,0,49.3-22.1,49.3-49.3V337.1
		C611.8,309.9,589.6,287.8,562.4,287.8z M296.1,110.7l214.2,68.5l-214.2,68.5L81.9,179.3L296.1,110.7z M296.1,268.5L453.9,218v138.8
		h-19.7v19.7h19.7v19.7H138.3v-19.7h276.2v-19.7H138.3V218L296.1,268.5z M473.7,416V307.5h39.5v374.8h-434V307.5h39.5V416H473.7z
		 M20,652.7V337.1c0-16.3,13.3-29.6,29.6-29.6h9.9v374.8h-9.9C33.2,682.3,20,669,20,652.7z M592,652.7c0,16.3-13.3,29.6-29.6,29.6
		h-29.6V307.5h29.6c16.3,0,29.6,13.3,29.6,29.6V652.7z"/>
</g>
</svg>
