<?xml version="1.0" encoding="utf-8"?>
<!-- Generator: Adobe Illustrator 18.0.0, SVG Export Plug-In . SVG Version: 6.00 Build 0)  -->
<!DOCTYPE svg PUBLIC "-//W3C//DTD SVG 1.1//EN" "http://www.w3.org/Graphics/SVG/1.1/DTD/svg11.dtd">
<svg version="1.1" xmlns="http://www.w3.org/2000/svg" xmlns:xlink="http://www.w3.org/1999/xlink" x="0px" y="0px"
	 viewBox="0 0 612 792" enable-background="new 0 0 612 792" xml:space="preserve">
<g id="Layer_2">
	<circle fill="#FD8A06" stroke="#000000" stroke-miterlimit="10" cx="306" cy="385.8" r="70"/>
</g>
<g id="Layer_1">
	<g>
		<g>
			<g>
				<path d="M143.8,337.9l7.8,6.5c0.6,0.5,55.7,47.6,55.7,150.4v59.7c-22.2,2.5-39.5,21.1-39.5,43.9s17.3,41.4,39.5,43.9V702h197.4
					v-59.7c22.2-2.5,39.5-21.1,39.5-43.9s-17.3-41.4-39.5-43.9v-59.7c0-102.2,55.1-149.9,55.7-150.4l7.8-6.5L306,154.1L143.8,337.9z
					 M335.6,386.1c0,16.3-13.3,29.6-29.6,29.6s-29.6-13.3-29.6-29.6s13.3-29.6,29.6-29.6S335.6,369.8,335.6,386.1z M385,682.3H227
					v-39.5H385V682.3z M424.5,598.4c0,13.6-11.1,24.7-24.7,24.7H212.2c-13.6,0-24.7-11.1-24.7-24.7s11.1-24.7,24.7-24.7h187.5
					C413.4,573.7,424.5,584.8,424.5,598.4z M315.9,195.1l124.6,141.2c-16.6,17.6-55.5,68.5-55.5,158.4v59.2H227v-59.2
					c0-89.9-38.9-140.8-55.5-158.4l124.6-141.2v142.7c-22.5,4.6-39.5,24.5-39.5,48.4c0,27.2,22.1,49.4,49.4,49.4
					s49.4-22.1,49.4-49.4c0-23.8-17-43.8-39.5-48.4V195.1z"/>
				<path d="M612,149.2V90h-59.2v19.7H59.2V90H0v59.2h59.2v-19.7h142.5C98.2,170.1,24,269.3,20,386.1H0v59.2h59.2v-59.2H39.7
					C45,243.7,162.4,129.5,306,129.5s261,114.2,266.3,256.6h-19.5v59.2H612v-59.2h-20c-4-116.8-78.2-216-181.8-256.6h142.5v19.7H612
					z M572.5,109.7h19.7v19.7h-19.7V109.7z M39.5,129.5H19.7v-19.7h19.7V129.5z M39.5,425.6H19.7v-19.7h19.7V425.6z M572.5,405.9
					h19.7v19.7h-19.7V405.9z"/>
			</g>
		</g>
	</g>
</g>
</svg>
