<?xml version="1.0" encoding="utf-8"?>
<!-- Generator: Adobe Illustrator 18.0.0, SVG Export Plug-In . SVG Version: 6.00 Build 0)  -->
<!DOCTYPE svg PUBLIC "-//W3C//DTD SVG 1.1//EN" "http://www.w3.org/Graphics/SVG/1.1/DTD/svg11.dtd">
<svg version="1.1" id="Layer_1" xmlns="http://www.w3.org/2000/svg" xmlns:xlink="http://www.w3.org/1999/xlink" x="0px" y="0px"
	 viewBox="0 0 612 792" enable-background="new 0 0 612 792" xml:space="preserve">
<g>
	<g>
		<circle fill="#FD8A06" cx="345.3" cy="356.3" r="137.7"/>
		<path fill="#333333" d="M549.7,130.1c-69.1,0-136.6-13-200.7-38.6l-3.7-1.5l-3.6,1.5c-64.1,25.6-131.6,38.6-200.7,38.6h-21.9
			v206.6H69.9c-16.3,0-29.5,13.2-29.5,29.5v167.2c0,16.3,13.2,29.5,29.5,29.5h88.5c0,0,0,0,0,0c23.2,36.9,55.4,67.4,93.8,88.3
			l93,50.7l93-50.7c82.2-44.8,133.2-130.8,133.2-224.4V130.1H549.7z M60.1,533.4V366.2c0-5.4,4.4-9.8,9.8-9.8h88.5
			c5.4,0,9.8,4.4,9.8,9.8v167.2c0,5.4-4.4,9.8-9.8,9.8H69.9C64.5,543.2,60.1,538.8,60.1,533.4z M188,385.8c32.8-1.8,59-29.1,59-62.3
			v-50.7c0-13.6,11-24.6,24.6-24.6c13.6,0,24.6,11,24.6,24.6v61.9c0,17.4,14.1,31.5,31.5,31.5h72.1c18.8,0,34.1,15.3,34.1,34.1
			v108.9c0,18.8-15.3,34.1-34.1,34.1H254.9c-7.8,0-15.1-3.9-19.4-10.4c-8-12-21.4-19.1-35.8-19.1H188L188,385.8L188,385.8z
			 M551.9,426.9c0,86.4-47.1,165.8-122.9,207.1l-83.6,45.6L261.7,634c-34.2-18.7-63.1-45.6-84.4-78.1c6-5,9.9-12.3,10.4-20.6
			c19.8,34.2,48.4,62.3,83.4,81.4l74.2,40.5l74.2-40.5c69.5-37.9,112.7-110.7,112.7-189.8V277.7h-19.7v149.2
			c0,72-39.2,138.1-102.4,172.6l-64.8,35.3l-64.8-35.3c-27.7-15.1-51-36.5-68.5-62.3c2.7,1.7,5.2,3.9,7.1,6.7
			c8,12,21.4,19.1,35.8,19.1h144.9c29.6,0,53.7-24.1,53.7-53.7V400.2c0-29.6-24.1-53.7-53.7-53.7h-72.1c-6.5,0-11.9-5.3-11.9-11.9
			v-61.9c0-24.4-19.9-44.3-44.3-44.3c-24.4,0-44.3,19.9-44.3,44.3v50.7c0,22.4-17.4,40.7-39.4,42.4c-0.1-8.5-3.9-16.2-9.8-21.5V188
			c57.1-3.5,113.3-15.2,167.2-34.8c53.9,19.6,110.1,31.3,167.2,34.8v11h19.7v-29.7l-9.4-0.4c-59.6-2.7-118.1-14.6-174.1-35.3
			l-3.4-1.3l-3.4,1.3c-56,20.7-114.6,32.6-174.1,35.3l-9.4,0.4v167.4h-19.7V149.8h2.3c70.3,0,139-13,204.3-38.6
			c65.3,25.6,134.1,38.6,204.3,38.6h2.3L551.9,426.9L551.9,426.9L551.9,426.9z"/>
		<rect x="512.6" y="238.3" fill="#333333" width="19.7" height="19.7"/>
		<rect x="79.8" y="503.9" fill="#333333" width="68.9" height="19.7"/>
	</g>
</g>
</svg>
