<?xml version="1.0" encoding="utf-8"?>
<!-- Generator: Adobe Illustrator 18.0.0, SVG Export Plug-In . SVG Version: 6.00 Build 0)  -->
<!DOCTYPE svg PUBLIC "-//W3C//DTD SVG 1.1//EN" "http://www.w3.org/Graphics/SVG/1.1/DTD/svg11.dtd">
<svg version="1.1" id="Layer_1" xmlns="http://www.w3.org/2000/svg" xmlns:xlink="http://www.w3.org/1999/xlink" x="0px" y="0px"
	 viewBox="0 0 612 792" enable-background="new 0 0 612 792" xml:space="preserve">
<path fill="#FD8A06" d="M612,297.3v-79h-45.8c-2.1-6.5-4.7-12.8-7.8-18.8l32.4-32.4l-55.8-55.8l-32.4,32.4c-6-3.1-12.3-5.7-18.8-7.8
	V90h-79v45.8c-6.5,2.1-12.8,4.7-18.8,7.8l-32.4-32.4l-55.8,55.8l32.4,32.4c-3.1,6-5.7,12.3-7.8,18.8h-45.8v79h45.8
	c2.1,6.5,4.7,12.8,7.8,18.8l-32.4,32.4l55.8,55.8l32.4-32.4c6.1,3.1,12.4,5.7,18.9,7.8v45.8h79v-45.8c6.5-2.1,12.8-4.7,18.9-7.8
	l32.4,32.4l55.8-55.8l-32.4-32.4c3.1-6,5.7-12.3,7.8-18.8H612z M444.2,326.9c-7.1,0-14-1.1-20.5-3.1c-11.4-18.5-27-34.1-45.5-45.5
	c-2-6.5-3.1-13.4-3.1-20.5c0-38.2,30.9-69.1,69.1-69.1s69.1,30.9,69.1,69.1S482.4,326.9,444.2,326.9z"/>
<path fill="#333333" d="M523.2,257.8c0-43.5-35.4-79-79-79s-79,35.4-79,79c0,0.9,0.2,1.8,0.2,2.7c-18.2-8-38.3-12.5-59.4-12.5
	c-58.5,0-112.1,35.5-135.5,88.8h-42.2H59.2h-9.9C22.1,336.8,0,358.9,0,386.1s22.1,49.4,49.4,49.4h9.9h69.1h35.3
	c8.7,31.5,27.4,59.2,53.5,78.9v20.3c-16.7,2.4-29.6,16.7-29.6,34c0,12.4,6.6,23.2,16.4,29.3c-4.1,5.7-6.5,12.6-6.5,20.1
	c0,12.4,6.6,23.2,16.4,29.3c-4.1,5.7-6.5,12.6-6.5,20.1c0,19.1,15.5,34.5,34.5,34.5h128.3c19.1,0,34.5-15.5,34.5-34.5
	c0-7.5-2.5-14.4-6.5-20.1c9.8-6.1,16.4-16.9,16.4-29.3c0-7.5-2.5-14.4-6.5-20.1c9.8-6.1,16.4-16.9,16.4-29.3
	c0-17.4-12.9-31.6-29.6-34v-20.3c37.2-27.9,59.2-71.8,59.2-118.4c0-21.1-4.5-41.2-12.5-59.4c0.9,0,1.8,0.2,2.7,0.2
	C487.7,336.8,523.2,301.3,523.2,257.8z M162.7,356.5h94v19.7H128.3v-19.7H162.7z M49.4,415.7c-16.3,0-29.6-13.3-29.6-29.6
	s13.3-29.6,29.6-29.6h9.9v59.2H49.4z M79,415.7v-59.2h29.6v59.2H79z M128.3,415.7V396h128.3v19.7h-97.7H128.3z M380,632.9h-9.9
	H241.8H232c-8.2,0-14.8-6.6-14.8-14.8c0-8.2,6.6-14.8,14.8-14.8H380c8.2,0,14.8,6.6,14.8,14.8C394.8,626.3,388.2,632.9,380,632.9z
	 M370.2,682.3H241.8c-8.2,0-14.8-6.6-14.8-14.8c0-8.2,6.6-14.8,14.8-14.8h128.3c8.2,0,14.8,6.6,14.8,14.8
	C385,675.6,378.3,682.3,370.2,682.3z M404.7,568.7c0,8.2-6.6,14.8-14.8,14.8H380H232h-9.9c-8.2,0-14.8-6.6-14.8-14.8
	s6.6-14.8,14.8-14.8h167.8C398.1,553.9,404.7,560.6,404.7,568.7z M379.3,501.2l-4.2,3v30H236.9v-30l-4.2-3
	c-23.1-16.1-40-39.2-48.6-65.7h92.3v-98.7h-84.1c21.9-41.9,65.9-69.1,113.7-69.1c24.8,0,48,7.2,67.6,19.5
	c16.6,10.4,30.9,24.6,41.2,41.2c12.3,19.7,19.5,42.8,19.5,67.6C434.3,437.8,413.8,477.2,379.3,501.2z M386.7,272
	c-1.1-4.6-1.7-9.4-1.7-14.2c0-32.7,26.6-59.2,59.2-59.2s59.2,26.6,59.2,59.2S476.9,317,444.2,317c-4.8,0-9.6-0.6-14.2-1.7
	C418.7,298.1,403.9,283.3,386.7,272z"/>
</svg>
