<?xml version="1.0" encoding="utf-8"?>
<!-- Generator: Adobe Illustrator 18.0.0, SVG Export Plug-In . SVG Version: 6.00 Build 0)  -->
<!DOCTYPE svg PUBLIC "-//W3C//DTD SVG 1.1//EN" "http://www.w3.org/Graphics/SVG/1.1/DTD/svg11.dtd">
<svg version="1.1" id="Layer_1" xmlns="http://www.w3.org/2000/svg" xmlns:xlink="http://www.w3.org/1999/xlink" x="0px" y="0px"
	 viewBox="0 220 612 351.3" enable-background="new 0 220 612 351.3" xml:space="preserve">
<g id="Layer_2" display="none">
	<rect x="-308.3" y="20.9" display="inline" fill="#F1F2F2" width="1229.5" height="1229.5"/>
</g>
<g id="banner">
	<rect x="-205.8" y="635.7" display="none" fill="#E4E5E7" width="1024.6" height="569.3"/>
	<rect x="-205.8" y="66.5" display="none" fill="#FFFFFF" width="1024.6" height="569.3"/>
	<g>
		<g>
			<path fill="#414042" d="M214,693.8l-3.6-13.2l-3.6,13.2h-5l-6.3-19.2h5.2l3.8,14l3.7-14h4.7l3.8,14l3.7-14h5l-6.4,19.2H214z"/>
			<path fill="#414042" d="M233.3,678.5v3.8h9.1v3.8h-9.1v3.9h10.5v3.8h-15.3v-19.2h15v3.8h-10.1V678.5z"/>
			<path fill="#414042" d="M257.3,674.6c4.3,0,7.1,1.8,7.1,4.8c0,2-1.2,3.6-3.3,4.2c2.4,0.5,3.9,2.4,3.9,4.8c0,3.3-2.9,5.3-7.4,5.3
				h-9.3v-19.2H257.3L257.3,674.6z M253.1,682.3h3.9c1.4,0,2.4-0.7,2.4-1.9c0-1.2-0.9-1.9-2.4-1.9h-3.9V682.3z M253.1,690.1h3.9
				c1.8,0,3-0.8,3-2.2c0-1.3-1.1-2-3-2h-3.9V690.1z"/>
			<path fill="#414042" d="M289.7,693.8v-7.5h-7.9v7.5H277v-19.2h4.8v7.9h7.9v-7.9h4.8v19.2H289.7z"/>
			<path fill="#414042" d="M319.2,684.2c0,5.5-4.4,9.8-10.3,9.8s-10.3-4.2-10.3-9.8c0-5.5,4.4-9.7,10.3-9.7
				C314.8,674.5,319.2,678.6,319.2,684.2z M303.4,684.3c0,3.2,2.5,5.7,5.4,5.7c3,0,5.3-2.5,5.3-5.7c0-3.2-2.4-5.6-5.3-5.6
				C305.8,678.5,303.4,681,303.4,684.3z"/>
			<path fill="#414042" d="M337.9,676.6l-1.8,3.8c-2-1.1-4.6-1.9-6.1-1.9c-1.2,0-2.2,0.5-2.2,1.4c0,3.3,10.1,1.4,10.1,8.3
				c0,3.8-3.4,5.8-7.7,5.8c-3.2,0-6.5-1.2-8.7-3.1l1.8-3.8c1.9,1.7,4.9,2.9,6.9,2.9c1.5,0,2.5-0.6,2.5-1.6c0-3.4-10.1-1.3-10.1-8.1
				c0-3.5,3.1-5.7,7.6-5.7C333.2,674.4,336,675.3,337.9,676.6z"/>
			<path fill="#414042" d="M350.9,678.5v15.3h-4.8v-15.3h-5.7v-3.9h16.3v3.9H350.9z"/>
			<path fill="#414042" d="M360,693.8v-19.2h4.8v19.2H360z"/>
			<path fill="#414042" d="M383.5,693.8l-8.8-11.8v11.8h-4.6v-19.2h4.3l8.8,11.8v-11.8h4.5v19.2H383.5z"/>
			<path fill="#414042" d="M409.9,684.1v7.5c-2,1.4-5.2,2.5-8,2.5c-5.8,0-10.2-4.2-10.2-9.7s4.5-9.7,10.6-9.7c2.9,0,5.8,1.1,7.8,2.9
				l-2.8,3.3c-1.4-1.3-3.4-2-5.1-2c-3.2,0-5.5,2.5-5.5,5.6c0,3.3,2.5,5.7,5.6,5.7c1,0,2.3-0.3,3.4-0.9v-5H409.9z"/>
		</g>
	</g>
	<g>
		<g>
			<path fill="#414042" d="M61.9,720.2v0.8h-4.4v-8h0.9v7.1h3.5V720.2z"/>
			<path fill="#414042" d="M69.4,718.1c0,1.8-1.2,3.1-3.1,3.1c-1.7,0-3.1-1.2-3.1-3.1c0-1.7,1.2-3,3.1-3
				C68,715.1,69.4,716.3,69.4,718.1z M64.1,718.2c0,1.3,0.9,2.3,2.2,2.3s2.2-0.9,2.2-2.3c0-1.3-0.9-2.3-2.2-2.3
				S64.1,716.9,64.1,718.2z"/>
			<path fill="#414042" d="M72.3,716.4c0.4-0.9,1.1-1.3,2.2-1.3v0.9c-1.2,0-2,0.7-2.2,1.9v3.2h-0.9v-6h0.9V716.4z"/>
			<path fill="#414042" d="M81.5,718.5h-4.9c0.2,1.1,1,1.9,2.2,1.9c0.7,0,1.4-0.3,1.8-0.7l0.5,0.5c-0.6,0.6-1.4,1-2.5,1
				c-1.7,0-3-1.2-3-3.1c0-1.7,1.2-3.1,3-3.1C80.5,715.1,81.6,716.4,81.5,718.5z M80.6,717.8c-0.1-1.1-0.8-1.8-2-1.8
				c-1.1,0-1.9,0.7-2,1.8H80.6z"/>
			<path fill="#414042" d="M93.4,717.5v3.7h-0.9v-3.5c0-1-0.6-1.7-1.6-1.7c-1.2,0-1.9,0.9-1.9,2.3v3H88v-3.5c0-1-0.6-1.7-1.6-1.7
				c-1.2,0-1.9,0.9-1.9,2.3v3h-0.9v-6h0.9v1.3c0.4-0.9,1.2-1.3,2.3-1.4c1.1,0,1.9,0.6,2.2,1.5c0.4-1,1.2-1.5,2.4-1.5
				C92.6,715.1,93.4,716,93.4,717.5z"/>
			<path fill="#414042" d="M100.7,713.4c0,0.3-0.2,0.6-0.6,0.6c-0.3,0-0.6-0.3-0.6-0.6c0-0.3,0.2-0.6,0.6-0.6
				C100.4,712.8,100.7,713.1,100.7,713.4z M99.7,721.2v-6h0.9v6H99.7z"/>
			<path fill="#414042" d="M109.4,718.2c0,1.7-1.1,3-2.9,3c-1,0-1.8-0.5-2.4-1.3v3.5h-0.9v-8.2h0.9v1.3c0.4-0.8,1.2-1.3,2.4-1.3
				C108.2,715.1,109.4,716.3,109.4,718.2z M108.5,718.1c0-1.3-0.9-2.3-2.2-2.3s-2.2,0.9-2.2,2.3c0,1.3,0.9,2.3,2.2,2.3
				C107.6,720.3,108.5,719.4,108.5,718.1z"/>
			<path fill="#414042" d="M115.1,715.6l-0.3,0.7c-0.5-0.3-1-0.5-1.6-0.5c-0.7,0-1.2,0.2-1.2,0.8c0,1.3,3.4,0.6,3.4,2.8
				c0,1.2-1,1.7-2.2,1.7c-0.8,0-1.7-0.3-2.3-0.8l0.3-0.7c0.5,0.5,1.3,0.7,1.9,0.7c0.7,0,1.2-0.3,1.3-0.8c0-1.4-3.3-0.7-3.3-2.9
				c0-1.1,1-1.6,2-1.6C113.8,715.1,114.6,715.3,115.1,715.6z"/>
			<path fill="#414042" d="M122.4,721.2h-0.9v-1.3c-0.4,0.9-1.2,1.3-2.3,1.4c-1.4,0-2.3-0.9-2.3-2.4v-3.7h0.9v3.5
				c0,1,0.6,1.6,1.6,1.6c1.2,0,1.9-0.9,1.9-2.2v-3h0.9C122.4,715.2,122.4,721.2,122.4,721.2z"/>
			<path fill="#414042" d="M135.1,717.5v3.7h-0.9v-3.5c0-1-0.6-1.7-1.6-1.7c-1.2,0-1.9,0.9-1.9,2.3v3h-0.9v-3.5c0-1-0.6-1.7-1.6-1.7
				c-1.2,0-1.9,0.9-1.9,2.3v3h-0.9v-6h0.9v1.3c0.4-0.9,1.2-1.3,2.3-1.4c1.1,0,1.9,0.6,2.2,1.5c0.4-1,1.2-1.5,2.4-1.5
				C134.3,715.1,135.1,716,135.1,717.5z"/>
			<path fill="#414042" d="M146.8,721.2h-0.9v-1.3c-0.4,0.8-1.2,1.3-2.4,1.3c-1.7,0-2.9-1.2-2.9-3.1c0-1.8,1.2-3.1,2.9-3.1
				c1,0,1.9,0.5,2.4,1.3v-3.8h0.9V721.2z M146,718.2c0-1.3-0.9-2.3-2.2-2.3s-2.2,0.9-2.2,2.3c0,1.3,0.9,2.3,2.2,2.3
				C145.1,720.3,146,719.4,146,718.2z"/>
			<path fill="#414042" d="M155.1,718.1c0,1.8-1.2,3.1-3.1,3.1s-3.1-1.2-3.1-3.1c0-1.7,1.2-3,3.1-3S155.1,716.3,155.1,718.1z
				 M149.9,718.2c0,1.3,0.9,2.3,2.2,2.3c1.2,0,2.2-0.9,2.2-2.3c0-1.3-0.9-2.3-2.2-2.3C150.8,715.9,149.9,716.9,149.9,718.2z"/>
			<path fill="#414042" d="M157.3,721.2v-8.4h0.9v8.4H157.3z"/>
			<path fill="#414042" d="M166.5,718.1c0,1.8-1.2,3.1-3.1,3.1c-1.7,0-3.1-1.2-3.1-3.1c0-1.7,1.2-3,3.1-3
				C165.2,715.1,166.5,716.3,166.5,718.1z M161.3,718.2c0,1.3,0.9,2.3,2.2,2.3s2.2-0.9,2.2-2.3c0-1.3-0.9-2.3-2.2-2.3
				C162.2,715.9,161.3,716.9,161.3,718.2z"/>
			<path fill="#414042" d="M169.5,716.4c0.4-0.9,1.1-1.3,2.2-1.3v0.9c-1.2,0-2,0.7-2.2,1.9v3.2h-0.9v-6h0.9V716.4z"/>
			<path fill="#414042" d="M180.6,715.6l-0.3,0.7c-0.5-0.3-1-0.5-1.6-0.5c-0.7,0-1.2,0.2-1.2,0.8c0,1.3,3.4,0.6,3.4,2.8
				c0,1.2-1,1.7-2.2,1.7c-0.8,0-1.7-0.3-2.3-0.8l0.3-0.7c0.5,0.5,1.3,0.7,1.9,0.7c0.7,0,1.2-0.3,1.3-0.8c0-1.4-3.3-0.7-3.3-2.9
				c0-1.1,1-1.6,2-1.6C179.4,715.1,180.1,715.3,180.6,715.6z"/>
			<path fill="#414042" d="M183.8,713.4c0,0.3-0.2,0.6-0.6,0.6c-0.3,0-0.6-0.3-0.6-0.6c0-0.3,0.2-0.6,0.6-0.6
				S183.8,713.1,183.8,713.4z M182.8,721.2v-6h0.9v6H182.8z"/>
			<path fill="#414042" d="M189.6,720.8c-0.4,0.3-0.9,0.4-1.3,0.4c-0.9,0-1.5-0.5-1.5-1.7V716h-0.8v-0.7h0.8v-1.5h0.9v1.5h1.9v0.7
				h-2v3.3c0,0.7,0.3,1,0.8,1c0.3,0,0.6-0.1,0.9-0.3L189.6,720.8z"/>
			<path fill="#414042" d="M198.9,720.2c-0.5,0.6-1.2,0.9-2.2,0.9c-1.2,0-2-0.8-2-1.8s0.8-1.7,2.3-1.7h1.9v-0.3
				c0-0.9-0.5-1.4-1.6-1.4c-0.6,0-1.2,0.2-1.9,0.7l-0.4-0.6c0.8-0.5,1.4-0.8,2.5-0.8c1.4,0,2.3,0.8,2.4,2v4h-0.8L198.9,720.2
				L198.9,720.2z M198.9,719v-0.7H197c-1,0-1.5,0.3-1.5,0.9c0,0.6,0.5,1.1,1.3,1.1C197.9,720.4,198.6,719.9,198.9,719z"/>
			<path fill="#414042" d="M212.2,717.5v3.7h-0.9v-3.5c0-1-0.6-1.7-1.6-1.7c-1.2,0-1.9,0.9-1.9,2.3v3h-0.9v-3.5c0-1-0.6-1.7-1.6-1.7
				c-1.2,0-1.9,0.9-1.9,2.3v3h-0.9v-6h0.9v1.3c0.4-0.9,1.2-1.3,2.3-1.4c1.1,0,1.9,0.6,2.2,1.5c0.4-1,1.2-1.5,2.4-1.5
				C211.4,715.1,212.2,716,212.2,717.5z"/>
			<path fill="#414042" d="M219.9,718.5H215c0.2,1.1,1,1.9,2.2,1.9c0.7,0,1.4-0.3,1.8-0.7l0.5,0.5c-0.6,0.6-1.4,1-2.5,1
				c-1.7,0-3-1.2-3-3.1c0-1.7,1.2-3.1,3-3.1C219.1,715.1,220,716.4,219.9,718.5z M219.1,717.8c-0.1-1.1-0.8-1.8-2-1.8
				c-1.1,0-1.9,0.7-2,1.8H219.1z"/>
			<path fill="#414042" d="M225.1,720.8c-0.4,0.3-0.9,0.4-1.3,0.4c-0.9,0-1.5-0.5-1.5-1.7V716h-0.9v-0.7h0.8v-1.5h0.9v1.5h1.9v0.7
				h-1.9v3.3c0,0.7,0.3,1,0.8,1c0.3,0,0.6-0.1,0.9-0.3L225.1,720.8z"/>
			<path fill="#414042" d="M227.6,720.6c0,0.2-0.1,0.3-0.2,0.5l-0.5,0.8h-0.5l0.4-0.8c-0.2-0.1-0.2-0.3-0.2-0.5
				c0-0.3,0.2-0.6,0.5-0.6C227.4,720,227.6,720.2,227.6,720.6z"/>
		</g>
		<g>
			<path fill="#414042" d="M238.1,716l-0.5,0.6c-0.4-0.4-1-0.7-1.7-0.7c-1.2,0-2.2,0.9-2.2,2.3c0,1.3,0.9,2.3,2.2,2.3
				c0.8,0,1.4-0.3,1.8-0.8l0.5,0.5c-0.5,0.6-1.3,1-2.4,1c-1.7,0-3-1.2-3-3.1c0-1.7,1.2-3.1,3-3.1C236.8,715.1,237.6,715.4,238.1,716
				z"/>
		</g>
		<g>
			<path fill="#414042" d="M245.6,718.1c0,1.8-1.2,3.1-3.1,3.1c-1.7,0-3.1-1.2-3.1-3.1c0-1.7,1.2-3,3.1-3
				C244.4,715.1,245.6,716.3,245.6,718.1z M240.5,718.2c0,1.3,0.9,2.3,2.2,2.3c1.2,0,2.2-0.9,2.2-2.3c0-1.3-0.9-2.3-2.2-2.3
				C241.3,715.9,240.5,716.9,240.5,718.2z"/>
			<path fill="#414042" d="M253.3,717.5v3.7h-0.9v-3.5c0-1-0.6-1.6-1.7-1.6c-1.2,0-1.9,0.8-2,1.9v3.2h-0.9v-6h0.9v1.3
				c0.4-0.9,1.2-1.3,2.4-1.3C252.4,715.1,253.3,716,253.3,717.5z"/>
			<path fill="#414042" d="M259.3,715.6l-0.3,0.7c-0.5-0.3-1-0.5-1.6-0.5c-0.7,0-1.2,0.2-1.2,0.8c0,1.3,3.4,0.6,3.4,2.8
				c0,1.2-1,1.7-2.2,1.7c-0.8,0-1.7-0.3-2.3-0.8l0.3-0.7c0.5,0.5,1.3,0.7,1.9,0.7c0.7,0,1.2-0.3,1.3-0.8c0-1.4-3.3-0.7-3.3-2.9
				c0-1.1,1-1.6,2-1.6C258.1,715.1,258.8,715.3,259.3,715.6z"/>
			<path fill="#414042" d="M266.7,718.5h-4.9c0.2,1.1,1,1.9,2.2,1.9c0.7,0,1.4-0.3,1.8-0.7l0.5,0.5c-0.6,0.6-1.4,1-2.5,1
				c-1.7,0-3-1.2-3-3.1c0-1.7,1.2-3.1,3-3.1C265.8,715.1,266.8,716.4,266.7,718.5z M265.9,717.8c-0.1-1.1-0.8-1.8-2-1.8
				c-1.1,0-1.9,0.7-2,1.8H265.9z"/>
			<path fill="#414042" d="M273.5,716l-0.5,0.6c-0.4-0.4-1-0.7-1.7-0.7c-1.2,0-2.2,0.9-2.2,2.3c0,1.3,0.9,2.3,2.2,2.3
				c0.8,0,1.4-0.3,1.8-0.8l0.5,0.5c-0.5,0.6-1.3,1-2.4,1c-1.7,0-3-1.2-3-3.1c0-1.7,1.2-3.1,3-3.1C272.1,715.1,273,715.4,273.5,716z"
				/>
		</g>
		<g>
			<path fill="#414042" d="M278.8,720.8c-0.4,0.3-0.9,0.4-1.3,0.4c-0.9,0-1.5-0.5-1.5-1.7V716h-0.8v-0.7h0.8v-1.5h0.9v1.5h1.9v0.7
				h-1.9v3.3c0,0.7,0.3,1,0.8,1c0.3,0,0.6-0.1,0.9-0.3L278.8,720.8z"/>
		</g>
		<g>
			<path fill="#414042" d="M285.9,718.5h-4.9c0.2,1.1,1,1.9,2.2,1.9c0.7,0,1.4-0.3,1.8-0.7l0.5,0.5c-0.6,0.6-1.4,1-2.5,1
				c-1.7,0-3-1.2-3-3.1c0-1.7,1.2-3.1,3-3.1C284.9,715.1,286,716.4,285.9,718.5z M285,717.8c-0.1-1.1-0.8-1.8-2-1.8
				c-1.1,0-1.9,0.7-2,1.8H285z"/>
			<path fill="#414042" d="M291,720.8c-0.4,0.3-0.9,0.4-1.3,0.4c-0.9,0-1.5-0.5-1.5-1.7V716h-0.8v-0.7h0.8v-1.5h0.9v1.5h1.9v0.7H289
				v3.3c0,0.7,0.3,1,0.8,1c0.3,0,0.6-0.1,0.9-0.3L291,720.8z"/>
			<path fill="#414042" d="M298.2,721.2h-0.9v-1.3c-0.4,0.9-1.2,1.3-2.3,1.4c-1.4,0-2.3-0.9-2.3-2.4v-3.7h0.9v3.5
				c0,1,0.6,1.6,1.6,1.6c1.2,0,1.9-0.9,1.9-2.2v-3h0.9L298.2,721.2L298.2,721.2z"/>
			<path fill="#414042" d="M301.7,716.4c0.4-0.9,1.1-1.3,2.2-1.3v0.9c-1.2,0-2,0.7-2.2,1.9v3.2h-0.9v-6h0.9V716.4z"/>
			<path fill="#414042" d="M313.1,720.2c-0.5,0.6-1.2,0.9-2.2,0.9c-1.2,0-2-0.8-2-1.8s0.8-1.7,2.3-1.7h1.9v-0.3
				c0-0.9-0.5-1.4-1.6-1.4c-0.6,0-1.2,0.2-1.9,0.7l-0.4-0.6c0.8-0.5,1.4-0.8,2.5-0.8c1.4,0,2.3,0.8,2.4,2v4h-0.8V720.2z M313.1,719
				v-0.7h-1.8c-1,0-1.5,0.3-1.5,0.9c0,0.6,0.5,1.1,1.3,1.1C312.1,720.4,312.8,719.9,313.1,719z"/>
			<path fill="#414042" d="M322,721.2h-0.9v-1.3c-0.4,0.8-1.2,1.3-2.4,1.3c-1.7,0-2.9-1.2-2.9-3.1c0-1.8,1.2-3.1,2.9-3.1
				c1,0,1.9,0.5,2.4,1.3v-3.8h0.9V721.2z M321.1,718.2c0-1.3-0.9-2.3-2.2-2.3c-1.2,0-2.2,0.9-2.2,2.3c0,1.3,0.9,2.3,2.2,2.3
				C320.2,720.3,321.1,719.4,321.1,718.2z"/>
			<path fill="#414042" d="M325.8,713.4c0,0.3-0.2,0.6-0.6,0.6c-0.3,0-0.6-0.3-0.6-0.6c0-0.3,0.2-0.6,0.6-0.6
				C325.5,712.8,325.8,713.1,325.8,713.4z M324.8,721.2v-6h0.9v6H324.8z"/>
			<path fill="#414042" d="M334.5,718.2c0,1.7-1.1,3-2.9,3c-1,0-1.8-0.5-2.4-1.3v3.5h-0.9v-8.2h0.9v1.3c0.4-0.8,1.2-1.3,2.4-1.3
				C333.4,715.1,334.5,716.3,334.5,718.2z M333.6,718.1c0-1.3-0.9-2.3-2.2-2.3s-2.2,0.9-2.2,2.3c0,1.3,0.9,2.3,2.2,2.3
				C332.8,720.3,333.6,719.4,333.6,718.1z"/>
			<path fill="#414042" d="M337.7,713.4c0,0.3-0.2,0.6-0.6,0.6c-0.3,0-0.6-0.3-0.6-0.6c0-0.3,0.2-0.6,0.6-0.6
				C337.4,712.8,337.7,713.1,337.7,713.4z M336.7,721.2v-6h0.9v6H336.7z"/>
			<path fill="#414042" d="M343.8,715.6l-0.3,0.7c-0.5-0.3-1-0.5-1.6-0.5c-0.7,0-1.2,0.2-1.2,0.8c0,1.3,3.4,0.6,3.4,2.8
				c0,1.2-1,1.7-2.2,1.7c-0.8,0-1.7-0.3-2.3-0.8l0.3-0.7c0.5,0.5,1.3,0.7,1.9,0.7c0.7,0,1.2-0.3,1.3-0.8c0-1.4-3.3-0.7-3.3-2.9
				c0-1.1,1-1.6,2-1.6C342.6,715.1,343.2,715.3,343.8,715.6z"/>
			<path fill="#414042" d="M350.7,716l-0.5,0.6c-0.4-0.4-1-0.7-1.7-0.7c-1.2,0-2.2,0.9-2.2,2.3c0,1.3,0.9,2.3,2.2,2.3
				c0.8,0,1.4-0.3,1.8-0.8l0.5,0.5c-0.5,0.6-1.3,1-2.4,1c-1.7,0-3-1.2-3-3.1c0-1.7,1.2-3.1,3-3.1C349.4,715.1,350.1,715.4,350.7,716
				z"/>
			<path fill="#414042" d="M354,713.4c0,0.3-0.2,0.6-0.6,0.6c-0.3,0-0.6-0.3-0.6-0.6c0-0.3,0.2-0.6,0.6-0.6
				C353.7,712.8,354,713.1,354,713.4z M353,721.2v-6h0.9v6H353z"/>
			<path fill="#414042" d="M362.1,717.5v3.7h-0.9v-3.5c0-1-0.6-1.6-1.7-1.6c-1.2,0-1.9,0.8-2,1.9v3.2h-0.8v-6h0.9v1.3
				c0.4-0.9,1.2-1.3,2.4-1.3C361.2,715.1,362.1,716,362.1,717.5z"/>
			<path fill="#414042" d="M369.9,720.5c0,1.7-1.2,2.9-3,2.9c-0.9,0-1.7-0.3-2.5-0.8l0.4-0.7c0.6,0.5,1.2,0.7,2,0.7
				c1.3,0,2.2-0.8,2.2-2v-0.9c-0.4,0.8-1.2,1.2-2.3,1.2c-1.6,0-2.8-1.2-2.8-2.9s1.1-2.9,2.7-2.9c1,0,1.8,0.4,2.3,1.2v-1.2h0.9V720.5
				z M369,718c0-1.2-0.8-2.2-2-2.2s-2,0.9-2,2.2s0.8,2.2,2,2.2C368.1,720.1,369,719.2,369,718z"/>
			<path fill="#414042" d="M381.3,718.5h-4.9c0.2,1.1,1,1.9,2.2,1.9c0.7,0,1.4-0.3,1.8-0.7l0.5,0.5c-0.6,0.6-1.4,1-2.5,1
				c-1.7,0-3-1.2-3-3.1c0-1.7,1.2-3.1,3-3.1C380.4,715.1,381.4,716.4,381.3,718.5z M380.4,717.8c-0.1-1.1-0.8-1.8-2-1.8
				c-1.1,0-1.9,0.7-2,1.8H380.4z"/>
			<path fill="#414042" d="M383.4,721.2v-8.4h0.9v8.4H383.4z"/>
			<path fill="#414042" d="M388.1,713.4c0,0.3-0.2,0.6-0.6,0.6c-0.4,0-0.6-0.3-0.6-0.6c0-0.3,0.2-0.6,0.6-0.6
				C387.9,712.8,388.1,713.1,388.1,713.4z M387.1,721.2v-6h0.9v6H387.1z"/>
			<path fill="#414042" d="M393.9,720.8c-0.4,0.3-0.9,0.4-1.3,0.4c-0.9,0-1.5-0.5-1.5-1.7V716h-0.8v-0.7h0.8v-1.5h0.9v1.5h1.9v0.7
				h-1.9v3.3c0,0.7,0.3,1,0.8,1c0.3,0,0.6-0.1,0.9-0.3L393.9,720.8z"/>
			<path fill="#414042" d="M396.3,720.6c0,0.2-0.1,0.3-0.2,0.5l-0.5,0.8h-0.5l0.4-0.8c-0.2-0.1-0.2-0.3-0.2-0.5
				c0-0.3,0.2-0.6,0.5-0.6C396.1,720,396.3,720.2,396.3,720.6z"/>
			<path fill="#414042" d="M405.7,715.6l-0.3,0.7c-0.5-0.3-1-0.5-1.6-0.5c-0.7,0-1.2,0.2-1.2,0.8c0,1.3,3.4,0.6,3.4,2.8
				c0,1.2-1,1.7-2.2,1.7c-0.8,0-1.7-0.3-2.3-0.8l0.3-0.7c0.5,0.5,1.3,0.7,1.9,0.7c0.7,0,1.2-0.3,1.3-0.8c0-1.4-3.3-0.7-3.3-2.9
				c0-1.1,1-1.6,2-1.6C404.5,715.1,405.2,715.3,405.7,715.6z"/>
			<path fill="#414042" d="M413.1,718.5h-4.9c0.2,1.1,1,1.9,2.2,1.9c0.7,0,1.4-0.3,1.8-0.7l0.5,0.5c-0.6,0.6-1.4,1-2.5,1
				c-1.7,0-3-1.2-3-3.1c0-1.7,1.2-3.1,3-3.1C412.3,715.1,413.2,716.4,413.1,718.5z M412.3,717.8c-0.1-1.1-0.8-1.8-2-1.8
				c-1.1,0-1.9,0.7-2,1.8H412.3z"/>
			<path fill="#414042" d="M420.7,721.2h-0.9v-1.3c-0.4,0.8-1.2,1.3-2.4,1.3c-1.7,0-2.9-1.2-2.9-3.1c0-1.8,1.2-3.1,2.9-3.1
				c1,0,1.9,0.5,2.4,1.3v-3.8h0.9V721.2z M419.9,718.2c0-1.3-0.9-2.3-2.2-2.3c-1.2,0-2.2,0.9-2.2,2.3c0,1.3,0.9,2.3,2.2,2.3
				C419,720.3,419.9,719.4,419.9,718.2z"/>
			<path fill="#414042" d="M432.7,721.2h-0.9v-1.3c-0.4,0.8-1.2,1.3-2.4,1.3c-1.7,0-2.9-1.2-2.9-3.1c0-1.8,1.2-3.1,2.9-3.1
				c1,0,1.9,0.5,2.4,1.3v-3.8h0.9V721.2z M431.9,718.2c0-1.3-0.9-2.3-2.2-2.3s-2.2,0.9-2.2,2.3c0,1.3,0.9,2.3,2.2,2.3
				C431,720.3,431.9,719.4,431.9,718.2z"/>
			<path fill="#414042" d="M441,718.1c0,1.8-1.2,3.1-3.1,3.1c-1.7,0-3.1-1.2-3.1-3.1c0-1.7,1.2-3,3.1-3
				C439.8,715.1,441,716.3,441,718.1z M435.8,718.2c0,1.3,0.9,2.3,2.2,2.3c1.2,0,2.2-0.9,2.2-2.3c0-1.3-0.9-2.3-2.2-2.3
				S435.8,716.9,435.8,718.2z"/>
			<path fill="#414042" d="M452,718.5H447c0.2,1.1,1,1.9,2.2,1.9c0.7,0,1.4-0.3,1.8-0.7l0.5,0.5c-0.6,0.6-1.4,1-2.5,1
				c-1.7,0-3-1.2-3-3.1c0-1.7,1.2-3.1,3-3.1C451.1,715.1,452.1,716.4,452,718.5z M451.1,717.8c-0.1-1.1-0.8-1.8-2-1.8
				c-1.1,0-1.9,0.7-2,1.8H451.1z"/>
			<path fill="#414042" d="M455,713.4c0,0.3-0.2,0.6-0.6,0.6c-0.3,0-0.6-0.3-0.6-0.6c0-0.3,0.2-0.6,0.6-0.6
				C454.8,712.8,455,713.1,455,713.4z M454.1,721.2v-6h0.9v6H454.1z"/>
			<path fill="#414042" d="M462.9,721.2H462v-1.3c-0.4,0.9-1.2,1.3-2.3,1.4c-1.4,0-2.3-0.9-2.3-2.4v-3.7h0.9v3.5
				c0,1,0.6,1.6,1.6,1.6c1.2,0,1.9-0.9,1.9-2.2v-3h0.9L462.9,721.2L462.9,721.2z"/>
			<path fill="#414042" d="M469.1,715.6l-0.3,0.7c-0.5-0.3-1-0.5-1.6-0.5c-0.7,0-1.2,0.2-1.2,0.8c0,1.3,3.4,0.6,3.4,2.8
				c0,1.2-1,1.7-2.2,1.7c-0.8,0-1.7-0.3-2.3-0.8l0.3-0.7c0.5,0.5,1.3,0.7,1.9,0.7c0.7,0,1.2-0.3,1.3-0.8c0-1.4-3.3-0.7-3.3-2.9
				c0-1.1,1-1.6,2-1.6C467.9,715.1,468.7,715.3,469.1,715.6z"/>
			<path fill="#414042" d="M481.3,717.5v3.7h-0.9v-3.5c0-1-0.6-1.7-1.6-1.7c-1.2,0-1.9,0.9-1.9,2.3v3h-0.9v-3.5c0-1-0.6-1.7-1.6-1.7
				c-1.2,0-1.9,0.9-1.9,2.3v3h-0.9v-6h0.9v1.3c0.4-0.9,1.2-1.3,2.3-1.4c1.1,0,1.9,0.6,2.2,1.5c0.4-1,1.2-1.5,2.4-1.5
				C480.4,715.1,481.3,716,481.3,717.5z"/>
			<path fill="#414042" d="M489.3,718.1c0,1.8-1.2,3.1-3.1,3.1c-1.7,0-3.1-1.2-3.1-3.1c0-1.7,1.2-3,3.1-3
				C488,715.1,489.3,716.3,489.3,718.1z M484,718.2c0,1.3,0.9,2.3,2.2,2.3c1.2,0,2.2-0.9,2.2-2.3c0-1.3-0.9-2.3-2.2-2.3
				C484.9,715.9,484,716.9,484,718.2z"/>
			<path fill="#414042" d="M496.9,721.2H496v-1.3c-0.4,0.8-1.2,1.3-2.4,1.3c-1.7,0-2.9-1.2-2.9-3.1c0-1.8,1.2-3.1,2.9-3.1
				c1,0,1.9,0.5,2.4,1.3v-3.8h0.9V721.2z M496,718.2c0-1.3-0.9-2.3-2.2-2.3c-1.2,0-2.2,0.9-2.2,2.3c0,1.3,0.9,2.3,2.2,2.3
				C495.1,720.3,496,719.4,496,718.2z"/>
		</g>
		<g>
			<path fill="#414042" d="M506.5,720.8c-0.4,0.3-0.9,0.4-1.3,0.4c-0.9,0-1.5-0.5-1.5-1.7V716h-0.8v-0.7h0.8v-1.5h0.9v1.5h1.9v0.7
				h-1.9v3.3c0,0.7,0.3,1,0.8,1c0.3,0,0.6-0.1,0.9-0.3L506.5,720.8z"/>
		</g>
		<g>
			<path fill="#414042" d="M513.4,718.5h-4.9c0.2,1.1,1,1.9,2.2,1.9c0.7,0,1.4-0.3,1.8-0.7l0.5,0.5c-0.6,0.6-1.4,1-2.5,1
				c-1.7,0-3-1.2-3-3.1c0-1.7,1.2-3.1,3-3.1C512.6,715.1,513.5,716.4,513.4,718.5z M512.7,717.8c-0.1-1.1-0.8-1.8-2-1.8
				c-1.1,0-1.9,0.7-2,1.8H512.7z"/>
			<path fill="#414042" d="M525.4,717.5v3.7h-0.8v-3.5c0-1-0.6-1.7-1.6-1.7c-1.2,0-1.9,0.9-1.9,2.3v3h-0.9v-3.5c0-1-0.6-1.7-1.6-1.7
				c-1.2,0-1.9,0.9-1.9,2.3v3h-0.9v-6h0.9v1.3c0.4-0.9,1.2-1.3,2.3-1.4c1.1,0,1.9,0.6,2.2,1.5c0.4-1,1.2-1.5,2.4-1.5
				C524.6,715.1,525.4,716,525.4,717.5z"/>
			<path fill="#414042" d="M534.1,718.2c0,1.7-1.1,3-2.9,3c-1,0-1.8-0.5-2.4-1.3v3.5H528v-8.2h0.9v1.3c0.4-0.8,1.2-1.3,2.4-1.3
				C533,715.1,534.1,716.3,534.1,718.2z M533.2,718.1c0-1.3-0.9-2.3-2.2-2.3c-1.2,0-2.2,0.9-2.2,2.3c0,1.3,0.9,2.3,2.2,2.3
				C532.4,720.3,533.2,719.4,533.2,718.1z"/>
			<path fill="#414042" d="M541.7,718.1c0,1.8-1.2,3.1-3.1,3.1c-1.7,0-3.1-1.2-3.1-3.1c0-1.7,1.2-3,3.1-3
				C540.5,715.1,541.7,716.3,541.7,718.1z M536.6,718.2c0,1.3,0.9,2.3,2.2,2.3c1.2,0,2.2-0.9,2.2-2.3c0-1.3-0.9-2.3-2.2-2.3
				C537.5,715.9,536.6,716.9,536.6,718.2z"/>
			<path fill="#414042" d="M544.8,716.4c0.4-0.9,1.1-1.3,2.2-1.3v0.9c-1.2,0-2,0.7-2.2,1.9v3.2h-0.9v-6h0.9V716.4z"/>
		</g>
		<g>
			<path fill="#414042" d="M168,727.1c0,0.3-0.2,0.6-0.6,0.6c-0.3,0-0.6-0.3-0.6-0.6s0.2-0.6,0.6-0.6
				C167.7,726.5,168,726.7,168,727.1z M167,734.8v-6h0.9v6H167z"/>
			<path fill="#414042" d="M176,731.1v3.7h-0.8v-3.5c0-1-0.6-1.6-1.7-1.6c-1.2,0-1.9,0.8-2,1.9v3.2h-0.9v-6h0.9v1.3
				c0.4-0.9,1.2-1.3,2.4-1.3C175.2,728.7,176,729.7,176,731.1z"/>
			<path fill="#414042" d="M183.3,729.7l-0.5,0.6c-0.4-0.4-1-0.7-1.7-0.7c-1.2,0-2.2,0.9-2.2,2.3c0,1.3,0.9,2.3,2.2,2.3
				c0.8,0,1.4-0.3,1.8-0.8l0.5,0.5c-0.5,0.6-1.3,1-2.4,1c-1.7,0-3-1.2-3-3.1c0-1.7,1.2-3.1,3-3.1C182,728.7,182.8,729,183.3,729.7z"
				/>
			<path fill="#414042" d="M186.6,727.1c0,0.3-0.2,0.6-0.6,0.6c-0.3,0-0.6-0.3-0.6-0.6s0.2-0.6,0.6-0.6
				C186.4,726.5,186.6,726.7,186.6,727.1z M185.6,734.8v-6h0.9v6H185.6z"/>
			<path fill="#414042" d="M194.7,734.8h-0.9v-1.3c-0.4,0.8-1.2,1.3-2.4,1.3c-1.7,0-2.9-1.2-2.9-3.1c0-1.8,1.2-3.1,2.9-3.1
				c1,0,1.9,0.5,2.4,1.3v-3.8h0.9V734.8z M193.9,731.8c0-1.3-0.9-2.3-2.2-2.3s-2.2,0.9-2.2,2.3s0.9,2.3,2.2,2.3
				C192.9,734.1,193.9,733.1,193.9,731.8z"/>
			<path fill="#414042" d="M198.5,727.1c0,0.3-0.2,0.6-0.6,0.6c-0.3,0-0.6-0.3-0.6-0.6s0.2-0.6,0.6-0.6S198.5,726.7,198.5,727.1z
				 M197.4,734.8v-6h0.9v6H197.4z"/>
			<path fill="#414042" d="M206.6,734.8h-0.9v-1.3c-0.4,0.8-1.2,1.3-2.4,1.3c-1.7,0-2.9-1.2-2.9-3.1c0-1.8,1.2-3.1,2.9-3.1
				c1,0,1.9,0.5,2.4,1.3v-3.8h0.9V734.8z M205.7,731.8c0-1.3-0.9-2.3-2.2-2.3c-1.2,0-2.2,0.9-2.2,2.3s0.9,2.3,2.2,2.3
				S205.7,733.1,205.7,731.8z"/>
			<path fill="#414042" d="M214.6,734.8h-0.9v-1.3c-0.4,0.9-1.2,1.3-2.3,1.4c-1.4,0-2.3-0.9-2.3-2.4v-3.7h0.9v3.5
				c0,1,0.6,1.6,1.6,1.6c1.2,0,1.9-0.9,1.9-2.2v-3h0.9V734.8z"/>
			<path fill="#414042" d="M222.9,731.1v3.7h-0.9v-3.5c0-1-0.6-1.6-1.7-1.6c-1.2,0-1.9,0.8-2,1.9v3.2h-0.9v-6h0.9v1.3
				c0.4-0.9,1.2-1.3,2.4-1.3C221.9,728.7,222.9,729.7,222.9,731.1z"/>
			<path fill="#414042" d="M228.5,734.4c-0.4,0.3-0.9,0.4-1.3,0.4c-0.9,0-1.5-0.5-1.5-1.7v-3.4h-0.8v-0.7h0.8v-1.5h0.9v1.5h1.9v0.7
				h-2v3.3c0,0.7,0.3,1,0.8,1c0.3,0,0.6-0.1,0.9-0.3L228.5,734.4z"/>
			<path fill="#414042" d="M239.2,734.8h-0.9v-1.3c-0.4,0.9-1.2,1.3-2.3,1.4c-1.4,0-2.3-0.9-2.3-2.4v-3.7h0.9v3.5
				c0,1,0.6,1.6,1.6,1.6c1.2,0,1.9-0.9,1.9-2.2v-3h0.9V734.8z"/>
			<path fill="#414042" d="M245.1,734.4c-0.4,0.3-0.9,0.4-1.3,0.4c-0.9,0-1.5-0.5-1.5-1.7v-3.4h-0.8v-0.7h0.8v-1.5h0.9v1.5h1.9v0.7
				h-1.9v3.3c0,0.7,0.3,1,0.8,1c0.3,0,0.6-0.1,0.9-0.3L245.1,734.4z"/>
			<path fill="#414042" d="M250.7,734.8v-8.4h0.9v8.4H250.7z"/>
			<path fill="#414042" d="M258.2,733.9c-0.5,0.6-1.2,0.9-2.2,0.9c-1.2,0-2-0.8-2-1.8c0-1,0.8-1.7,2.3-1.7h1.9v-0.3
				c0-0.9-0.5-1.4-1.6-1.4c-0.6,0-1.2,0.2-1.9,0.7l-0.4-0.6c0.8-0.5,1.4-0.8,2.5-0.8c1.4,0,2.3,0.8,2.4,2v4h-0.8V733.9z
				 M258.1,732.7V732h-1.8c-1,0-1.5,0.3-1.5,0.9c0,0.6,0.5,1.1,1.3,1.1C257.2,734.1,257.9,733.6,258.1,732.7z"/>
			<path fill="#414042" d="M267.7,731.8c0,1.7-1.1,3-2.9,3c-1,0-1.8-0.5-2.4-1.3v1.3h-0.9v-8.4h0.9v3.8c0.4-0.8,1.2-1.3,2.4-1.3
				C266.5,728.7,267.7,730,267.7,731.8z M266.8,731.8c0-1.3-0.9-2.3-2.2-2.3s-2.2,0.9-2.2,2.3s0.9,2.3,2.2,2.3
				C265.9,734,266.8,733,266.8,731.8z"/>
			<path fill="#414042" d="M275.3,731.8c0,1.8-1.2,3.1-3.1,3.1c-1.7,0-3.1-1.2-3.1-3.1c0-1.7,1.2-3,3.1-3
				C274.1,728.7,275.3,730,275.3,731.8z M270.1,731.8c0,1.3,0.9,2.3,2.2,2.3c1.2,0,2.2-0.9,2.2-2.3c0-1.3-0.9-2.3-2.2-2.3
				C271,729.6,270.1,730.5,270.1,731.8z"/>
			<path fill="#414042" d="M278.3,730.2c0.4-0.9,1.1-1.3,2.2-1.3v0.9c-1.2,0-2,0.7-2.2,1.9v3.2h-0.9v-6h0.9V730.2z"/>
			<path fill="#414042" d="M287.4,732.1h-4.9c0.2,1.1,1,1.9,2.2,1.9c0.7,0,1.4-0.3,1.8-0.7l0.5,0.5c-0.6,0.6-1.4,1-2.5,1
				c-1.7,0-3-1.2-3-3.1c0-1.7,1.2-3.1,3-3.1C286.6,728.7,287.5,730.1,287.4,732.1z M286.6,731.4c-0.1-1.1-0.8-1.8-2-1.8
				c-1.1,0-1.9,0.7-2,1.8H286.6z"/>
			<path fill="#414042" d="M298.4,732.1h-4.9c0.2,1.1,1,1.9,2.2,1.9c0.7,0,1.4-0.3,1.8-0.7l0.5,0.5c-0.6,0.6-1.4,1-2.5,1
				c-1.7,0-3-1.2-3-3.1c0-1.7,1.2-3.1,3-3.1C297.5,728.7,298.5,730.1,298.4,732.1z M297.5,731.4c-0.1-1.1-0.8-1.8-2-1.8
				c-1.1,0-1.9,0.7-2,1.8H297.5z"/>
			<path fill="#414042" d="M303.6,734.4c-0.4,0.3-0.9,0.4-1.3,0.4c-0.9,0-1.5-0.5-1.5-1.7v-3.4h-0.8v-0.7h0.8v-1.5h0.9v1.5h1.9v0.7
				h-1.9v3.3c0,0.7,0.3,1,0.8,1c0.3,0,0.6-0.1,0.9-0.3L303.6,734.4z"/>
			<path fill="#414042" d="M314.7,734.8h-0.9v-1.3c-0.4,0.8-1.2,1.3-2.4,1.3c-1.7,0-2.9-1.2-2.9-3.1c0-1.8,1.2-3.1,2.9-3.1
				c1,0,1.9,0.5,2.4,1.3v-3.8h0.9V734.8z M313.7,731.8c0-1.3-0.9-2.3-2.2-2.3s-2.2,0.9-2.2,2.3s0.9,2.3,2.2,2.3
				C312.9,734.1,313.7,733.1,313.7,731.8z"/>
			<path fill="#414042" d="M323,731.8c0,1.8-1.2,3.1-3.1,3.1c-1.7,0-3.1-1.2-3.1-3.1c0-1.7,1.2-3,3.1-3
				C321.6,728.7,323,730,323,731.8z M317.7,731.8c0,1.3,0.9,2.3,2.2,2.3s2.2-0.9,2.2-2.3c0-1.3-0.9-2.3-2.2-2.3
				S317.7,730.5,317.7,731.8z"/>
			<path fill="#414042" d="M325.1,734.8v-8.4h0.9v8.4H325.1z"/>
			<path fill="#414042" d="M334.2,731.8c0,1.8-1.2,3.1-3.1,3.1c-1.7,0-3.1-1.2-3.1-3.1c0-1.7,1.2-3,3.1-3
				C333,728.7,334.2,730,334.2,731.8z M329.1,731.8c0,1.3,0.9,2.3,2.2,2.3s2.2-0.9,2.2-2.3c0-1.3-0.9-2.3-2.2-2.3
				S329.1,730.5,329.1,731.8z"/>
			<path fill="#414042" d="M337.3,730.2c0.4-0.9,1.1-1.3,2.2-1.3v0.9c-1.2,0-2,0.7-2.2,1.9v3.2h-0.9v-6h0.9V730.2z"/>
			<path fill="#414042" d="M346.4,732.1h-4.9c0.2,1.1,1,1.9,2.2,1.9c0.7,0,1.4-0.3,1.8-0.7l0.5,0.5c-0.6,0.6-1.4,1-2.5,1
				c-1.7,0-3-1.2-3-3.1c0-1.7,1.2-3.1,3-3.1C345.5,728.7,346.4,730.1,346.4,732.1z M345.6,731.4c-0.1-1.1-0.8-1.8-2-1.8
				c-1.1,0-1.9,0.7-2,1.8H345.6z"/>
			<path fill="#414042" d="M362.1,731.1v3.7h-0.9v-3.5c0-1-0.6-1.7-1.6-1.7c-1.2,0-1.9,0.9-1.9,2.3v3h-0.9v-3.5c0-1-0.6-1.7-1.6-1.7
				c-1.2,0-1.9,0.9-1.9,2.3v3h-0.9v-6h0.9v1.3c0.4-0.9,1.2-1.3,2.3-1.4c1.1,0,1.9,0.6,2.2,1.5c0.4-1,1.2-1.5,2.4-1.5
				C361.3,728.7,362.1,729.7,362.1,731.1z"/>
			<path fill="#414042" d="M368.3,733.9c-0.5,0.6-1.2,0.9-2.2,0.9c-1.2,0-2-0.8-2-1.8c0-1,0.8-1.7,2.3-1.7h1.9v-0.3
				c0-0.9-0.5-1.4-1.6-1.4c-0.6,0-1.2,0.2-1.9,0.7l-0.4-0.6c0.8-0.5,1.4-0.8,2.5-0.8c1.4,0,2.3,0.8,2.4,2v4h-0.8V733.9z
				 M368.3,732.7V732h-1.8c-1,0-1.5,0.3-1.5,0.9c0,0.6,0.5,1.1,1.3,1.1C367.3,734.1,368.1,733.6,368.3,732.7z"/>
			<path fill="#414042" d="M377,734.2c0,1.7-1.2,2.9-3,2.9c-0.9,0-1.7-0.3-2.5-0.8l0.4-0.7c0.6,0.5,1.2,0.7,2,0.7
				c1.3,0,2.2-0.8,2.2-2v-0.9c-0.4,0.8-1.2,1.2-2.3,1.2c-1.6,0-2.8-1.2-2.8-2.9c0-1.6,1.1-2.9,2.7-2.9c1,0,1.8,0.4,2.3,1.2v-1.2h0.9
				V734.2z M376.1,731.7c0-1.2-0.8-2.2-2-2.2s-2,0.9-2,2.2c0,1.2,0.8,2.2,2,2.2C375.2,733.8,376.1,732.9,376.1,731.7z"/>
			<path fill="#414042" d="M385,731.1v3.7h-0.9v-3.5c0-1-0.6-1.6-1.7-1.6c-1.2,0-1.9,0.8-2,1.9v3.2h-0.9v-6h0.9v1.3
				c0.4-0.9,1.2-1.3,2.4-1.3C384.2,728.7,385,729.7,385,731.1z"/>
			<path fill="#414042" d="M391.3,733.9c-0.5,0.6-1.2,0.9-2.2,0.9c-1.2,0-2-0.8-2-1.8c0-1,0.8-1.7,2.3-1.7h1.9v-0.3
				c0-0.9-0.5-1.4-1.6-1.4c-0.6,0-1.2,0.2-1.9,0.7l-0.4-0.6c0.8-0.5,1.4-0.8,2.5-0.8c1.4,0,2.3,0.8,2.4,2v4h-0.8V733.9z
				 M391.3,732.7V732h-1.8c-1,0-1.5,0.3-1.5,0.9c0,0.6,0.5,1.1,1.3,1.1C390.3,734.1,391.1,733.6,391.3,732.7z"/>
			<path fill="#414042" d="M402.2,733.9c-0.5,0.6-1.2,0.9-2.2,0.9c-1.2,0-2-0.8-2-1.8c0-1,0.8-1.7,2.3-1.7h1.9v-0.3
				c0-0.9-0.5-1.4-1.6-1.4c-0.6,0-1.2,0.2-1.9,0.7l-0.4-0.6c0.8-0.5,1.4-0.8,2.5-0.8c1.4,0,2.3,0.8,2.4,2v4h-0.8V733.9z
				 M402.2,732.7V732h-1.8c-1,0-1.5,0.3-1.5,0.9c0,0.6,0.5,1.1,1.3,1.1C401.1,734.1,402,733.6,402.2,732.7z"/>
			<path fill="#414042" d="M405.6,734.8v-8.4h0.9v8.4H405.6z"/>
			<path fill="#414042" d="M410.4,727.1c0,0.3-0.2,0.6-0.6,0.6c-0.4,0-0.6-0.3-0.6-0.6s0.2-0.6,0.6-0.6
				C410.2,726.5,410.4,726.7,410.4,727.1z M409.3,734.8v-6h0.9v6H409.3z"/>
			<path fill="#414042" d="M418.5,737h-0.9v-3.5c-0.4,0.8-1.2,1.3-2.4,1.3c-1.7,0-2.9-1.2-2.9-3.1s1.2-3.1,2.9-3.1
				c1,0,1.9,0.5,2.4,1.3v-1.3h0.9V737z M417.5,731.8c0-1.3-0.9-2.3-2.2-2.3s-2.2,0.9-2.2,2.3s0.9,2.3,2.2,2.3
				S417.5,733.1,417.5,731.8z"/>
			<path fill="#414042" d="M426.4,734.8h-0.9v-1.3c-0.4,0.9-1.2,1.3-2.3,1.4c-1.4,0-2.3-0.9-2.3-2.4v-3.7h0.9v3.5
				c0,1,0.6,1.6,1.6,1.6c1.2,0,1.9-0.9,1.9-2.2v-3h0.9L426.4,734.8L426.4,734.8z"/>
			<path fill="#414042" d="M432.9,733.9c-0.5,0.6-1.2,0.9-2.2,0.9c-1.2,0-2-0.8-2-1.8c0-1,0.8-1.7,2.3-1.7h1.9v-0.3
				c0-0.9-0.5-1.4-1.6-1.4c-0.6,0-1.2,0.2-1.9,0.7l-0.4-0.6c0.8-0.5,1.4-0.8,2.5-0.8c1.4,0,2.3,0.8,2.4,2v4h-0.8V733.9z
				 M432.9,732.7V732h-1.8c-1,0-1.5,0.3-1.5,0.9c0,0.6,0.5,1.1,1.3,1.1C431.9,734.1,432.6,733.6,432.9,732.7z"/>
			<path fill="#414042" d="M436.9,734.3c0,0.3-0.2,0.6-0.5,0.6s-0.5-0.2-0.5-0.6c0-0.3,0.2-0.6,0.5-0.6
				C436.7,733.7,436.9,734,436.9,734.3z"/>
		</g>
	</g>
	<g>
		<g>
			<path fill="#414042" d="M190.4,113.5c6,0,10.1,3.9,10.1,9.5s-4.2,9.5-10.3,9.5h-8v-19.2h8.2V113.5z M187,128.6h3.5
				c3,0,5.1-2.3,5.1-5.6s-2.3-5.7-5.3-5.7H187V128.6z"/>
			<path fill="#414042" d="M209.3,117.3v3.8h9.1v3.8h-9.1v3.9h10.5v3.8h-15.3v-19.2h15v3.8h-10.1V117.3z"/>
			<path fill="#414042" d="M229.7,132.5l-7.5-19.2h5.2l4.9,14l4.9-14h5l-7.5,19.2H229.7z"/>
			<path fill="#414042" d="M250.3,117.3v3.8h9.1v3.8h-9.1v3.9h10.5v3.8h-15.3v-19.2h15v3.8h-10.1V117.3z"/>
			<path fill="#414042" d="M278.3,128.5v4.1h-13v-19.2h4.8v15.1H278.3z"/>
			<path fill="#414042" d="M301.3,123c0,5.5-4.4,9.8-10.3,9.8c-5.9,0-10.3-4.2-10.3-9.8c0-5.5,4.4-9.7,10.3-9.7
				S301.3,117.5,301.3,123z M285.7,123c0,3.2,2.5,5.7,5.4,5.7s5.3-2.5,5.3-5.7c0-3.2-2.4-5.6-5.3-5.6
				C288.1,117.4,285.7,119.7,285.7,123z"/>
			<path fill="#414042" d="M313.6,113.5c4.9,0,7.7,2.4,7.7,6.7c0,4.5-2.8,7.1-7.7,7.1h-3.5v5.4h-4.8v-19.2
				C305.3,113.5,313.6,113.5,313.6,113.5z M310.1,123.3h3.2c2.2,0,3.4-1,3.4-3.1c0-1.9-1.2-3-3.4-3h-3.2V123.3z"/>
			<path fill="#414042" d="M342,132.5v-12.4l-4.6,10.6h-3.2l-4.6-10.6v12.4h-4.3v-19.2h5.3l5.2,11.4l5.2-11.4h5.3v19.2H342z"/>
			<path fill="#414042" d="M356.4,117.3v3.8h9.1v3.8h-9.1v3.9h10.5v3.8h-15.4v-19.2h15v3.8h-10V117.3z"/>
			<path fill="#414042" d="M384.6,132.5l-8.8-11.8v11.8h-4.6v-19.2h4.3l8.8,11.8v-11.8h4.5v19.2H384.6z"/>
			<path fill="#414042" d="M403,117.4v15.3h-4.8v-15.3h-5.7v-3.9h16.3v3.9H403z"/>
		</g>
	</g>
	<g>
		<g>
			<path fill="#414042" d="M53,159v0.8h-4.4v-8h0.9v7.1H53V159z"/>
			<path fill="#414042" d="M60.3,156.9c0,1.8-1.2,3.1-3.1,3.1c-1.7,0-3.1-1.2-3.1-3.1c0-1.7,1.2-3,3.1-3
				C59.1,153.8,60.3,155.1,60.3,156.9z M55.1,156.9c0,1.3,0.9,2.3,2.2,2.3c1.2,0,2.2-0.9,2.2-2.3c0-1.3-0.9-2.3-2.2-2.3
				S55.1,155.6,55.1,156.9z"/>
			<path fill="#414042" d="M63.3,155.2c0.4-0.9,1.1-1.3,2.2-1.3v0.9c-1.2,0-2,0.7-2.2,1.9v3.2h-0.8v-6h0.9v1.3H63.3z"/>
			<path fill="#414042" d="M72.4,157.2h-4.9c0.2,1.1,1,1.9,2.2,1.9c0.7,0,1.4-0.3,1.8-0.7L72,159c-0.6,0.6-1.4,1-2.5,1
				c-1.7,0-3-1.2-3-3.1c0-1.7,1.2-3.1,3-3.1C71.6,153.8,72.5,155.2,72.4,157.2z M71.6,156.5c-0.1-1.1-0.8-1.8-2-1.8
				c-1.1,0-1.9,0.7-2,1.8H71.6z"/>
			<path fill="#414042" d="M84.4,156.2v3.7h-0.9v-3.5c0-1-0.6-1.7-1.6-1.7c-1.2,0-1.9,0.9-1.9,2.3v3H79v-3.5c0-1-0.6-1.7-1.6-1.7
				c-1.2,0-1.9,0.9-1.9,2.3v3h-0.9v-6h0.9v1.3c0.4-0.9,1.2-1.3,2.3-1.4c1.1,0,1.9,0.6,2.2,1.5c0.4-1,1.2-1.5,2.4-1.5
				C83.6,153.8,84.4,154.8,84.4,156.2z"/>
			<path fill="#414042" d="M91.7,152.2c0,0.3-0.2,0.6-0.6,0.6c-0.3,0-0.6-0.3-0.6-0.6c0-0.3,0.2-0.6,0.6-0.6S91.7,151.8,91.7,152.2z
				 M90.7,159.9v-6h0.9v6H90.7z"/>
			<path fill="#414042" d="M100.4,156.9c0,1.7-1.1,3-2.9,3c-1,0-1.8-0.5-2.4-1.3v3.5h-0.9v-8.2h1v1.3c0.4-0.8,1.2-1.3,2.4-1.3
				C99.3,153.8,100.4,155.1,100.4,156.9z M99.5,156.9c0-1.3-0.9-2.3-2.2-2.3s-2.2,0.9-2.2,2.3c0,1.3,0.9,2.3,2.2,2.3
				C98.7,159.1,99.5,158.1,99.5,156.9z"/>
			<path fill="#414042" d="M106,154.3l-0.3,0.7c-0.5-0.3-1-0.5-1.6-0.5c-0.7,0-1.2,0.2-1.2,0.8c0,1.3,3.4,0.6,3.4,2.8
				c0,1.2-1,1.7-2.2,1.7c-0.8,0-1.7-0.3-2.3-0.8l0.3-0.7c0.5,0.5,1.3,0.7,1.9,0.7c0.7,0,1.2-0.3,1.3-0.8c0-1.4-3.3-0.7-3.3-2.9
				c0-1.1,1-1.6,2-1.6C104.9,153.8,105.5,154,106,154.3z"/>
			<path fill="#414042" d="M113.5,159.9h-0.9v-1.3c-0.4,0.9-1.2,1.3-2.3,1.4c-1.4,0-2.3-0.9-2.3-2.4v-3.7h0.9v3.5
				c0,1,0.6,1.6,1.6,1.6c1.2,0,1.9-0.9,1.9-2.2v-3h0.9C113.5,153.9,113.5,159.9,113.5,159.9z"/>
			<path fill="#414042" d="M126.1,156.2v3.7h-0.9v-3.5c0-1-0.6-1.7-1.6-1.7c-1.2,0-1.9,0.9-1.9,2.3v3h-0.9v-3.5c0-1-0.6-1.7-1.6-1.7
				c-1.2,0-1.9,0.9-1.9,2.3v3h-0.9v-6h0.9v1.3c0.4-0.9,1.2-1.3,2.3-1.4c1.1,0,1.9,0.6,2.2,1.5c0.4-1,1.2-1.5,2.4-1.5
				C125.3,153.8,126.1,154.8,126.1,156.2z"/>
			<path fill="#414042" d="M137.9,159.9H137v-1.3c-0.4,0.8-1.2,1.3-2.4,1.3c-1.7,0-2.9-1.2-2.9-3.1s1.2-3.1,2.9-3.1
				c1,0,1.9,0.5,2.4,1.3v-3.8h0.9V159.9z M137,156.9c0-1.3-0.9-2.3-2.2-2.3c-1.2,0-2.2,0.9-2.2,2.3c0,1.3,0.9,2.3,2.2,2.3
				C136.1,159.2,137,158.1,137,156.9z"/>
			<path fill="#414042" d="M146.1,156.9c0,1.8-1.2,3.1-3.1,3.1c-1.7,0-3.1-1.2-3.1-3.1c0-1.7,1.2-3,3.1-3
				C144.9,153.8,146.1,155.1,146.1,156.9z M141,156.9c0,1.3,0.9,2.3,2.2,2.3c1.2,0,2.2-0.9,2.2-2.3c0-1.3-0.9-2.3-2.2-2.3
				C141.8,154.7,141,155.6,141,156.9z"/>
			<path fill="#414042" d="M148.4,159.9v-8.4h0.9v8.4C149.3,159.9,148.4,159.9,148.4,159.9z"/>
			<path fill="#414042" d="M157.5,156.9c0,1.8-1.2,3.1-3.1,3.1c-1.8,0-3.1-1.2-3.1-3.1c0-1.7,1.2-3,3.1-3
				C156.3,153.9,157.5,155.1,157.5,156.9z M152.3,156.9c0,1.3,0.9,2.3,2.2,2.3c1.2,0,2.2-0.9,2.2-2.3c0-1.3-0.9-2.3-2.2-2.3
				C153.2,154.7,152.3,155.6,152.3,156.9z"/>
			<path fill="#414042" d="M160.5,155.2c0.4-0.9,1.1-1.3,2.2-1.3v0.9c-1.2,0-2,0.7-2.2,1.9v3.2h-0.9v-6h0.9V155.2z"/>
			<path fill="#414042" d="M171.6,154.3l-0.3,0.7c-0.5-0.3-1-0.5-1.6-0.5c-0.7,0-1.2,0.2-1.2,0.8c0,1.3,3.4,0.6,3.4,2.8
				c0,1.2-1,1.7-2.2,1.7c-0.8,0-1.7-0.3-2.3-0.8l0.3-0.7c0.5,0.5,1.3,0.7,1.9,0.7c0.7,0,1.2-0.3,1.3-0.8c0-1.4-3.3-0.7-3.3-2.9
				c0-1.1,1-1.6,2-1.6C170.4,153.8,171.1,154,171.6,154.3z"/>
			<path fill="#414042" d="M174.8,152.2c0,0.3-0.2,0.6-0.6,0.6c-0.3,0-0.6-0.3-0.6-0.6c0-0.3,0.2-0.6,0.6-0.6
				S174.8,151.8,174.8,152.2z M173.9,159.9v-6h0.9v6H173.9z"/>
			<path fill="#414042" d="M180.5,159.5c-0.4,0.3-0.9,0.4-1.3,0.4c-0.9,0-1.5-0.5-1.5-1.7v-3.4h-0.8V154h0.8v-1.5h0.9v1.5h1.9v0.7
				h-1.9v3.3c0,0.7,0.3,1,0.8,1c0.3,0,0.6-0.1,0.9-0.3L180.5,159.5z"/>
			<path fill="#414042" d="M189.9,159c-0.5,0.6-1.2,0.9-2.2,0.9c-1.2,0-2-0.8-2-1.8s0.8-1.7,2.3-1.7h1.9V156c0-0.9-0.5-1.4-1.6-1.4
				c-0.6,0-1.2,0.2-1.9,0.7l-0.4-0.6c0.8-0.5,1.4-0.8,2.5-0.8c1.4,0,2.3,0.8,2.4,2v4h-0.8L189.9,159L189.9,159z M189.9,157.8v-0.7
				H188c-1,0-1.5,0.3-1.5,0.9s0.5,1.1,1.3,1.1C188.8,159.2,189.7,158.6,189.9,157.8z"/>
			<path fill="#414042" d="M203.2,156.2v3.7h-0.9v-3.5c0-1-0.6-1.7-1.6-1.7c-1.2,0-1.9,0.9-1.9,2.3v3h-0.9v-3.5c0-1-0.6-1.7-1.6-1.7
				c-1.2,0-1.9,0.9-1.9,2.3v3h-0.9v-6h0.9v1.3c0.4-0.9,1.2-1.3,2.3-1.4c1.1,0,1.9,0.6,2.2,1.5c0.4-1,1.2-1.5,2.4-1.5
				C202.4,153.8,203.2,154.8,203.2,156.2z"/>
			<path fill="#414042" d="M210.9,157.2h-4.9c0.2,1.1,1,1.9,2.2,1.9c0.7,0,1.4-0.3,1.8-0.7l0.5,0.5c-0.6,0.6-1.4,1-2.5,1
				c-1.7,0-3-1.2-3-3.1c0-1.7,1.2-3.1,3-3.1C210,153.8,211,155.2,210.9,157.2z M210.1,156.5c-0.1-1.1-0.8-1.8-2-1.8
				c-1.1,0-1.9,0.7-2,1.8H210.1z"/>
			<path fill="#414042" d="M216.1,159.5c-0.4,0.3-0.9,0.4-1.3,0.4c-0.9,0-1.5-0.5-1.5-1.7v-3.4h-0.8V154h0.8v-1.5h0.9v1.5h1.9v0.7
				h-1.9v3.3c0,0.7,0.3,1,0.8,1c0.3,0,0.6-0.1,0.9-0.3L216.1,159.5z"/>
			<path fill="#414042" d="M218.7,159.4c0,0.2-0.1,0.3-0.2,0.5l-0.5,0.8h-0.5l0.4-0.8c-0.2-0.1-0.2-0.3-0.2-0.5
				c0-0.3,0.2-0.6,0.5-0.6C218.3,158.8,218.7,159.1,218.7,159.4z"/>
		</g>
		<g>
			<path fill="#414042" d="M229.2,154.8l-0.5,0.6c-0.4-0.4-1-0.7-1.7-0.7c-1.2,0-2.2,0.9-2.2,2.3c0,1.3,0.9,2.3,2.2,2.3
				c0.8,0,1.4-0.3,1.8-0.8l0.5,0.5c-0.5,0.6-1.3,1-2.4,1c-1.7,0-3-1.2-3-3.1c0-1.7,1.2-3.1,3-3.1
				C227.9,153.8,228.6,154.1,229.2,154.8z"/>
		</g>
		<g>
			<path fill="#414042" d="M236.7,156.9c0,1.8-1.2,3.1-3.1,3.1c-1.7,0-3.1-1.2-3.1-3.1c0-1.7,1.2-3,3.1-3
				C235.4,153.8,236.7,155.1,236.7,156.9z M231.5,156.9c0,1.3,0.9,2.3,2.2,2.3s2.2-0.9,2.2-2.3c0-1.3-0.9-2.3-2.2-2.3
				C232.4,154.7,231.5,155.6,231.5,156.9z"/>
			<path fill="#414042" d="M244.3,156.2v3.7h-0.9v-3.5c0-1-0.6-1.6-1.7-1.6c-1.2,0-1.9,0.8-2,1.9v3.2h-0.8v-6h0.9v1.3
				c0.4-0.9,1.2-1.3,2.4-1.3C243.4,153.8,244.3,154.8,244.3,156.2z"/>
			<path fill="#414042" d="M250.3,154.3l-0.3,0.7c-0.5-0.3-1-0.5-1.6-0.5c-0.7,0-1.2,0.2-1.2,0.8c0,1.3,3.4,0.6,3.4,2.8
				c0,1.2-1,1.7-2.2,1.7c-0.8,0-1.7-0.3-2.3-0.8l0.3-0.7c0.5,0.5,1.3,0.7,1.9,0.7c0.7,0,1.2-0.3,1.3-0.8c0-1.4-3.3-0.7-3.3-2.9
				c0-1.1,1-1.6,2-1.6C249.1,153.8,249.8,154,250.3,154.3z"/>
			<path fill="#414042" d="M257.7,157.2h-4.9c0.2,1.1,1,1.9,2.2,1.9c0.7,0,1.4-0.3,1.8-0.7l0.5,0.5c-0.6,0.6-1.4,1-2.5,1
				c-1.7,0-3-1.2-3-3.1c0-1.7,1.2-3.1,3-3.1C256.9,153.8,257.8,155.2,257.7,157.2z M256.9,156.5c-0.1-1.1-0.8-1.8-2-1.8
				c-1.1,0-1.9,0.7-2,1.8H256.9z"/>
			<path fill="#414042" d="M264.5,154.8l-0.5,0.6c-0.4-0.4-1-0.7-1.7-0.7c-1.2,0-2.2,0.9-2.2,2.3c0,1.3,0.9,2.3,2.2,2.3
				c0.8,0,1.4-0.3,1.8-0.8l0.5,0.5c-0.5,0.6-1.3,1-2.4,1c-1.7,0-3-1.2-3-3.1c0-1.7,1.2-3.1,3-3.1
				C263.1,153.8,263.9,154.1,264.5,154.8z"/>
		</g>
		<g>
			<path fill="#414042" d="M269.9,159.5c-0.4,0.3-0.9,0.4-1.3,0.4c-0.9,0-1.5-0.5-1.5-1.7v-3.4h-0.8V154h0.8v-1.5h0.9v1.5h1.9v0.7
				h-1.9v3.3c0,0.7,0.3,1,0.8,1c0.3,0,0.6-0.1,0.9-0.3L269.9,159.5z"/>
		</g>
		<g>
			<path fill="#414042" d="M276.8,157.2h-4.9c0.2,1.1,1,1.9,2.2,1.9c0.7,0,1.4-0.3,1.8-0.7l0.5,0.5c-0.6,0.6-1.4,1-2.5,1
				c-1.7,0-3-1.2-3-3.1c0-1.7,1.2-3.1,3-3.1C276,153.8,277,155.2,276.8,157.2z M276,156.5c-0.1-1.1-0.8-1.8-2-1.8
				c-1.1,0-1.9,0.7-2,1.8H276z"/>
			<path fill="#414042" d="M282.1,159.5c-0.4,0.3-0.9,0.4-1.3,0.4c-0.9,0-1.5-0.5-1.5-1.7v-3.4h-0.8V154h0.8v-1.5h0.9v1.5h1.9v0.7
				h-1.9v3.3c0,0.7,0.3,1,0.8,1c0.3,0,0.6-0.1,0.9-0.3L282.1,159.5z"/>
			<path fill="#414042" d="M289.1,159.9h-0.9v-1.3c-0.4,0.9-1.2,1.3-2.3,1.4c-1.4,0-2.3-0.9-2.3-2.4v-3.7h0.9v3.5
				c0,1,0.6,1.6,1.6,1.6c1.2,0,1.9-0.9,1.9-2.2v-3h0.9L289.1,159.9L289.1,159.9z"/>
			<path fill="#414042" d="M292.7,155.2c0.4-0.9,1.1-1.3,2.2-1.3v0.9c-1.2,0-2,0.7-2.2,1.9v3.2h-0.9v-6h0.9V155.2z"/>
			<path fill="#414042" d="M304.1,159c-0.5,0.6-1.2,0.9-2.2,0.9c-1.2,0-2-0.8-2-1.8s0.8-1.7,2.3-1.7h1.9V156c0-0.9-0.5-1.4-1.6-1.4
				c-0.6,0-1.2,0.2-1.9,0.7l-0.4-0.6c0.8-0.5,1.4-0.8,2.5-0.8c1.4,0,2.3,0.8,2.4,2v4h-0.8V159z M304.1,157.8v-0.7h-1.8
				c-1,0-1.5,0.3-1.5,0.9s0.5,1.1,1.3,1.1C303.1,159.2,303.9,158.6,304.1,157.8z"/>
			<path fill="#414042" d="M313,159.9h-0.9v-1.3c-0.4,0.8-1.2,1.3-2.4,1.3c-1.7,0-2.9-1.2-2.9-3.1s1.2-3.1,2.9-3.1
				c1,0,1.9,0.5,2.4,1.3v-3.8h0.9V159.9z M312.1,156.9c0-1.3-0.9-2.3-2.2-2.3c-1.2,0-2.2,0.9-2.2,2.3c0,1.3,0.9,2.3,2.2,2.3
				C311.3,159.2,312.1,158.1,312.1,156.9z"/>
			<path fill="#414042" d="M316.8,152.2c0,0.3-0.2,0.6-0.6,0.6c-0.3,0-0.6-0.3-0.6-0.6c0-0.3,0.2-0.6,0.6-0.6
				S316.8,151.8,316.8,152.2z M315.8,159.9v-6h0.9v6H315.8z"/>
			<path fill="#414042" d="M325.5,156.9c0,1.7-1.1,3-2.9,3c-1,0-1.8-0.5-2.4-1.3v3.5h-0.9v-8.2h0.9v1.3c0.4-0.8,1.2-1.3,2.4-1.3
				C324.4,153.8,325.5,155.1,325.5,156.9z M324.7,156.9c0-1.3-0.9-2.3-2.2-2.3s-2.2,0.9-2.2,2.3c0,1.3,0.9,2.3,2.2,2.3
				C323.8,159.1,324.7,158.1,324.7,156.9z"/>
			<path fill="#414042" d="M328.7,152.2c0,0.3-0.2,0.6-0.6,0.6c-0.3,0-0.6-0.3-0.6-0.6c0-0.3,0.2-0.6,0.6-0.6
				S328.7,151.8,328.7,152.2z M327.7,159.9v-6h0.9v6H327.7z"/>
			<path fill="#414042" d="M334.8,154.3l-0.3,0.7c-0.5-0.3-1-0.5-1.6-0.5c-0.7,0-1.2,0.2-1.2,0.8c0,1.3,3.4,0.6,3.4,2.8
				c0,1.2-1,1.7-2.2,1.7c-0.8,0-1.7-0.3-2.3-0.8l0.3-0.7c0.5,0.5,1.3,0.7,1.9,0.7c0.7,0,1.2-0.3,1.3-0.8c0-1.4-3.3-0.7-3.3-2.9
				c0-1.1,1-1.6,2-1.6C333.6,153.8,334.3,154,334.8,154.3z"/>
			<path fill="#414042" d="M341.7,154.8l-0.5,0.6c-0.4-0.4-1-0.7-1.7-0.7c-1.2,0-2.2,0.9-2.2,2.3c0,1.3,0.9,2.3,2.2,2.3
				c0.8,0,1.4-0.3,1.8-0.8l0.5,0.5c-0.5,0.6-1.3,1-2.4,1c-1.7,0-3-1.2-3-3.1c0-1.7,1.2-3.1,3-3.1
				C340.4,153.8,341.2,154.1,341.7,154.8z"/>
			<path fill="#414042" d="M345,152.2c0,0.3-0.2,0.6-0.6,0.6c-0.3,0-0.6-0.3-0.6-0.6c0-0.3,0.2-0.6,0.6-0.6
				C344.8,151.6,345,151.8,345,152.2z M344,159.9v-6h0.9v6H344z"/>
			<path fill="#414042" d="M353.1,156.2v3.7h-0.9v-3.5c0-1-0.6-1.6-1.7-1.6c-1.2,0-1.9,0.8-2,1.9v3.2h-0.9v-6h0.9v1.3
				c0.4-0.9,1.2-1.3,2.4-1.3C352.3,153.8,353.1,154.8,353.1,156.2z"/>
			<path fill="#414042" d="M360.9,159.3c0,1.7-1.2,2.9-3,2.9c-0.9,0-1.7-0.3-2.5-0.8l0.4-0.7c0.6,0.5,1.2,0.7,2,0.7
				c1.3,0,2.2-0.8,2.2-2v-0.9c-0.4,0.8-1.2,1.2-2.3,1.2c-1.6,0-2.8-1.2-2.8-2.9c0-1.6,1.1-2.9,2.7-2.9c1,0,1.8,0.4,2.3,1.2v-1.2h0.9
				V159.3z M359.9,156.7c0-1.2-0.8-2.2-2-2.2c-1.2,0-2,0.9-2,2.2c0,1.2,0.8,2.2,2,2.2C359.1,158.9,359.9,157.9,359.9,156.7z"/>
			<path fill="#414042" d="M372.3,157.2h-4.9c0.2,1.1,1,1.9,2.2,1.9c0.7,0,1.4-0.3,1.8-0.7l0.5,0.5c-0.6,0.6-1.4,1-2.5,1
				c-1.7,0-3-1.2-3-3.1c0-1.7,1.2-3.1,3-3.1C371.4,153.8,372.3,155.2,372.3,157.2z M371.5,156.5c-0.1-1.1-0.8-1.8-2-1.8
				c-1.1,0-1.9,0.7-2,1.8H371.5z"/>
			<path fill="#414042" d="M374.5,159.9v-8.4h0.9v8.4C375.4,159.9,374.5,159.9,374.5,159.9z"/>
			<path fill="#414042" d="M379.1,152.2c0,0.3-0.2,0.6-0.6,0.6c-0.3,0-0.6-0.3-0.6-0.6c0-0.3,0.2-0.6,0.6-0.6
				C378.9,151.6,379.1,151.8,379.1,152.2z M378.1,159.9v-6h0.9v6H378.1z"/>
			<path fill="#414042" d="M384.8,159.5c-0.4,0.3-0.9,0.4-1.3,0.4c-0.9,0-1.5-0.5-1.5-1.7v-3.4h-0.8V154h0.8v-1.5h0.9v1.5h1.9v0.7
				h-1.9v3.3c0,0.7,0.3,1,0.8,1c0.3,0,0.6-0.1,0.9-0.3L384.8,159.5z"/>
			<path fill="#414042" d="M387.3,159.4c0,0.2-0.1,0.3-0.2,0.5l-0.5,0.8h-0.5l0.4-0.8c-0.2-0.1-0.2-0.3-0.2-0.5
				c0-0.3,0.2-0.6,0.5-0.6C387.1,158.8,387.3,159.1,387.3,159.4z"/>
			<path fill="#414042" d="M396.7,154.3l-0.3,0.7c-0.5-0.3-1-0.5-1.6-0.5c-0.7,0-1.2,0.2-1.2,0.8c0,1.3,3.4,0.6,3.4,2.8
				c0,1.2-1,1.7-2.2,1.7c-0.8,0-1.7-0.3-2.3-0.8l0.3-0.7c0.5,0.5,1.3,0.7,1.9,0.7c0.7,0,1.2-0.3,1.3-0.8c0-1.4-3.3-0.7-3.3-2.9
				c0-1.1,1-1.6,2-1.6C395.6,153.8,396.2,154,396.7,154.3z"/>
			<path fill="#414042" d="M404.1,157.2h-4.9c0.2,1.1,1,1.9,2.2,1.9c0.7,0,1.4-0.3,1.8-0.7l0.5,0.5c-0.6,0.6-1.4,1-2.5,1
				c-1.7,0-3-1.2-3-3.1c0-1.7,1.2-3.1,3-3.1C403.3,153.8,404.2,155.2,404.1,157.2z M403.3,156.5c-0.1-1.1-0.8-1.8-2-1.8
				c-1.1,0-1.9,0.7-2,1.8H403.3z"/>
			<path fill="#414042" d="M411.7,159.9h-0.8v-1.3c-0.4,0.8-1.2,1.3-2.4,1.3c-1.7,0-2.9-1.2-2.9-3.1s1.2-3.1,2.9-3.1
				c1,0,1.9,0.5,2.4,1.3v-3.8h0.9v8.6H411.7z M410.9,156.9c0-1.3-0.9-2.3-2.2-2.3s-2.2,0.9-2.2,2.3c0,1.3,0.9,2.3,2.2,2.3
				S410.9,158.1,410.9,156.9z"/>
			<path fill="#414042" d="M423.7,159.9h-0.9v-1.3c-0.4,0.8-1.2,1.3-2.4,1.3c-1.7,0-2.9-1.2-2.9-3.1s1.2-3.1,2.9-3.1
				c1,0,1.9,0.5,2.4,1.3v-3.8h0.9V159.9z M422.9,156.9c0-1.3-0.9-2.3-2.2-2.3c-1.2,0-2.2,0.9-2.2,2.3c0,1.3,0.9,2.3,2.2,2.3
				S422.9,158.1,422.9,156.9z"/>
			<path fill="#414042" d="M432,156.9c0,1.8-1.2,3.1-3.1,3.1c-1.7,0-3.1-1.2-3.1-3.1c0-1.7,1.2-3,3.1-3
				C430.7,153.8,432,155.1,432,156.9z M426.9,156.9c0,1.3,0.9,2.3,2.2,2.3c1.2,0,2.2-0.9,2.2-2.3c0-1.3-0.9-2.3-2.2-2.3
				C427.7,154.7,426.9,155.6,426.9,156.9z"/>
			<path fill="#414042" d="M442.9,157.2H438c0.2,1.1,1,1.9,2.2,1.9c0.7,0,1.4-0.3,1.8-0.7l0.5,0.5c-0.6,0.6-1.4,1-2.5,1
				c-1.7,0-3-1.2-3-3.1c0-1.7,1.2-3.1,3-3.1C442.1,153.8,443,155.2,442.9,157.2z M442.2,156.5c-0.1-1.1-0.8-1.8-2-1.8
				c-1.1,0-1.9,0.7-2,1.8H442.2z"/>
			<path fill="#414042" d="M446.1,152.2c0,0.3-0.2,0.6-0.6,0.6c-0.3,0-0.6-0.3-0.6-0.6c0-0.3,0.2-0.6,0.6-0.6
				C445.8,151.6,446.1,151.8,446.1,152.2z M445.1,159.9v-6h0.9v6H445.1z"/>
			<path fill="#414042" d="M453.9,159.9H453v-1.3c-0.4,0.9-1.2,1.3-2.3,1.4c-1.4,0-2.3-0.9-2.3-2.4v-3.7h0.9v3.5
				c0,1,0.6,1.6,1.6,1.6c1.2,0,1.9-0.9,1.9-2.2v-3h0.9L453.9,159.9L453.9,159.9z"/>
			<path fill="#414042" d="M460.2,154.3l-0.3,0.7c-0.5-0.3-1-0.5-1.6-0.5c-0.7,0-1.2,0.2-1.2,0.8c0,1.3,3.4,0.6,3.4,2.8
				c0,1.2-1,1.7-2.2,1.7c-0.8,0-1.7-0.3-2.3-0.8l0.3-0.7c0.5,0.5,1.3,0.7,1.9,0.7c0.7,0,1.2-0.3,1.3-0.8c0-1.4-3.3-0.7-3.3-2.9
				c0-1.1,1-1.6,2-1.6C458.9,153.8,459.6,154,460.2,154.3z"/>
			<path fill="#414042" d="M472.2,156.2v3.7h-0.9v-3.5c0-1-0.6-1.7-1.6-1.7c-1.2,0-1.9,0.9-1.9,2.3v3h-0.9v-3.5c0-1-0.6-1.7-1.6-1.7
				c-1.2,0-1.9,0.9-1.9,2.3v3h-0.9v-6h0.9v1.3c0.4-0.9,1.2-1.3,2.3-1.4c1.1,0,1.9,0.6,2.2,1.5c0.4-1,1.2-1.5,2.4-1.5
				C471.4,153.8,472.2,154.8,472.2,156.2z"/>
			<path fill="#414042" d="M480.2,156.9c0,1.8-1.2,3.1-3.1,3.1c-1.7,0-3.1-1.2-3.1-3.1c0-1.7,1.2-3,3.1-3
				C479,153.8,480.2,155.1,480.2,156.9z M475.1,156.9c0,1.3,0.9,2.3,2.2,2.3s2.2-0.9,2.2-2.3c0-1.3-0.9-2.3-2.2-2.3
				S475.1,155.6,475.1,156.9z"/>
			<path fill="#414042" d="M487.9,159.9H487v-1.3c-0.4,0.8-1.2,1.3-2.4,1.3c-1.7,0-2.9-1.2-2.9-3.1s1.2-3.1,2.9-3.1
				c1,0,1.9,0.5,2.4,1.3v-3.8h0.9V159.9z M487,156.9c0-1.3-0.9-2.3-2.2-2.3s-2.2,0.9-2.2,2.3c0,1.3,0.9,2.3,2.2,2.3
				S487,158.1,487,156.9z"/>
		</g>
		<g>
			<path fill="#414042" d="M497.4,159.5c-0.4,0.3-0.9,0.4-1.3,0.4c-0.9,0-1.5-0.5-1.5-1.7v-3.4h-0.8V154h0.8v-1.5h0.9v1.5h1.9v0.7
				h-1.9v3.3c0,0.7,0.3,1,0.8,1c0.3,0,0.6-0.1,0.9-0.3L497.4,159.5z"/>
		</g>
		<g>
			<path fill="#414042" d="M504.5,157.2h-4.9c0.2,1.1,1,1.9,2.2,1.9c0.7,0,1.4-0.3,1.8-0.7l0.5,0.5c-0.6,0.6-1.4,1-2.5,1
				c-1.7,0-3-1.2-3-3.1c0-1.7,1.2-3.1,3-3.1C503.6,153.8,504.5,155.2,504.5,157.2z M503.7,156.5c-0.1-1.1-0.8-1.8-2-1.8
				c-1.1,0-1.9,0.7-2,1.8H503.7z"/>
			<path fill="#414042" d="M516.5,156.2v3.7h-0.9v-3.5c0-1-0.6-1.7-1.6-1.7c-1.2,0-1.9,0.9-1.9,2.3v3h-0.9v-3.5c0-1-0.6-1.7-1.6-1.7
				c-1.2,0-1.9,0.9-1.9,2.3v3h-0.9v-6h0.9v1.3c0.4-0.9,1.2-1.3,2.3-1.4c1.1,0,1.9,0.6,2.2,1.5c0.4-1,1.2-1.5,2.4-1.5
				C515.7,153.8,516.5,154.8,516.5,156.2z"/>
			<path fill="#414042" d="M525.1,156.9c0,1.7-1.1,3-2.9,3c-1,0-1.8-0.5-2.4-1.3v3.5H519v-8.2h0.9v1.3c0.4-0.8,1.2-1.3,2.4-1.3
				C524,153.8,525.1,155.1,525.1,156.9z M524.3,156.9c0-1.3-0.9-2.3-2.2-2.3s-2.2,0.9-2.2,2.3c0,1.3,0.9,2.3,2.2,2.3
				C523.4,159.1,524.3,158.1,524.3,156.9z"/>
			<path fill="#414042" d="M532.8,156.9c0,1.8-1.2,3.1-3.1,3.1c-1.7,0-3.1-1.2-3.1-3.1c0-1.7,1.2-3,3.1-3
				C531.5,153.8,532.8,155.1,532.8,156.9z M527.6,156.9c0,1.3,0.9,2.3,2.2,2.3c1.2,0,2.2-0.9,2.2-2.3c0-1.3-0.9-2.3-2.2-2.3
				C528.5,154.7,527.6,155.6,527.6,156.9z"/>
			<path fill="#414042" d="M535.8,155.2c0.4-0.9,1.1-1.3,2.2-1.3v0.9c-1.2,0-2,0.7-2.2,1.9v3.2h-0.9v-6h0.9V155.2z"/>
		</g>
		<g>
			<path fill="#414042" d="M159,165.8c0,0.3-0.2,0.6-0.6,0.6c-0.3,0-0.6-0.3-0.6-0.6c0-0.3,0.2-0.6,0.6-0.6
				C158.7,165.2,159,165.5,159,165.8z M158,173.5v-6h0.9v6H158z"/>
			<path fill="#414042" d="M167.1,169.8v3.7h-0.9V170c0-1-0.6-1.6-1.7-1.6c-1.2,0-1.9,0.8-2,1.9v3.2h-0.9v-6h0.9v1.3
				c0.4-0.9,1.2-1.3,2.4-1.3C166.3,167.5,167.1,168.4,167.1,169.8z"/>
			<path fill="#414042" d="M174.3,168.4l-0.5,0.6c-0.4-0.4-1-0.7-1.7-0.7c-1.2,0-2.2,0.9-2.2,2.3c0,1.3,0.9,2.3,2.2,2.3
				c0.8,0,1.4-0.3,1.8-0.8l0.5,0.5c-0.5,0.6-1.3,1-2.4,1c-1.7,0-3-1.2-3-3.1c0-1.7,1.2-3.1,3-3.1C173,167.5,173.8,167.9,174.3,168.4
				z"/>
			<path fill="#414042" d="M177.6,165.8c0,0.3-0.2,0.6-0.6,0.6c-0.3,0-0.6-0.3-0.6-0.6c0-0.3,0.2-0.6,0.6-0.6
				S177.6,165.5,177.6,165.8z M176.6,173.5v-6h0.9v6H176.6z"/>
			<path fill="#414042" d="M185.8,173.5h-0.9v-1.3c-0.4,0.8-1.2,1.3-2.4,1.3c-1.7,0-2.9-1.2-2.9-3.1s1.2-3.1,2.9-3.1
				c1,0,1.9,0.5,2.4,1.3v-3.8h0.9V173.5z M184.8,170.5c0-1.3-0.9-2.3-2.2-2.3c-1.2,0-2.2,0.9-2.2,2.3c0,1.3,0.9,2.3,2.2,2.3
				C183.9,172.8,184.8,171.9,184.8,170.5z"/>
			<path fill="#414042" d="M189.6,165.8c0,0.3-0.2,0.6-0.6,0.6c-0.3,0-0.6-0.3-0.6-0.6c0-0.3,0.2-0.6,0.6-0.6
				C189.2,165.2,189.6,165.5,189.6,165.8z M188.5,173.5v-6h0.9v6H188.5z"/>
			<path fill="#414042" d="M197.6,173.5h-0.9v-1.3c-0.4,0.8-1.2,1.3-2.4,1.3c-1.7,0-2.9-1.2-2.9-3.1s1.2-3.1,2.9-3.1
				c1,0,1.9,0.5,2.4,1.3v-3.8h0.9V173.5z M196.7,170.5c0-1.3-0.9-2.3-2.2-2.3s-2.2,0.9-2.2,2.3c0,1.3,0.9,2.3,2.2,2.3
				C195.8,172.8,196.7,171.9,196.7,170.5z"/>
			<path fill="#414042" d="M205.6,173.5h-0.9v-1.3c-0.4,0.9-1.2,1.3-2.3,1.4c-1.4,0-2.3-0.9-2.3-2.4v-3.7h0.9v3.5
				c0,1,0.6,1.6,1.6,1.6c1.2,0,1.9-0.9,1.9-2.2v-3h0.9V173.5z"/>
			<path fill="#414042" d="M213.8,169.8v3.7h-0.9V170c0-1-0.6-1.6-1.7-1.6c-1.2,0-1.9,0.8-2,1.9v3.2h-0.9v-6h0.9v1.3
				c0.4-0.9,1.2-1.3,2.4-1.3C213,167.5,213.8,168.4,213.8,169.8z"/>
			<path fill="#414042" d="M219.5,173.1c-0.4,0.3-0.9,0.4-1.3,0.4c-0.9,0-1.5-0.5-1.5-1.7v-3.4h-0.8v-0.7h0.8v-1.5h0.9v1.5h1.9v0.7
				h-1.9v3.3c0,0.7,0.3,1,0.8,1c0.3,0,0.6-0.1,0.9-0.3L219.5,173.1z"/>
			<path fill="#414042" d="M230.3,173.5h-0.9v-1.3c-0.4,0.9-1.2,1.3-2.3,1.4c-1.4,0-2.3-0.9-2.3-2.4v-3.7h0.9v3.5
				c0,1,0.6,1.6,1.6,1.6c1.2,0,1.9-0.9,1.9-2.2v-3h0.9V173.5z"/>
			<path fill="#414042" d="M236.1,173.1c-0.4,0.3-0.9,0.4-1.3,0.4c-0.9,0-1.5-0.5-1.5-1.7v-3.4h-0.8v-0.7h0.8v-1.5h0.9v1.5h1.9v0.7
				h-1.9v3.3c0,0.7,0.3,1,0.8,1c0.3,0,0.6-0.1,0.9-0.3L236.1,173.1z"/>
			<path fill="#414042" d="M241.8,173.5v-8.4h0.9v8.4H241.8z"/>
			<path fill="#414042" d="M249.2,172.6c-0.5,0.6-1.2,0.9-2.2,0.9c-1.2,0-2-0.8-2-1.8s0.8-1.7,2.3-1.7h1.9v-0.2
				c0-0.9-0.5-1.4-1.6-1.4c-0.6,0-1.2,0.2-1.9,0.7l-0.4-0.6c0.8-0.5,1.4-0.8,2.5-0.8c1.4,0,2.3,0.8,2.4,2v4h-0.8L249.2,172.6
				L249.2,172.6z M249.2,171.5v-0.7h-1.8c-1,0-1.5,0.3-1.5,0.9c0,0.6,0.5,1.1,1.3,1.1C248.2,172.8,249,172.3,249.2,171.5z"/>
			<path fill="#414042" d="M258.7,170.5c0,1.7-1.1,3-2.9,3c-1,0-1.8-0.5-2.4-1.3v1.3h-0.9v-8.4h0.9v3.8c0.4-0.8,1.2-1.3,2.4-1.3
				C257.6,167.5,258.7,168.8,258.7,170.5z M257.8,170.5c0-1.3-0.9-2.3-2.2-2.3c-1.2,0-2.2,0.9-2.2,2.3c0,1.3,0.9,2.3,2.2,2.3
				C257,172.8,257.8,171.9,257.8,170.5z"/>
			<path fill="#414042" d="M266.3,170.5c0,1.8-1.2,3.1-3.1,3.1c-1.7,0-3.1-1.2-3.1-3.1c0-1.7,1.2-3,3.1-3S266.3,168.8,266.3,170.5z
				 M261.2,170.5c0,1.3,0.9,2.3,2.2,2.3c1.2,0,2.2-0.9,2.2-2.3c0-1.3-0.9-2.3-2.2-2.3C262,168.3,261.2,169.2,261.2,170.5z"/>
			<path fill="#414042" d="M269.4,168.9c0.4-0.9,1.1-1.3,2.2-1.3v0.9c-1.2,0-2,0.7-2.2,1.9v3.2h-0.9v-6h0.9V168.9z"/>
			<path fill="#414042" d="M278.4,170.8h-4.8c0.2,1.1,1,1.9,2.2,1.9c0.7,0,1.4-0.3,1.8-0.7l0.5,0.5c-0.6,0.6-1.4,1-2.5,1
				c-1.7,0-3-1.2-3-3.1c0-1.7,1.2-3.1,3-3.1C277.6,167.5,278.5,168.9,278.4,170.8z M277.7,170.1c-0.1-1.1-0.8-1.8-2-1.8
				c-1.1,0-1.9,0.7-2,1.8H277.7z"/>
			<path fill="#414042" d="M289.4,170.8h-4.9c0.2,1.1,1,1.9,2.2,1.9c0.7,0,1.4-0.3,1.8-0.7l0.5,0.5c-0.6,0.6-1.4,1-2.5,1
				c-1.7,0-3-1.2-3-3.1c0-1.7,1.2-3.1,3-3.1C288.5,167.5,289.5,168.9,289.4,170.8z M288.6,170.1c-0.1-1.1-0.8-1.8-2-1.8
				c-1.1,0-1.9,0.7-2,1.8H288.6z"/>
			<path fill="#414042" d="M294.6,173.1c-0.4,0.3-0.9,0.4-1.3,0.4c-0.9,0-1.5-0.5-1.5-1.7v-3.4h-0.8v-0.7h0.8v-1.5h0.9v1.5h1.9v0.7
				h-1.9v3.3c0,0.7,0.3,1,0.8,1c0.3,0,0.6-0.1,0.9-0.3L294.6,173.1z"/>
			<path fill="#414042" d="M305.6,173.5h-0.9v-1.3c-0.4,0.8-1.2,1.3-2.4,1.3c-1.7,0-2.9-1.2-2.9-3.1s1.2-3.1,2.9-3.1
				c1,0,1.9,0.5,2.4,1.3v-3.8h0.9V173.5z M304.8,170.5c0-1.3-0.9-2.3-2.2-2.3s-2.2,0.9-2.2,2.3c0,1.3,0.9,2.3,2.2,2.3
				S304.8,171.9,304.8,170.5z"/>
			<path fill="#414042" d="M313.9,170.5c0,1.8-1.2,3.1-3.1,3.1c-1.7,0-3.1-1.2-3.1-3.1c0-1.7,1.2-3,3.1-3S313.9,168.8,313.9,170.5z
				 M308.7,170.5c0,1.3,0.9,2.3,2.2,2.3c1.2,0,2.2-0.9,2.2-2.3c0-1.3-0.9-2.3-2.2-2.3S308.7,169.2,308.7,170.5z"/>
			<path fill="#414042" d="M316.1,173.5v-8.4h0.9v8.4H316.1z"/>
			<path fill="#414042" d="M325.3,170.5c0,1.8-1.2,3.1-3.1,3.1c-1.7,0-3.1-1.2-3.1-3.1c0-1.7,1.2-3,3.1-3
				C324,167.6,325.3,168.8,325.3,170.5z M320.1,170.5c0,1.3,0.9,2.3,2.2,2.3s2.2-0.9,2.2-2.3c0-1.3-0.9-2.3-2.2-2.3
				S320.1,169.2,320.1,170.5z"/>
			<path fill="#414042" d="M328.3,168.9c0.4-0.9,1.1-1.3,2.2-1.3v0.9c-1.2,0-2,0.7-2.2,1.9v3.2h-0.9v-6h0.9V168.9z"/>
			<path fill="#414042" d="M337.4,170.8h-4.9c0.2,1.1,1,1.9,2.2,1.9c0.7,0,1.4-0.3,1.8-0.7l0.5,0.5c-0.6,0.6-1.4,1-2.5,1
				c-1.7,0-3-1.2-3-3.1c0-1.7,1.2-3.1,3-3.1C336.5,167.5,337.5,168.9,337.4,170.8z M336.6,170.1c-0.1-1.1-0.8-1.8-2-1.8
				c-1.1,0-1.9,0.7-2,1.8H336.6z"/>
			<path fill="#414042" d="M353.1,169.8v3.7h-0.9V170c0-1-0.6-1.7-1.6-1.7c-1.2,0-1.9,0.9-1.9,2.3v3h-0.9V170c0-1-0.6-1.7-1.6-1.7
				c-1.2,0-1.9,0.9-1.9,2.3v3h-0.9v-6h0.9v1.3c0.4-0.9,1.2-1.3,2.3-1.4c1.1,0,1.9,0.6,2.2,1.5c0.4-1,1.2-1.5,2.4-1.5
				C352.3,167.5,353.1,168.4,353.1,169.8z"/>
			<path fill="#414042" d="M359.3,172.6c-0.5,0.6-1.2,0.9-2.2,0.9c-1.2,0-2-0.8-2-1.8s0.8-1.7,2.3-1.7h1.9v-0.2
				c0-0.9-0.5-1.4-1.6-1.4c-0.6,0-1.2,0.2-1.9,0.7l-0.4-0.6c0.8-0.5,1.4-0.8,2.5-0.8c1.4,0,2.3,0.8,2.4,2v4h-0.8V172.6z
				 M359.3,171.5v-0.7h-1.8c-1,0-1.5,0.3-1.5,0.9c0,0.6,0.5,1.1,1.3,1.1C358.3,172.8,359.1,172.3,359.3,171.5z"/>
			<path fill="#414042" d="M367.9,172.9c0,1.7-1.2,2.9-3,2.9c-0.9,0-1.7-0.3-2.5-0.8l0.4-0.7c0.6,0.5,1.2,0.7,2,0.7
				c1.3,0,2.2-0.8,2.2-2V172c-0.4,0.8-1.2,1.2-2.3,1.2c-1.6,0-2.8-1.2-2.8-2.9c0-1.6,1.1-2.9,2.7-2.9c1,0,1.8,0.4,2.3,1.2v-1.2h0.9
				V172.9z M367.1,170.4c0-1.2-0.8-2.2-2-2.2c-1.2,0-2,0.9-2,2.2c0,1.2,0.8,2.2,2,2.2C366.3,172.5,367.1,171.7,367.1,170.4z"/>
			<path fill="#414042" d="M376,169.8v3.7h-0.9V170c0-1-0.6-1.6-1.7-1.6c-1.2,0-1.9,0.8-2,1.9v3.2h-0.9v-6h0.9v1.3
				c0.4-0.9,1.2-1.3,2.4-1.3C375.2,167.5,376,168.4,376,169.8z"/>
			<path fill="#414042" d="M382.4,172.6c-0.5,0.6-1.2,0.9-2.2,0.9c-1.2,0-2-0.8-2-1.8s0.8-1.7,2.3-1.7h1.9v-0.2
				c0-0.9-0.5-1.4-1.6-1.4c-0.6,0-1.2,0.2-1.9,0.7l-0.4-0.6c0.8-0.5,1.4-0.8,2.5-0.8c1.4,0,2.3,0.8,2.4,2v4h-0.8V172.6z
				 M382.3,171.5v-0.7h-1.8c-1,0-1.5,0.3-1.5,0.9c0,0.6,0.5,1.1,1.3,1.1C381.4,172.8,382.1,172.3,382.3,171.5z"/>
			<path fill="#414042" d="M393.1,172.6c-0.5,0.6-1.2,0.9-2.2,0.9c-1.2,0-2-0.8-2-1.8s0.8-1.7,2.3-1.7h1.9v-0.2
				c0-0.9-0.5-1.4-1.6-1.4c-0.6,0-1.2,0.2-1.9,0.7l-0.4-0.6c0.8-0.5,1.4-0.8,2.5-0.8c1.4,0,2.3,0.8,2.4,2v4h-0.8V172.6z
				 M393.1,171.5v-0.7h-1.8c-1,0-1.5,0.3-1.5,0.9c0,0.6,0.5,1.1,1.3,1.1C392.1,172.8,392.9,172.3,393.1,171.5z"/>
			<path fill="#414042" d="M396.6,173.5v-8.4h0.9v8.4H396.6z"/>
			<path fill="#414042" d="M401.3,165.8c0,0.3-0.2,0.6-0.6,0.6c-0.3,0-0.6-0.3-0.6-0.6c0-0.3,0.2-0.6,0.6-0.6
				C401,165.2,401.3,165.5,401.3,165.8z M400.3,173.5v-6h0.9v6H400.3z"/>
			<path fill="#414042" d="M409.4,175.8h-0.9v-3.5c-0.4,0.8-1.2,1.3-2.4,1.3c-1.7,0-2.9-1.2-2.9-3.1s1.2-3.1,2.9-3.1
				c1,0,1.9,0.5,2.4,1.3v-1.3h0.9V175.8z M408.5,170.5c0-1.3-0.9-2.3-2.2-2.3s-2.2,0.9-2.2,2.3c0,1.3,0.9,2.3,2.2,2.3
				C407.7,172.8,408.5,171.9,408.5,170.5z"/>
			<path fill="#414042" d="M417.4,173.5h-0.9v-1.3c-0.4,0.9-1.2,1.3-2.3,1.4c-1.4,0-2.3-0.9-2.3-2.4v-3.7h0.9v3.5
				c0,1,0.6,1.6,1.6,1.6c1.2,0,1.9-0.9,1.9-2.2v-3h0.9L417.4,173.5L417.4,173.5z"/>
			<path fill="#414042" d="M423.9,172.6c-0.5,0.6-1.2,0.9-2.2,0.9c-1.2,0-2-0.8-2-1.8s0.8-1.7,2.3-1.7h1.9v-0.2
				c0-0.9-0.5-1.4-1.6-1.4c-0.6,0-1.2,0.2-1.9,0.7l-0.4-0.6c0.8-0.5,1.4-0.8,2.5-0.8c1.4,0,2.3,0.8,2.4,2v4h-0.8V172.6z
				 M423.9,171.5v-0.7H422c-1,0-1.5,0.3-1.5,0.9c0,0.6,0.5,1.1,1.3,1.1C422.9,172.8,423.7,172.3,423.9,171.5z"/>
			<path fill="#414042" d="M427.9,173c0,0.3-0.2,0.6-0.5,0.6s-0.5-0.2-0.5-0.6c0-0.3,0.2-0.6,0.5-0.6
				C427.7,172.5,427.9,172.7,427.9,173z"/>
		</g>
	</g>
	<g>
		<g>
			
				<circle fill="none" stroke="#231F20" stroke-width="3.2" stroke-linejoin="round" stroke-dasharray="9.9219,9.9219" cx="541.5" cy="351.5" r="68.3"/>
		</g>
		<g>
			
				<rect x="2" y="398.2" fill="#FFFFFF" stroke="#231F20" stroke-width="3.2" stroke-linejoin="round" stroke-miterlimit="10" width="141.2" height="112.7"/>
			<rect x="14.5" y="410.7" fill="#EB3249" width="115" height="86.5"/>
			<polyline fill="none" stroke="#231F20" stroke-width="3.2" stroke-linejoin="round" stroke-miterlimit="10" points="13.2,467.9 
				61.8,442.8 109.1,470 			"/>
			<polyline fill="none" stroke="#231F20" stroke-width="3.2" stroke-linejoin="round" stroke-miterlimit="10" points="88.8,458.3 
				106.5,442.8 130.6,458.3 			"/>
			<circle fill="#FFFFFF" cx="82.7" cy="427.5" r="11"/>
		</g>
		<g>
			<path fill="#C4C6C7" d="M154.5,319.5v-8c1.1-0.5,2.9-1,4.2-1.8l5.6,5.6c0.5,0.5,1.4,0.5,1.9,0l8.1-8.1c0.5-0.5,0.5-1.4,0-1.9
				l-5.6-6c0.7-1.3,1.3-2.4,1.8-4.7h8c0.7,0,1,0,1-0.7v-11.5c0-0.7-0.2-1.4-1-1.4h-8c-0.4-2.3-1-3-1.8-4.3l5.6-5.6
				c0.5-0.5,0.5-1.4,0-1.9l-8.1-8.1c-0.5-0.5-1.4-0.5-1.9,0l-5.5,5.6c-1.3-0.7-3.1-1.3-4.2-1.8v-8c0-0.7-0.8-1.9-1.5-1.9h-11.5
				c-0.7,0-1.7,1.2-1.7,1.9v8c-1.1,0.5-2.8,1-4.2,1.8l-5.6-5.6c-0.5-0.5-1.3-0.5-1.9,0L120,269c-0.5,0.5-0.5,1.4,0,1.9l5.7,5.6
				c-0.7,1.3-1.3,2-1.8,4.3h-8c-0.7,0-2.3,0.7-2.3,1.4v11.5c0,0.7,1.5,0.7,2.3,0.7h8c0.5,2.3,1,3.3,1.8,4.7l-5.6,5.8
				c-0.5,0.5-0.5,1.5,0,2l8.1,8.2c0.5,0.5,1.4,0.5,1.9,0l5.5-5.6c1.3,0.7,3.1,1.3,4.2,1.8v8c0,0.7,0.9,1.2,1.7,1.2h11.5
				C153.8,320.7,154.5,320.2,154.5,319.5z"/>
			<path fill="#F1F2F2" stroke="#231F20" stroke-width="3.2" stroke-linejoin="round" stroke-miterlimit="10" d="M146.9,298.8
				c-5.7,0-10.3-4.6-10.3-10.3s4.6-10.3,10.3-10.3c5.7,0,10.3,4.6,10.3,10.3S152.7,298.8,146.9,298.8z"/>
		</g>
		<g>
			<path fill="#C4C6C7" d="M554.1,406.5v-13.9c2.3-0.8,4.7-1.8,7.2-3.2l9.6,9.8c0.9,0.9,2.4,0.9,3.3,0l14-14.1
				c0.9-0.9,0.9-2.5,0-3.4l-9.8-9.5c1.2-2.4,2.4-6,3.1-7.2h13.9c1.3,0,1.9-1.8,1.9-3.2v-20c0-1.3-0.6-1.9-1.9-1.9h-13.9
				c-0.8-4.5-1.8-5.4-3.1-7.8l9.8-9.9c0.9-0.9,0.9-2.5,0-3.5l-14.1-14.1c-0.9-0.9-2.5-0.9-3.4,0l-9.4,9.8c-2.4-1.2-4.9-2.4-7.2-3.2
				v-13.6c0-1.3-1.8-3-3.2-3h-20c-1.3,0-3.1,1.6-3.1,3v13.9c-1.1,0.8-4.8,1.8-7.2,3.2l-9.7-9.8c-0.9-0.9-2.4-0.9-3.3,0l-14,14.1
				c-0.9,0.9-0.9,2.5,0,3.4l9.8,10c-1.2,2.4-2.4,3.2-3.1,7.8h-13.9c-1.3,0-3,0.6-3,1.9v20c0,1.3,1.6,3.2,3,3.2h13.9
				c0.8,1.1,1.8,4.8,3.2,7.2l-9.8,9.6c-0.9,0.9-0.9,2.4,0,3.3l14.1,14c0.9,0.9,2.5,0.9,3.4,0l9.5-9.8c2.4,1.2,6,2.4,7.2,3.1v13.9
				c0,1.3,1.7,3.1,3.1,3.1h20C552.3,409.6,554.1,407.8,554.1,406.5z"/>
			<path fill="#F1F2F2" stroke="#231F20" stroke-width="3.2" stroke-linejoin="round" stroke-miterlimit="10" d="M540.5,370.6
				c-9.8,0-17.9-8-17.9-17.9s8-17.9,17.9-17.9s17.9,8,17.9,17.9C558.4,362.5,550.4,370.6,540.5,370.6z"/>
		</g>
		<g>
			<g>
				<g>
					<path fill="none" stroke="#231F20" stroke-width="3.2" stroke-linejoin="round" d="M375.5,302.9c0.4-1.2,0.8-2.6,1.4-3.7"/>
					<path fill="none" stroke="#231F20" stroke-width="3.2" stroke-linejoin="round" stroke-dasharray="6.0714,6.0714" d="
						M380.1,293.1c1.8-2.9,4.1-5.5,6.7-7.9"/>
					<path fill="none" stroke="#231F20" stroke-width="3.2" stroke-linejoin="round" d="M389.6,282.9c1-0.8,2.2-1.5,3.3-2.3"/>
				</g>
			</g>
		</g>
		<g>
			<g>
				<g>
					<path fill="none" stroke="#231F20" stroke-width="3.2" stroke-linejoin="round" d="M435.6,280.6c1.1,0.7,2.3,1.4,3.3,2.3"/>
					<path fill="none" stroke="#231F20" stroke-width="3.2" stroke-linejoin="round" stroke-dasharray="6.6453,6.6453" d="
						M444.4,288c6.6,7.2,10.5,16.8,10.5,27.3c0,4-0.6,7.9-1.6,11.6"/>
					<path fill="none" stroke="#231F20" stroke-width="3.2" stroke-linejoin="round" d="M452,330.4c-0.5,1.2-1,2.5-1.6,3.6"/>
				</g>
			</g>
		</g>
		<g>
			<rect x="229.7" y="510.9" fill="#BCBEC0" width="64.9" height="43.2"/>
			<g>
				<path fill="#F1F2F2" d="M411.9,325.4c0-9-6.7-17.1-16.1-17.1H127.7c-9.4,0-17.5,8.1-17.5,17.1v134.3h301.7V325.4z"/>
				<path fill="#F1F2F2" stroke="#231F20" stroke-width="3.2" stroke-linejoin="round" stroke-miterlimit="10" d="M110.1,459.7v35.9
					c0,9,8.1,15.4,17.5,15.4h268.1c9.4,0,16.1-6.4,16.1-15.4v-35.9H110.1z"/>
			</g>
			<circle fill="#BCBEC0" cx="261.7" cy="485.4" r="10.6"/>
			
				<rect x="217.2" y="554.1" fill="#F1F2F2" stroke="#231F20" stroke-width="3.2" stroke-linejoin="round" stroke-miterlimit="10" width="87.7" height="11.4"/>
			
				<rect x="129.5" y="326.5" fill="#939598" stroke="#231F20" stroke-width="3.2" stroke-linejoin="round" stroke-miterlimit="10" width="264.1" height="133.2"/>
			<g opacity="0.3">
				<rect x="147.7" y="343.5" fill="#F1F2F2" width="228.8" height="35.2"/>
				<rect x="147.7" y="388" fill="#F1F2F2" width="151.4" height="28.5"/>
				<rect x="313.9" y="388" fill="#F1F2F2" width="61.5" height="28.5"/>
				<rect x="147.7" y="426.7" fill="#F1F2F2" width="227.7" height="16"/>
			</g>
		</g>
		<rect x="395.9" y="374.2" fill="#E6E7E8" width="16" height="6.9"/>
		<rect x="110.1" y="447.2" fill="#E6E7E8" width="17.1" height="5.7"/>
		<g>
			<g>
				<path fill="#D1D3D4" d="M77.2,565.2c0,3.1,2.4,6,5.2,6h76.7c3,0,5.6-2.9,5.6-6v-13.3H77.2V565.2z"/>
				<path fill="#D1D3D4" d="M164.8,458.6c0-3.1-2.7-5.7-5.6-5.7H82.4c-3,0-5.2,2.6-5.2,5.7v13.6h87.7v-13.6H164.8z"/>
				
					<rect x="77.2" y="472.2" fill="#BCBEC0" stroke="#231F20" stroke-width="3.2" stroke-linejoin="round" stroke-miterlimit="10" width="87.7" height="79.7"/>
			</g>
			
				<line fill="none" stroke="#231F20" stroke-width="3.2" stroke-linejoin="round" stroke-miterlimit="10" x1="109" y1="463.1" x2="121.5" y2="463.1"/>
			
				<line fill="none" stroke="#231F20" stroke-width="3.2" stroke-linejoin="round" stroke-miterlimit="10" x1="127.3" y1="463.1" x2="132.9" y2="463.1"/>
			<rect x="87.4" y="482.4" opacity="0.8" fill="#FFFFFF" enable-background="new    " width="66" height="33"/>
			<rect x="87.4" y="523.4" opacity="0.8" fill="#FFFFFF" enable-background="new    " width="66" height="19.4"/>
			
				<line fill="none" stroke="#231F20" stroke-width="3.2" stroke-linejoin="round" stroke-miterlimit="10" x1="96.5" y1="493.8" x2="109" y2="493.8"/>
			
				<line fill="none" stroke="#231F20" stroke-width="3.2" stroke-linejoin="round" stroke-miterlimit="10" x1="96.5" y1="532.5" x2="112.4" y2="532.5"/>
			
				<line fill="none" stroke="#231F20" stroke-width="3.2" stroke-linejoin="round" stroke-miterlimit="10" x1="128.4" y1="532.5" x2="145.5" y2="532.5"/>
			
				<line fill="none" stroke="#231F20" stroke-width="3.2" stroke-linejoin="round" stroke-miterlimit="10" x1="96.5" y1="502.9" x2="145.5" y2="502.9"/>
		</g>
		<g>
			<path fill="#D1D3D4" d="M257,302.5h10.5c0-19.4,19-31.9,19-31.9l-29.3-34.2l-29.3,34.3c0,0,19,12.4,19,31.8H257z"/>
			<g>
				
					<rect x="234.2" y="435.7" fill="#FD8A06" stroke="#231F20" stroke-width="3.2" stroke-linejoin="round" stroke-miterlimit="10" width="43.2" height="23.9"/>
				<polygon fill="#EB3249" stroke="#231F20" stroke-width="3.2" stroke-linejoin="round" stroke-miterlimit="10" points="
					277.5,312.8 274.1,312.8 274.1,302.5 237.7,302.5 237.7,312.8 234.2,312.8 234.2,425.5 277.5,425.5 				"/>
				
					<rect x="234.2" y="425.5" fill="#A7A9AC" stroke="#231F20" stroke-width="3.2" stroke-linejoin="round" stroke-miterlimit="10" width="43.2" height="10.2"/>
			</g>
			
				<line fill="none" stroke="#231F20" stroke-width="3.2" stroke-linejoin="round" stroke-miterlimit="10" x1="236.5" y1="312.8" x2="261.6" y2="312.8"/>
			
				<line fill="none" stroke="#231F20" stroke-width="3.2" stroke-linejoin="round" stroke-miterlimit="10" x1="257" y1="236.5" x2="257" y2="267.3"/>
			
				<circle fill="#939598" stroke="#231F20" stroke-width="3.2" stroke-linejoin="round" stroke-miterlimit="10" cx="257.1" cy="274.5" r="6.7"/>
		</g>
		<g>
			<g>
				<rect x="293.4" y="271.8" fill="#FD8A06" width="36.5" height="185.6"/>
				
					<line fill="none" stroke="#231F20" stroke-width="3.2" stroke-linejoin="round" stroke-miterlimit="10" x1="313.9" y1="285.5" x2="294.6" y2="285.5"/>
				
					<line fill="none" stroke="#231F20" stroke-width="3.2" stroke-linejoin="round" stroke-miterlimit="10" x1="309.4" y1="299.1" x2="294.6" y2="299.1"/>
				
					<line fill="none" stroke="#231F20" stroke-width="3.2" stroke-linejoin="round" stroke-miterlimit="10" x1="313.9" y1="315.1" x2="294.6" y2="315.1"/>
				
					<line fill="none" stroke="#231F20" stroke-width="3.2" stroke-linejoin="round" stroke-miterlimit="10" x1="309.4" y1="332.1" x2="294.6" y2="332.1"/>
				
					<line fill="none" stroke="#231F20" stroke-width="3.2" stroke-linejoin="round" stroke-miterlimit="10" x1="313.9" y1="347" x2="294.6" y2="347"/>
				
					<line fill="none" stroke="#231F20" stroke-width="3.2" stroke-linejoin="round" stroke-miterlimit="10" x1="309.4" y1="365.2" x2="294.6" y2="365.2"/>
				
					<line fill="none" stroke="#231F20" stroke-width="3.2" stroke-linejoin="round" stroke-miterlimit="10" x1="313.9" y1="381.1" x2="294.6" y2="381.1"/>
				
					<line fill="none" stroke="#231F20" stroke-width="3.2" stroke-linejoin="round" stroke-miterlimit="10" x1="309.4" y1="397.1" x2="294.6" y2="397.1"/>
				
					<line fill="none" stroke="#231F20" stroke-width="3.2" stroke-linejoin="round" stroke-miterlimit="10" x1="313.9" y1="413" x2="294.6" y2="413"/>
				
					<line fill="none" stroke="#231F20" stroke-width="3.2" stroke-linejoin="round" stroke-miterlimit="10" x1="309.4" y1="427.8" x2="294.6" y2="427.8"/>
				
					<line fill="none" stroke="#231F20" stroke-width="3.2" stroke-linejoin="round" stroke-miterlimit="10" x1="313.9" y1="445.9" x2="294.6" y2="445.9"/>
			</g>
			
				<line fill="none" stroke="#231F20" stroke-width="3.2" stroke-linejoin="round" stroke-miterlimit="10" x1="293.4" y1="271.8" x2="293.4" y2="457.4"/>
		</g>
		<g>
			<g>
				<rect x="200.1" y="432.3" fill="#D1D3D4" width="22.7" height="5.7"/>
				<rect x="200.1" y="311.6" fill="#EB3249" width="22.7" height="120.7"/>
				
					<rect x="201.2" y="438.1" fill="#939598" stroke="#231F20" stroke-width="3.2" stroke-linejoin="round" stroke-miterlimit="10" width="20.5" height="21.6"/>
			</g>
			<polygon fill="#F1F2F2" stroke="#231F20" stroke-width="3.2" stroke-linejoin="round" stroke-miterlimit="10" points="212,289.7 
				201.4,311.6 222.5,311.6 			"/>
			
				<line fill="none" stroke="#231F20" stroke-width="3.2" stroke-linejoin="round" stroke-miterlimit="10" x1="210.4" y1="311.6" x2="210.4" y2="423.2"/>
		</g>
		<g>
			<path fill="#D1D3D4" d="M540.5,392c0-6-4.6-10.9-10.7-10.9H316.2c-6,0-11.4,4.7-11.4,10.9v156.6h235.7V392z"/>
			<path fill="#F1F2F2" stroke="#231F20" stroke-width="3.2" stroke-linejoin="round" stroke-miterlimit="10" d="M287.7,548.4v10.9
				c0,6,5.3,10.8,12.3,10.8h246c7,0,12.7-4.7,12.7-10.8v-10.9H287.7z"/>
			
				<rect x="321.9" y="394.7" fill="#FD8A06" stroke="#231F20" stroke-width="3.2" stroke-linejoin="round" stroke-miterlimit="10" width="202.7" height="136.6"/>
			
				<line fill="none" stroke="#231F20" stroke-width="3.2" stroke-linejoin="round" stroke-miterlimit="10" x1="409.5" y1="559.9" x2="435.8" y2="559.9"/>
			<g opacity="0.3">
				<rect x="335.6" y="407.3" fill="#FFFFFF" width="177.6" height="36.5"/>
				<rect x="335.6" y="455.1" fill="#FFFFFF" width="117.2" height="31.9"/>
				<rect x="464.3" y="455.1" fill="#FFFFFF" width="47.8" height="31.9"/>
				<rect x="335.6" y="497.2" fill="#FFFFFF" width="176.4" height="18.2"/>
			</g>
		</g>
		<g>
			
				<rect x="420.9" y="341.2" fill="#FFFFFF" stroke="#231F20" stroke-width="3.2" stroke-linejoin="round" stroke-miterlimit="10" width="90" height="70.6"/>
			<rect x="431.2" y="348.1" fill="#EB3249" width="70.6" height="54.6"/>
			<polyline fill="none" stroke="#231F20" stroke-width="3.2" stroke-linejoin="round" stroke-miterlimit="10" points="428.1,384.9 
				458.5,369 488.3,386.2 			"/>
			<polyline fill="none" stroke="#231F20" stroke-width="3.2" stroke-linejoin="round" stroke-miterlimit="10" points="475.6,378.8 
				486.7,369 501.9,378.8 			"/>
			<circle fill="#FFFFFF" cx="471.7" cy="359.5" r="6.9"/>
		</g>
		
			<line fill="none" stroke="#231F20" stroke-width="3.2" stroke-linejoin="round" stroke-miterlimit="10" x1="345.8" y1="506.3" x2="358.3" y2="506.3"/>
		
			<line fill="none" stroke="#231F20" stroke-width="3.2" stroke-linejoin="round" stroke-miterlimit="10" x1="375.4" y1="506.3" x2="385.7" y2="506.3"/>
		
			<line fill="none" stroke="#231F20" stroke-width="3.2" stroke-linejoin="round" stroke-miterlimit="10" x1="402.8" y1="506.3" x2="415.3" y2="506.3"/>
		
			<line fill="none" stroke="#231F20" stroke-width="3.2" stroke-linejoin="round" stroke-miterlimit="10" x1="431.2" y1="506.3" x2="443.8" y2="506.3"/>
		
			<line fill="none" stroke="#231F20" stroke-width="3.2" stroke-linejoin="round" stroke-miterlimit="10" x1="402.8" y1="435.7" x2="408.4" y2="435.7"/>
		
			<line fill="none" stroke="#231F20" stroke-width="3.2" stroke-linejoin="round" stroke-miterlimit="10" x1="417.5" y1="435.7" x2="424.4" y2="435.7"/>
		
			<line fill="none" stroke="#231F20" stroke-width="3.2" stroke-linejoin="round" stroke-miterlimit="10" x1="433.5" y1="435.7" x2="439.1" y2="435.7"/>
		
			<line fill="none" stroke="#231F20" stroke-width="3.2" stroke-linejoin="round" stroke-miterlimit="10" x1="459.6" y1="506.3" x2="471" y2="506.3"/>
		
			<line fill="none" stroke="#231F20" stroke-width="3.2" stroke-linejoin="round" stroke-miterlimit="10" x1="487" y1="506.3" x2="499.5" y2="506.3"/>
		<polyline fill="none" stroke="#231F20" stroke-width="3.2" stroke-linejoin="round" stroke-miterlimit="10" points="335.6,455.1 
			335.6,486.9 452.9,486.9 		"/>
		<g>
			
				<line fill="none" stroke="#231F20" stroke-width="3.2" stroke-linejoin="round" stroke-miterlimit="10" x1="510.9" y1="482.4" x2="482.4" y2="482.4"/>
			
				<line fill="none" stroke="#231F20" stroke-width="3.2" stroke-linejoin="round" stroke-miterlimit="10" x1="475.6" y1="482.4" x2="465.4" y2="482.4"/>
			
				<line fill="none" stroke="#231F20" stroke-width="3.2" stroke-linejoin="round" stroke-miterlimit="10" x1="510.9" y1="472.2" x2="482.4" y2="472.2"/>
			
				<line fill="none" stroke="#231F20" stroke-width="3.2" stroke-linejoin="round" stroke-miterlimit="10" x1="475.6" y1="472.2" x2="465.4" y2="472.2"/>
			
				<line fill="none" stroke="#231F20" stroke-width="3.2" stroke-linejoin="round" stroke-miterlimit="10" x1="510.9" y1="457.4" x2="482.4" y2="457.4"/>
			
				<line fill="none" stroke="#231F20" stroke-width="3.2" stroke-linejoin="round" stroke-miterlimit="10" x1="475.6" y1="457.4" x2="465.4" y2="457.4"/>
		</g>
		<g>
			<polygon fill="#FD8A06" points="169.4,340.1 72.5,340.1 72.5,402.7 123.8,402.7 123.8,426.9 147.4,402.7 169.4,402.7 			"/>
			<polyline fill="none" stroke="#231F20" stroke-width="3.2" stroke-linejoin="round" stroke-miterlimit="10" points="102.7,359.4 
				91.8,370.3 103,381.5 			"/>
			<polyline fill="none" stroke="#231F20" stroke-width="3.2" stroke-linejoin="round" stroke-miterlimit="10" points="140.2,382 
				151.6,370.6 140.2,359.2 			"/>
			
				<line fill="none" stroke="#231F20" stroke-width="3.2" stroke-linejoin="round" stroke-miterlimit="10" x1="113.6" y1="390.3" x2="131.3" y2="350.6"/>
		</g>
		<g>
			<path fill="#FD8A06" d="M385.4,317.1c0,16.1,13.1,29.2,29.2,29.2s29.4-13,29.4-29.2c0-12.8-8.2-23.7-19.6-27.6v-18.9H405v18.9
				C393.7,293.4,385.4,304.2,385.4,317.1z"/>
			
				<rect x="405" y="258.1" fill="#BCBEC0" stroke="#231F20" stroke-width="3.2" stroke-linejoin="round" stroke-miterlimit="10" width="19.4" height="12.5"/>
			
				<line fill="none" stroke="#231F20" stroke-width="3.2" stroke-linejoin="round" stroke-miterlimit="10" x1="415.3" y1="270.6" x2="415.3" y2="318.5"/>
			
				<line fill="none" stroke="#231F20" stroke-width="3.2" stroke-linejoin="round" stroke-miterlimit="10" x1="419.8" y1="318.5" x2="407.3" y2="318.5"/>
			<path fill="none" stroke="#231F20" stroke-width="3.2" stroke-linejoin="round" stroke-miterlimit="10" d="M427.7,332
				c0,0,9.8-6.9,6.1-20.1"/>
			
				<line fill="none" stroke="#231F20" stroke-width="3.2" stroke-linejoin="round" stroke-miterlimit="10" x1="424.4" y1="250.1" x2="405" y2="250.1"/>
			
				<line fill="none" stroke="#231F20" stroke-width="3.2" stroke-linejoin="round" stroke-miterlimit="10" x1="424.4" y1="243.4" x2="405" y2="243.4"/>
			
				<line fill="none" stroke="#231F20" stroke-width="3.2" stroke-linejoin="round" stroke-miterlimit="10" x1="403.9" y1="221.8" x2="428.9" y2="221.8"/>
			
				<line fill="none" stroke="#231F20" stroke-width="3.2" stroke-linejoin="round" stroke-miterlimit="10" x1="415.3" y1="243.4" x2="415.3" y2="221.8"/>
		</g>
		
			<line fill="none" stroke="#231F20" stroke-width="3.2" stroke-linejoin="round" stroke-miterlimit="10" x1="106.8" y1="307.1" x2="68" y2="307.1"/>
		
			<line fill="none" stroke="#231F20" stroke-width="3.2" stroke-linejoin="round" stroke-miterlimit="10" x1="102.2" y1="287.7" x2="48.7" y2="287.7"/>
		
			<line fill="none" stroke="#231F20" stroke-width="3.2" stroke-linejoin="round" stroke-miterlimit="10" x1="104.5" y1="266.1" x2="82.8" y2="266.1"/>
		<g>
			<polygon fill="#E6E7E8" points="574.6,441.4 492.6,441.4 492.6,497.2 534.8,497.2 534.8,517.6 555.9,497.2 574.6,497.2 			"/>
			
				<line fill="none" stroke="#231F20" stroke-width="3.2" stroke-linejoin="round" stroke-miterlimit="10" x1="502.9" y1="452.8" x2="518.9" y2="452.8"/>
			
				<line fill="none" stroke="#231F20" stroke-width="3.2" stroke-linejoin="round" stroke-miterlimit="10" x1="502.9" y1="465.3" x2="565.6" y2="465.3"/>
			
				<line fill="none" stroke="#231F20" stroke-width="3.2" stroke-linejoin="round" stroke-miterlimit="10" x1="502.9" y1="477.9" x2="565.6" y2="477.9"/>
			
				<line fill="none" stroke="#231F20" stroke-width="3.2" stroke-linejoin="round" stroke-miterlimit="10" x1="502.9" y1="488.2" x2="516.6" y2="488.2"/>
			
				<line fill="none" stroke="#231F20" stroke-width="3.2" stroke-linejoin="round" stroke-miterlimit="10" x1="525.7" y1="488.2" x2="542.7" y2="488.2"/>
			
				<line fill="none" stroke="#231F20" stroke-width="3.2" stroke-linejoin="round" stroke-miterlimit="10" x1="548.5" y1="488.2" x2="565.6" y2="488.2"/>
			
				<line fill="none" stroke="#231F20" stroke-width="3.2" stroke-linejoin="round" stroke-miterlimit="10" x1="526.9" y1="452.8" x2="565.6" y2="452.8"/>
		</g>
		<g>
			<polygon fill="#E6E7E8" points="27,368.6 82.8,368.6 82.8,332.1 53.3,332.1 53.3,318.7 39.8,332.1 27,332.1 			"/>
			
				<line fill="none" stroke="#231F20" stroke-width="3.2" stroke-linejoin="round" stroke-miterlimit="10" x1="33.9" y1="349.2" x2="43" y2="349.2"/>
			
				<line fill="none" stroke="#231F20" stroke-width="3.2" stroke-linejoin="round" stroke-miterlimit="10" x1="50.9" y1="349.2" x2="58.9" y2="349.2"/>
			
				<line fill="none" stroke="#231F20" stroke-width="3.2" stroke-linejoin="round" stroke-miterlimit="10" x1="66.9" y1="349.2" x2="74.9" y2="349.2"/>
		</g>
		
			<line fill="none" stroke="#231F20" stroke-width="3.2" stroke-linejoin="round" stroke-miterlimit="10" x1="449.4" y1="261.5" x2="465.4" y2="261.5"/>
		
			<line fill="none" stroke="#231F20" stroke-width="3.2" stroke-linejoin="round" stroke-miterlimit="10" x1="469.9" y1="261.5" x2="475.6" y2="261.5"/>
		
			<line fill="none" stroke="#231F20" stroke-width="3.2" stroke-linejoin="round" stroke-miterlimit="10" x1="379.9" y1="236.5" x2="359.4" y2="236.5"/>
		
			<line fill="none" stroke="#231F20" stroke-width="3.2" stroke-linejoin="round" stroke-miterlimit="10" x1="352.7" y1="236.5" x2="345.8" y2="236.5"/>
		
			<line fill="none" stroke="#231F20" stroke-width="3.2" stroke-linejoin="round" stroke-miterlimit="10" x1="469.9" y1="237.6" x2="450.5" y2="237.6"/>
		
			<line fill="none" stroke="#231F20" stroke-width="3.2" stroke-linejoin="round" stroke-miterlimit="10" x1="443.8" y1="237.6" x2="436.9" y2="237.6"/>
		
			<line fill="none" stroke="#231F20" stroke-width="3.2" stroke-linejoin="round" stroke-miterlimit="10" x1="361.8" y1="260.4" x2="377.7" y2="260.4"/>
		
			<line fill="none" stroke="#231F20" stroke-width="3.2" stroke-linejoin="round" stroke-miterlimit="10" x1="382.3" y1="260.4" x2="387.9" y2="260.4"/>
	</g>
	<g>
		
			<line fill="none" stroke="#231F20" stroke-width="3.2" stroke-linejoin="round" stroke-miterlimit="10" stroke-dasharray="7" x1="448.6" y1="891.8" x2="448.6" y2="980.1"/>
		
			<line fill="none" stroke="#231F20" stroke-width="3.2" stroke-linejoin="round" stroke-miterlimit="10" stroke-dasharray="7" x1="90.8" y1="920.4" x2="90.8" y2="1051.9"/>
		<g>
			<g>
				<line fill="none" stroke="#231F20" stroke-width="3.2" stroke-linejoin="round" x1="139.3" y1="867.5" x2="143.3" y2="867.5"/>
				
					<line fill="none" stroke="#231F20" stroke-width="3.2" stroke-linejoin="round" stroke-dasharray="7.1162,7.1162" x1="151.4" y1="867.5" x2="422.9" y2="867.5"/>
				<line fill="none" stroke="#231F20" stroke-width="3.2" stroke-linejoin="round" x1="426.9" y1="867.5" x2="430.8" y2="867.5"/>
			</g>
		</g>
		<g>
			<g>
				<rect x="635.2" y="976.8" fill="#BCBEC0" width="24.3" height="22.1"/>
				
					<line fill="none" stroke="#231F20" stroke-width="3.2" stroke-linejoin="round" stroke-miterlimit="10" x1="625.2" y1="994.4" x2="588.7" y2="994.4"/>
				
					<line fill="none" stroke="#231F20" stroke-width="3.2" stroke-linejoin="round" stroke-miterlimit="10" x1="625.2" y1="981.2" x2="574.4" y2="981.2"/>
			</g>
			
				<line fill="none" stroke="#231F20" stroke-width="3.2" stroke-linejoin="round" stroke-miterlimit="10" x1="658.9" y1="998.8" x2="635.1" y2="976.2"/>
		</g>
		<g>
			
				<rect x="494.9" y="1007.6" fill="#F1F2F2" stroke="#231F20" stroke-width="3.2" stroke-linejoin="round" stroke-miterlimit="10" width="161.2" height="42"/>
			
				<rect x="494.9" y="1049.7" fill="#D1D3D4" stroke="#231F20" stroke-width="3.2" stroke-linejoin="round" stroke-miterlimit="10" width="161.2" height="42"/>
			
				<rect x="494.9" y="1091.7" fill="#F1F2F2" stroke="#231F20" stroke-width="3.2" stroke-linejoin="round" stroke-miterlimit="10" width="161.2" height="42"/>
			<circle fill="#FFFFFF" cx="625.2" cy="1069.5" r="9.4"/>
			<circle fill="#FFFFFF" cx="595.4" cy="1069.5" r="9.4"/>
			
				<line fill="none" stroke="#231F20" stroke-width="3.2" stroke-linejoin="round" stroke-miterlimit="10" x1="518.1" y1="1106" x2="634" y2="1106"/>
			
				<line fill="none" stroke="#231F20" stroke-width="3.2" stroke-linejoin="round" stroke-miterlimit="10" x1="518.1" y1="1117" x2="634" y2="1117"/>
			
				<line fill="none" stroke="#231F20" stroke-width="3.2" stroke-linejoin="round" stroke-miterlimit="10" x1="518.1" y1="1062.9" x2="518.1" y2="1076.2"/>
			
				<line fill="none" stroke="#231F20" stroke-width="3.2" stroke-linejoin="round" stroke-miterlimit="10" x1="529.1" y1="1062.9" x2="529.1" y2="1076.2"/>
			
				<line fill="none" stroke="#231F20" stroke-width="3.2" stroke-linejoin="round" stroke-miterlimit="10" x1="540.2" y1="1062.9" x2="540.2" y2="1076.2"/>
			
				<line fill="none" stroke="#231F20" stroke-width="3.2" stroke-linejoin="round" stroke-miterlimit="10" x1="551.2" y1="1062.9" x2="551.2" y2="1076.2"/>
			
				<line fill="none" stroke="#231F20" stroke-width="3.2" stroke-linejoin="round" stroke-miterlimit="10" x1="562.3" y1="1062.9" x2="562.3" y2="1076.2"/>
			
				<line fill="none" stroke="#231F20" stroke-width="3.2" stroke-linejoin="round" stroke-miterlimit="10" x1="592.1" y1="1069.5" x2="598.7" y2="1069.5"/>
			
				<line fill="none" stroke="#231F20" stroke-width="3.2" stroke-linejoin="round" stroke-miterlimit="10" x1="621.9" y1="1069.5" x2="628.5" y2="1069.5"/>
			<rect x="628.5" y="1021" fill="#A7A9AC" width="4.4" height="14.3"/>
			<rect x="617.4" y="1021" fill="#3B9ADA" width="4.4" height="14.3"/>
			<rect x="606.5" y="1021" fill="#FFA432" width="4.4" height="14.3"/>
			<rect x="595.4" y="1021" fill="#3B9ADA" width="4.4" height="14.3"/>
			<rect x="584.3" y="1021" fill="#FFA432" width="4.4" height="14.3"/>
			
				<line fill="none" stroke="#231F20" stroke-width="3.2" stroke-linejoin="round" stroke-miterlimit="10" x1="510.4" y1="1022.1" x2="575.5" y2="1022.1"/>
			
				<line fill="none" stroke="#231F20" stroke-width="3.2" stroke-linejoin="round" stroke-miterlimit="10" x1="510.4" y1="1033.1" x2="575.5" y2="1033.1"/>
		</g>
		<g>
			<polygon fill="none" stroke="#231F20" stroke-width="3.2" stroke-linejoin="round" stroke-miterlimit="10" points="518.1,920.4 
				518.1,885.1 503.7,885.1 503.7,920.4 478.4,920.4 478.4,933.7 543.5,933.7 543.5,920.4 			"/>
			
				<line fill="none" stroke="#231F20" stroke-width="3.2" stroke-linejoin="round" stroke-miterlimit="10" x1="503.7" y1="920.4" x2="510.4" y2="920.4"/>
			
				<line fill="none" stroke="#231F20" stroke-width="3.2" stroke-linejoin="round" stroke-miterlimit="10" x1="543.5" y1="927.1" x2="558.9" y2="927.1"/>
			
				<line fill="none" stroke="#231F20" stroke-width="3.2" stroke-linejoin="round" stroke-miterlimit="10" x1="462.9" y1="927.1" x2="478.4" y2="927.1"/>
		</g>
		<g>
			<path fill="#FFFFFF" d="M403.1,854.5c10.3,0,20,3.1,28,8.6c5.4-6.1,12.8-10.5,21.2-11.9c-0.3-2.4-0.5-4.8-0.5-7.3
				c0-27.3,22-49.3,49.3-49.3c27.2,0,49.3,22,49.3,49.3c0,4-0.5,7.9-1.4,11.7c3.7-0.8,7.5-1.1,11.4-1.1c27.3,0,49.3,21.8,49.3,49.4
				H353.9C353.9,876.3,375.9,854.5,403.1,854.5z"/>
			<path fill="#D1D3D4" stroke="#231F20" stroke-width="3.2" stroke-linejoin="round" stroke-miterlimit="10" d="M608.6,903.5"/>
			<path fill="#D1D3D4" stroke="#231F20" stroke-width="3.2" stroke-linejoin="round" stroke-miterlimit="10" d="M548.9,855.6
				c0,0-6,4.8-8,5.8"/>
			<path fill="#D1D3D4" stroke="#231F20" stroke-width="3.2" stroke-linejoin="round" stroke-miterlimit="10" d="M431.1,863
				c0,0,2.8,4.6,2.9,8.2"/>
		</g>
		<g>
			<path fill="#FFFFFF" d="M197.4,892.3c-9.4,0-18.1,2.9-25.3,7.8c-4.9-5.5-11.6-9.4-19.2-10.8c0.3-2.2,0.5-4.3,0.5-6.6
				c0-24.6-20-44.6-44.6-44.6s-44.6,20-44.6,44.6c0,3.6,0.4,7.2,1.2,10.6c-3.3-0.8-6.8-1.1-10.2-1.1c-24.6,0-44.6,19.3-44.6,44.7
				h231.4C242,911.6,222,892.3,197.4,892.3z"/>
			<path fill="#D1D3D4" stroke="#231F20" stroke-width="3.2" stroke-linejoin="round" stroke-miterlimit="10" d="M11.4,936.7"/>
			<path fill="#D1D3D4" stroke="#231F20" stroke-width="3.2" stroke-linejoin="round" stroke-miterlimit="10" d="M65.5,893.4
				c0,0,5.4,4.4,7.3,5.3"/>
			<path fill="#D1D3D4" stroke="#231F20" stroke-width="3.2" stroke-linejoin="round" stroke-miterlimit="10" d="M172.1,900.1
				c0,0-2.5,4.2-2.6,7.5"/>
		</g>
		<g>
			<rect x="254.2" y="1076.2" fill="#D1D3D4" width="62.9" height="42"/>
			<g>
				<path fill="#D1D3D4" d="M430.8,896.2c0-8.7-6.5-16.6-15.6-16.6h-260c-9.1,0-17,7.9-17,16.6v130.2h292.6V896.2z"/>
				<path fill="#F1F2F2" stroke="#231F20" stroke-width="3.2" stroke-linejoin="round" stroke-miterlimit="10" d="M138.2,1026.5
					v34.8c0,8.7,7.9,14.9,17,14.9h260c9.1,0,15.6-6.1,15.6-14.9v-34.8H138.2z"/>
			</g>
			<path fill="#BCBEC0" d="M295.4,1051.4c0,5.6-4.6,10.2-10.2,10.2c-5.6,0-10.2-4.6-10.2-10.2c0-5.6,4.6-10.2,10.2-10.2
				C290.9,1041.2,295.4,1045.8,295.4,1051.4z"/>
			
				<rect x="242" y="1118.1" fill="#F1F2F2" stroke="#231F20" stroke-width="3.2" stroke-linejoin="round" stroke-miterlimit="10" width="85" height="11.1"/>
			
				<rect x="157" y="897.3" fill="#FFA432" stroke="#231F20" stroke-width="3.2" stroke-linejoin="round" stroke-miterlimit="10" width="256.2" height="129.2"/>
			<g opacity="0.5">
				<rect x="174.7" y="913.8" fill="#F79234" width="221.9" height="34.2"/>
				<rect x="270.7" y="956.9" fill="#F79234" width="50.8" height="27.6"/>
				<rect x="175.8" y="956.9" fill="#F79234" width="81.8" height="27.6"/>
				<rect x="335.9" y="956.9" fill="#F79234" width="59.6" height="27.6"/>
				<rect x="174.7" y="993.3" fill="#F79234" width="220.8" height="20"/>
			</g>
		</g>
		<g>
			<path fill="#D1D3D4" d="M555.6,960.7c0-5.8-4.4-10.5-10.3-10.5H338.1c-5.8,0-11.1,4.6-11.1,10.5v151.8h228.6L555.6,960.7
				L555.6,960.7z"/>
			<path fill="#F1F2F2" stroke="#231F20" stroke-width="3.2" stroke-linejoin="round" stroke-miterlimit="10" d="M310.5,1112.6v10.6
				c0,5.8,5.1,10.5,11.9,10.5h238.5c6.8,0,12.3-4.6,12.3-10.5v-10.6H310.5z"/>
			
				<rect x="343.7" y="963.5" fill="#18AFFE" stroke="#231F20" stroke-width="3.2" stroke-linejoin="round" stroke-miterlimit="10" width="196.5" height="132.5"/>
			
				<line fill="none" stroke="#231F20" stroke-width="3.2" stroke-linejoin="round" stroke-miterlimit="10" x1="428.7" y1="1123.6" x2="454" y2="1123.6"/>
			<rect x="507.1" y="975.7" opacity="0.2" fill="#FFFFFF" enable-background="new    " width="22.1" height="35.3"/>
			<rect x="356.9" y="975.7" opacity="0.2" fill="#FFFFFF" enable-background="new    " width="143.5" height="35.3"/>
			<rect x="356.9" y="1022.1" opacity="0.2" fill="#FFFFFF" enable-background="new    " width="38.6" height="30.9"/>
			<rect x="403.3" y="1022.1" opacity="0.2" fill="#FFFFFF" enable-background="new    " width="124.8" height="30.9"/>
			<rect x="356.9" y="1062.9" opacity="0.2" fill="#FFFFFF" enable-background="new    " width="171.1" height="17.6"/>
		</g>
		<g>
			
				<rect x="51" y="1008.8" fill="#F1F2F2" stroke="#231F20" stroke-width="3.2" stroke-linejoin="round" stroke-miterlimit="10" width="161.2" height="42"/>
			
				<rect x="51" y="1050.8" fill="#D1D3D4" stroke="#231F20" stroke-width="3.2" stroke-linejoin="round" stroke-miterlimit="10" width="161.2" height="42"/>
			
				<rect x="51" y="1092.7" fill="#F1F2F2" stroke="#231F20" stroke-width="3.2" stroke-linejoin="round" stroke-miterlimit="10" width="161.2" height="42"/>
			<circle fill="#FFFFFF" cx="181.3" cy="1070.7" r="9.4"/>
			<circle fill="#FFFFFF" cx="151.4" cy="1070.7" r="9.4"/>
			
				<line fill="none" stroke="#231F20" stroke-width="3.2" stroke-linejoin="round" stroke-miterlimit="10" x1="74.2" y1="1107" x2="190.2" y2="1107"/>
			
				<line fill="none" stroke="#231F20" stroke-width="3.2" stroke-linejoin="round" stroke-miterlimit="10" x1="74.2" y1="1118.1" x2="190.2" y2="1118.1"/>
			
				<line fill="none" stroke="#231F20" stroke-width="3.2" stroke-linejoin="round" stroke-miterlimit="10" x1="74.2" y1="1064" x2="74.2" y2="1077.2"/>
			
				<line fill="none" stroke="#231F20" stroke-width="3.2" stroke-linejoin="round" stroke-miterlimit="10" x1="85.2" y1="1064" x2="85.2" y2="1077.2"/>
			
				<line fill="none" stroke="#231F20" stroke-width="3.2" stroke-linejoin="round" stroke-miterlimit="10" x1="96.3" y1="1064" x2="96.3" y2="1077.2"/>
			
				<line fill="none" stroke="#231F20" stroke-width="3.2" stroke-linejoin="round" stroke-miterlimit="10" x1="107.3" y1="1064" x2="107.3" y2="1077.2"/>
			
				<line fill="none" stroke="#231F20" stroke-width="3.2" stroke-linejoin="round" stroke-miterlimit="10" x1="118.3" y1="1064" x2="118.3" y2="1077.2"/>
			
				<line fill="none" stroke="#231F20" stroke-width="3.2" stroke-linejoin="round" stroke-miterlimit="10" x1="148.2" y1="1070.7" x2="154.8" y2="1070.7"/>
			
				<line fill="none" stroke="#231F20" stroke-width="3.2" stroke-linejoin="round" stroke-miterlimit="10" x1="178" y1="1070.7" x2="184.6" y2="1070.7"/>
			<rect x="184.6" y="1022.1" fill="#A7A9AC" width="4.4" height="14.3"/>
			<rect x="173.6" y="1022.1" fill="#3B9ADA" width="4.4" height="14.3"/>
			<rect x="162.5" y="1022.1" fill="#FFA432" width="4.4" height="14.3"/>
			<rect x="151.4" y="1022.1" fill="#3B9ADA" width="4.4" height="14.3"/>
			<rect x="140.5" y="1022.1" fill="#FFA432" width="4.4" height="14.3"/>
			
				<line fill="none" stroke="#231F20" stroke-width="3.2" stroke-linejoin="round" stroke-miterlimit="10" x1="66.5" y1="1023.1" x2="131.6" y2="1023.1"/>
			
				<line fill="none" stroke="#231F20" stroke-width="3.2" stroke-linejoin="round" stroke-miterlimit="10" x1="66.5" y1="1034.2" x2="131.6" y2="1034.2"/>
		</g>
		<g>
			<path fill="#FFA432" d="M12.4,1080.3c-11.8,0-21.3,9.5-21.3,21.3c0,6.5,2.9,12.2,7.4,16.1c2.5-2.5,6.5-4.3,8.4-5.2
				c1.7-0.8,2.4-2.2,2.5-3.2c-2.2-1.5-3.6-4-3.6-5.8v-9c0,0-0.8-7.5,6.7-7.5s6.7,7.5,6.7,7.5v9c0,1.9-1,4.4-3.2,5.8
				c0.2,0.9,0.9,2.4,2.8,3.2c1.8,0.8,5.6,2.6,8.1,4.8c4.3-3.9,7-9.5,7-15.8C33.7,1089.8,24.2,1080.3,12.4,1080.3z"/>
			<path fill="none" stroke="#231F20" stroke-width="3.2" stroke-linejoin="round" stroke-miterlimit="10" d="M16.8,1109.3
				L16.8,1109.3h-0.7c2.2-1.5,2.9-4,2.9-5.8v-9c0,0,0.8-7.5-6.7-7.5s-6.7,7.5-6.7,7.5v9c0,1.9,1.4,4.4,3.6,5.8l0,0l0,0
				c-0.2,0.9-0.7,2.4-2.5,3.2c-1.9,0.8-5.9,2.7-8.4,5.2c3.8,3.3,8.6,5.2,13.9,5.2c5.5,0,10.6-2.2,14.3-5.5c-2.5-2.3-5.9-4-7.8-4.8
				C17.2,1111.6,16.8,1110.3,16.8,1109.3z"/>
		</g>
		<g>
			<path fill="#18AFFE" d="M126.7,931.2c-14.5,0-26.2,11.8-26.2,26.2c0,7.9,3.5,15,9,19.8c3.1-3.1,8-5.3,10.3-6.4
				c2.2-1,2.9-2.7,3.1-3.9c-2.6-1.8-4.5-4.9-4.5-7.3v-11.1c0,0-0.9-9.2,8.3-9.2s8.3,9.2,8.3,9.2v11.1c0,2.4-1.3,5.4-3.9,7.3
				c0.2,1.1,1.1,2.9,3.3,3.9c2.3,1,7,3.2,10,5.9c5.2-4.8,8.6-11.7,8.6-19.4C153,943,141.2,931.2,126.7,931.2z"/>
			<path fill="none" stroke="#231F20" stroke-width="3.2" stroke-linejoin="round" stroke-miterlimit="10" d="M131.5,967.1
				C131.5,967.1,131.5,967,131.5,967.1h-0.5c2.6-1.8,3.9-4.9,3.9-7.3v-11.1c0,0,0.9-9.2-8.3-9.2s-8.3,9.2-8.3,9.2v11.1
				c0,2.4,1.8,5.4,4.5,7.3l0,0l0,0c-0.2,1.1-0.8,2.9-3.1,3.9c-2.4,1-7.3,3.4-10.3,6.4c4.6,4,10.7,6.5,17.2,6.5
				c6.9,0,13-2.6,17.7-6.9c-3.1-2.9-7.7-4.9-9.9-5.9C132.4,969.9,131.7,968.2,131.5,967.1z"/>
		</g>
		<g>
			<path fill="#FFA432" d="M118.9,828.1c-12.2,0-22,9.8-22,22c0,6.7,3,12.6,7.6,16.6c2.6-2.6,6.7-4.5,8.7-5.3
				c1.8-0.8,2.4-2.3,2.6-3.3c-2.2-1.5-3.8-4.1-3.8-6v-9.3c0,0-0.5-7.7,7.2-7.7s7.2,7.7,7.2,7.7v9.3c0,1.9-1.3,4.5-3.5,6
				c0.2,1,0.8,2.5,2.7,3.3c1.8,0.8,5.7,2.7,8.4,5c4.4-4,7.2-9.8,7.2-16.3C140.8,838,130.9,828.1,118.9,828.1z"/>
			<path fill="none" stroke="#231F20" stroke-width="3.2" stroke-linejoin="round" stroke-miterlimit="10" d="M122.9,858.2
				C122.9,858.2,122.7,858.2,122.9,858.2h-0.2c2.2-1.5,3.5-4.1,3.5-6v-9.3c0,0,0.5-7.7-7.2-7.7s-7.2,7.7-7.2,7.7v9.3
				c0,1.9,1.6,4.5,3.8,6l0,0l0,0c-0.2,1-0.7,2.5-2.6,3.3c-1.9,0.9-6.1,2.8-8.7,5.3c3.9,3.4,8.9,5.4,14.4,5.4c5.7,0,11-2.2,14.9-5.7
				c-2.6-2.4-6.5-4.2-8.3-5C123.6,860.6,123,859.2,122.9,858.2z"/>
		</g>
		<g>
			
				<rect x="-23" y="849.7" fill="#FFFFFF" stroke="#231F20" stroke-width="3.2" stroke-linejoin="round" stroke-miterlimit="10" width="79.5" height="62.9"/>
			<rect x="-16.4" y="856.4" fill="#D1D3D4" width="65.2" height="48.6"/>
			<polyline fill="none" stroke="#231F20" stroke-width="3.2" stroke-linejoin="round" stroke-miterlimit="10" points="-16.7,888.7 
				10.3,874.6 36.9,889.9 			"/>
			<polyline fill="none" stroke="#231F20" stroke-width="3.2" stroke-linejoin="round" stroke-miterlimit="10" points="25.5,883.4 
				35.3,874.6 48.9,883.4 			"/>
			<circle fill="#FFFFFF" cx="22" cy="866" r="6.1"/>
		</g>
		<g>
			<polyline fill="none" stroke="#231F20" stroke-width="3.2" stroke-linejoin="round" stroke-miterlimit="10" points="-6.5,933.7 
				74.2,933.7 74.2,985.6 			"/>
			<polygon fill="#FFA432" points="67.5,940.3 -18.5,940.3 -18.5,996.7 26.7,996.7 26.7,1017.6 47.6,996.7 67.5,996.7 			"/>
			<polygon fill="#18AFFE" points="-29.6,981.2 16.8,981.2 16.8,1012.1 -6.5,1012.1 -6.5,1023 -18.9,1012.1 -29.6,1012.1 			"/>
			
				<line fill="none" stroke="#231F20" stroke-width="3.2" stroke-linejoin="round" stroke-miterlimit="10" x1="-7.5" y1="964.6" x2="57.6" y2="964.6"/>
			
				<line fill="none" stroke="#231F20" stroke-width="3.2" stroke-linejoin="round" stroke-miterlimit="10" x1="-7.5" y1="952.5" x2="57.6" y2="952.5"/>
			
				<line fill="none" stroke="#231F20" stroke-width="3.2" stroke-linejoin="round" stroke-miterlimit="10" x1="-7.5" y1="975.7" x2="57.6" y2="975.7"/>
			
				<line fill="none" stroke="#231F20" stroke-width="3.2" stroke-linejoin="round" stroke-miterlimit="10" x1="-7.5" y1="990" x2="9" y2="990"/>
			
				<line fill="none" stroke="#231F20" stroke-width="3.2" stroke-linejoin="round" stroke-miterlimit="10" x1="16.8" y1="986.7" x2="33.3" y2="986.7"/>
			
				<line fill="none" stroke="#231F20" stroke-width="3.2" stroke-linejoin="round" stroke-miterlimit="10" x1="41.1" y1="986.7" x2="57.6" y2="986.7"/>
			
				<line fill="none" stroke="#231F20" stroke-width="3.2" stroke-linejoin="round" stroke-miterlimit="10" x1="9" y1="1001.1" x2="-23" y2="1001.1"/>
		</g>
		<g>
			<polyline fill="none" stroke="#231F20" stroke-width="3.2" stroke-linejoin="round" stroke-miterlimit="10" points="536.9,905 
				617.4,905 617.4,956.9 			"/>
			<polygon fill="#18AFFE" points="610.9,911.6 524.7,911.6 524.7,967.9 570,967.9 570,988.9 591,967.9 610.9,967.9 			"/>
			<polygon fill="#FFA432" points="513.6,952.5 560.1,952.5 560.1,983.4 536.9,983.4 536.9,994.3 524.4,983.4 513.6,983.4 			"/>
			
				<line fill="none" stroke="#231F20" stroke-width="3.2" stroke-linejoin="round" stroke-miterlimit="10" x1="535.8" y1="935.9" x2="600.9" y2="935.9"/>
			
				<line fill="none" stroke="#231F20" stroke-width="3.2" stroke-linejoin="round" stroke-miterlimit="10" x1="535.8" y1="923.7" x2="600.9" y2="923.7"/>
			
				<line fill="none" stroke="#231F20" stroke-width="3.2" stroke-linejoin="round" stroke-miterlimit="10" x1="535.8" y1="947" x2="600.9" y2="947"/>
			
				<line fill="none" stroke="#231F20" stroke-width="3.2" stroke-linejoin="round" stroke-miterlimit="10" x1="535.8" y1="961.3" x2="552.4" y2="961.3"/>
			
				<line fill="none" stroke="#231F20" stroke-width="3.2" stroke-linejoin="round" stroke-miterlimit="10" x1="560.1" y1="957.9" x2="576.7" y2="957.9"/>
			
				<line fill="none" stroke="#231F20" stroke-width="3.2" stroke-linejoin="round" stroke-miterlimit="10" x1="584.3" y1="957.9" x2="600.9" y2="957.9"/>
			
				<line fill="none" stroke="#231F20" stroke-width="3.2" stroke-linejoin="round" stroke-miterlimit="10" x1="552.4" y1="972.4" x2="520.3" y2="972.4"/>
		</g>
		<g>
			<g>
				
					<rect x="448.6" y="816.7" fill="none" stroke="#231F20" stroke-width="3.2" stroke-linejoin="round" stroke-miterlimit="10" width="29.8" height="27.6"/>
				
					<line fill="none" stroke="#231F20" stroke-width="3.2" stroke-linejoin="round" stroke-miterlimit="10" x1="435.3" y1="838.8" x2="343.7" y2="838.8"/>
				
					<line fill="none" stroke="#231F20" stroke-width="3.2" stroke-linejoin="round" stroke-miterlimit="10" x1="435.3" y1="822.2" x2="390" y2="822.2"/>
			</g>
			
				<line fill="none" stroke="#231F20" stroke-width="3.2" stroke-linejoin="round" stroke-miterlimit="10" x1="478.2" y1="844.4" x2="448.4" y2="816.1"/>
		</g>
		<g>
			<g>
				<g>
					
						<rect x="176.8" y="821.1" fill="none" stroke="#231F20" stroke-width="3.2" stroke-linejoin="round" stroke-miterlimit="10" width="29.8" height="27.6"/>
					
						<line fill="none" stroke="#231F20" stroke-width="3.2" stroke-linejoin="round" stroke-miterlimit="10" x1="220" y1="826.6" x2="265.3" y2="826.6"/>
					
						<line fill="none" stroke="#231F20" stroke-width="3.2" stroke-linejoin="round" stroke-miterlimit="10" x1="220" y1="843.2" x2="282.9" y2="843.2"/>
				</g>
				
					<line fill="none" stroke="#231F20" stroke-width="3.2" stroke-linejoin="round" stroke-miterlimit="10" x1="177.1" y1="820.5" x2="206.9" y2="848.8"/>
			</g>
			
				<line fill="none" stroke="#231F20" stroke-width="3.2" stroke-linejoin="round" stroke-miterlimit="10" x1="270.7" y1="826.6" x2="282.9" y2="826.6"/>
		</g>
		<g>
			<g>
				<rect x="-56.1" y="1042" fill="#A7A9AC" width="24.3" height="22.1"/>
				
					<line fill="none" stroke="#231F20" stroke-width="3.2" stroke-linejoin="round" stroke-miterlimit="10" x1="-21.9" y1="1046.4" x2="22.3" y2="1046.4"/>
				
					<line fill="none" stroke="#231F20" stroke-width="3.2" stroke-linejoin="round" stroke-miterlimit="10" x1="-21.9" y1="1059.6" x2="40" y2="1059.6"/>
			</g>
			
				<line fill="none" stroke="#231F20" stroke-width="3.2" stroke-linejoin="round" stroke-miterlimit="10" x1="-55.7" y1="1042.5" x2="-31.9" y2="1065.1"/>
		</g>
		<g>
			
				<line fill="none" stroke="#231F20" stroke-width="3.2" stroke-linejoin="round" stroke-miterlimit="10" x1="310.3" y1="838.7" x2="321.9" y2="850.3"/>
			
				<line fill="none" stroke="#231F20" stroke-width="3.2" stroke-linejoin="round" stroke-miterlimit="10" x1="310.3" y1="850.3" x2="321.9" y2="838.7"/>
		</g>
		<g>
			
				<line fill="none" stroke="#231F20" stroke-width="3.2" stroke-linejoin="round" stroke-miterlimit="10" x1="-61.9" y1="951.3" x2="-50.2" y2="963"/>
			
				<line fill="none" stroke="#231F20" stroke-width="3.2" stroke-linejoin="round" stroke-miterlimit="10" x1="-61.9" y1="963" x2="-50.2" y2="951.3"/>
		</g>
		<g>
			
				<line fill="none" stroke="#231F20" stroke-width="3.2" stroke-linejoin="round" stroke-miterlimit="10" x1="67.3" y1="809.9" x2="79" y2="821.6"/>
			
				<line fill="none" stroke="#231F20" stroke-width="3.2" stroke-linejoin="round" stroke-miterlimit="10" x1="67.3" y1="821.6" x2="79" y2="809.9"/>
		</g>
		<g>
			
				<line fill="none" stroke="#231F20" stroke-width="3.2" stroke-linejoin="round" stroke-miterlimit="10" x1="600.6" y1="824.2" x2="612.3" y2="835.9"/>
			
				<line fill="none" stroke="#231F20" stroke-width="3.2" stroke-linejoin="round" stroke-miterlimit="10" x1="600.6" y1="835.9" x2="612.3" y2="824.2"/>
		</g>
		<g>
			
				<line fill="none" stroke="#231F20" stroke-width="3.2" stroke-linejoin="round" stroke-miterlimit="10" x1="661.4" y1="928.1" x2="673.1" y2="939.7"/>
			
				<line fill="none" stroke="#231F20" stroke-width="3.2" stroke-linejoin="round" stroke-miterlimit="10" x1="661.4" y1="939.7" x2="673.1" y2="928.1"/>
		</g>
		<rect x="138.2" y="1001.1" fill="#BCBEC0" width="16.6" height="5.5"/>
		<rect x="415.4" y="944.7" fill="#BCBEC0" width="15.5" height="5.5"/>
	</g>
</g>
</svg>
