<?xml version="1.0" encoding="utf-8"?>
<!-- Generator: Adobe Illustrator 18.0.0, SVG Export Plug-In . SVG Version: 6.00 Build 0)  -->
<!DOCTYPE svg PUBLIC "-//W3C//DTD SVG 1.1//EN" "http://www.w3.org/Graphics/SVG/1.1/DTD/svg11.dtd">
<svg version="1.1" id="Layer_1" xmlns="http://www.w3.org/2000/svg" xmlns:xlink="http://www.w3.org/1999/xlink" x="0px" y="0px"
	 viewBox="0 269.4 612 250.3" enable-background="new 0 269.4 612 250.3" xml:space="preserve">
<g id="Layer_2" display="none">
	<rect x="-230.7" y="63.6" display="inline" fill="#F1F2F2" width="1073.1" height="1073.1"/>
</g>
<g id="banner">
	<rect x="-141.3" y="600.1" display="none" fill="#E4E5E7" width="894.2" height="496.8"/>
	<rect x="-141.3" y="103.3" display="none" fill="#FFFFFF" width="894.2" height="496.8"/>
	<g>
		<path fill="#414042" d="M265.3,635.8l-1.6,3.3c-1.8-1-4-1.7-5.4-1.7c-1.1,0-1.9,0.4-1.9,1.3c0,2.9,8.9,1.3,8.9,7.2
			c0,3.3-3,5.1-6.7,5.1c-2.8,0-5.6-1.1-7.6-2.7l1.6-3.3c1.7,1.5,4.3,2.5,6,2.5c1.3,0,2.1-0.5,2.1-1.4c0-3-8.9-1.2-8.9-7.1
			c0-3,2.7-5,6.6-5C261.1,634,263.6,634.7,265.3,635.8z"/>
		<path fill="#414042" d="M273.1,637.4v3.3h8v3.3h-8v3.4h9.1v3.3h-13.3V634h13.1v3.3L273.1,637.4L273.1,637.4z"/>
		<path fill="#414042" d="M293.7,646.1L293.7,646.1h-3.3v4.7h-4.2v-16.7h7.4c4.4,0,7,2.1,7,5.8c0,2.6-1.1,4.4-3,5.4l3.5,5.5h-4.8
			L293.7,646.1z M293.6,642.8c1.9,0,3-0.9,3-2.7c0-1.7-1.1-2.6-3-2.6h-3.2v5.3H293.6z"/>
		<path fill="#414042" d="M309.2,650.9l-6.5-16.7h4.6l4.3,12.3l4.3-12.3h4.4l-6.5,16.7H309.2z"/>
		<path fill="#414042" d="M327.2,637.4v3.3h8v3.3h-8v3.4h9.1v3.3H323V634H336v3.3L327.2,637.4L327.2,637.4z"/>
		<path fill="#414042" d="M347.8,646.1L347.8,646.1h-3.3v4.7h-4.2v-16.7h7.4c4.4,0,7,2.1,7,5.8c0,2.6-1.1,4.4-3,5.4l3.5,5.5h-4.8
			L347.8,646.1z M347.7,642.8c1.9,0,3-0.9,3-2.7c0-1.7-1.1-2.6-3-2.6h-3.2v5.3H347.7z"/>
	</g>
	<g>
		<path fill="#414042" d="M92.4,673.9v0.7h-3.8v-7h0.8v6.2L92.4,673.9L92.4,673.9z"/>
		<path fill="#414042" d="M98.8,672c0,1.6-1.1,2.7-2.7,2.7c-1.5,0-2.7-1.1-2.7-2.7c0-1.5,1.1-2.6,2.7-2.6S98.8,670.5,98.8,672z
			 M94.3,672c0,1.2,0.8,2,1.9,2c1.1,0,1.9-0.8,1.9-2c0-1.2-0.8-2-1.9-2C95.1,670.2,94.3,670.9,94.3,672z"/>
		<path fill="#414042" d="M101.5,670.6c0.4-0.8,1-1.2,1.9-1.2v0.8c-1.1,0-1.8,0.6-1.9,1.7v2.8h-0.8v-5.3h0.8V670.6z"/>
		<path fill="#414042" d="M109.5,672.4h-4.3c0.2,1,0.9,1.7,1.9,1.7c0.6,0,1.3-0.3,1.6-0.6l0.4,0.4c-0.5,0.5-1.3,0.9-2.1,0.9
			c-1.5,0-2.6-1.1-2.6-2.7c0-1.5,1.1-2.7,2.6-2.7C108.6,669.5,109.5,670.6,109.5,672.4z M108.7,671.7c-0.1-1-0.7-1.6-1.8-1.6
			c-1,0-1.7,0.6-1.8,1.6H108.7z"/>
		<path fill="#414042" d="M119.9,671.4v3.2h-0.8v-3c0-0.9-0.5-1.5-1.4-1.5c-1.1,0-1.7,0.8-1.7,2v2.6h-0.8v-3c0-0.9-0.5-1.5-1.4-1.5
			c-1.1,0-1.7,0.8-1.7,2v2.6h-0.8v-5.3h0.8v1.2c0.4-0.8,1.1-1.2,2-1.3c1,0,1.7,0.5,1.9,1.3c0.4-0.9,1.1-1.3,2.1-1.3
			C119.2,669.5,119.9,670.2,119.9,671.4z"/>
		<path fill="#414042" d="M126.2,667.9c0,0.3-0.2,0.5-0.5,0.5c-0.3,0-0.5-0.3-0.5-0.5c0-0.3,0.2-0.5,0.5-0.5
			C126,667.4,126.2,667.7,126.2,667.9z M125.4,674.6v-5.3h0.8v5.3H125.4z"/>
		<path fill="#414042" d="M133.9,672c0,1.5-1,2.6-2.5,2.6c-0.9,0-1.6-0.4-2.1-1.2v3h-0.8v-7.2h0.8v1.2c0.4-0.7,1.1-1.2,2.1-1.2
			C132.8,669.5,133.9,670.5,133.9,672z M133.1,672c0-1.2-0.8-2-1.9-2c-1.1,0-1.9,0.8-1.9,2s0.8,2,1.9,2S133.1,673.2,133.1,672z"/>
		<path fill="#414042" d="M138.8,669.9l-0.3,0.6c-0.4-0.3-0.9-0.4-1.4-0.4c-0.6,0-1.1,0.2-1.1,0.7c0,1.2,3,0.5,3,2.4
			c0,1.1-0.9,1.5-1.9,1.5c-0.7,0-1.5-0.3-2-0.7l0.3-0.6c0.4,0.4,1.2,0.6,1.7,0.6c0.5,0,1.1-0.3,1.2-0.7c0-1.3-2.9-0.6-2.9-2.5
			c0-1,0.9-1.4,1.8-1.4C137.7,669.5,138.3,669.6,138.8,669.9z"/>
		<path fill="#414042" d="M145.2,674.6h-0.8v-1.2c-0.4,0.8-1.1,1.2-2,1.3c-1.3,0-2-0.8-2-2.1v-3.2h0.8v3c0,0.9,0.5,1.4,1.4,1.4
			c1.1,0,1.7-0.8,1.7-1.9v-2.6h0.8V674.6z"/>
		<path fill="#414042" d="M156.2,671.4v3.2h-0.8v-3c0-0.9-0.5-1.5-1.4-1.5c-1.1,0-1.7,0.8-1.7,2v2.6h-0.8v-3c0-0.9-0.5-1.5-1.4-1.5
			c-1.1,0-1.7,0.8-1.7,2v2.6h-0.8v-5.3h0.8v1.2c0.4-0.8,1.1-1.2,2-1.3c1,0,1.7,0.5,1.9,1.3c0.4-0.9,1.1-1.3,2.1-1.3
			C155.5,669.5,156.2,670.2,156.2,671.4z"/>
		<path fill="#414042" d="M166.5,674.6h-0.8v-1.1c-0.4,0.7-1.1,1.2-2.1,1.2c-1.5,0-2.5-1.1-2.5-2.7c0-1.6,1.1-2.7,2.5-2.7
			c0.9,0,1.7,0.4,2.1,1.2v-3.2h0.8V674.6z M165.7,672c0-1.2-0.8-2-1.9-2s-1.9,0.8-1.9,2s0.8,2,1.9,2C165,674,165.7,673.2,165.7,672z
			"/>
		<path fill="#414042" d="M173.7,672c0,1.6-1.1,2.7-2.7,2.7s-2.7-1.1-2.7-2.7c0-1.5,1.1-2.6,2.7-2.6S173.7,670.5,173.7,672z
			 M169.2,672c0,1.2,0.8,2,1.9,2s1.9-0.8,1.9-2c0-1.2-0.8-2-1.9-2C170,670.2,169.2,670.9,169.2,672z"/>
		<path fill="#414042" d="M175.6,674.6v-7.3h0.8v7.3H175.6z"/>
		<path fill="#414042" d="M183.6,672c0,1.6-1.1,2.7-2.7,2.7c-1.5,0-2.7-1.1-2.7-2.7c0-1.5,1.1-2.6,2.7-2.6S183.6,670.5,183.6,672z
			 M179.1,672c0,1.2,0.8,2,1.9,2s1.9-0.8,1.9-2c0-1.2-0.8-2-1.9-2C179.9,670.2,179.1,670.9,179.1,672z"/>
		<path fill="#414042" d="M186.3,670.6c0.4-0.8,1-1.2,1.9-1.2v0.8c-1.1,0-1.8,0.6-1.9,1.7v2.8h-0.8v-5.3h0.8V670.6z"/>
		<path fill="#414042" d="M195.9,669.9l-0.3,0.6c-0.4-0.3-0.9-0.4-1.4-0.4c-0.6,0-1.1,0.2-1.1,0.7c0,1.2,3,0.5,3,2.4
			c0,1.1-0.9,1.5-1.9,1.5c-0.7,0-1.5-0.3-2-0.7l0.3-0.6c0.4,0.4,1.2,0.6,1.7,0.6c0.6,0,1.1-0.3,1.2-0.7c0-1.3-2.9-0.6-2.9-2.5
			c0-1,0.9-1.4,1.8-1.4C194.9,669.5,195.5,669.6,195.9,669.9z"/>
		<path fill="#414042" d="M198.8,667.9c0,0.3-0.2,0.5-0.5,0.5c-0.3,0-0.5-0.3-0.5-0.5c0-0.3,0.2-0.5,0.5-0.5
			C198.5,667.4,198.8,667.7,198.8,667.9z M197.9,674.6v-5.3h0.8v5.3H197.9z"/>
		<path fill="#414042" d="M203.7,674.3c-0.4,0.3-0.8,0.4-1.2,0.4c-0.8,0-1.3-0.4-1.3-1.5v-3h-0.7v-0.6h0.7v-1.3h0.8v1.3h1.7v0.6H202
			v2.9c0,0.6,0.3,0.9,0.7,0.9c0.3,0,0.5-0.1,0.8-0.3L203.7,674.3z"/>
		<path fill="#414042" d="M211.8,673.8c-0.4,0.5-1.1,0.8-1.9,0.8c-1.1,0-1.8-0.7-1.8-1.6c0-0.9,0.7-1.5,2-1.5h1.7v-0.3
			c0-0.8-0.4-1.3-1.4-1.3c-0.5,0-1.1,0.2-1.7,0.6l-0.4-0.5c0.7-0.4,1.3-0.7,2.1-0.7c1.3,0,2,0.7,2.1,1.8v3.5h-0.7L211.8,673.8
			L211.8,673.8z M211.8,672.8v-0.6h-1.6c-0.9,0-1.3,0.3-1.3,0.8c0,0.5,0.4,1,1.2,1C211,674,211.7,673.6,211.8,672.8z"/>
		<path fill="#414042" d="M223.5,671.4v3.2h-0.8v-3c0-0.9-0.5-1.5-1.4-1.5c-1.1,0-1.7,0.8-1.7,2v2.6h-0.8v-3c0-0.9-0.5-1.5-1.4-1.5
			c-1.1,0-1.7,0.8-1.7,2v2.6h-0.8v-5.3h0.8v1.2c0.4-0.8,1.1-1.2,2-1.3c1,0,1.7,0.5,1.9,1.3c0.4-0.9,1.1-1.3,2.1-1.3
			C222.7,669.5,223.5,670.2,223.5,671.4z"/>
		<path fill="#414042" d="M230.3,672.4H226c0.2,1,0.9,1.7,1.9,1.7c0.6,0,1.3-0.3,1.6-0.6l0.4,0.4c-0.5,0.5-1.3,0.9-2.1,0.9
			c-1.5,0-2.6-1.1-2.6-2.7c0-1.5,1.1-2.7,2.6-2.7C229.5,669.5,230.3,670.6,230.3,672.4z M229.5,671.7c-0.1-1-0.7-1.6-1.8-1.6
			c-1,0-1.7,0.6-1.8,1.6H229.5z"/>
		<path fill="#414042" d="M234.7,674.3c-0.4,0.3-0.8,0.4-1.2,0.4c-0.8,0-1.3-0.4-1.3-1.5v-3h-0.7v-0.6h0.7v-1.3h0.8v1.3h1.7v0.6H233
			v2.9c0,0.6,0.3,0.9,0.7,0.9c0.3,0,0.5-0.1,0.8-0.3L234.7,674.3z"/>
		<path fill="#414042" d="M237,674.3c0,0.2-0.1,0.3-0.2,0.4l-0.4,0.7h-0.4l0.4-0.7c-0.2-0.1-0.2-0.3-0.2-0.4c0-0.3,0.2-0.5,0.4-0.5
			C236.8,673.7,237,673.9,237,674.3z"/>
		<path fill="#414042" d="M246.2,670.2l-0.4,0.5c-0.4-0.4-0.9-0.6-1.5-0.6c-1.1,0-1.9,0.8-1.9,2s0.8,2,1.9,2c0.7,0,1.3-0.3,1.6-0.7
			l0.4,0.4c-0.4,0.5-1.2,0.9-2.1,0.9c-1.5,0-2.6-1.1-2.6-2.7c0-1.5,1.1-2.7,2.6-2.7C245,669.5,245.7,669.7,246.2,670.2z"/>
		<path fill="#414042" d="M252.7,672c0,1.6-1.1,2.7-2.7,2.7c-1.5,0-2.7-1.1-2.7-2.7c0-1.5,1.1-2.6,2.7-2.6S252.7,670.5,252.7,672z
			 M248.1,672c0,1.2,0.8,2,1.9,2c1.1,0,1.9-0.8,1.9-2c0-1.2-0.8-2-1.9-2C248.9,670.2,248.1,670.9,248.1,672z"/>
		<path fill="#414042" d="M259.3,671.4v3.2h-0.8v-3c0-0.9-0.5-1.4-1.5-1.4c-1.1,0-1.7,0.7-1.8,1.7v2.8h-0.8v-5.3h0.8v1.2
			c0.4-0.8,1.1-1.2,2.1-1.2C258.6,669.5,259.3,670.2,259.3,671.4z"/>
		<path fill="#414042" d="M264.7,669.9l-0.3,0.6c-0.4-0.3-0.9-0.4-1.4-0.4c-0.6,0-1.1,0.2-1.1,0.7c0,1.2,3,0.5,3,2.4
			c0,1.1-0.9,1.5-1.9,1.5c-0.7,0-1.5-0.3-2-0.7l0.3-0.6c0.4,0.4,1.2,0.6,1.7,0.6c0.6,0,1.1-0.3,1.2-0.7c0-1.3-2.9-0.6-2.9-2.5
			c0-1,0.9-1.4,1.8-1.4C263.6,669.5,264.2,669.6,264.7,669.9z"/>
		<path fill="#414042" d="M271.1,672.4h-4.3c0.2,1,0.9,1.7,1.9,1.7c0.6,0,1.3-0.3,1.6-0.6l0.4,0.4c-0.5,0.5-1.3,0.9-2.1,0.9
			c-1.5,0-2.6-1.1-2.6-2.7c0-1.5,1.1-2.7,2.6-2.7C270.3,669.5,271.2,670.6,271.1,672.4z M270.4,671.7c-0.1-1-0.7-1.6-1.8-1.6
			c-1,0-1.7,0.6-1.8,1.6H270.4z"/>
		<path fill="#414042" d="M277,670.2l-0.4,0.5c-0.4-0.4-0.9-0.6-1.5-0.6c-1.1,0-1.9,0.8-1.9,2s0.8,2,1.9,2c0.7,0,1.3-0.3,1.6-0.7
			l0.4,0.4c-0.4,0.5-1.2,0.9-2.1,0.9c-1.5,0-2.6-1.1-2.6-2.7c0-1.5,1.1-2.7,2.6-2.7C275.9,669.5,276.5,669.7,277,670.2z"/>
		<path fill="#414042" d="M281.7,674.3c-0.4,0.3-0.8,0.4-1.2,0.4c-0.8,0-1.3-0.4-1.3-1.5v-3h-0.7v-0.6h0.7v-1.3h0.8v1.3h1.7v0.6H280
			v2.9c0,0.6,0.3,0.9,0.7,0.9c0.3,0,0.5-0.1,0.8-0.3L281.7,674.3z"/>
		<path fill="#414042" d="M287.8,672.4h-4.3c0.2,1,0.9,1.7,1.9,1.7c0.6,0,1.3-0.3,1.6-0.6l0.4,0.4c-0.5,0.5-1.3,0.9-2.1,0.9
			c-1.5,0-2.6-1.1-2.6-2.7c0-1.5,1.1-2.7,2.6-2.7C287,669.5,287.8,670.6,287.8,672.4z M287.1,671.7c-0.1-1-0.7-1.6-1.8-1.6
			c-1,0-1.7,0.6-1.8,1.6H287.1z"/>
		<path fill="#414042" d="M292.3,674.3c-0.4,0.3-0.8,0.4-1.2,0.4c-0.8,0-1.3-0.4-1.3-1.5v-3h-0.7v-0.6h0.7v-1.3h0.8v1.3h1.7v0.6
			h-1.7v2.9c0,0.6,0.3,0.9,0.7,0.9c0.3,0,0.5-0.1,0.8-0.3L292.3,674.3z"/>
		<path fill="#414042" d="M298.6,674.6h-0.8v-1.2c-0.4,0.8-1.1,1.2-2,1.3c-1.3,0-2-0.8-2-2.1v-3.2h0.8v3c0,0.9,0.5,1.4,1.4,1.4
			c1.1,0,1.7-0.8,1.7-1.9v-2.6h0.8L298.6,674.6L298.6,674.6z"/>
		<path fill="#414042" d="M301.7,670.6c0.4-0.8,1-1.2,1.9-1.2v0.8c-1.1,0-1.8,0.6-1.9,1.7v2.8h-0.8v-5.3h0.8V670.6z"/>
		<path fill="#414042" d="M311.5,673.8c-0.4,0.5-1.1,0.8-1.9,0.8c-1.1,0-1.8-0.7-1.8-1.6c0-0.9,0.7-1.5,2-1.5h1.7v-0.3
			c0-0.8-0.4-1.3-1.4-1.3c-0.5,0-1.1,0.2-1.7,0.6l-0.4-0.5c0.7-0.4,1.3-0.7,2.1-0.7c1.3,0,2,0.7,2.1,1.8v3.5h-0.7V673.8z
			 M311.5,672.8v-0.6h-1.6c-0.9,0-1.3,0.3-1.3,0.8c0,0.5,0.4,1,1.2,1C310.7,674,311.4,673.6,311.5,672.8z"/>
		<path fill="#414042" d="M319.3,674.6h-0.8v-1.1c-0.4,0.7-1.1,1.2-2.1,1.2c-1.5,0-2.5-1.1-2.5-2.7c0-1.6,1.1-2.7,2.5-2.7
			c0.9,0,1.7,0.4,2.1,1.2v-3.2h0.8V674.6z M318.6,672c0-1.2-0.8-2-1.9-2s-1.9,0.8-1.9,2s0.8,2,1.9,2S318.6,673.2,318.6,672z"/>
		<path fill="#414042" d="M322.7,667.9c0,0.3-0.2,0.5-0.5,0.5c-0.3,0-0.5-0.3-0.5-0.5c0-0.3,0.2-0.5,0.5-0.5
			C322.5,667.4,322.7,667.7,322.7,667.9z M321.8,674.6v-5.3h0.8v5.3H321.8z"/>
		<path fill="#414042" d="M330.3,672c0,1.5-1,2.6-2.5,2.6c-0.9,0-1.6-0.4-2.1-1.2v3H325v-7.2h0.8v1.2c0.4-0.7,1.1-1.2,2.1-1.2
			C329.2,669.5,330.3,670.5,330.3,672z M329.5,672c0-1.2-0.8-2-1.9-2s-1.9,0.8-1.9,2s0.8,2,1.9,2S329.5,673.2,329.5,672z"/>
		<path fill="#414042" d="M333.1,667.9c0,0.3-0.2,0.5-0.5,0.5c-0.3,0-0.5-0.3-0.5-0.5c0-0.3,0.2-0.5,0.5-0.5
			C332.8,667.4,333.1,667.7,333.1,667.9z M332.2,674.6v-5.3h0.8v5.3H332.2z"/>
		<path fill="#414042" d="M338.4,669.9l-0.3,0.6c-0.4-0.3-0.9-0.4-1.4-0.4c-0.6,0-1.1,0.2-1.1,0.7c0,1.2,3,0.5,3,2.4
			c0,1.1-0.9,1.5-1.9,1.5c-0.7,0-1.5-0.3-2-0.7l0.3-0.6c0.4,0.4,1.2,0.6,1.7,0.6c0.6,0,1.1-0.3,1.2-0.7c0-1.3-2.9-0.6-2.9-2.5
			c0-1,0.9-1.4,1.8-1.4C337.3,669.5,337.9,669.6,338.4,669.9z"/>
		<path fill="#414042" d="M344.4,670.2l-0.4,0.5c-0.4-0.4-0.9-0.6-1.5-0.6c-1.1,0-1.9,0.8-1.9,2s0.8,2,1.9,2c0.7,0,1.3-0.3,1.6-0.7
			l0.4,0.4c-0.4,0.5-1.2,0.9-2.1,0.9c-1.5,0-2.6-1.1-2.6-2.7c0-1.5,1.1-2.7,2.6-2.7C343.2,669.5,343.9,669.7,344.4,670.2z"/>
		<path fill="#414042" d="M347.3,667.9c0,0.3-0.2,0.5-0.5,0.5c-0.3,0-0.5-0.3-0.5-0.5c0-0.3,0.2-0.5,0.5-0.5
			C347,667.4,347.3,667.7,347.3,667.9z M346.4,674.6v-5.3h0.8v5.3H346.4z"/>
		<path fill="#414042" d="M354.3,671.4v3.2h-0.8v-3c0-0.9-0.5-1.4-1.5-1.4c-1.1,0-1.7,0.7-1.8,1.7v2.8h-0.8v-5.3h0.8v1.2
			c0.4-0.8,1.1-1.2,2.1-1.2C353.6,669.5,354.3,670.2,354.3,671.4z"/>
		<path fill="#414042" d="M361.1,674.1c0,1.5-1.1,2.5-2.6,2.5c-0.8,0-1.5-0.3-2.1-0.7l0.4-0.6c0.5,0.4,1.1,0.6,1.8,0.6
			c1.2,0,1.9-0.7,1.9-1.8v-0.8c-0.4,0.7-1.1,1.1-2,1.1c-1.4,0-2.4-1.1-2.4-2.5s1-2.5,2.3-2.5c0.9,0,1.6,0.4,2,1.1v-1.1h0.8V674.1z
			 M360.4,672c0-1.1-0.7-1.9-1.8-1.9c-1.1,0-1.8,0.8-1.8,1.9s0.7,1.9,1.8,1.9C359.6,673.8,360.4,673,360.4,672z"/>
		<path fill="#414042" d="M371.1,672.4h-4.3c0.2,1,0.9,1.7,1.9,1.7c0.6,0,1.3-0.3,1.6-0.6l0.4,0.4c-0.5,0.5-1.3,0.9-2.1,0.9
			c-1.5,0-2.6-1.1-2.6-2.7c0-1.5,1.1-2.7,2.6-2.7C370.3,669.5,371.2,670.6,371.1,672.4z M370.4,671.7c-0.1-1-0.7-1.6-1.8-1.6
			c-1,0-1.7,0.6-1.8,1.6H370.4z"/>
		<path fill="#414042" d="M373,674.6v-7.3h0.8v7.3H373z"/>
		<path fill="#414042" d="M377.1,667.9c0,0.3-0.2,0.5-0.5,0.5c-0.4,0-0.5-0.3-0.5-0.5c0-0.3,0.2-0.5,0.5-0.5
			C376.9,667.4,377.1,667.7,377.1,667.9z M376.2,674.6v-5.3h0.8v5.3H376.2z"/>
		<path fill="#414042" d="M382,674.3c-0.4,0.3-0.8,0.4-1.2,0.4c-0.8,0-1.3-0.4-1.3-1.5v-3h-0.7v-0.6h0.7v-1.3h0.8v1.3h1.7v0.6h-1.7
			v2.9c0,0.6,0.3,0.9,0.7,0.9c0.3,0,0.5-0.1,0.8-0.3L382,674.3z"/>
		<path fill="#414042" d="M384.2,674.3c0,0.2-0.1,0.3-0.2,0.4l-0.4,0.6h-0.4l0.4-0.7c-0.2-0.1-0.2-0.3-0.2-0.4
			c0-0.3,0.2-0.5,0.4-0.5C384,673.7,384.2,673.9,384.2,674.3z"/>
		<path fill="#414042" d="M392.5,669.9l-0.3,0.6c-0.4-0.3-0.9-0.4-1.4-0.4c-0.6,0-1.1,0.2-1.1,0.7c0,1.2,3,0.5,3,2.4
			c0,1.1-0.9,1.5-1.9,1.5c-0.7,0-1.5-0.3-2-0.7l0.3-0.6c0.4,0.4,1.2,0.6,1.7,0.6c0.6,0,1.1-0.3,1.2-0.7c0-1.3-2.9-0.6-2.9-2.5
			c0-1,0.9-1.4,1.8-1.4C391.4,669.5,392,669.6,392.5,669.9z"/>
		<path fill="#414042" d="M398.9,672.4h-4.3c0.2,1,0.9,1.7,1.9,1.7c0.6,0,1.3-0.3,1.6-0.6l0.4,0.4c-0.5,0.5-1.3,0.9-2.1,0.9
			c-1.5,0-2.6-1.1-2.6-2.7c0-1.5,1.1-2.7,2.6-2.7C398.1,669.5,399,670.6,398.9,672.4z M398.2,671.7c-0.1-1-0.7-1.6-1.8-1.6
			c-1,0-1.7,0.6-1.8,1.6H398.2z"/>
		<path fill="#414042" d="M405.5,674.6h-0.8v-1.1c-0.4,0.7-1.1,1.2-2.1,1.2c-1.5,0-2.5-1.1-2.5-2.7c0-1.6,1.1-2.7,2.5-2.7
			c0.9,0,1.7,0.4,2.1,1.2v-3.2h0.8V674.6z M404.7,672c0-1.2-0.8-2-1.9-2c-1.1,0-1.9,0.8-1.9,2s0.8,2,1.9,2
			C403.9,674,404.7,673.2,404.7,672z"/>
		<path fill="#414042" d="M416,674.6h-0.8v-1.1c-0.4,0.7-1.1,1.2-2.1,1.2c-1.5,0-2.5-1.1-2.5-2.7c0-1.6,1.1-2.7,2.5-2.7
			c0.9,0,1.7,0.4,2.1,1.2v-3.2h0.8V674.6z M415.2,672c0-1.2-0.8-2-1.9-2s-1.9,0.8-1.9,2s0.8,2,1.9,2S415.2,673.2,415.2,672z"/>
		<path fill="#414042" d="M423.2,672c0,1.6-1.1,2.7-2.7,2.7c-1.5,0-2.7-1.1-2.7-2.7c0-1.5,1.1-2.6,2.7-2.6
			C422.1,669.5,423.2,670.5,423.2,672z M418.7,672c0,1.2,0.8,2,1.9,2s1.9-0.8,1.9-2c0-1.2-0.8-2-1.9-2
			C419.5,670.2,418.7,670.9,418.7,672z"/>
		<path fill="#414042" d="M432.8,672.4h-4.3c0.2,1,0.9,1.7,1.9,1.7c0.6,0,1.3-0.3,1.6-0.6l0.4,0.4c-0.5,0.5-1.3,0.9-2.1,0.9
			c-1.5,0-2.6-1.1-2.6-2.7c0-1.5,1.1-2.7,2.6-2.7C432,669.5,432.9,670.6,432.8,672.4z M432.1,671.7c-0.1-1-0.7-1.6-1.8-1.6
			c-1,0-1.7,0.6-1.8,1.6H432.1z"/>
		<path fill="#414042" d="M435.5,667.9c0,0.3-0.2,0.5-0.5,0.5c-0.3,0-0.5-0.3-0.5-0.5c0-0.3,0.2-0.5,0.5-0.5
			C435.3,667.4,435.5,667.7,435.5,667.9z M434.6,674.6v-5.3h0.8v5.3H434.6z"/>
		<path fill="#414042" d="M442.3,674.6h-0.8v-1.2c-0.4,0.8-1.1,1.2-2,1.3c-1.3,0-2-0.8-2-2.1v-3.2h0.8v3c0,0.9,0.5,1.4,1.4,1.4
			c1.1,0,1.7-0.8,1.7-1.9v-2.6h0.8L442.3,674.6L442.3,674.6z"/>
		<path fill="#414042" d="M447.7,669.9l-0.3,0.6c-0.4-0.3-0.9-0.4-1.4-0.4c-0.6,0-1.1,0.2-1.1,0.7c0,1.2,3,0.5,3,2.4
			c0,1.1-0.9,1.5-1.9,1.5c-0.7,0-1.5-0.3-2-0.7l0.3-0.6c0.4,0.4,1.2,0.6,1.7,0.6c0.6,0,1.1-0.3,1.2-0.7c0-1.3-2.9-0.6-2.9-2.5
			c0-1,0.9-1.4,1.8-1.4C446.7,669.5,447.3,669.6,447.7,669.9z"/>
		<path fill="#414042" d="M458.4,671.4v3.2h-0.8v-3c0-0.9-0.5-1.5-1.4-1.5c-1.1,0-1.7,0.8-1.7,2v2.6h-0.8v-3c0-0.9-0.5-1.5-1.4-1.5
			c-1.1,0-1.7,0.8-1.7,2v2.6h-0.8v-5.3h0.8v1.2c0.4-0.8,1.1-1.2,2-1.3c1,0,1.7,0.5,1.9,1.3c0.4-0.9,1.1-1.3,2.1-1.3
			C457.6,669.5,458.4,670.2,458.4,671.4z"/>
		<path fill="#414042" d="M465.3,672c0,1.6-1.1,2.7-2.7,2.7c-1.5,0-2.7-1.1-2.7-2.7c0-1.5,1.1-2.6,2.7-2.6
			C464.2,669.5,465.3,670.5,465.3,672z M460.8,672c0,1.2,0.8,2,1.9,2c1.1,0,1.9-0.8,1.9-2c0-1.2-0.8-2-1.9-2
			C461.6,670.2,460.8,670.9,460.8,672z"/>
		<path fill="#414042" d="M472,674.6h-0.7v-1.1c-0.4,0.7-1.1,1.2-2.1,1.2c-1.5,0-2.5-1.1-2.5-2.7c0-1.6,1.1-2.7,2.5-2.7
			c0.9,0,1.7,0.4,2.1,1.2v-3.2h0.8L472,674.6L472,674.6z M471.3,672c0-1.2-0.8-2-1.9-2c-1.1,0-1.9,0.8-1.9,2s0.8,2,1.9,2
			C470.4,674,471.3,673.2,471.3,672z"/>
		<path fill="#414042" d="M480.4,674.3c-0.4,0.3-0.8,0.4-1.2,0.4c-0.8,0-1.3-0.4-1.3-1.5v-3h-0.7v-0.6h0.7v-1.3h0.8v1.3h1.7v0.6
			h-1.7v2.9c0,0.6,0.3,0.9,0.7,0.9c0.3,0,0.5-0.1,0.8-0.3L480.4,674.3z"/>
		<path fill="#414042" d="M486.5,672.4h-4.3c0.2,1,0.9,1.7,1.9,1.7c0.6,0,1.3-0.3,1.6-0.6l0.4,0.4c-0.5,0.5-1.3,0.9-2.1,0.9
			c-1.5,0-2.6-1.1-2.6-2.7c0-1.5,1.1-2.7,2.6-2.7C485.7,669.5,486.5,670.6,486.5,672.4z M485.7,671.7c-0.1-1-0.7-1.6-1.8-1.6
			c-1,0-1.7,0.6-1.8,1.6H485.7z"/>
		<path fill="#414042" d="M496.9,671.4v3.2h-0.8v-3c0-0.9-0.5-1.5-1.4-1.5c-1.1,0-1.7,0.8-1.7,2v2.6h-0.8v-3c0-0.9-0.5-1.5-1.4-1.5
			c-1.1,0-1.7,0.8-1.7,2v2.6h-0.8v-5.3h0.8v1.2c0.4-0.8,1.1-1.2,2-1.3c1,0,1.7,0.5,1.9,1.3c0.4-0.9,1.1-1.3,2.1-1.3
			C496.2,669.5,496.9,670.2,496.9,671.4z"/>
		<path fill="#414042" d="M504.5,672c0,1.5-1,2.6-2.5,2.6c-0.9,0-1.6-0.4-2.1-1.2v3h-0.8v-7.2h0.8v1.2c0.4-0.7,1.1-1.2,2.1-1.2
			C503.4,669.5,504.5,670.5,504.5,672z M503.7,672c0-1.2-0.8-2-1.9-2c-1.1,0-1.9,0.8-1.9,2s0.8,2,1.9,2
			C502.9,674,503.7,673.2,503.7,672z"/>
		<path fill="#414042" d="M511.1,672c0,1.6-1.1,2.7-2.7,2.7c-1.5,0-2.7-1.1-2.7-2.7c0-1.5,1.1-2.6,2.7-2.6
			C510.1,669.5,511.1,670.5,511.1,672z M506.6,672c0,1.2,0.8,2,1.9,2c1.1,0,1.9-0.8,1.9-2c0-1.2-0.8-2-1.9-2
			C507.4,670.2,506.6,670.9,506.6,672z"/>
		<path fill="#414042" d="M513.8,670.6c0.4-0.8,1-1.2,1.9-1.2v0.8c-1.1,0-1.8,0.6-1.9,1.7v2.8H513v-5.3h0.8V670.6z"/>
		<path fill="#414042" d="M184.9,679.8c0,0.3-0.2,0.5-0.5,0.5c-0.3,0-0.5-0.3-0.5-0.5s0.2-0.5,0.5-0.5
			C184.7,679.3,184.9,679.6,184.9,679.8z M184,686.6v-5.3h0.8v5.3H184z"/>
		<path fill="#414042" d="M192,683.4v3.2h-0.8v-3c0-0.9-0.5-1.4-1.5-1.4c-1.1,0-1.7,0.7-1.8,1.7v2.8h-0.8v-5.3h0.8v1.2
			c0.4-0.8,1.1-1.2,2.1-1.2C191.3,681.3,192,682.1,192,683.4z"/>
		<path fill="#414042" d="M198.3,682.1l-0.4,0.5c-0.4-0.4-0.9-0.6-1.5-0.6c-1.1,0-1.9,0.8-1.9,2c0,1.2,0.8,2,1.9,2
			c0.7,0,1.3-0.3,1.6-0.7l0.4,0.4c-0.4,0.5-1.2,0.9-2.1,0.9c-1.5,0-2.6-1.1-2.6-2.7c0-1.5,1.1-2.7,2.6-2.7
			C197.2,681.3,197.8,681.6,198.3,682.1z"/>
		<path fill="#414042" d="M201.2,679.8c0,0.3-0.2,0.5-0.5,0.5c-0.3,0-0.5-0.3-0.5-0.5s0.2-0.5,0.5-0.5
			C200.9,679.3,201.2,679.6,201.2,679.8z M200.3,686.6v-5.3h0.8v5.3H200.3z"/>
		<path fill="#414042" d="M208.3,686.6h-0.8v-1.2c-0.4,0.7-1.1,1.2-2.1,1.2c-1.5,0-2.5-1.1-2.5-2.7c0-1.6,1.1-2.7,2.5-2.7
			c0.9,0,1.7,0.4,2.1,1.2v-3.3h0.8V686.6z M207.5,684c0-1.2-0.8-2-1.9-2c-1.1,0-1.9,0.8-1.9,2c0,1.2,0.8,2,1.9,2
			C206.7,685.9,207.5,685.1,207.5,684z"/>
		<path fill="#414042" d="M211.6,679.8c0,0.3-0.2,0.5-0.5,0.5c-0.3,0-0.5-0.3-0.5-0.5s0.2-0.5,0.5-0.5
			C211.4,679.3,211.6,679.6,211.6,679.8z M210.7,686.6v-5.3h0.8v5.3H210.7z"/>
		<path fill="#414042" d="M218.6,686.6h-0.8v-1.2c-0.4,0.7-1.1,1.2-2.1,1.2c-1.5,0-2.5-1.1-2.5-2.7c0-1.6,1.1-2.7,2.5-2.7
			c0.9,0,1.7,0.4,2.1,1.2v-3.3h0.8V686.6z M217.9,684c0-1.2-0.8-2-1.9-2c-1.1,0-1.9,0.8-1.9,2c0,1.2,0.8,2,1.9,2
			C217.1,685.9,217.9,685.1,217.9,684z"/>
		<path fill="#414042" d="M225.6,686.6h-0.8v-1.2c-0.4,0.8-1.1,1.2-2,1.3c-1.3,0-2-0.8-2-2.1v-3.2h0.8v3c0,0.9,0.5,1.4,1.4,1.4
			c1.1,0,1.7-0.8,1.7-1.9v-2.6h0.8V686.6z"/>
		<path fill="#414042" d="M232.8,683.4v3.2H232v-3c0-0.9-0.5-1.4-1.5-1.4c-1.1,0-1.7,0.7-1.8,1.7v2.8H228v-5.3h0.8v1.2
			c0.4-0.8,1.1-1.2,2.1-1.2C232,681.3,232.8,682.1,232.8,683.4z"/>
		<path fill="#414042" d="M237.8,686.3c-0.4,0.3-0.8,0.4-1.2,0.4c-0.8,0-1.3-0.4-1.3-1.5v-3h-0.7v-0.6h0.7v-1.3h0.8v1.3h1.7v0.6
			h-1.7v2.9c0,0.6,0.3,0.9,0.7,0.9c0.3,0,0.5-0.1,0.8-0.3L237.8,686.3z"/>
		<path fill="#414042" d="M247.2,686.6h-0.8v-1.2c-0.4,0.8-1.1,1.2-2,1.3c-1.3,0-2-0.8-2-2.1v-3.2h0.8v3c0,0.9,0.5,1.4,1.4,1.4
			c1.1,0,1.7-0.8,1.7-1.9v-2.6h0.8L247.2,686.6L247.2,686.6z"/>
		<path fill="#414042" d="M252.3,686.3c-0.4,0.3-0.8,0.4-1.2,0.4c-0.8,0-1.3-0.4-1.3-1.5v-3H249v-0.6h0.7v-1.3h0.8v1.3h1.7v0.6h-1.7
			v2.9c0,0.6,0.3,0.9,0.7,0.9c0.3,0,0.5-0.1,0.8-0.3L252.3,686.3z"/>
		<path fill="#414042" d="M257.2,686.6v-7.3h0.8v7.3H257.2z"/>
		<path fill="#414042" d="M263.6,685.8c-0.4,0.5-1.1,0.8-1.9,0.8c-1.1,0-1.8-0.7-1.8-1.6c0-0.9,0.7-1.5,2-1.5h1.7v-0.3
			c0-0.8-0.4-1.3-1.4-1.3c-0.5,0-1.1,0.2-1.7,0.6l-0.4-0.5c0.7-0.4,1.3-0.7,2.1-0.7c1.3,0,2,0.7,2.1,1.8v3.5h-0.7V685.8z
			 M263.6,684.8v-0.6H262c-0.9,0-1.3,0.3-1.3,0.8c0,0.5,0.4,1,1.2,1C262.7,686,263.4,685.5,263.6,684.8z"/>
		<path fill="#414042" d="M272,684c0,1.5-1,2.6-2.5,2.6c-0.9,0-1.6-0.4-2.1-1.2v1.2h-0.8v-7.3h0.8v3.3c0.4-0.7,1.1-1.2,2.1-1.2
			C270.9,681.3,272,682.4,272,684z M271.2,683.9c0-1.2-0.8-2-1.9-2c-1.1,0-1.9,0.8-1.9,2s0.8,2,1.9,2
			C270.4,685.9,271.2,685.1,271.2,683.9z"/>
		<path fill="#414042" d="M278.6,683.9c0,1.6-1.1,2.7-2.7,2.7c-1.5,0-2.7-1.1-2.7-2.7c0-1.5,1.1-2.6,2.7-2.6
			C277.5,681.3,278.6,682.4,278.6,683.9z M274.1,684c0,1.2,0.8,2,1.9,2s1.9-0.8,1.9-2s-0.8-2-1.9-2S274.1,682.9,274.1,684z"/>
		<path fill="#414042" d="M281.2,682.5c0.4-0.8,1-1.2,1.9-1.2v0.8c-1.1,0-1.8,0.6-1.9,1.7v2.8h-0.8v-5.3h0.8V682.5z"/>
		<path fill="#414042" d="M289.2,684.3h-4.3c0.2,1,0.9,1.7,1.9,1.7c0.6,0,1.3-0.3,1.6-0.6l0.4,0.4c-0.5,0.5-1.3,0.9-2.1,0.9
			c-1.5,0-2.6-1.1-2.6-2.7c0-1.5,1.1-2.7,2.6-2.7C288.4,681.3,289.3,682.5,289.2,684.3z M288.5,683.7c-0.1-1-0.7-1.6-1.8-1.6
			c-1,0-1.7,0.6-1.8,1.6H288.5z"/>
		<path fill="#414042" d="M298.8,684.3h-4.3c0.2,1,0.9,1.7,1.9,1.7c0.6,0,1.3-0.3,1.6-0.6l0.4,0.4c-0.5,0.5-1.3,0.9-2.1,0.9
			c-1.5,0-2.6-1.1-2.6-2.7c0-1.5,1.1-2.7,2.6-2.7C298,681.3,298.8,682.5,298.8,684.3z M298,683.7c-0.1-1-0.7-1.6-1.8-1.6
			c-1,0-1.7,0.6-1.8,1.6H298z"/>
		<path fill="#414042" d="M303.2,686.3c-0.4,0.3-0.8,0.4-1.2,0.4c-0.8,0-1.3-0.4-1.3-1.5v-3H300v-0.6h0.7v-1.3h0.8v1.3h1.7v0.6h-1.7
			v2.9c0,0.6,0.3,0.9,0.7,0.9c0.3,0,0.5-0.1,0.8-0.3L303.2,686.3z"/>
		<path fill="#414042" d="M313,686.6h-0.8v-1.2c-0.4,0.7-1.1,1.2-2.1,1.2c-1.5,0-2.5-1.1-2.5-2.7c0-1.6,1.1-2.7,2.5-2.7
			c0.9,0,1.7,0.4,2.1,1.2v-3.3h0.8V686.6z M312.2,684c0-1.2-0.8-2-1.9-2s-1.9,0.8-1.9,2c0,1.2,0.8,2,1.9,2
			C311.4,685.9,312.2,685.1,312.2,684z"/>
		<path fill="#414042" d="M320.2,683.9c0,1.6-1.1,2.7-2.7,2.7c-1.5,0-2.7-1.1-2.7-2.7c0-1.5,1.1-2.6,2.7-2.6
			C319.1,681.3,320.2,682.4,320.2,683.9z M315.7,684c0,1.2,0.8,2,1.9,2s1.9-0.8,1.9-2s-0.8-2-1.9-2S315.7,682.9,315.7,684z"/>
		<path fill="#414042" d="M322.1,686.6v-7.3h0.8v7.3H322.1z"/>
		<path fill="#414042" d="M330.1,683.9c0,1.6-1.1,2.7-2.7,2.7c-1.5,0-2.7-1.1-2.7-2.7c0-1.5,1.1-2.6,2.7-2.6
			C329,681.3,330.1,682.4,330.1,683.9z M325.6,684c0,1.2,0.8,2,1.9,2s1.9-0.8,1.9-2s-0.8-2-1.9-2C326.3,682.1,325.6,682.9,325.6,684
			z"/>
		<path fill="#414042" d="M332.7,682.5c0.4-0.8,1-1.2,1.9-1.2v0.8c-1.1,0-1.8,0.6-1.9,1.7v2.8h-0.8v-5.3h0.8V682.5z"/>
		<path fill="#414042" d="M340.6,684.3h-4.3c0.2,1,0.9,1.7,1.9,1.7c0.6,0,1.3-0.3,1.6-0.6l0.4,0.4c-0.5,0.5-1.3,0.9-2.1,0.9
			c-1.5,0-2.6-1.1-2.6-2.7c0-1.5,1.1-2.7,2.6-2.7C339.9,681.3,340.7,682.5,340.6,684.3z M340,683.7c-0.1-1-0.7-1.6-1.8-1.6
			c-1,0-1.7,0.6-1.8,1.6H340z"/>
		<path fill="#414042" d="M354.3,683.4v3.2h-0.8v-3c0-0.9-0.5-1.5-1.4-1.5c-1.1,0-1.7,0.8-1.7,2v2.6h-0.7v-3c0-0.9-0.5-1.5-1.4-1.5
			c-1.1,0-1.7,0.8-1.7,2v2.6h-0.8v-5.3h0.8v1.2c0.4-0.8,1.1-1.2,2-1.3c1,0,1.7,0.5,1.9,1.3c0.4-0.9,1.1-1.3,2.1-1.3
			C353.6,681.3,354.3,682.1,354.3,683.4z"/>
		<path fill="#414042" d="M359.8,685.8c-0.4,0.5-1.1,0.8-1.9,0.8c-1.1,0-1.8-0.7-1.8-1.6c0-0.9,0.7-1.5,2-1.5h1.7v-0.3
			c0-0.8-0.4-1.3-1.4-1.3c-0.5,0-1.1,0.2-1.7,0.6l-0.4-0.5c0.7-0.4,1.3-0.7,2.1-0.7c1.3,0,2,0.7,2.1,1.8v3.5h-0.7V685.8z
			 M359.7,684.8v-0.6h-1.6c-0.9,0-1.3,0.3-1.3,0.8c0,0.5,0.4,1,1.2,1C358.9,686,359.6,685.5,359.7,684.8z"/>
		<path fill="#414042" d="M367.3,686.1c0,1.5-1.1,2.5-2.6,2.5c-0.8,0-1.5-0.3-2.1-0.7l0.4-0.6c0.5,0.4,1.1,0.6,1.8,0.6
			c1.2,0,1.9-0.7,1.9-1.8v-0.8c-0.4,0.7-1.1,1.1-2,1.1c-1.4,0-2.4-1.1-2.4-2.5c0-1.4,1-2.5,2.3-2.5c0.9,0,1.6,0.4,2,1.1v-1.1h0.8
			V686.1z M366.5,683.8c0-1.1-0.7-1.9-1.8-1.9c-1.1,0-1.8,0.8-1.8,1.9s0.7,1.9,1.8,1.9C365.8,685.7,366.5,684.9,366.5,683.8z"/>
		<path fill="#414042" d="M374.4,683.4v3.2h-0.8v-3c0-0.9-0.5-1.4-1.5-1.4c-1.1,0-1.7,0.7-1.8,1.7v2.8h-0.8v-5.3h0.8v1.2
			c0.4-0.8,1.1-1.2,2.1-1.2C373.6,681.3,374.4,682.1,374.4,683.4z"/>
		<path fill="#414042" d="M379.9,685.8c-0.4,0.5-1.1,0.8-1.9,0.8c-1.1,0-1.8-0.7-1.8-1.6c0-0.9,0.7-1.5,2-1.5h1.7v-0.3
			c0-0.8-0.4-1.3-1.4-1.3c-0.5,0-1.1,0.2-1.7,0.6l-0.4-0.5c0.7-0.4,1.3-0.7,2.1-0.7c1.3,0,2,0.7,2.1,1.8v3.5h-0.7V685.8z
			 M379.9,684.8v-0.6h-1.6c-0.9,0-1.3,0.3-1.3,0.8c0,0.5,0.4,1,1.2,1C379,686,379.7,685.5,379.9,684.8z"/>
		<path fill="#414042" d="M389.3,685.8c-0.4,0.5-1.1,0.8-1.9,0.8c-1.1,0-1.8-0.7-1.8-1.6c0-0.9,0.7-1.5,2-1.5h1.7v-0.3
			c0-0.8-0.4-1.3-1.4-1.3c-0.5,0-1.1,0.2-1.7,0.6l-0.4-0.5c0.7-0.4,1.3-0.7,2.1-0.7c1.3,0,2,0.7,2.1,1.8v3.5h-0.7V685.8z
			 M389.3,684.8v-0.6h-1.6c-0.9,0-1.3,0.3-1.3,0.8c0,0.5,0.4,1,1.2,1C388.4,686,389.1,685.5,389.3,684.8z"/>
		<path fill="#414042" d="M392.4,686.6v-7.3h0.8v7.3H392.4z"/>
		<path fill="#414042" d="M396.4,679.8c0,0.3-0.2,0.5-0.5,0.5c-0.3,0-0.5-0.3-0.5-0.5s0.2-0.5,0.5-0.5S396.4,679.6,396.4,679.8z
			 M395.5,686.6v-5.3h0.8v5.3H395.5z"/>
		<path fill="#414042" d="M403.5,688.5h-0.8v-3c-0.4,0.7-1.1,1.2-2.1,1.2c-1.5,0-2.5-1.1-2.5-2.7c0-1.6,1.1-2.7,2.5-2.7
			c0.9,0,1.7,0.4,2.1,1.2v-1.2h0.8V688.5z M402.8,684c0-1.2-0.8-2-1.9-2c-1.1,0-1.9,0.8-1.9,2c0,1.2,0.8,2,1.9,2
			C401.9,685.9,402.8,685.1,402.8,684z"/>
		<path fill="#414042" d="M410.4,686.6h-0.8v-1.2c-0.4,0.8-1.1,1.2-2,1.3c-1.3,0-2-0.8-2-2.1v-3.2h0.8v3c0,0.9,0.5,1.4,1.4,1.4
			c1.1,0,1.7-0.8,1.7-1.9v-2.6h0.8L410.4,686.6L410.4,686.6z"/>
		<path fill="#414042" d="M416.1,685.8c-0.4,0.5-1.1,0.8-1.9,0.8c-1.1,0-1.8-0.7-1.8-1.6c0-0.9,0.7-1.5,2-1.5h1.7v-0.3
			c0-0.8-0.4-1.3-1.4-1.3c-0.5,0-1.1,0.2-1.7,0.6l-0.4-0.5c0.7-0.4,1.3-0.7,2.1-0.7c1.3,0,2,0.7,2.1,1.8v3.5h-0.7V685.8z
			 M416.1,684.8v-0.6h-1.6c-0.9,0-1.3,0.3-1.3,0.8c0,0.5,0.4,1,1.2,1C415.3,686,415.9,685.5,416.1,684.8z"/>
		<path fill="#414042" d="M419.7,686.2c0,0.3-0.2,0.5-0.4,0.5c-0.3,0-0.4-0.2-0.4-0.5c0-0.3,0.2-0.5,0.4-0.5
			C419.4,685.6,419.7,685.9,419.7,686.2z"/>
	</g>
	<g>
		<path fill="#414042" d="M172.2,147l-2.4,3c-1.1-1.3-2.7-2.1-4.2-2.1c-2.7,0-4.6,2.1-4.6,4.8s2,4.9,4.6,4.9c1.4,0,3-0.8,4.2-2
			l2.5,2.6c-1.8,1.9-4.5,3-6.9,3c-5,0-8.8-3.7-8.8-8.6c0-4.8,3.8-8.4,8.9-8.4C167.9,144.2,170.5,145.3,172.2,147z"/>
		<path fill="#414042" d="M186.7,157.4v3.6h-11.4v-16.7h4.2v13.1H186.7z"/>
		<path fill="#414042" d="M206.8,152.6c0,4.8-3.8,8.6-9,8.6c-5.2,0-9-3.7-9-8.6c0-4.8,3.8-8.5,9-8.5
			C203,144.2,206.8,147.8,206.8,152.6z M193.2,152.7c0,2.8,2.1,5,4.7,5c2.6,0,4.6-2.1,4.6-5c0-2.8-2.1-4.9-4.6-4.9
			C195.3,147.7,193.2,149.8,193.2,152.7z"/>
		<path fill="#414042" d="M225.3,154c0,4.4-3,7.2-7.6,7.2c-4.7,0-7.7-2.8-7.7-7.2v-9.7h4.2v9.7c0,2.2,1.4,3.7,3.5,3.7
			c2,0,3.4-1.3,3.4-3.7v-9.7h4.2L225.3,154L225.3,154z"/>
		<path fill="#414042" d="M236.7,144.3c5.3,0,8.9,3.4,8.9,8.3c0,4.9-3.7,8.3-9,8.3h-7v-16.7L236.7,144.3L236.7,144.3z M233.7,157.6
			h3c2.6,0,4.5-2,4.5-4.9c0-3-2-5-4.6-5h-2.9L233.7,157.6L233.7,157.6z"/>
		<path fill="#414042" d="M263.4,147.7V161h-4.2v-13.3h-5v-3.4h14.2v3.4H263.4z"/>
		<path fill="#414042" d="M275.8,147.7v3.3h8v3.3h-8v3.4h9.1v3.3h-13.3v-16.7h13.1v3.3L275.8,147.7L275.8,147.7z"/>
		<path fill="#414042" d="M303.3,147l-2.4,3c-1.1-1.3-2.7-2.1-4.2-2.1c-2.7,0-4.6,2.1-4.6,4.8s2,4.9,4.6,4.9c1.4,0,3-0.8,4.2-2
			l2.5,2.6c-1.8,1.9-4.5,3-6.9,3c-5,0-8.8-3.7-8.8-8.6c0-4.8,3.8-8.4,8.9-8.4C299.1,144.2,301.6,145.3,303.3,147z"/>
		<path fill="#414042" d="M317.6,161v-6.5h-6.9v6.5h-4.2v-16.7h4.2v6.9h6.9v-6.9h4.2V161H317.6z"/>
		<path fill="#414042" d="M338.1,161l-7.7-10.3V161h-4v-16.7h3.8l7.7,10.3v-10.3h3.9V161H338.1z"/>
		<path fill="#414042" d="M363.3,152.6c0,4.8-3.8,8.6-9,8.6c-5.2,0-9-3.7-9-8.6c0-4.8,3.8-8.5,9-8.5
			C359.5,144.2,363.3,147.8,363.3,152.6z M349.5,152.7c0,2.8,2.1,5,4.7,5c2.6,0,4.6-2.1,4.6-5c0-2.8-2.1-4.9-4.6-4.9
			C351.7,147.7,349.5,149.8,349.5,152.7z"/>
		<path fill="#414042" d="M378.1,157.4v3.6h-11.4v-16.7h4.2v13.1H378.1z"/>
		<path fill="#414042" d="M398.2,152.6c0,4.8-3.8,8.6-9,8.6s-9-3.7-9-8.6c0-4.8,3.8-8.5,9-8.5C394.3,144.2,398.2,147.8,398.2,152.6z
			 M384.5,152.7c0,2.8,2.1,5,4.7,5c2.6,0,4.6-2.1,4.6-5c0-2.8-2.1-4.9-4.6-4.9C386.7,147.7,384.5,149.8,384.5,152.7z"/>
		<path fill="#414042" d="M416.1,152.5v6.5c-1.8,1.3-4.6,2.1-7,2.1c-5.1,0-8.9-3.7-8.9-8.5s3.9-8.5,9.2-8.5c2.5,0,5.1,1,6.8,2.5
			l-2.4,2.9c-1.3-1.2-3-1.8-4.5-1.8c-2.8,0-4.8,2.1-4.8,4.9c0,2.9,2.1,5,4.9,5c0.9,0,2-0.3,3-0.8v-4.3L416.1,152.5L416.1,152.5z"/>
		<path fill="#414042" d="M428.9,161h-4.2v-5.3l-6.2-11.4h4.2l4,7.2l3.9-7.2h4.2l-6.1,11.3L428.9,161L428.9,161z"/>
	</g>
	<g>
		<path fill="#414042" d="M84.6,184.1v0.7h-3.8v-7h0.8v6.2L84.6,184.1L84.6,184.1z"/>
		<path fill="#414042" d="M91,182.2c0,1.6-1.1,2.7-2.7,2.7c-1.5,0-2.7-1.1-2.7-2.7c0-1.5,1.1-2.6,2.7-2.6
			C89.9,179.6,91,180.7,91,182.2z M86.5,182.2c0,1.2,0.8,2,1.9,2c1.1,0,1.9-0.8,1.9-2s-0.8-2-1.9-2
			C87.3,180.3,86.5,181.1,86.5,182.2z"/>
		<path fill="#414042" d="M93.6,180.8c0.4-0.8,1-1.2,1.9-1.2v0.8c-1.1,0-1.8,0.6-1.9,1.7v2.8h-0.8v-5.3h0.8V180.8z"/>
		<path fill="#414042" d="M101.6,182.6h-4.3c0.2,1,0.9,1.7,1.9,1.7c0.6,0,1.3-0.3,1.6-0.6l0.4,0.4c-0.5,0.5-1.3,0.9-2.1,0.9
			c-1.5,0-2.6-1.1-2.6-2.7c0-1.5,1.1-2.7,2.6-2.7C100.8,179.6,101.7,180.8,101.6,182.6z M100.9,181.9c-0.1-1-0.7-1.6-1.8-1.6
			c-1,0-1.7,0.6-1.8,1.6H100.9z"/>
		<path fill="#414042" d="M112,181.7v3.2h-0.8v-3c0-0.9-0.5-1.5-1.4-1.5c-1.1,0-1.7,0.8-1.7,2v2.6h-0.8v-3c0-0.9-0.5-1.5-1.4-1.5
			c-1.1,0-1.7,0.8-1.7,2v2.6h-0.8v-5.3h0.8v1.2c0.4-0.8,1.1-1.2,2-1.3c1,0,1.7,0.5,1.9,1.3c0.4-0.9,1.1-1.3,2.1-1.3
			C111.3,179.6,112,180.3,112,181.7z"/>
		<path fill="#414042" d="M118.4,178.1c0,0.3-0.2,0.5-0.5,0.5c-0.3,0-0.5-0.3-0.5-0.5s0.2-0.5,0.5-0.5
			C118.1,177.5,118.4,177.8,118.4,178.1z M117.5,184.9v-5.3h0.8v5.3H117.5z"/>
		<path fill="#414042" d="M126,182.3c0,1.5-1,2.6-2.5,2.6c-0.9,0-1.6-0.4-2.1-1.2v3h-0.7v-7.2h0.8v1.2c0.4-0.7,1.1-1.2,2.1-1.2
			C124.9,179.6,126,180.7,126,182.3z M125.2,182.2c0-1.2-0.8-2-1.9-2c-1.1,0-1.9,0.8-1.9,2s0.8,2,1.9,2
			C124.5,184.2,125.2,183.4,125.2,182.2z"/>
		<path fill="#414042" d="M130.9,180l-0.3,0.6c-0.4-0.3-0.9-0.4-1.4-0.4c-0.6,0-1.1,0.2-1.1,0.7c0,1.2,3,0.5,3,2.4
			c0,1.1-0.9,1.5-1.9,1.5c-0.7,0-1.5-0.3-2-0.7l0.3-0.6c0.4,0.4,1.2,0.6,1.7,0.6c0.6,0,1.1-0.3,1.2-0.7c0-1.3-2.9-0.6-2.9-2.5
			c0-1,0.9-1.4,1.8-1.4C129.8,179.6,130.5,179.8,130.9,180z"/>
		<path fill="#414042" d="M137.4,184.9h-0.8v-1.2c-0.4,0.8-1.1,1.2-2,1.3c-1.3,0-2-0.8-2-2.1v-3.2h0.8v3c0,0.9,0.5,1.4,1.4,1.4
			c1.1,0,1.7-0.8,1.7-1.9v-2.6h0.8V184.9z"/>
		<path fill="#414042" d="M148.4,181.7v3.2h-0.8v-3c0-0.9-0.5-1.5-1.4-1.5c-1.1,0-1.7,0.8-1.7,2v2.6h-0.8v-3c0-0.9-0.5-1.5-1.4-1.5
			c-1.1,0-1.7,0.8-1.7,2v2.6h-0.8v-5.3h0.8v1.2c0.4-0.8,1.1-1.2,2-1.3c1,0,1.7,0.5,1.9,1.3c0.4-0.9,1.1-1.3,2.1-1.3
			C147.7,179.6,148.4,180.3,148.4,181.7z"/>
		<path fill="#414042" d="M158.6,184.9h-0.8v-1.2c-0.4,0.7-1.1,1.2-2.1,1.2c-1.5,0-2.5-1.1-2.5-2.7s1.1-2.7,2.5-2.7
			c0.9,0,1.7,0.4,2.1,1.2v-3.3h0.8V184.9z M157.9,182.3c0-1.2-0.8-2-1.9-2c-1.1,0-1.9,0.8-1.9,2c0,1.2,0.8,2,1.9,2
			C157.1,184.2,157.9,183.4,157.9,182.3z"/>
		<path fill="#414042" d="M165.9,182.2c0,1.6-1.1,2.7-2.7,2.7c-1.5,0-2.7-1.1-2.7-2.7c0-1.5,1.1-2.6,2.7-2.6
			S165.9,180.7,165.9,182.2z M161.3,182.2c0,1.2,0.8,2,1.9,2c1.1,0,1.9-0.8,1.9-2s-0.8-2-1.9-2C162.1,180.3,161.3,181.1,161.3,182.2
			z"/>
		<path fill="#414042" d="M167.8,184.9v-7.3h0.8v7.3H167.8z"/>
		<path fill="#414042" d="M175.8,182.2c0,1.6-1.1,2.7-2.7,2.7s-2.7-1.1-2.7-2.7c0-1.5,1.1-2.6,2.7-2.6S175.8,180.7,175.8,182.2z
			 M171.2,182.2c0,1.2,0.8,2,1.9,2c1.1,0,1.9-0.8,1.9-2s-0.8-2-1.9-2C172,180.3,171.2,181.1,171.2,182.2z"/>
		<path fill="#414042" d="M178.4,180.8c0.4-0.8,1-1.2,1.9-1.2v0.8c-1.1,0-1.8,0.6-1.9,1.7v2.8h-0.8v-5.3h0.8V180.8z"/>
		<path fill="#414042" d="M188.1,180l-0.3,0.6c-0.4-0.3-0.9-0.4-1.4-0.4c-0.6,0-1.1,0.2-1.1,0.7c0,1.2,3,0.5,3,2.4
			c0,1.1-0.9,1.5-1.9,1.5c-0.7,0-1.5-0.3-2-0.7l0.3-0.6c0.4,0.4,1.2,0.6,1.7,0.6c0.6,0,1.1-0.3,1.2-0.7c0-1.3-2.9-0.6-2.9-2.5
			c0-1,0.9-1.4,1.8-1.4C187.1,179.6,187.7,179.8,188.1,180z"/>
		<path fill="#414042" d="M190.9,178.1c0,0.3-0.2,0.5-0.5,0.5c-0.3,0-0.5-0.3-0.5-0.5s0.2-0.5,0.5-0.5S190.9,177.8,190.9,178.1z
			 M190,184.9v-5.3h0.8v5.3H190z"/>
		<path fill="#414042" d="M195.9,184.5c-0.4,0.3-0.8,0.4-1.2,0.4c-0.8,0-1.3-0.4-1.3-1.5v-3h-0.7v-0.6h0.7v-1.3h0.8v1.3h1.7v0.6
			h-1.7v2.9c0,0.6,0.3,0.9,0.7,0.9c0.3,0,0.5-0.1,0.8-0.3L195.9,184.5z"/>
		<path fill="#414042" d="M204.1,184.1c-0.4,0.5-1.1,0.8-1.9,0.8c-1.1,0-1.8-0.7-1.8-1.6s0.7-1.5,2-1.5h1.7v-0.3
			c0-0.8-0.4-1.3-1.4-1.3c-0.5,0-1.1,0.2-1.7,0.6l-0.4-0.5c0.7-0.4,1.3-0.7,2.1-0.7c1.3,0,2,0.7,2.1,1.8v3.5h-0.7L204.1,184.1
			L204.1,184.1z M204.1,183v-0.6h-1.6c-0.9,0-1.3,0.3-1.3,0.8s0.4,1,1.2,1C203.2,184.3,203.8,183.8,204.1,183z"/>
		<path fill="#414042" d="M215.7,181.7v3.2h-0.8v-3c0-0.9-0.5-1.5-1.4-1.5c-1.1,0-1.7,0.8-1.7,2v2.6h-0.8v-3c0-0.9-0.5-1.5-1.4-1.5
			c-1.1,0-1.7,0.8-1.7,2v2.6H207v-5.3h0.8v1.2c0.4-0.8,1.1-1.2,2-1.3c1,0,1.7,0.5,1.9,1.3c0.4-0.9,1.1-1.3,2.1-1.3
			C215,179.6,215.7,180.3,215.7,181.7z"/>
		<path fill="#414042" d="M222.4,182.6h-4.3c0.2,1,0.9,1.7,1.9,1.7c0.6,0,1.3-0.3,1.6-0.6l0.4,0.4c-0.5,0.5-1.3,0.9-2.1,0.9
			c-1.5,0-2.6-1.1-2.6-2.7c0-1.5,1.1-2.7,2.6-2.7C221.7,179.6,222.5,180.8,222.4,182.6z M221.7,181.9c-0.1-1-0.7-1.6-1.8-1.6
			c-1,0-1.7,0.6-1.8,1.6H221.7z"/>
		<path fill="#414042" d="M227,184.5c-0.4,0.3-0.8,0.4-1.2,0.4c-0.8,0-1.3-0.4-1.3-1.5v-3h-0.7v-0.6h0.7v-1.3h0.8v1.3h1.7v0.6h-1.7
			v2.9c0,0.6,0.3,0.9,0.7,0.9c0.3,0,0.5-0.1,0.8-0.3L227,184.5z"/>
		<path fill="#414042" d="M229.1,184.4c0,0.2-0.1,0.3-0.2,0.4l-0.4,0.7H228l0.4-0.7c-0.2-0.1-0.2-0.3-0.2-0.4c0-0.3,0.2-0.5,0.4-0.5
			S229.1,184.1,229.1,184.4z"/>
		<path fill="#414042" d="M238.3,180.4l-0.4,0.5c-0.4-0.4-0.9-0.6-1.5-0.6c-1.1,0-1.9,0.8-1.9,2s0.8,2,1.9,2c0.7,0,1.3-0.3,1.6-0.7
			l0.4,0.4c-0.4,0.5-1.2,0.9-2.1,0.9c-1.5,0-2.6-1.1-2.6-2.7c0-1.5,1.1-2.7,2.6-2.7C237.1,179.6,237.9,179.9,238.3,180.4z"/>
		<path fill="#414042" d="M244.8,182.2c0,1.6-1.1,2.7-2.7,2.7c-1.5,0-2.7-1.1-2.7-2.7c0-1.5,1.1-2.6,2.7-2.6
			C243.8,179.6,244.8,180.7,244.8,182.2z M240.4,182.2c0,1.2,0.8,2,1.9,2c1.1,0,1.9-0.8,1.9-2s-0.8-2-1.9-2
			C241.2,180.3,240.4,181.1,240.4,182.2z"/>
		<path fill="#414042" d="M251.5,181.7v3.2h-0.8v-3c0-0.9-0.5-1.4-1.5-1.4c-1.1,0-1.7,0.7-1.8,1.7v2.8h-0.8v-5.3h0.8v1.2
			c0.4-0.8,1.1-1.2,2.1-1.2C250.7,179.6,251.5,180.3,251.5,181.7z"/>
		<path fill="#414042" d="M256.8,180l-0.3,0.6c-0.4-0.3-0.9-0.4-1.4-0.4c-0.6,0-1.1,0.2-1.1,0.7c0,1.2,3,0.5,3,2.4
			c0,1.1-0.9,1.5-1.9,1.5c-0.7,0-1.5-0.3-2-0.7l0.3-0.6c0.4,0.4,1.2,0.6,1.7,0.6c0.6,0,1.1-0.3,1.2-0.7c0-1.3-2.9-0.6-2.9-2.5
			c0-1,0.9-1.4,1.8-1.4C255.7,179.6,256.4,179.8,256.8,180z"/>
		<path fill="#414042" d="M263.3,182.6H259c0.2,1,0.9,1.7,1.9,1.7c0.6,0,1.3-0.3,1.6-0.6l0.4,0.4c-0.5,0.5-1.3,0.9-2.1,0.9
			c-1.5,0-2.6-1.1-2.6-2.7c0-1.5,1.1-2.7,2.6-2.7C262.5,179.6,263.3,180.8,263.3,182.6z M262.5,181.9c-0.1-1-0.7-1.6-1.8-1.6
			c-1,0-1.7,0.6-1.8,1.6H262.5z"/>
		<path fill="#414042" d="M269.2,180.4l-0.4,0.5c-0.4-0.4-0.9-0.6-1.5-0.6c-1.1,0-1.9,0.8-1.9,2s0.8,2,1.9,2c0.7,0,1.3-0.3,1.6-0.7
			l0.4,0.4c-0.4,0.5-1.2,0.9-2.1,0.9c-1.5,0-2.6-1.1-2.6-2.7c0-1.5,1.1-2.7,2.6-2.7C268,179.6,268.7,179.9,269.2,180.4z"/>
		<path fill="#414042" d="M273.8,184.5c-0.4,0.3-0.8,0.4-1.2,0.4c-0.8,0-1.3-0.4-1.3-1.5v-3h-0.7v-0.6h0.7v-1.3h0.8v1.3h1.7v0.6
			h-1.7v2.9c0,0.6,0.3,0.9,0.7,0.9c0.3,0,0.5-0.1,0.8-0.3L273.8,184.5z"/>
		<path fill="#414042" d="M280,182.6h-4.3c0.2,1,0.9,1.7,1.9,1.7c0.6,0,1.3-0.3,1.6-0.6l0.4,0.4c-0.5,0.5-1.3,0.9-2.1,0.9
			c-1.5,0-2.6-1.1-2.6-2.7c0-1.5,1.1-2.7,2.6-2.7C279.2,179.6,280.1,180.8,280,182.6z M279.3,181.9c-0.1-1-0.7-1.6-1.8-1.6
			c-1,0-1.7,0.6-1.8,1.6H279.3z"/>
		<path fill="#414042" d="M284.4,184.5c-0.4,0.3-0.8,0.4-1.2,0.4c-0.8,0-1.3-0.4-1.3-1.5v-3h-0.7v-0.6h0.7v-1.3h0.8v1.3h1.7v0.6
			h-1.7v2.9c0,0.6,0.3,0.9,0.7,0.9c0.3,0,0.5-0.1,0.8-0.3L284.4,184.5z"/>
		<path fill="#414042" d="M290.7,184.9h-0.8v-1.2c-0.4,0.8-1.1,1.2-2,1.3c-1.3,0-2-0.8-2-2.1v-3.2h0.8v3c0,0.9,0.5,1.4,1.4,1.4
			c1.1,0,1.7-0.8,1.7-1.9v-2.6h0.8L290.7,184.9L290.7,184.9z"/>
		<path fill="#414042" d="M293.8,180.8c0.4-0.8,1-1.2,1.9-1.2v0.8c-1.1,0-1.8,0.6-1.9,1.7v2.8H293v-5.3h0.8V180.8z"/>
		<path fill="#414042" d="M303.8,184.1c-0.4,0.5-1.1,0.8-1.9,0.8c-1.1,0-1.8-0.7-1.8-1.6s0.7-1.5,2-1.5h1.7v-0.3
			c0-0.8-0.4-1.3-1.4-1.3c-0.5,0-1.1,0.2-1.7,0.6l-0.4-0.5c0.7-0.4,1.3-0.7,2.1-0.7c1.3,0,2,0.7,2.1,1.8v3.5h-0.7V184.1z M303.8,183
			v-0.6h-1.6c-0.9,0-1.3,0.3-1.3,0.8s0.4,1,1.2,1C302.9,184.3,303.5,183.8,303.8,183z"/>
		<path fill="#414042" d="M311.5,184.9h-0.8v-1.2c-0.4,0.7-1.1,1.2-2.1,1.2c-1.5,0-2.5-1.1-2.5-2.7s1.1-2.7,2.5-2.7
			c0.9,0,1.7,0.4,2.1,1.2v-3.3h0.8V184.9z M310.7,182.3c0-1.2-0.8-2-1.9-2c-1.1,0-1.9,0.8-1.9,2c0,1.2,0.8,2,1.9,2
			C309.9,184.2,310.7,183.4,310.7,182.3z"/>
		<path fill="#414042" d="M314.9,178.1c0,0.3-0.2,0.5-0.5,0.5c-0.3,0-0.5-0.3-0.5-0.5s0.2-0.5,0.5-0.5
			C314.7,177.5,314.9,177.8,314.9,178.1z M314,184.9v-5.3h0.8v5.3H314z"/>
		<path fill="#414042" d="M322.5,182.3c0,1.5-1,2.6-2.5,2.6c-0.9,0-1.6-0.4-2.1-1.2v3h-0.8v-7.2h0.8v1.2c0.4-0.7,1.1-1.2,2.1-1.2
			C321.5,179.6,322.5,180.7,322.5,182.3z M321.6,182.2c0-1.2-0.8-2-1.9-2s-1.9,0.8-1.9,2s0.8,2,1.9,2
			C320.9,184.2,321.6,183.4,321.6,182.2z"/>
		<path fill="#414042" d="M325.2,178.1c0,0.3-0.2,0.5-0.5,0.5c-0.3,0-0.5-0.3-0.5-0.5s0.2-0.5,0.5-0.5
			C325,177.5,325.2,177.8,325.2,178.1z M324.3,184.9v-5.3h0.8v5.3H324.3z"/>
		<path fill="#414042" d="M330.5,180l-0.3,0.6c-0.4-0.3-0.9-0.4-1.4-0.4c-0.6,0-1.1,0.2-1.1,0.7c0,1.2,3,0.5,3,2.4
			c0,1.1-0.9,1.5-1.9,1.5c-0.7,0-1.5-0.3-2-0.7l0.3-0.6c0.4,0.4,1.2,0.6,1.7,0.6c0.6,0,1.1-0.3,1.2-0.7c0-1.3-2.9-0.6-2.9-2.5
			c0-1,0.9-1.4,1.8-1.4C329.5,179.6,330.1,179.8,330.5,180z"/>
		<path fill="#414042" d="M336.6,180.4l-0.4,0.5c-0.4-0.4-0.9-0.6-1.5-0.6c-1.1,0-1.9,0.8-1.9,2s0.8,2,1.9,2c0.7,0,1.3-0.3,1.6-0.7
			l0.4,0.4c-0.4,0.5-1.2,0.9-2.1,0.9c-1.5,0-2.6-1.1-2.6-2.7c0-1.5,1.1-2.7,2.6-2.7C335.4,179.6,336,179.9,336.6,180.4z"/>
		<path fill="#414042" d="M339.4,178.1c0,0.3-0.2,0.5-0.5,0.5c-0.3,0-0.5-0.3-0.5-0.5s0.2-0.5,0.5-0.5
			C339.2,177.5,339.4,177.8,339.4,178.1z M338.5,184.9v-5.3h0.8v5.3H338.5z"/>
		<path fill="#414042" d="M346.5,181.7v3.2h-0.8v-3c0-0.9-0.5-1.4-1.5-1.4c-1.1,0-1.7,0.7-1.8,1.7v2.8h-0.8v-5.3h0.8v1.2
			c0.4-0.8,1.1-1.2,2.1-1.2C345.7,179.6,346.5,180.3,346.5,181.7z"/>
		<path fill="#414042" d="M353.3,184.3c0,1.5-1.1,2.5-2.6,2.5c-0.8,0-1.5-0.3-2.1-0.7l0.4-0.6c0.5,0.4,1.1,0.6,1.8,0.6
			c1.2,0,1.9-0.7,1.9-1.8v-0.8c-0.4,0.7-1.1,1.1-2,1.1c-1.4,0-2.4-1.1-2.4-2.5c0-1.4,1-2.5,2.3-2.5c0.9,0,1.6,0.4,2,1.1v-1.1h0.8
			V184.3z M352.5,182.1c0-1.1-0.7-1.9-1.8-1.9c-1.1,0-1.8,0.8-1.8,1.9s0.7,1.9,1.8,1.9C351.8,184,352.5,183.2,352.5,182.1z"/>
		<path fill="#414042" d="M363.2,182.6h-4.3c0.2,1,0.9,1.7,1.9,1.7c0.6,0,1.3-0.3,1.6-0.6l0.4,0.4c-0.5,0.5-1.3,0.9-2.1,0.9
			c-1.5,0-2.6-1.1-2.6-2.7c0-1.5,1.1-2.7,2.6-2.7C362.5,179.6,363.3,180.8,363.2,182.6z M362.5,181.9c-0.1-1-0.7-1.6-1.8-1.6
			c-1,0-1.7,0.6-1.8,1.6H362.5z"/>
		<path fill="#414042" d="M365.1,184.9v-7.3h0.8v7.3H365.1z"/>
		<path fill="#414042" d="M369.2,178.1c0,0.3-0.2,0.5-0.5,0.5c-0.3,0-0.5-0.3-0.5-0.5s0.2-0.5,0.5-0.5
			C369,177.5,369.2,177.8,369.2,178.1z M368.3,184.9v-5.3h0.8v5.3H368.3z"/>
		<path fill="#414042" d="M374.2,184.5c-0.4,0.3-0.8,0.4-1.2,0.4c-0.8,0-1.3-0.4-1.3-1.5v-3H371v-0.6h0.7v-1.3h0.8v1.3h1.7v0.6h-1.7
			v2.9c0,0.6,0.3,0.9,0.7,0.9c0.3,0,0.5-0.1,0.8-0.3L374.2,184.5z"/>
		<path fill="#414042" d="M376.4,184.4c0,0.2-0.1,0.3-0.2,0.4l-0.4,0.7h-0.4l0.4-0.7c-0.2-0.1-0.2-0.3-0.2-0.4
			c0-0.3,0.2-0.5,0.4-0.5C376.2,183.9,376.4,184.1,376.4,184.4z"/>
		<path fill="#414042" d="M384.6,180l-0.3,0.6c-0.4-0.3-0.9-0.4-1.4-0.4c-0.6,0-1.1,0.2-1.1,0.7c0,1.2,3,0.5,3,2.4
			c0,1.1-0.9,1.5-1.9,1.5c-0.7,0-1.5-0.3-2-0.7l0.3-0.6c0.4,0.4,1.2,0.6,1.7,0.6c0.6,0,1.1-0.3,1.2-0.7c0-1.3-2.9-0.6-2.9-2.5
			c0-1,0.9-1.4,1.8-1.4C383.5,179.6,384.2,179.8,384.6,180z"/>
		<path fill="#414042" d="M391,182.6h-4.3c0.2,1,0.9,1.7,1.9,1.7c0.6,0,1.3-0.3,1.6-0.6l0.4,0.4c-0.5,0.5-1.3,0.9-2.1,0.9
			c-1.5,0-2.6-1.1-2.6-2.7c0-1.5,1.1-2.7,2.6-2.7C390.3,179.6,391.1,180.8,391,182.6z M390.3,181.9c-0.1-1-0.7-1.6-1.8-1.6
			c-1,0-1.7,0.6-1.8,1.6H390.3z"/>
		<path fill="#414042" d="M397.7,184.9h-0.8v-1.2c-0.4,0.7-1.1,1.2-2.1,1.2c-1.5,0-2.5-1.1-2.5-2.7s1.1-2.7,2.5-2.7
			c0.9,0,1.7,0.4,2.1,1.2v-3.3h0.8V184.9z M396.9,182.3c0-1.2-0.8-2-1.9-2c-1.1,0-1.9,0.8-1.9,2c0,1.2,0.8,2,1.9,2
			C396.1,184.2,396.9,183.4,396.9,182.3z"/>
		<path fill="#414042" d="M408.1,184.9h-0.8v-1.2c-0.4,0.7-1.1,1.2-2.1,1.2c-1.5,0-2.5-1.1-2.5-2.7s1.1-2.7,2.5-2.7
			c0.9,0,1.7,0.4,2.1,1.2v-3.3h0.8V184.9z M407.4,182.3c0-1.2-0.8-2-1.9-2c-1.1,0-1.9,0.8-1.9,2c0,1.2,0.8,2,1.9,2
			C406.6,184.2,407.4,183.4,407.4,182.3z"/>
		<path fill="#414042" d="M415.4,182.2c0,1.6-1.1,2.7-2.7,2.7c-1.6,0-2.7-1.1-2.7-2.7c0-1.5,1.1-2.6,2.7-2.6
			C414.3,179.6,415.4,180.7,415.4,182.2z M410.8,182.2c0,1.2,0.8,2,1.9,2s1.9-0.8,1.9-2s-0.8-2-1.9-2
			C411.6,180.3,410.8,181.1,410.8,182.2z"/>
		<path fill="#414042" d="M424.9,182.6h-4.3c0.2,1,0.9,1.7,1.9,1.7c0.6,0,1.3-0.3,1.6-0.6l0.4,0.4c-0.5,0.5-1.3,0.9-2.1,0.9
			c-1.5,0-2.6-1.1-2.6-2.7c0-1.5,1.1-2.7,2.6-2.7C424.2,179.6,425,180.8,424.9,182.6z M424.2,181.9c-0.1-1-0.7-1.6-1.8-1.6
			c-1,0-1.7,0.6-1.8,1.6H424.2z"/>
		<path fill="#414042" d="M427.6,178.1c0,0.3-0.2,0.5-0.5,0.5c-0.3,0-0.5-0.3-0.5-0.5s0.2-0.5,0.5-0.5
			C427.4,177.5,427.6,177.8,427.6,178.1z M426.8,184.9v-5.3h0.8v5.3H426.8z"/>
		<path fill="#414042" d="M434.5,184.9h-0.8v-1.2c-0.4,0.8-1.1,1.2-2,1.3c-1.3,0-2-0.8-2-2.1v-3.2h0.8v3c0,0.9,0.5,1.4,1.4,1.4
			c1.1,0,1.7-0.8,1.7-1.9v-2.6h0.8L434.5,184.9L434.5,184.9z"/>
		<path fill="#414042" d="M439.9,180l-0.3,0.6c-0.4-0.3-0.9-0.4-1.4-0.4c-0.6,0-1.1,0.2-1.1,0.7c0,1.2,3,0.5,3,2.4
			c0,1.1-0.9,1.5-1.9,1.5c-0.7,0-1.5-0.3-2-0.7l0.3-0.6c0.4,0.4,1.2,0.6,1.7,0.6c0.6,0,1.1-0.3,1.2-0.7c0-1.3-2.9-0.6-2.9-2.5
			c0-1,0.9-1.4,1.8-1.4C438.9,179.6,439.5,179.8,439.9,180z"/>
		<path fill="#414042" d="M450.5,181.7v3.2h-0.8v-3c0-0.9-0.5-1.5-1.4-1.5c-1.1,0-1.7,0.8-1.7,2v2.6h-0.8v-3c0-0.9-0.5-1.5-1.4-1.5
			c-1.1,0-1.7,0.8-1.7,2v2.6h-0.8v-5.3h0.8v1.2c0.4-0.8,1.1-1.2,2-1.3c1,0,1.7,0.5,1.9,1.3c0.4-0.9,1.1-1.3,2.1-1.3
			C449.8,179.6,450.5,180.3,450.5,181.7z"/>
		<path fill="#414042" d="M457.5,182.2c0,1.6-1.1,2.7-2.7,2.7c-1.5,0-2.7-1.1-2.7-2.7c0-1.5,1.1-2.6,2.7-2.6
			C456.4,179.6,457.5,180.7,457.5,182.2z M452.9,182.2c0,1.2,0.8,2,1.9,2c1.1,0,1.9-0.8,1.9-2s-0.8-2-1.9-2
			C453.7,180.2,452.9,181.1,452.9,182.2z"/>
		<path fill="#414042" d="M464.2,184.9h-0.8v-1.2c-0.4,0.7-1.1,1.2-2.1,1.2c-1.5,0-2.5-1.1-2.5-2.7s1.1-2.7,2.5-2.7
			c0.9,0,1.7,0.4,2.1,1.2v-3.3h0.8V184.9z M463.4,182.3c0-1.2-0.8-2-1.9-2c-1.1,0-1.9,0.8-1.9,2c0,1.2,0.8,2,1.9,2
			C462.6,184.2,463.4,183.4,463.4,182.3z"/>
		<path fill="#414042" d="M472.5,184.5c-0.4,0.3-0.8,0.4-1.2,0.4c-0.8,0-1.3-0.4-1.3-1.5v-3h-0.7v-0.6h0.7v-1.3h0.8v1.3h1.7v0.6
			h-1.7v2.9c0,0.6,0.3,0.9,0.7,0.9c0.3,0,0.5-0.1,0.8-0.3L472.5,184.5z"/>
		<path fill="#414042" d="M478.6,182.6h-4.3c0.2,1,0.9,1.7,1.9,1.7c0.6,0,1.3-0.3,1.6-0.6l0.4,0.4c-0.5,0.5-1.3,0.9-2.1,0.9
			c-1.5,0-2.6-1.1-2.6-2.7c0-1.5,1.1-2.7,2.6-2.7C477.9,179.6,478.7,180.8,478.6,182.6z M478,181.9c-0.1-1-0.7-1.6-1.8-1.6
			c-1,0-1.7,0.6-1.8,1.6H478z"/>
		<path fill="#414042" d="M489.1,181.7v3.2h-0.8v-3c0-0.9-0.5-1.5-1.4-1.5c-1.1,0-1.7,0.8-1.7,2v2.6h-0.8v-3c0-0.9-0.5-1.5-1.4-1.5
			c-1.1,0-1.7,0.8-1.7,2v2.6h-0.8v-5.3h0.8v1.2c0.4-0.8,1.1-1.2,2-1.3c1,0,1.7,0.5,1.9,1.3c0.4-0.9,1.1-1.3,2.1-1.3
			C488.3,179.6,489.1,180.3,489.1,181.7z"/>
		<path fill="#414042" d="M496.6,182.3c0,1.5-1,2.6-2.5,2.6c-0.9,0-1.6-0.4-2.1-1.2v3h-0.8v-7.2h0.8v1.2c0.4-0.7,1.1-1.2,2.1-1.2
			C495.7,179.6,496.6,180.7,496.6,182.3z M495.8,182.2c0-1.2-0.8-2-1.9-2c-1.1,0-1.9,0.8-1.9,2s0.8,2,1.9,2
			C495.1,184.2,495.8,183.4,495.8,182.2z"/>
		<path fill="#414042" d="M503.3,182.2c0,1.6-1.1,2.7-2.7,2.7c-1.5,0-2.7-1.1-2.7-2.7c0-1.5,1.1-2.6,2.7-2.6
			C502.2,179.6,503.3,180.7,503.3,182.2z M498.8,182.2c0,1.2,0.8,2,1.9,2c1.1,0,1.9-0.8,1.9-2s-0.8-2-1.9-2
			C499.6,180.3,498.8,181.1,498.8,182.2z"/>
		<path fill="#414042" d="M505.9,180.8c0.4-0.8,1-1.2,1.9-1.2v0.8c-1.1,0-1.8,0.6-1.9,1.7v2.8h-0.8v-5.3h0.8V180.8z"/>
		<path fill="#414042" d="M177.1,190.1c0,0.3-0.2,0.5-0.5,0.5c-0.3,0-0.5-0.3-0.5-0.5s0.2-0.5,0.5-0.5
			C176.9,189.5,177.1,189.7,177.1,190.1z M176.2,196.8v-5.3h0.8v5.3H176.2z"/>
		<path fill="#414042" d="M184.1,193.5v3.2h-0.8v-3c0-0.9-0.5-1.4-1.5-1.4c-1.1,0-1.7,0.7-1.8,1.7v2.8h-0.8v-5.3h0.8v1.2
			c0.4-0.8,1.1-1.2,2.1-1.2C183.4,191.5,184.1,192.3,184.1,193.5z"/>
		<path fill="#414042" d="M190.5,192.3l-0.4,0.5c-0.4-0.4-0.9-0.6-1.5-0.6c-1.1,0-1.9,0.8-1.9,2s0.8,2,1.9,2c0.7,0,1.3-0.3,1.6-0.7
			l0.4,0.4c-0.4,0.5-1.2,0.9-2.1,0.9c-1.5,0-2.6-1.1-2.6-2.7c0-1.5,1.1-2.7,2.6-2.7C189.3,191.5,190,191.8,190.5,192.3z"/>
		<path fill="#414042" d="M193.3,190.1c0,0.3-0.2,0.5-0.5,0.5c-0.3,0-0.5-0.3-0.5-0.5s0.2-0.5,0.5-0.5
			C193.2,189.5,193.3,189.7,193.3,190.1z M192.4,196.8v-5.3h0.8v5.3H192.4z"/>
		<path fill="#414042" d="M200.4,196.8h-0.8v-1.2c-0.4,0.7-1.1,1.2-2.1,1.2c-1.5,0-2.5-1.1-2.5-2.7s1.1-2.7,2.5-2.7
			c0.9,0,1.7,0.4,2.1,1.2v-3.3h0.8V196.8z M199.7,194.2c0-1.2-0.8-2-1.9-2c-1.1,0-1.9,0.8-1.9,2s0.8,2,1.9,2
			S199.7,195.3,199.7,194.2z"/>
		<path fill="#414042" d="M203.7,190.1c0,0.3-0.2,0.5-0.5,0.5c-0.3,0-0.5-0.3-0.5-0.5s0.2-0.5,0.5-0.5
			C203.5,189.5,203.7,189.7,203.7,190.1z M202.9,196.8v-5.3h0.8v5.3H202.9z"/>
		<path fill="#414042" d="M210.8,196.8H210v-1.2c-0.4,0.7-1.1,1.2-2.1,1.2c-1.5,0-2.5-1.1-2.5-2.7s1.1-2.7,2.5-2.7
			c0.9,0,1.7,0.4,2.1,1.2v-3.3h0.8V196.8z M210.1,194.2c0-1.2-0.8-2-1.9-2c-1.1,0-1.9,0.8-1.9,2s0.8,2,1.9,2
			C209.2,196.1,210.1,195.3,210.1,194.2z"/>
		<path fill="#414042" d="M217.7,196.8h-0.8v-1.2c-0.4,0.8-1.1,1.2-2,1.3c-1.3,0-2-0.8-2-2.1v-3.2h0.8v3c0,0.9,0.5,1.4,1.4,1.4
			c1.1,0,1.7-0.8,1.7-1.9v-2.6h0.8V196.8z"/>
		<path fill="#414042" d="M225,193.5v3.2h-0.8v-3c0-0.9-0.5-1.4-1.5-1.4c-1.1,0-1.7,0.7-1.8,1.7v2.8h-0.8v-5.3h0.8v1.2
			c0.4-0.8,1.1-1.2,2.1-1.2C224.3,191.5,225,192.3,225,193.5z"/>
		<path fill="#414042" d="M229.9,196.4c-0.4,0.3-0.8,0.4-1.2,0.4c-0.8,0-1.3-0.4-1.3-1.5v-3h-0.7v-0.6h0.7v-1.3h0.8v1.3h1.7v0.6
			h-1.7v2.9c0,0.6,0.3,0.9,0.7,0.9c0.3,0,0.5-0.1,0.8-0.3L229.9,196.4z"/>
		<path fill="#414042" d="M239.3,196.8h-0.8v-1.2c-0.4,0.8-1.1,1.2-2,1.3c-1.3,0-2-0.8-2-2.1v-3.2h0.8v3c0,0.9,0.5,1.4,1.4,1.4
			c1.1,0,1.7-0.8,1.7-1.9v-2.6h0.8L239.3,196.8L239.3,196.8z"/>
		<path fill="#414042" d="M244.4,196.4c-0.4,0.3-0.8,0.4-1.2,0.4c-0.8,0-1.3-0.4-1.3-1.5v-3h-0.7v-0.6h0.7v-1.3h0.8v1.3h1.7v0.6
			h-1.7v2.9c0,0.6,0.3,0.9,0.7,0.9c0.3,0,0.5-0.1,0.8-0.3L244.4,196.4z"/>
		<path fill="#414042" d="M249.3,196.8v-7.3h0.8v7.3H249.3z"/>
		<path fill="#414042" d="M255.8,196c-0.4,0.5-1.1,0.8-1.9,0.8c-1.1,0-1.8-0.7-1.8-1.6c0-0.9,0.7-1.5,2-1.5h1.7v-0.3
			c0-0.8-0.4-1.3-1.4-1.3c-0.5,0-1.1,0.2-1.7,0.6l-0.4-0.5c0.7-0.4,1.3-0.7,2.1-0.7c1.3,0,2,0.7,2.1,1.8v3.5h-0.7V196z M255.7,195
			v-0.6h-1.6c-0.9,0-1.3,0.3-1.3,0.8s0.4,1,1.2,1C254.9,196.1,255.6,195.7,255.7,195z"/>
		<path fill="#414042" d="M264.2,194.2c0,1.5-1,2.6-2.5,2.6c-0.9,0-1.6-0.4-2.1-1.2v1.2h-0.8v-7.3h0.8v3.3c0.4-0.7,1.1-1.2,2.1-1.2
			C263.1,191.5,264.2,192.6,264.2,194.2z M263.3,194.2c0-1.2-0.8-2-1.9-2c-1.1,0-1.9,0.8-1.9,2s0.8,2,1.9,2
			C262.5,196.1,263.3,195.2,263.3,194.2z"/>
		<path fill="#414042" d="M270.8,194.2c0,1.6-1.1,2.7-2.7,2.7c-1.6,0-2.7-1.1-2.7-2.7c0-1.5,1.1-2.6,2.7-2.6
			C269.7,191.6,270.8,192.6,270.8,194.2z M266.2,194.2c0,1.2,0.8,2,1.9,2s1.9-0.8,1.9-2s-0.8-2-1.9-2S266.2,193,266.2,194.2z"/>
		<path fill="#414042" d="M273.5,192.7c0.4-0.8,1-1.2,1.9-1.2v0.8c-1.1,0-1.8,0.6-1.9,1.7v2.8h-0.8v-5.3h0.8V192.7z"/>
		<path fill="#414042" d="M281.3,194.4H277c0.2,1,0.9,1.7,1.9,1.7c0.6,0,1.3-0.3,1.6-0.6l0.4,0.4c-0.5,0.5-1.3,0.9-2.1,0.9
			c-1.5,0-2.6-1.1-2.6-2.7c0-1.5,1.1-2.7,2.6-2.7C280.6,191.5,281.4,192.7,281.3,194.4z M280.6,193.8c-0.1-1-0.7-1.6-1.8-1.6
			c-1,0-1.7,0.6-1.8,1.6H280.6z"/>
		<path fill="#414042" d="M290.9,194.4h-4.3c0.2,1,0.9,1.7,1.9,1.7c0.6,0,1.3-0.3,1.6-0.6l0.4,0.4c-0.5,0.5-1.3,0.9-2.1,0.9
			c-1.5,0-2.6-1.1-2.6-2.7c0-1.5,1.1-2.7,2.6-2.7C290.2,191.5,291,192.7,290.9,194.4z M290.2,193.8c-0.1-1-0.7-1.6-1.8-1.6
			c-1,0-1.7,0.6-1.8,1.6H290.2z"/>
		<path fill="#414042" d="M295.4,196.4c-0.4,0.3-0.8,0.4-1.2,0.4c-0.8,0-1.3-0.4-1.3-1.5v-3h-0.7v-0.6h0.7v-1.3h0.8v1.3h1.7v0.6
			h-1.7v2.9c0,0.6,0.3,0.9,0.7,0.9c0.3,0,0.5-0.1,0.8-0.3L295.4,196.4z"/>
		<path fill="#414042" d="M305.1,196.8h-0.8v-1.2c-0.4,0.7-1.1,1.2-2.1,1.2c-1.5,0-2.5-1.1-2.5-2.7s1.1-2.7,2.5-2.7
			c0.9,0,1.7,0.4,2.1,1.2v-3.3h0.8V196.8z M304.3,194.2c0-1.2-0.8-2-1.9-2c-1.1,0-1.9,0.8-1.9,2s0.8,2,1.9,2
			C303.6,196.1,304.3,195.3,304.3,194.2z"/>
		<path fill="#414042" d="M312.3,194.2c0,1.6-1.1,2.7-2.7,2.7c-1.5,0-2.7-1.1-2.7-2.7c0-1.5,1.1-2.6,2.7-2.6
			C311.2,191.5,312.3,192.6,312.3,194.2z M307.8,194.2c0,1.2,0.8,2,1.9,2c1.1,0,1.9-0.8,1.9-2s-0.8-2-1.9-2
			C308.6,192.2,307.8,193,307.8,194.2z"/>
		<path fill="#414042" d="M314.2,196.8v-7.3h0.8v7.3H314.2z"/>
		<path fill="#414042" d="M322.2,194.2c0,1.6-1.1,2.7-2.7,2.7c-1.5,0-2.7-1.1-2.7-2.7c0-1.5,1.1-2.6,2.7-2.6
			C321.1,191.5,322.2,192.6,322.2,194.2z M317.7,194.2c0,1.2,0.8,2,1.9,2c1.1,0,1.9-0.8,1.9-2s-0.8-2-1.9-2S317.7,193,317.7,194.2z"
			/>
		<path fill="#414042" d="M324.9,192.7c0.4-0.8,1-1.2,1.9-1.2v0.8c-1.1,0-1.8,0.6-1.9,1.7v2.8h-0.8v-5.3h0.8V192.7z"/>
		<path fill="#414042" d="M332.8,194.4h-4.3c0.2,1,0.9,1.7,1.9,1.7c0.6,0,1.3-0.3,1.6-0.6l0.4,0.4c-0.5,0.5-1.3,0.9-2.1,0.9
			c-1.5,0-2.6-1.1-2.6-2.7c0-1.5,1.1-2.7,2.6-2.7C332,191.5,332.8,192.7,332.8,194.4z M332.1,193.8c-0.1-1-0.7-1.6-1.8-1.6
			c-1,0-1.7,0.6-1.8,1.6H332.1z"/>
		<path fill="#414042" d="M346.5,193.5v3.2h-0.8v-3c0-0.9-0.5-1.5-1.4-1.5c-1.1,0-1.7,0.8-1.7,2v2.6h-0.8v-3c0-0.9-0.5-1.5-1.4-1.5
			c-1.1,0-1.7,0.8-1.7,2v2.6h-0.8v-5.3h0.8v1.2c0.4-0.8,1.1-1.2,2-1.3c1,0,1.7,0.5,1.9,1.3c0.4-0.9,1.1-1.3,2.1-1.3
			C345.8,191.5,346.5,192.3,346.5,193.5z"/>
		<path fill="#414042" d="M352,196c-0.4,0.5-1.1,0.8-1.9,0.8c-1.1,0-1.8-0.7-1.8-1.6c0-0.9,0.7-1.5,2-1.5h1.7v-0.3
			c0-0.8-0.4-1.3-1.4-1.3c-0.5,0-1.1,0.2-1.7,0.6l-0.4-0.5c0.7-0.4,1.3-0.7,2.1-0.7c1.3,0,2,0.7,2.1,1.8v3.5H352V196z M352,195v-0.6
			h-1.6c-0.9,0-1.3,0.3-1.3,0.8s0.4,1,1.2,1C351.1,196.1,351.8,195.7,352,195z"/>
		<path fill="#414042" d="M359.5,196.2c0,1.5-1.1,2.5-2.6,2.5c-0.8,0-1.5-0.3-2.1-0.7l0.4-0.6c0.5,0.4,1.1,0.6,1.8,0.6
			c1.2,0,1.9-0.7,1.9-1.8v-0.8c-0.4,0.7-1.1,1.1-2,1.1c-1.4,0-2.4-1.1-2.4-2.5s1-2.5,2.3-2.5c0.9,0,1.6,0.4,2,1.1v-1.1h0.8V196.2z
			 M358.8,194c0-1.1-0.7-1.9-1.8-1.9s-1.8,0.8-1.8,1.9s0.7,1.9,1.8,1.9C358,195.9,358.8,195.1,358.8,194z"/>
		<path fill="#414042" d="M366.5,193.5v3.2h-0.8v-3c0-0.9-0.5-1.4-1.5-1.4c-1.1,0-1.7,0.7-1.8,1.7v2.8h-0.8v-5.3h0.8v1.2
			c0.4-0.8,1.1-1.2,2.1-1.2C365.8,191.5,366.5,192.3,366.5,193.5z"/>
		<path fill="#414042" d="M372,196c-0.4,0.5-1.1,0.8-1.9,0.8c-1.1,0-1.8-0.7-1.8-1.6c0-0.9,0.7-1.5,2-1.5h1.7v-0.3
			c0-0.8-0.4-1.3-1.4-1.3c-0.5,0-1.1,0.2-1.7,0.6l-0.4-0.5c0.7-0.4,1.3-0.7,2.1-0.7c1.3,0,2,0.7,2.1,1.8v3.5H372V196z M372,195v-0.6
			h-1.6c-0.9,0-1.3,0.3-1.3,0.8s0.4,1,1.2,1C371.1,196.1,371.8,195.7,372,195z"/>
		<path fill="#414042" d="M381.5,196c-0.4,0.5-1.1,0.8-1.9,0.8c-1.1,0-1.8-0.7-1.8-1.6c0-0.9,0.7-1.5,2-1.5h1.7v-0.3
			c0-0.8-0.4-1.3-1.4-1.3c-0.5,0-1.1,0.2-1.7,0.6l-0.4-0.5c0.7-0.4,1.3-0.7,2.1-0.7c1.3,0,2,0.7,2.1,1.8v3.5h-0.7V196z M381.5,195
			v-0.6h-1.6c-0.9,0-1.3,0.3-1.3,0.8s0.4,1,1.2,1C380.6,196.1,381.3,195.7,381.5,195z"/>
		<path fill="#414042" d="M384.5,196.8v-7.3h0.8v7.3H384.5z"/>
		<path fill="#414042" d="M388.6,190.1c0,0.3-0.2,0.5-0.5,0.5c-0.3,0-0.5-0.3-0.5-0.5s0.2-0.5,0.5-0.5
			C388.4,189.5,388.6,189.7,388.6,190.1z M387.7,196.8v-5.3h0.8v5.3H387.7z"/>
		<path fill="#414042" d="M395.7,198.7h-0.8v-3c-0.4,0.7-1.1,1.2-2.1,1.2c-1.5,0-2.5-1.1-2.5-2.7s1.1-2.7,2.5-2.7
			c0.9,0,1.7,0.4,2.1,1.2v-1.2h0.8V198.7z M394.9,194.2c0-1.2-0.8-2-1.9-2s-1.9,0.8-1.9,2s0.8,2,1.9,2S394.9,195.3,394.9,194.2z"/>
		<path fill="#414042" d="M402.7,196.8h-0.8v-1.2c-0.4,0.8-1.1,1.2-2,1.3c-1.3,0-2-0.8-2-2.1v-3.2h0.8v3c0,0.9,0.5,1.4,1.4,1.4
			c1.1,0,1.7-0.8,1.7-1.9v-2.6h0.8L402.7,196.8L402.7,196.8z"/>
		<path fill="#414042" d="M408.3,196c-0.4,0.5-1.1,0.8-1.9,0.8c-1.1,0-1.8-0.7-1.8-1.6c0-0.9,0.7-1.5,2-1.5h1.7v-0.3
			c0-0.8-0.4-1.3-1.4-1.3c-0.5,0-1.1,0.2-1.7,0.6l-0.4-0.5c0.7-0.4,1.3-0.7,2.1-0.7c1.3,0,2,0.7,2.1,1.8v3.5h-0.7V196z M408.3,195
			v-0.6h-1.6c-0.9,0-1.3,0.3-1.3,0.8s0.4,1,1.2,1C407.4,196.1,408,195.7,408.3,195z"/>
		<path fill="#414042" d="M411.8,196.3c0,0.3-0.2,0.5-0.4,0.5s-0.4-0.2-0.4-0.5c0-0.3,0.2-0.5,0.4-0.5S411.8,196.1,411.8,196.3z"/>
	</g>
	<g>
		<g>
			<g>
				<path fill="#D1D3D4" d="M457.7,328c-10.1,0-19.5,2.9-27.3,8.2c-5.3-6-12.5-10.3-20.7-11.6c0.4-2.3,0.5-4.7,0.5-7.1
					c0-26.6-21.6-48.2-48.1-48.2s-48,21.5-48,48c0,3.9,0.4,7.7,1.3,11.4c-3.6-0.8-7.2-0.7-11.1-0.7c-26.6,0-48,19.8-48,48.6h249.3
					C505.7,347.8,484.2,328,457.7,328z"/>
				<g>
					<path fill="#D1D3D4" stroke="#231F20" stroke-width="3.2" stroke-linejoin="round" stroke-miterlimit="10" d="M257.2,375.5"/>
				</g>
			</g>
		</g>
		<g>
			<g>
				<polygon fill="#EB3249" points="441.9,300.1 360.5,300.1 360.5,356.7 401.2,356.7 401.2,376.3 423,356.7 441.9,356.7 				"/>
				<g>
					<rect x="369.4" y="310.1" fill="#231F20" width="15.9" height="3"/>
				</g>
				<g>
					<rect x="369.4" y="323.9" fill="#231F20" width="62.6" height="3"/>
				</g>
				<g>
					<rect x="369.4" y="334.8" fill="#231F20" width="62.6" height="3"/>
				</g>
				<g>
					<rect x="369.4" y="345.8" fill="#231F20" width="13.9" height="3"/>
				</g>
				<g>
					<rect x="392.3" y="345.8" fill="#231F20" width="16.9" height="3"/>
				</g>
				<g>
					<rect x="415.1" y="345.8" fill="#231F20" width="16.9" height="3"/>
				</g>
				<g>
					<rect x="393.3" y="310.1" fill="#231F20" width="38.7" height="3"/>
				</g>
			</g>
			<g>
				<polygon fill="#FFFFFF" points="341.6,325.9 393.3,325.9 393.3,359.7 367.4,359.7 367.4,372.6 353.2,359.7 341.6,359.7 				"/>
				<g>
					<rect x="365.5" y="332.9" fill="#231F20" width="18.9" height="3"/>
				</g>
				<g>
					<rect x="348.6" y="346.8" fill="#231F20" width="35.8" height="3"/>
				</g>
			</g>
		</g>
		<g>
			<g>
				<polygon fill="#939598" points="91.8,397.4 91.8,379.5 47.6,412.2 91.2,444.9 91.2,428.1 91.2,428.3 147.8,428.3 147.8,397.4 
									"/>
				<path fill="#231F20" d="M91.7,446.4c-0.4,0-0.6-0.1-0.9-0.3l-43.9-32.9c-0.4-0.3-0.6-0.7-0.6-1.2s0.2-0.9,0.6-1.2l44-32.8
					c0.4-0.4,1.1-0.4,1.5-0.2c0.5,0.3,0.8,0.8,0.8,1.3v16.3h55c0.8,0,1.5,0.6,1.5,1.5v30.8c0,0.8-0.6,1.5-1.5,1.5H93.1v15.7
					c0,0.5-0.4,1.1-0.8,1.3C92.2,446.4,91.9,446.4,91.7,446.4z M50.3,412.1L90.2,442v-14.2c0-0.8,0.6-1.5,1.5-1.5h55.2v-27.8h-55
					c-0.4,0-0.8-0.2-1.1-0.4c-0.3-0.3-0.4-0.6-0.4-1.1v-14.8L50.3,412.1z"/>
			</g>
		</g>
		<g>
			<g>
				<polygon fill="#EB3249" points="537.7,428.3 537.7,445.5 580.9,412.4 536.3,379.2 536.3,396.1 536.3,397.4 479.7,397.4 
					479.7,428.3 				"/>
				<path fill="#231F20" d="M537.7,446.7c-0.3,0-0.4-0.1-0.6-0.2c-0.5-0.3-0.8-0.8-0.8-1.3v-15.9h-56.1c-0.8,0-1.5-0.6-1.5-1.5V397
					c0-0.8,0.6-1.5,1.5-1.5h55.2v-16.3c0-0.5,0.4-1.1,0.8-1.3c0.5-0.3,1.1-0.2,1.5,0.2l44.4,33c0.4,0.3,0.6,0.7,0.6,1.2
					s-0.2,0.9-0.6,1.2l-43.5,33C538.3,446.6,538,446.7,537.7,446.7z M481.7,426.3h56c0.4,0,0.8,0.2,1.1,0.4c0.3,0.3,0.4,0.6,0.4,1.1
					v14.4l39.5-30l-40.4-30.1V397c0,0.8-0.6,1.5-1.5,1.5h-55.2L481.7,426.3L481.7,426.3z"/>
			</g>
		</g>
		<g>
			<g>
				<path fill="#E6E7E8" d="M395.2,467.2c10.9,0,21,3,29.3,8.8c5.6-6.4,13.4-11.1,22.3-12.6c-0.4-2.5-0.5-5.1-0.5-7.7
					c0-28.6,23.2-51.8,51.8-51.8s51.8,23.2,51.8,51.7c0,4.2-0.5,8.3-1.4,12.3c3.8-0.9,7.8-0.6,11.9-0.6c28.6,0,51.8,20.7,51.8,52.5
					H343.5C343.5,487.8,366.6,467.2,395.2,467.2z"/>
				<g>
					<path fill="#E6E7E8" stroke="#231F20" stroke-width="3.2" stroke-linejoin="round" stroke-miterlimit="10" d="M611.1,518.1"/>
				</g>
			</g>
		</g>
		<g>
			<g>
				<path fill="#E6E7E8" d="M408.5,422.2c-20.4,0-39.3,5.5-54.9,16.2c-10.6-12.1-25.1-20.8-41.7-23.6c0.7-4.6,1.1-9.6,1.1-14.4
					c0-53.5-43.4-96.8-96.8-96.8c-53.5,0-96.8,43.3-96.8,96.7c0,7.9,1,15.5,2.8,22.8c-7.2-1.7-14.6-0.9-22.3-0.9
					C46.4,422.2,3.1,461,3.1,520.7h502.1C505.2,461,461.9,422.2,408.5,422.2z"/>
				<g>
					<path fill="#19CEC4" stroke="#231F20" stroke-width="3.2" stroke-linejoin="round" stroke-miterlimit="10" d="M4.6,517.2"/>
				</g>
				<g>
					<path fill="#231F20" d="M349.5,453.8l-3.2-0.1c0.3-7.3,5.5-16.5,5.8-16.9l2.8,1.6C354.9,438.4,349.8,447.2,349.5,453.8z"/>
				</g>
			</g>
			<g>
				<rect x="-12.2" y="519.7" fill="#231F20" width="634.9" height="3"/>
			</g>
		</g>
		<g>
			<g>
				<polygon fill="#FFFFFF" points="194,323.9 119,323.9 119,454.1 216.4,454.1 216.4,346.1 				"/>
				<path fill="#231F20" d="M216.9,455.1h-97.4c-0.8,0-1.5-0.6-1.5-1.5V323.5c0-0.8,0.6-1.5,1.5-1.5H194c0.4,0,0.8,0.2,1.1,0.4
					L218,345c0.3,0.3,0.4,0.6,0.4,1.1v107.5C218.4,454.4,217.7,455.1,216.9,455.1z M121,452.1h94.4V346.7L193.3,325H121L121,452.1
					L121,452.1z"/>
			</g>
			<g>
				<path fill="#231F20" d="M216.4,348.8h-23.3c-0.8,0-1.5-0.6-1.5-1.5v-24.3h3v22.9h21.9V348.8z"/>
			</g>
			<circle fill="#EB3249" cx="138.4" cy="341.5" r="8.9"/>
			<g>
				<rect x="154.8" y="335.8" fill="#231F20" width="13.9" height="3"/>
			</g>
			<g>
				<rect x="154.8" y="344.8" fill="#231F20" width="13.9" height="3"/>
			</g>
			<g>
				<rect x="132" y="369.6" fill="#231F20" width="72.5" height="3"/>
			</g>
			<g>
				<rect x="132" y="384.6" fill="#231F20" width="72.5" height="3"/>
			</g>
			<g>
				<rect x="132" y="401.5" fill="#231F20" width="72.5" height="3"/>
			</g>
			<g>
				<rect x="132" y="416.3" fill="#231F20" width="72.5" height="3"/>
			</g>
			<g>
				<rect x="132" y="431.2" fill="#231F20" width="72.5" height="3"/>
			</g>
		</g>
		<g>
			<g>
				<path fill="#BCBEC0" d="M299.8,442.1l-0.1-13.8c3.3-0.8,5.2-1.9,7.5-3.1l9.8,9.7c0.9,0.9,2.4,0.9,3.4,0l13.9-14
					c0.9-0.9,0.9-2.4,0-3.3l-9.8-9.7c1.3-2.4,2.3-4.3,3-7.6l13.8-0.1c1.3,0,2.3-0.9,2.3-2.2l-0.1-19.8c0-1.3-1.1-2.5-2.3-2.5
					l-13.8,0.1c-0.8-3.3-1.9-5-3.1-7.3l9.7-9.7c0.9-0.9,0.9-2.4,0-3.3l-14-13.9c-0.9-0.9-2.4-0.9-3.3,0l-9.7,9.8
					c-2.4-1.3-4.3-2.2-7.5-3l-0.1-13.8c0-1.3-1-2.6-2.2-2.6l-19.8,0.1c-1.3,0-2.5,1.3-2.5,2.6l0.1,13.8c-3.3,0.8-5,1.9-7.4,3.1
					l-9.7-9.7c-0.9-0.9-2.4-0.9-3.3,0l-13.9,14c-0.9,0.9-0.9,2.4,0,3.3l9.8,9.7c-1.3,2.3-2.3,4.1-3,7.4l-13.8,0.1
					c-1.3,0-2.6,1.3-2.6,2.5l0.1,19.8c0,1.3,1.3,2.2,2.6,2.2l13.8-0.1c0.8,3.3,1.9,5.2,3.1,7.5l-9.7,9.8c-0.9,0.9-0.9,2.4,0,3.4
					l14,13.9c0.9,0.9,2.4,0.9,3.3,0l9.7-9.8c2.3,1.3,4.1,2.3,7.4,3l0.1,13.8c0,1.3,1.2,2.3,2.5,2.3l19.8-0.1
					C298.9,444.4,299.8,443.4,299.8,442.1z"/>
				<path fill="#231F20" d="M277.8,446.2c-2.2,0-4-1.8-4.1-3.9l-0.1-12.6c-2.2-0.6-3.8-1.4-5.5-2.3l-8.9,8.9
					c-0.7,0.7-1.7,1.2-2.8,1.2c-1.1,0-2.1-0.4-2.8-1.2l-14-13.9c-0.7-0.7-1.2-1.8-1.2-2.8c0-1.1,0.4-2.1,1.2-2.8l8.9-9
					c-0.9-1.7-1.7-3.4-2.4-5.6l-12.6,0.1c-2.3,0-4.2-1.7-4.2-3.8l-0.1-19.8c0-1.1,0.4-2.1,1.3-2.9c0.8-0.8,1.9-1.3,2.9-1.3l12.6-0.1
					c0.6-2.2,1.4-3.8,2.3-5.5l-8.9-8.8c-1.5-1.5-1.6-4,0-5.6l13.9-14c0.7-0.7,1.7-1.2,2.8-1.2c1.1,0,2.1,0.4,2.8,1.2l8.9,8.9
					c1.7-0.9,3.2-1.7,5.5-2.4l-0.1-12.6c0-2.2,1.9-4.2,4-4.2l19.8-0.1c2.1,0,3.8,1.9,3.8,4.2l0.1,12.6c2.3,0.6,3.9,1.4,5.6,2.3
					l8.9-8.9c0.7-0.7,1.8-1.2,2.8-1.2c1.1,0,2.1,0.4,2.8,1.2l14,13.9c1.5,1.5,1.5,4,0,5.5l-8.9,8.9c0.9,1.7,1.7,3.2,2.4,5.5
					l12.6-0.1c2.1,0,3.9,1.9,3.9,4.1l0.1,19.8c0,2.1-1.7,3.8-3.9,3.8l-12.6,0.1c-0.6,2.3-1.4,3.9-2.3,5.7l8.9,8.9
					c0.7,0.7,1.2,1.7,1.2,2.8s-0.4,2.1-1.2,2.9l-13.9,14c-0.7,0.7-1.7,1.2-2.8,1.2c-1.1,0-2.1-0.4-2.8-1.2l-9-8.9
					c-1.7,0.9-3.3,1.7-5.6,2.4l0.1,12.6c0,2.1-1.7,3.9-3.8,3.9L277.8,446.2L277.8,446.2z M267.8,423.7c0.3,0,0.5,0.1,0.7,0.2
					l0.5,0.3c2.1,1.1,3.7,2,6.5,2.6c0.7,0.2,1.3,0.8,1.3,1.5l0.2,13.8c0,0.4,0,0.7,1,0.7v1.6l-0.1-1.6l19.8-0.1
					c0.4,0,0.6-0.3,0.6-0.7l-0.1-13.8c0-0.7,0.4-1.3,1.2-1.5c3-0.7,4.6-1.7,6.9-2.9l0.3-0.2c0.6-0.4,1.3-0.2,1.9,0.3l9.8,9.7
					c0.2,0.2,0.4,0.3,0.5,0.3c0.1,0,0.4,0,0.5-0.3l13.9-14c0.2-0.2,0.3-0.4,0.3-0.5c0-0.1,0-0.4-0.3-0.5l-9.8-9.8
					c-0.5-0.5-0.6-1.3-0.3-1.9l0.1-0.2c1.2-2.2,2.1-4,2.9-7.1c0.2-0.7,0.8-1.3,1.5-1.3l13.8-0.1c0.1,0,0.7,0,0.7-0.6l-0.1-19.8
					c0-0.4-0.4-0.7-0.7-0.7l-13.8,0.3l0,0c-0.7,0-1.3-0.7-1.5-1.4c-0.7-2.8-1.5-4.5-2.7-6.4l-0.4-0.7c-0.4-0.6-0.2-1.4,0.3-1.9
					l9.7-9.7c0.3-0.3,0.3-0.8,0-1.1l-14-13.9c-0.2-0.2-0.4-0.3-0.5-0.3c-0.2,0-0.4,0.1-0.5,0.3l-9.7,9.8c-0.4,0.5-1.3,0.6-1.9,0.3
					l-0.3-0.2c-2.2-1.2-3.9-2.1-6.9-2.8c-0.7-0.2-1.3-0.8-1.3-1.5l-0.1-13.8c0-0.4-0.4-1-0.6-1l-19.8,0.1c-0.4,0-0.9,0.5-0.9,1
					l0.1,13.8c0,0.7-0.5,1.3-1.2,1.5c-2.8,0.7-4.4,1.6-6.4,2.7l-0.5,0.3c-0.6,0.4-1.3,0.2-1.9-0.3l-10-9.5c-0.2-0.2-0.4-0.3-0.5-0.3
					c-0.1,0-0.4,0-0.5,0.3l-13.9,14c-0.3,0.3-0.3,0.8,0,1.1l9.8,9.7c0.5,0.5,0.6,1.3,0.3,1.9l-0.4,0.6c-1.1,2.1-2,3.6-2.6,6.3
					c-0.2,0.7-0.8,1.3-1.5,1.3l-13.8,0.1c-0.2,0-0.4,0.1-0.6,0.4c-0.2,0.2-0.4,0.4-0.3,0.6l0.1,19.8c0,0.4,0.5,0.6,1,0.6l13.8-0.1
					c0.7,0,1.3,0.5,1.5,1.3c0.7,3,1.7,4.7,2.9,7l0.1,0.2c0.4,0.6,0.3,1.3-0.3,1.9l-9.7,9.8c-0.2,0.2-0.3,0.4-0.3,0.5
					c0,0.1,0,0.4,0.3,0.5l14,13.9c0.2,0.2,0.4,0.3,0.5,0.3s0.4,0,0.5-0.2l9.7-9.8C267,423.9,267.5,423.7,267.8,423.7z"/>
			</g>
			<path fill="#FFFFFF" d="M287,406.6c-9.8,0.1-17.8-7.9-17.8-17.6c-0.1-9.8,7.9-17.8,17.6-17.8c9.8-0.1,17.8,7.9,17.8,17.6
				C304.7,398.5,296.8,406.6,287,406.6z"/>
		</g>
		<g>
			<circle fill="#EB3249" cx="84.5" cy="483.5" r="34.2"/>
			<g>
				<polygon fill="#FFFFFF" points="75.3,493.8 75.3,473.4 95.7,483.6 				"/>
				<path fill="#231F20" d="M75.8,495.3c-0.3,0-0.5-0.1-0.8-0.2c-0.4-0.3-0.7-0.7-0.7-1.3v-20.3c0-0.5,0.3-1,0.7-1.3
					c0.4-0.3,1-0.3,1.4-0.1l20.3,10.2c0.5,0.3,0.8,0.8,0.8,1.3s-0.4,1.1-0.8,1.3l-20.3,10.2C76.3,495.3,76,495.3,75.8,495.3z
					 M77.3,475.9v15.5l15.5-7.8L77.3,475.9z"/>
			</g>
		</g>
		<g>
			<g>
				<path fill="#FD8A06" d="M168.7,447.8c0-19.3-16-35-35.3-35s-35.1,15.6-35.1,35c0,15.4,9.7,28.3,23.6,33.1v24h23.9v-24
					C157.7,476.1,168.7,463.2,168.7,447.8z"/>
				<g>
					<rect x="120" y="504.7" fill="#BCBEC0" width="23.9" height="16.9"/>
					<path fill="#231F20" d="M144.3,522.6h-23.9c-0.8,0-1.5-0.6-1.5-1.5v-16.9c0-0.8,0.6-1.5,1.5-1.5h23.9c0.8,0,1.5,0.6,1.5,1.5
						v16.9C145.8,522,145.2,522.6,144.3,522.6z M122,519.7h20.8v-13.9H122V519.7z"/>
				</g>
				<g>
					<rect x="132" y="446.2" fill="#231F20" width="3" height="58.7"/>
				</g>
				<g>
					<path fill="#231F20" d="M108.6,454.4c-2.5-8.7-0.2-15.2,2.1-19.2c2.5-4.3,5.6-6.5,5.8-6.6l1.8,2.6c-0.4,0.4-10.8,7.9-6.7,22.3
						L108.6,454.4z"/>
				</g>
			</g>
		</g>
		<g>
			<g>
				<polygon fill="#EB3249" points="250.2,420.3 250.2,395.5 179.6,395.5 179.6,521.6 328.7,521.6 328.7,420.3 				"/>
				<path fill="#231F20" d="M329.2,522.6H180.1c-0.8,0-1.5-0.6-1.5-1.5V395c0-0.8,0.6-1.5,1.5-1.5h70.6c0.8,0,1.5,0.6,1.5,1.5v23.3
					h77c0.8,0,1.5,0.6,1.5,1.5v101.3C330.7,522,330,522.6,329.2,522.6z M181.6,519.7h146v-98.4h-77c-0.8,0-1.5-0.6-1.5-1.5v-23.3
					h-67.6L181.6,519.7L181.6,519.7z"/>
			</g>
			<g>
				<line fill="none" x1="250.2" y1="420.3" x2="226.3" y2="420.3"/>
				<rect x="226.3" y="418.4" fill="#231F20" width="23.9" height="3"/>
			</g>
		</g>
		<g>
			<path fill="#6D6E71" d="M515.4,375.5c0-4.9-5.3-7.9-10.2-7.9H331.1c-4.9,0-9.4,3-9.4,7.9v126.3h193.8L515.4,375.5L515.4,375.5z"
				/>
			<g>
				<path fill="#F1F2F2" d="M305.8,502.8v9.2c0,4.9,6.4,9.7,12.1,9.7h200.6c5.7,0,9.9-4.7,9.9-9.7v-9.2H305.8z"/>
				<path fill="#231F20" d="M518.5,522.6H317.9c-6.2,0-13.1-4.6-13.1-10.6v-9.7c0-0.8,0.6-1.5,1.5-1.5h222.6c0.8,0,1.5,0.6,1.5,1.5
					v9.7C530.4,517.8,524.9,522.6,518.5,522.6z M307.8,503.8v8.2c0,3.8,5,7.7,10.1,7.7h200.6c4.8,0,8.9-3.5,8.9-7.7v-8.2H307.8z"/>
			</g>
			<g>
				<rect x="333.6" y="377.6" fill="#FD8A06" width="166.9" height="113.3"/>
				<path fill="#231F20" d="M501,491.9H334.2c-0.8,0-1.5-0.6-1.5-1.5V377.1c0-0.8,0.6-1.5,1.5-1.5h166.9c0.8,0,1.5,0.6,1.5,1.5
					v113.3C502.5,491.1,501.9,491.9,501,491.9z M335.6,488.9h163.9V378.6H335.6V488.9z"/>
			</g>
			<g>
				<rect x="407.1" y="511.7" fill="#231F20" width="22.9" height="3"/>
			</g>
			<g opacity="0.3">
				<rect x="473.8" y="391.5" fill="#FFFFFF" width="14.9" height="26.8"/>
				<rect x="349.5" y="391.5" fill="#FFFFFF" width="115.3" height="26.8"/>
				<rect x="349.5" y="427.3" fill="#FFFFFF" width="31.8" height="26.8"/>
				<rect x="387.3" y="427.3" fill="#FFFFFF" width="99.3" height="26.8"/>
				<rect x="349.5" y="463.1" fill="#FFFFFF" width="137.1" height="12.9"/>
			</g>
		</g>
		<g>
			<g>
				<rect x="142.9" y="442.1" fill="#FFFFFF" width="101.3" height="79.5"/>
				<path fill="#231F20" d="M244.7,522.6H143.3c-0.8,0-1.5-0.6-1.5-1.5v-79.5c0-0.8,0.6-1.5,1.5-1.5h101.3c0.8,0,1.5,0.6,1.5,1.5
					v79.5C246.2,522,245.6,522.6,244.7,522.6z M144.9,519.7h98.4v-76.5h-98.4V519.7z"/>
			</g>
			<rect x="151.8" y="451.1" fill="#BCBEC0" width="86.5" height="60.6"/>
			<g>
				<path fill="#231F20" d="M220.3,493.9l-33.6-19.3l-34.3,17.8l-1.4-2.9l35.1-18.2c0.4-0.3,1.1-0.3,1.5,0l34.3,19.8L220.3,493.9z"
					/>
			</g>
			<g>
				<path fill="#231F20" d="M235.8,485.4l-16.5-10.6l-11.8,10.6l-2.1-2.4l12.8-11.4c0.5-0.4,1.3-0.5,1.9-0.2l17.4,11.4L235.8,485.4z
					"/>
			</g>
			<circle fill="#FFFFFF" cx="201.9" cy="461.7" r="8"/>
		</g>
		<g>
			<g>
				<g>
					<path fill="#231F20" d="M397,434.8l-7.3-7.2c-0.3-0.3-0.4-0.7-0.4-1.2c0-0.4,0.2-0.8,0.4-1.2l7.3-7.1l2.2,2.3l-6.2,6l6.2,6.1
						L397,434.8z"/>
				</g>
				<g>
					<rect x="391.3" y="425.2" fill="#231F20" width="45.7" height="3"/>
				</g>
			</g>
			<g>
				<g>
					<path fill="#231F20" d="M439.9,453.3l-2.2-2.3l6.2-6l-6.2-6.1l2.2-2.2l7.3,7.2c0.3,0.3,0.4,0.7,0.4,1.2c0,0.4-0.2,0.8-0.4,1.2
						L439.9,453.3z"/>
				</g>
				<g>
					<rect x="400.3" y="444.2" fill="#231F20" width="45.7" height="3"/>
				</g>
			</g>
		</g>
		<g>
			<g>
				<g>
					<g>
						<path fill="#231F20" d="M30.9,470.7l-6.3-6.3c-0.3-0.3-0.4-0.7-0.4-1.2c0-0.4,0.2-0.8,0.4-1.2l6.3-6.1l2.2,2.2l-5.1,5l5.3,5.2
							L30.9,470.7z"/>
					</g>
					<g>
						<rect x="25.7" y="462.1" fill="#231F20" width="25.8" height="3"/>
					</g>
				</g>
			</g>
			<g>
				<g>
					<g>
						<path fill="#231F20" d="M56.7,485.1l-2.2-2.2l5.1-5l-5.3-5.2l2.2-2.2l6.3,6.3c0.3,0.3,0.4,0.7,0.4,1.2s-0.2,0.8-0.4,1.2
							L56.7,485.1z"/>
					</g>
					<g>
						<rect x="35.6" y="476.9" fill="#231F20" width="25.8" height="3"/>
					</g>
				</g>
			</g>
		</g>
		<g>
			<g>
				<g>
					<g>
						<path fill="#231F20" d="M222.2,314.4l-6.3-6.3c-0.3-0.3-0.4-0.7-0.4-1.2s0.2-0.8,0.4-1.2l6.3-6.1l2.2,2.2l-5.1,5l5.3,5.2
							L222.2,314.4z"/>
					</g>
					<g>
						<rect x="216.4" y="306" fill="#231F20" width="26.8" height="3"/>
					</g>
				</g>
			</g>
			<g>
				<g>
					<g>
						<path fill="#231F20" d="M248,328.8l-2.2-2.2l5.1-5l-5.3-5.2l2.2-2.2l6.3,6.3c0.3,0.3,0.4,0.7,0.4,1.2c0,0.4-0.2,0.8-0.4,1.2
							L248,328.8z"/>
					</g>
					<g>
						<rect x="226.3" y="320" fill="#231F20" width="26.8" height="3"/>
					</g>
				</g>
			</g>
		</g>
		<g>
			<g>
				<g>
					<g>
						<path fill="#231F20" d="M557.2,493.1l-6.3-6.3c-0.3-0.3-0.4-0.7-0.4-1.2c0-0.4,0.2-0.8,0.4-1.2l6.3-6.1l2.2,2.2l-5.1,5
							l5.3,5.2L557.2,493.1z"/>
					</g>
					<g>
						<rect x="552.3" y="484.9" fill="#231F20" width="25.8" height="3"/>
					</g>
				</g>
			</g>
			<g>
				<g>
					<g>
						<path fill="#231F20" d="M582.9,507.5l-2.2-2.2l5.1-5l-5.3-5.2l2.2-2.2l6.3,6.3c0.3,0.3,0.4,0.7,0.4,1.2s-0.2,0.8-0.4,1.2
							L582.9,507.5z"/>
					</g>
					<g>
						<rect x="562.2" y="498.8" fill="#231F20" width="25.8" height="3"/>
					</g>
				</g>
			</g>
		</g>
		<g>
			<g>
				<g>
					<g>
						<path fill="#231F20" d="M468.2,335.1l-6.3-6.3c-0.3-0.3-0.4-0.7-0.4-1.2s0.2-0.8,0.4-1.2l6.3-6.1l2.2,2.2l-5.1,5l5.3,5.2
							L468.2,335.1z"/>
					</g>
					<g>
						<rect x="462.8" y="326.9" fill="#231F20" width="25.8" height="3"/>
					</g>
				</g>
			</g>
			<g>
				<g>
					<g>
						<path fill="#231F20" d="M494.1,349.5l-2.2-2.2l5.1-5l-5.3-5.2l2.2-2.2l6.3,6.3c0.3,0.3,0.4,0.7,0.4,1.2c0,0.4-0.2,0.8-0.4,1.2
							L494.1,349.5z"/>
					</g>
					<g>
						<rect x="472.8" y="340.8" fill="#231F20" width="25.8" height="3"/>
					</g>
				</g>
			</g>
		</g>
	</g>
	<g>
		<g opacity="0.3">
			<path opacity="0.7" fill="#FFFFFF" enable-background="new    " d="M485.7,866.5c0,80.3-65.1,145.4-145.4,145.4
				s-145.4-65.1-145.4-145.4S260,721.1,340.3,721.1C420.6,721.2,485.7,786.2,485.7,866.5z"/>
			<path opacity="0.7" fill="#FFFFFF" enable-background="new    " d="M269.2,974.6c0,41-33.3,74.2-74.2,74.2s-74.2-33.3-74.2-74.2
				c0-41,33.3-74.2,74.2-74.2S269.2,933.7,269.2,974.6z"/>
		</g>
		<g>
			<g>
				<rect x="153.6" y="931.9" fill="#BCBEC0" width="12.5" height="75.2"/>
				<rect x="106.8" y="994.6" fill="#BCBEC0" width="114.5" height="12.5"/>
				<g>
					<path fill="#231F20" d="M214.3,1002.8h-8v-3.2h8V1002.8z M198.4,1002.8h-8v-3.2h8V1002.8z M182.5,1002.8h-8v-3.2h8V1002.8z
						 M166.6,1002.8h-8v-3.2h8V1002.8z M150.8,1002.8h-8v-3.2h8V1002.8z M134.8,1002.8h-8v-3.2h8V1002.8z M118.9,1002.8h-8v-3.2h8
						V1002.8z"/>
				</g>
				<g>
					<path fill="#231F20" d="M161.9,994.6h-3.2v-8h3.2V994.6z M161.9,978.7h-3.2v-8h3.2V978.7z M161.9,962.8h-3.2v-8h3.2V962.8z
						 M161.9,946.8h-3.2v-8h3.2V946.8z"/>
				</g>
			</g>
			<g>
				<rect x="263.9" y="811.6" fill="#BCBEC0" width="12.5" height="76"/>
				<rect x="217.1" y="874.2" fill="#FFFFFF" width="114.5" height="13.3"/>
				<g>
					<path fill="#231F20" d="M324.6,882.5h-8v-3.2h8V882.5z M308.7,882.5h-8v-3.2h8V882.5z M292.8,882.5h-8v-3.2h8V882.5z
						 M276.8,882.5h-8v-3.2h8V882.5z M261,882.5h-8v-3.2h8V882.5z M245.1,882.5h-8v-3.2h8V882.5z M229.2,882.5h-8v-3.2h8V882.5z"/>
				</g>
				<g>
					<path fill="#231F20" d="M272.1,874.2h-3.2v-8h3.2V874.2z M272.1,858.4h-3.2v-8h3.2V858.4z M272.1,842.5h-3.2v-8h3.2V842.5z
						 M272.1,826.6h-3.2v-8h3.2V826.6z"/>
				</g>
			</g>
			<g>
				<rect x="423.4" y="909.4" fill="#BCBEC0" width="13.3" height="75.2"/>
				<rect x="376.6" y="972" fill="#BCBEC0" width="114.5" height="12.5"/>
				<g>
					<g>
						<rect x="380.8" y="977.1" fill="#231F20" width="3.9" height="3.2"/>
					</g>
					<g>
						<path fill="#231F20" d="M476.2,980.3h-7.6v-3.2h7.6V980.3z M460.9,980.3h-7.6v-3.2h7.6V980.3z M445.7,980.3h-7.6v-3.2h7.6
							V980.3z M430.5,980.3h-7.6v-3.2h7.6V980.3z M415.2,980.3h-7.6v-3.2h7.6V980.3z M400,980.3h-7.6v-3.2h7.6V980.3z"/>
					</g>
					<g>
						<rect x="483.8" y="977.1" fill="#231F20" width="3.9" height="3.2"/>
					</g>
				</g>
				<g>
					<path fill="#231F20" d="M431.6,972h-3.2v-8h3.2V972z M431.6,956.1h-3.2v-8h3.2V956.1z M431.6,940.2h-3.2v-8h3.2V940.2z
						 M431.6,924.3h-3.2v-8h3.2V924.3z"/>
				</g>
			</g>
			<g>
				<path fill="#18AFFE" d="M253.1,899.4c-9.1,0-17.6,2.4-24.7,7.2c-4.7-5.4-11.3-9.4-18.7-10.6c0.3-2.1,0.4-4.3,0.4-6.4
					c0-24-19.5-43.5-43.5-43.5s-43.5,19.4-43.5,43.5c0,3.6,0.4,7,1.3,10.3c-3.2-0.8-6.5-0.4-10-0.4c-24,0-43.5,17.5-43.5,44.3h225.4
					C296.5,916.9,277.1,899.4,253.1,899.4z"/>
				<g>
					<path fill="#D1D3D4" stroke="#231F20" stroke-width="3.2" stroke-linejoin="round" stroke-miterlimit="10" d="M71.8,942"/>
				</g>
				<g>
					<path fill="#D1D3D4" d="M124.6,899.7c0,0,5.3,4.3,7.1,5.2"/>
					<path fill="#231F20" d="M130.9,906.2c-1.8-1-6.8-4.9-7.3-5.4l2-2.5c2.1,1.7,5.6,4.4,6.8,5L130.9,906.2z"/>
				</g>
				<g>
					<path fill="#D1D3D4" d="M228.5,906.2c0,0-2.4,4.1-2.5,7.2"/>
					<path fill="#231F20" d="M227.6,913.5l-3.2-0.1c0.1-3.5,2.6-7.9,2.7-8l2.8,1.6C229.2,908,227.6,911.2,227.6,913.5z"/>
				</g>
			</g>
			<g>
				<path fill="#18AFFE" d="M338.1,786.5c-9.1,0-17.6,2.4-24.7,7.2c-4.7-5.4-11.3-9.4-18.7-10.6c0.3-2.1,0.4-4.3,0.4-6.4
					c0-24-19.5-43.5-43.5-43.5s-43.5,19.4-43.5,43.5c0,3.6,0.4,7,1.3,10.3c-3.2-0.8-6.5-0.4-10-0.4c-24,0-43.5,17.5-43.5,44.3h225.4
					C381.6,804.1,362.2,786.5,338.1,786.5z"/>
				<g>
					<path fill="#D1D3D4" stroke="#231F20" stroke-width="3.2" stroke-linejoin="round" stroke-miterlimit="10" d="M156.8,829.2"/>
				</g>
				<g>
					<path fill="#D1D3D4" d="M209.6,786.9c0,0,5.3,4.3,7.1,5.2"/>
					<path fill="#231F20" d="M216,793.4c-1.8-1-6.8-4.9-7.3-5.4l2-2.5c2.1,1.7,5.6,4.4,6.8,5L216,793.4z"/>
				</g>
				<g>
					<path fill="#D1D3D4" d="M313.5,793.4c0,0-2.4,4.1-2.5,7.2"/>
					<path fill="#231F20" d="M312.6,800.6l-3.2-0.1c0.1-3.5,2.6-7.9,2.7-8l2.8,1.6C314.2,795.2,312.6,798.4,312.6,800.6z"/>
				</g>
			</g>
			<g>
				<path fill="#18AFFE" d="M493.9,885c-9.1,0-17.6,2.3-24.7,7.2c-4.7-5.4-11.3-9.5-18.7-10.6c0.3-2.1,0.4-4.3,0.4-6.5
					c0-24-19.5-43.5-43.5-43.5c-24,0-43.5,19.4-43.5,43.4c0,3.6,0.4,7,1.3,10.3c-3.2-0.8-6.5-0.2-10-0.2c-24,0-43.5,17.7-43.5,44.4
					h225.4C537.3,902.7,517.9,885,493.9,885z"/>
				<g>
					<path fill="#D1D3D4" stroke="#231F20" stroke-width="3.2" stroke-linejoin="round" stroke-miterlimit="10" d="M312.6,927.3"/>
				</g>
				<g>
					<path fill="#D1D3D4" d="M365.4,885c0,0,5.3,4.3,7.1,5.2"/>
					<path fill="#231F20" d="M371.6,891.6c-1.8-1-6.8-4.9-7.3-5.4l2-2.5c2.1,1.7,5.6,4.4,6.8,5L371.6,891.6z"/>
				</g>
				<g>
					<path fill="#D1D3D4" d="M469.3,891.6c0,0-2.4,4.1-2.5,7.2"/>
					<path fill="#231F20" d="M468.4,898.8l-3.2-0.1c0.1-3.5,2.6-7.9,2.7-8l2.8,1.6C470,893.4,468.4,896.6,468.4,898.8z"/>
				</g>
			</g>
			<g>
				<rect x="223.7" y="905.2" fill="#58595B" width="168.7" height="15.8"/>
				<rect x="222.1" y="967.8" fill="#58595B" width="168.7" height="16.7"/>
				<rect x="221.2" y="1031.3" fill="#58595B" width="168.7" height="16.7"/>
				<g>
					<rect x="210.4" y="856.7" fill="#939598" width="195.5" height="47.6"/>
					<path fill="#231F20" d="M405.9,906H210.4c-0.9,0-1.6-0.7-1.6-1.6v-47.6c0-0.9,0.7-1.6,1.6-1.6h195.5c0.9,0,1.6,0.7,1.6,1.6
						v47.6C407.4,905.3,406.7,906,405.9,906z M212,902.8h192.3v-44.4H212V902.8z"/>
				</g>
				<g>
					<rect x="209.5" y="921.1" fill="#939598" width="195.5" height="46.8"/>
					<path fill="#231F20" d="M405,969.4H209.5c-0.9,0-1.6-0.7-1.6-1.6V921c0-0.9,0.7-1.6,1.6-1.6H405c0.9,0,1.6,0.7,1.6,1.6v46.8
						C406.6,968.7,405.9,969.4,405,969.4z M211.1,966.2h192.3v-43.6H211.1V966.2z"/>
				</g>
				<g>
					<rect x="208.7" y="984.6" fill="#939598" width="195.5" height="46.8"/>
					<path fill="#231F20" d="M404.2,1032.9H208.7c-0.9,0-1.6-0.7-1.6-1.6v-46.8c0-0.9,0.7-1.6,1.6-1.6h195.5c0.9,0,1.6,0.7,1.6,1.6
						v46.8C405.8,1032.1,405.1,1032.9,404.2,1032.9z M210.3,1029.7h192.3v-43.6H210.3L210.3,1029.7L210.3,1029.7z"/>
				</g>
				<g>
					<rect x="199.5" y="1046.5" fill="#231F20" width="216.3" height="3.2"/>
				</g>
				<g>
					<rect x="222.1" y="866.7" fill="#231F20" width="3.2" height="24.2"/>
				</g>
				<g>
					<rect x="232.2" y="866.7" fill="#231F20" width="3.2" height="24.2"/>
				</g>
				<g>
					<rect x="242.2" y="866.7" fill="#231F20" width="3.2" height="24.2"/>
				</g>
				<g>
					<rect x="253.1" y="866.7" fill="#231F20" width="3.2" height="24.2"/>
				</g>
				<g>
					<rect x="263.1" y="866.7" fill="#231F20" width="3.2" height="24.2"/>
				</g>
				<rect x="274.7" y="866.7" fill="#E6E7E8" width="117" height="12.5"/>
				<circle fill="#FFFFFF" cx="371.1" cy="882.7" r="12"/>
				<g>
					<rect x="367.4" y="881" fill="#231F20" width="8.3" height="3.2"/>
				</g>
				<circle fill="#FFFFFF" cx="235.2" cy="943.9" r="12"/>
				<g>
					<rect x="231.2" y="942" fill="#231F20" width="9.2" height="3.2"/>
				</g>
				<circle fill="#FFFFFF" cx="274.2" cy="943.9" r="12"/>
				<g>
					<rect x="270.5" y="942" fill="#231F20" width="8.3" height="3.2"/>
				</g>
				<circle fill="#FFFFFF" cx="311.5" cy="943.9" r="12"/>
				<g>
					<rect x="308.1" y="942" fill="#231F20" width="8.3" height="3.2"/>
				</g>
				<g>
					<rect x="274.7" y="886" fill="#231F20" width="62.7" height="3.2"/>
				</g>
				<g>
					<rect x="342.4" y="886" fill="#231F20" width="8.3" height="3.2"/>
				</g>
				<rect x="278" y="869.2" fill="#FFA432" width="3.3" height="7.5"/>
				<rect x="286.4" y="869.2" fill="#FFA432" width="3.3" height="7.5"/>
				<rect x="293.9" y="869.2" fill="#FFA432" width="3.3" height="7.5"/>
				<rect x="302.2" y="869.2" fill="#FFA432" width="3.3" height="7.5"/>
				<rect x="309.8" y="869.2" fill="#FFA432" width="3.3" height="7.5"/>
				<rect x="318.2" y="869.2" fill="#58595B" width="3.3" height="7.5"/>
				<rect x="325.7" y="869.2" fill="#58595B" width="3.3" height="7.5"/>
				<rect x="334" y="869.2" fill="#58595B" width="3.3" height="7.5"/>
				<rect x="341.5" y="869.2" fill="#58595B" width="3.3" height="7.5"/>
				<rect x="350.7" y="869.2" fill="#58595B" width="3.3" height="7.5"/>
				<rect x="335.7" y="931.9" fill="#F1F2F2" width="9.2" height="14.2"/>
				<rect x="351.5" y="931.9" fill="#FFA432" width="9.2" height="14.2"/>
				<rect x="367.4" y="931.9" fill="#F1F2F2" width="9.2" height="14.2"/>
				<rect x="383.3" y="931.9" fill="#FFA432" width="9.2" height="14.2"/>
				<g>
					<rect x="339.1" y="938.6" fill="#231F20" width="3.2" height="16.7"/>
				</g>
				<g>
					<rect x="355" y="938.6" fill="#231F20" width="3.2" height="16.7"/>
				</g>
				<g>
					<rect x="370.8" y="938.6" fill="#231F20" width="3.2" height="16.7"/>
				</g>
				<g>
					<rect x="386.7" y="938.6" fill="#231F20" width="3.2" height="16.7"/>
				</g>
				<g>
					<rect x="335.7" y="937" fill="#231F20" width="9.2" height="3.2"/>
				</g>
				<g>
					<rect x="351.5" y="937" fill="#231F20" width="9.2" height="3.2"/>
				</g>
				<g>
					<rect x="367.4" y="937" fill="#231F20" width="9.2" height="3.2"/>
				</g>
				<g>
					<rect x="383.3" y="937" fill="#231F20" width="9.2" height="3.2"/>
				</g>
				<rect x="325.7" y="994.6" fill="#FFA432" width="65.2" height="25"/>
				<circle fill="#FFFFFF" cx="233.7" cy="1007.5" r="12"/>
				<g>
					<rect x="229.6" y="1005.5" fill="#231F20" width="9.2" height="3.2"/>
				</g>
				<g>
					<rect x="335" y="994.6" fill="#231F20" width="3.2" height="25"/>
				</g>
				<g>
					<rect x="331.5" y="993" fill="#231F20" width="9.2" height="3.2"/>
				</g>
				<g>
					<rect x="348.3" y="994.6" fill="#231F20" width="3.2" height="25"/>
				</g>
				<g>
					<rect x="344.9" y="1018" fill="#231F20" width="10" height="3.2"/>
				</g>
				<g>
					<rect x="366.7" y="994.6" fill="#231F20" width="3.2" height="25"/>
				</g>
				<g>
					<rect x="363.2" y="993" fill="#231F20" width="10" height="3.2"/>
				</g>
				<g>
					<rect x="380" y="994.6" fill="#231F20" width="3.2" height="25"/>
				</g>
				<g>
					<rect x="376.6" y="1018" fill="#231F20" width="10" height="3.2"/>
				</g>
				<g>
					<rect x="256.4" y="998" fill="#231F20" width="61" height="3.2"/>
				</g>
				<g>
					<rect x="256.4" y="1005.5" fill="#231F20" width="61" height="3.2"/>
				</g>
				<g>
					<rect x="256.4" y="1013.8" fill="#231F20" width="61" height="3.2"/>
				</g>
			</g>
			<g>
				<rect x="423.4" y="1046.5" fill="#231F20" width="19.2" height="3.2"/>
			</g>
			<g>
				<rect x="183.7" y="1046.5" fill="#231F20" width="9.2" height="3.2"/>
			</g>
		</g>
	</g>
</g>
</svg>
