<?xml version="1.0" encoding="utf-8"?>
<!-- Generator: Adobe Illustrator 18.0.0, SVG Export Plug-In . SVG Version: 6.00 Build 0)  -->
<!DOCTYPE svg PUBLIC "-//W3C//DTD SVG 1.1//EN" "http://www.w3.org/Graphics/SVG/1.1/DTD/svg11.dtd">
<svg version="1.1" xmlns="http://www.w3.org/2000/svg" xmlns:xlink="http://www.w3.org/1999/xlink" x="0px" y="0px"
	 viewBox="0 0 597.3 343.7" enable-background="new 0 0 597.3 343.7" xml:space="preserve">
<g id="Layer_2">
	<rect x="-300.9" y="-194.2" fill="#F1F2F2" width="1200" height="1200"/>
</g>
<g id="banner">
	<rect x="-200.9" y="405.8" fill="#E4E5E7" width="1000" height="555.6"/>
	<rect x="-200.9" y="-149.7" fill="#FFFFFF" width="1000" height="555.6"/>
	<g>
		<g>
			<path fill="#414042" d="M208.9,462.5l-3.5-12.9l-3.5,12.9H197l-6.1-18.7h5.1l3.7,13.7l3.6-13.7h4.6l3.7,13.7l3.6-13.7h4.9
				l-6.2,18.7H208.9z"/>
			<path fill="#414042" d="M227.7,447.6v3.7h8.9v3.7h-8.9v3.8h10.2v3.7H223v-18.7h14.6v3.7H227.7z"/>
			<path fill="#414042" d="M251.1,443.8c4.2,0,6.9,1.8,6.9,4.7c0,2-1.2,3.5-3.2,4.1c2.3,0.5,3.8,2.3,3.8,4.7c0,3.2-2.8,5.2-7.2,5.2
				h-9.1v-18.7H251.1z M247,451.3h3.8c1.4,0,2.3-0.7,2.3-1.9s-0.9-1.9-2.3-1.9H247V451.3z M247,458.9h3.8c1.8,0,2.9-0.8,2.9-2.1
				c0-1.3-1.1-2-2.9-2H247V458.9z"/>
			<path fill="#414042" d="M282.7,462.5v-7.3H275v7.3h-4.7v-18.7h4.7v7.7h7.7v-7.7h4.7v18.7H282.7z"/>
			<path fill="#414042" d="M311.5,453.1c0,5.4-4.3,9.6-10.1,9.6c-5.8,0-10.1-4.1-10.1-9.6c0-5.4,4.3-9.5,10.1-9.5
				C307.2,443.7,311.5,447.7,311.5,453.1z M296.1,453.2c0,3.1,2.4,5.6,5.3,5.6c2.9,0,5.2-2.4,5.2-5.6c0-3.1-2.3-5.5-5.2-5.5
				C298.5,447.6,296.1,450,296.1,453.2z"/>
			<path fill="#414042" d="M329.8,445.7l-1.8,3.7c-2-1.1-4.5-1.9-6-1.9c-1.2,0-2.1,0.5-2.1,1.4c0,3.2,9.9,1.4,9.9,8.1
				c0,3.7-3.3,5.7-7.5,5.7c-3.1,0-6.3-1.2-8.5-3l1.8-3.7c1.9,1.7,4.8,2.8,6.7,2.8c1.5,0,2.4-0.6,2.4-1.6c0-3.3-9.9-1.3-9.9-7.9
				c0-3.4,3-5.6,7.4-5.6C325.2,443.6,327.9,444.4,329.8,445.7z"/>
			<path fill="#414042" d="M342.5,447.6v14.9h-4.7v-14.9h-5.6v-3.8h15.9v3.8H342.5z"/>
			<path fill="#414042" d="M351.4,462.5v-18.7h4.7v18.7H351.4z"/>
			<path fill="#414042" d="M374.3,462.5l-8.6-11.5v11.5h-4.5v-18.7h4.2l8.6,11.5v-11.5h4.4v18.7H374.3z"/>
			<path fill="#414042" d="M400.1,453v7.3c-2,1.4-5.1,2.4-7.8,2.4c-5.7,0-10-4.1-10-9.5c0-5.4,4.4-9.5,10.3-9.5
				c2.8,0,5.7,1.1,7.6,2.8l-2.7,3.2c-1.4-1.3-3.3-2-5-2c-3.1,0-5.4,2.4-5.4,5.5c0,3.2,2.4,5.6,5.5,5.6c1,0,2.2-0.3,3.3-0.9V453
				H400.1z"/>
		</g>
	</g>
	<g>
		<g>
			<path fill="#414042" d="M60.4,488.3v0.8h-4.3v-7.8H57v6.9H60.4z"/>
			<path fill="#414042" d="M67.7,486.2c0,1.8-1.2,3-3,3c-1.7,0-3-1.2-3-3c0-1.7,1.2-2.9,3-2.9C66.4,483.3,67.7,484.5,67.7,486.2z
				 M62.6,486.3c0,1.3,0.9,2.2,2.1,2.2c1.2,0,2.1-0.9,2.1-2.2c0-1.3-0.9-2.2-2.1-2.2C63.5,484.1,62.6,485,62.6,486.3z"/>
			<path fill="#414042" d="M70.6,484.6c0.4-0.9,1.1-1.3,2.1-1.3v0.9c-1.2,0-2,0.7-2.1,1.9v3.1h-0.9v-5.9h0.9V484.6z"/>
			<path fill="#414042" d="M79.5,486.6h-4.8c0.2,1.1,1,1.9,2.1,1.9c0.7,0,1.4-0.3,1.8-0.7l0.5,0.5c-0.6,0.6-1.4,1-2.4,1
				c-1.7,0-2.9-1.2-2.9-3c0-1.7,1.2-3,2.9-3C78.6,483.3,79.6,484.6,79.5,486.6z M78.7,485.9c-0.1-1.1-0.8-1.8-2-1.8
				c-1.1,0-1.9,0.7-2,1.8H78.7z"/>
			<path fill="#414042" d="M91.2,485.6v3.6h-0.9v-3.4c0-1-0.6-1.7-1.6-1.7c-1.2,0-1.9,0.9-1.9,2.2v2.9h-0.9v-3.4
				c0-1-0.6-1.7-1.6-1.7c-1.2,0-1.9,0.9-1.9,2.2v2.9h-0.9v-5.9h0.9v1.3c0.4-0.9,1.2-1.3,2.2-1.4c1.1,0,1.9,0.6,2.1,1.5
				c0.4-1,1.2-1.5,2.3-1.5C90.4,483.3,91.2,484.2,91.2,485.6z"/>
			<path fill="#414042" d="M98.3,481.6c0,0.3-0.2,0.6-0.6,0.6c-0.3,0-0.6-0.3-0.6-0.6c0-0.3,0.2-0.6,0.6-0.6
				C98,481,98.3,481.3,98.3,481.6z M97.3,489.2v-5.9h0.9v5.9H97.3z"/>
			<path fill="#414042" d="M106.8,486.3c0,1.7-1.1,2.9-2.8,2.9c-1,0-1.8-0.5-2.3-1.3v3.4h-0.9v-8h0.9v1.3c0.4-0.8,1.2-1.3,2.3-1.3
				C105.6,483.3,106.8,484.5,106.8,486.3z M105.9,486.2c0-1.3-0.9-2.2-2.1-2.2c-1.2,0-2.1,0.9-2.1,2.2c0,1.3,0.9,2.2,2.1,2.2
				C105,488.4,105.9,487.5,105.9,486.2z"/>
			<path fill="#414042" d="M112.3,483.8l-0.3,0.7c-0.5-0.3-1-0.5-1.6-0.5c-0.7,0-1.2,0.2-1.2,0.8c0,1.3,3.3,0.6,3.3,2.7
				c0,1.2-1,1.7-2.1,1.7c-0.8,0-1.7-0.3-2.2-0.8l0.3-0.7c0.5,0.5,1.3,0.7,1.9,0.7c0.7,0,1.2-0.3,1.3-0.8c0-1.4-3.2-0.7-3.2-2.8
				c0-1.1,1-1.6,2-1.6C111.1,483.3,111.8,483.5,112.3,483.8z"/>
			<path fill="#414042" d="M119.5,489.2h-0.9v-1.3c-0.4,0.9-1.2,1.3-2.2,1.4c-1.4,0-2.2-0.9-2.2-2.3v-3.6h0.9v3.4
				c0,1,0.6,1.6,1.6,1.6c1.2,0,1.9-0.9,1.9-2.1v-2.9h0.9V489.2z"/>
			<path fill="#414042" d="M131.9,485.6v3.6H131v-3.4c0-1-0.6-1.7-1.6-1.7c-1.2,0-1.9,0.9-1.9,2.2v2.9h-0.9v-3.4
				c0-1-0.6-1.7-1.6-1.7c-1.2,0-1.9,0.9-1.9,2.2v2.9h-0.9v-5.9h0.9v1.3c0.4-0.9,1.2-1.3,2.2-1.4c1.1,0,1.9,0.6,2.1,1.5
				c0.4-1,1.2-1.5,2.3-1.5C131.1,483.3,131.9,484.2,131.9,485.6z"/>
			<path fill="#414042" d="M143.3,489.2h-0.9v-1.3c-0.4,0.8-1.2,1.3-2.3,1.3c-1.7,0-2.8-1.2-2.8-3c0-1.8,1.2-3,2.8-3
				c1,0,1.9,0.5,2.3,1.3v-3.7h0.9V489.2z M142.5,486.3c0-1.3-0.9-2.2-2.1-2.2c-1.2,0-2.1,0.9-2.1,2.2c0,1.3,0.9,2.2,2.1,2.2
				C141.6,488.4,142.5,487.5,142.5,486.3z"/>
			<path fill="#414042" d="M151.4,486.2c0,1.8-1.2,3-3,3s-3-1.2-3-3c0-1.7,1.2-2.9,3-2.9S151.4,484.5,151.4,486.2z M146.3,486.3
				c0,1.3,0.9,2.2,2.1,2.2c1.2,0,2.1-0.9,2.1-2.2c0-1.3-0.9-2.2-2.1-2.2C147.2,484.1,146.3,485,146.3,486.3z"/>
			<path fill="#414042" d="M153.5,489.2v-8.2h0.9v8.2H153.5z"/>
			<path fill="#414042" d="M162.5,486.2c0,1.8-1.2,3-3,3c-1.7,0-3-1.2-3-3c0-1.7,1.2-2.9,3-2.9C161.2,483.3,162.5,484.5,162.5,486.2
				z M157.4,486.3c0,1.3,0.9,2.2,2.1,2.2c1.2,0,2.1-0.9,2.1-2.2c0-1.3-0.9-2.2-2.1-2.2C158.3,484.1,157.4,485,157.4,486.3z"/>
			<path fill="#414042" d="M165.4,484.6c0.4-0.9,1.1-1.3,2.1-1.3v0.9c-1.2,0-2,0.7-2.1,1.9v3.1h-0.9v-5.9h0.9V484.6z"/>
			<path fill="#414042" d="M176.3,483.8l-0.3,0.7c-0.5-0.3-1-0.5-1.6-0.5c-0.7,0-1.2,0.2-1.2,0.8c0,1.3,3.3,0.6,3.3,2.7
				c0,1.2-1,1.7-2.1,1.7c-0.8,0-1.7-0.3-2.2-0.8l0.3-0.7c0.5,0.5,1.3,0.7,1.9,0.7c0.7,0,1.2-0.3,1.3-0.8c0-1.4-3.2-0.7-3.2-2.8
				c0-1.1,1-1.6,2-1.6C175.1,483.3,175.8,483.5,176.3,483.8z"/>
			<path fill="#414042" d="M179.4,481.6c0,0.3-0.2,0.6-0.6,0.6c-0.3,0-0.6-0.3-0.6-0.6c0-0.3,0.2-0.6,0.6-0.6
				C179.2,481,179.4,481.3,179.4,481.6z M178.4,489.2v-5.9h0.9v5.9H178.4z"/>
			<path fill="#414042" d="M185,488.8c-0.4,0.3-0.9,0.4-1.3,0.4c-0.9,0-1.5-0.5-1.5-1.7v-3.3h-0.8v-0.7h0.8V482h0.9v1.5l1.9,0v0.7
				H183v3.2c0,0.7,0.3,1,0.8,1c0.3,0,0.6-0.1,0.9-0.3L185,488.8z"/>
			<path fill="#414042" d="M194.1,488.3c-0.5,0.6-1.2,0.9-2.1,0.9c-1.2,0-2-0.8-2-1.8c0-1,0.8-1.7,2.2-1.7h1.9v-0.3
				c0-0.9-0.5-1.4-1.6-1.4c-0.6,0-1.2,0.2-1.9,0.7l-0.4-0.6c0.8-0.5,1.4-0.8,2.4-0.8c1.4,0,2.2,0.8,2.3,2l0,3.9h-0.8V488.3z
				 M194.1,487.1v-0.7h-1.8c-1,0-1.5,0.3-1.5,0.9c0,0.6,0.5,1.1,1.3,1.1C193.1,488.5,193.8,488,194.1,487.1z"/>
			<path fill="#414042" d="M207.1,485.6v3.6h-0.9v-3.4c0-1-0.6-1.7-1.6-1.7c-1.2,0-1.9,0.9-1.9,2.2v2.9h-0.9v-3.4
				c0-1-0.6-1.7-1.6-1.7c-1.2,0-1.9,0.9-1.9,2.2v2.9h-0.9v-5.9h0.9v1.3c0.4-0.9,1.2-1.3,2.2-1.4c1.1,0,1.9,0.6,2.1,1.5
				c0.4-1,1.2-1.5,2.3-1.5C206.3,483.3,207.1,484.2,207.1,485.6z"/>
			<path fill="#414042" d="M214.6,486.6h-4.8c0.2,1.1,1,1.9,2.1,1.9c0.7,0,1.4-0.3,1.8-0.7l0.5,0.5c-0.6,0.6-1.4,1-2.4,1
				c-1.7,0-2.9-1.2-2.9-3c0-1.7,1.2-3,2.9-3C213.8,483.3,214.7,484.6,214.6,486.6z M213.8,485.9c-0.1-1.1-0.8-1.8-2-1.8
				c-1.1,0-1.9,0.7-2,1.8H213.8z"/>
			<path fill="#414042" d="M219.7,488.8c-0.4,0.3-0.9,0.4-1.3,0.4c-0.9,0-1.5-0.5-1.5-1.7v-3.3H216v-0.7h0.8V482h0.9v1.5l1.9,0v0.7
				h-1.9v3.2c0,0.7,0.3,1,0.8,1c0.3,0,0.6-0.1,0.9-0.3L219.7,488.8z"/>
			<path fill="#414042" d="M222.1,488.7c0,0.2-0.1,0.3-0.2,0.5l-0.5,0.8h-0.5l0.4-0.8c-0.2-0.1-0.2-0.3-0.2-0.5
				c0-0.3,0.2-0.6,0.5-0.6C221.9,488.1,222.1,488.3,222.1,488.7z"/>
		</g>
		<g>
			<path fill="#414042" d="M232.4,484.2l-0.5,0.6c-0.4-0.4-1-0.7-1.7-0.7c-1.2,0-2.1,0.9-2.1,2.2s0.9,2.2,2.1,2.2
				c0.8,0,1.4-0.3,1.8-0.8l0.5,0.5c-0.5,0.6-1.3,1-2.3,1c-1.7,0-2.9-1.2-2.9-3c0-1.7,1.2-3,2.9-3
				C231.1,483.3,231.9,483.6,232.4,484.2z"/>
		</g>
		<g>
			<path fill="#414042" d="M239.7,486.2c0,1.8-1.2,3-3,3c-1.7,0-3-1.2-3-3c0-1.7,1.2-2.9,3-2.9C238.5,483.3,239.7,484.5,239.7,486.2
				z M234.7,486.3c0,1.3,0.9,2.2,2.1,2.2c1.2,0,2.1-0.9,2.1-2.2c0-1.3-0.9-2.2-2.1-2.2C235.5,484.1,234.7,485,234.7,486.3z"/>
			<path fill="#414042" d="M247.2,485.6v3.6h-0.9v-3.4c0-1-0.6-1.6-1.7-1.6c-1.2,0-1.9,0.8-2,1.9v3.1h-0.9v-5.9h0.9v1.3
				c0.4-0.9,1.2-1.3,2.3-1.3C246.3,483.3,247.2,484.2,247.2,485.6z"/>
			<path fill="#414042" d="M253.1,483.8l-0.3,0.7c-0.5-0.3-1-0.5-1.6-0.5c-0.7,0-1.2,0.2-1.2,0.8c0,1.3,3.3,0.6,3.3,2.7
				c0,1.2-1,1.7-2.1,1.7c-0.8,0-1.7-0.3-2.2-0.8l0.3-0.7c0.5,0.5,1.3,0.7,1.9,0.7c0.7,0,1.2-0.3,1.3-0.8c0-1.4-3.2-0.7-3.2-2.8
				c0-1.1,1-1.6,2-1.6C251.9,483.3,252.6,483.5,253.1,483.8z"/>
			<path fill="#414042" d="M260.3,486.6h-4.8c0.2,1.1,1,1.9,2.1,1.9c0.7,0,1.4-0.3,1.8-0.7l0.5,0.5c-0.6,0.6-1.4,1-2.4,1
				c-1.7,0-2.9-1.2-2.9-3c0-1.7,1.2-3,2.9-3C259.4,483.3,260.4,484.6,260.3,486.6z M259.5,485.9c-0.1-1.1-0.8-1.8-2-1.8
				c-1.1,0-1.9,0.7-2,1.8H259.5z"/>
			<path fill="#414042" d="M266.9,484.2l-0.5,0.6c-0.4-0.4-1-0.7-1.7-0.7c-1.2,0-2.1,0.9-2.1,2.2s0.9,2.2,2.1,2.2
				c0.8,0,1.4-0.3,1.8-0.8l0.5,0.5c-0.5,0.6-1.3,1-2.3,1c-1.7,0-2.9-1.2-2.9-3c0-1.7,1.2-3,2.9-3
				C265.6,483.3,266.4,483.6,266.9,484.2z"/>
		</g>
		<g>
			<path fill="#414042" d="M272.1,488.8c-0.4,0.3-0.9,0.4-1.3,0.4c-0.9,0-1.5-0.5-1.5-1.7v-3.3h-0.8v-0.7h0.8V482h0.9v1.5l1.9,0v0.7
				h-1.9v3.2c0,0.7,0.3,1,0.8,1c0.3,0,0.6-0.1,0.9-0.3L272.1,488.8z"/>
		</g>
		<g>
			<path fill="#414042" d="M279,486.6h-4.8c0.2,1.1,1,1.9,2.1,1.9c0.7,0,1.4-0.3,1.8-0.7l0.5,0.5c-0.6,0.6-1.4,1-2.4,1
				c-1.7,0-2.9-1.2-2.9-3c0-1.7,1.2-3,2.9-3C278.1,483.3,279.1,484.6,279,486.6z M278.2,485.9c-0.1-1.1-0.8-1.8-2-1.8
				c-1.1,0-1.9,0.7-2,1.8H278.2z"/>
			<path fill="#414042" d="M284,488.8c-0.4,0.3-0.9,0.4-1.3,0.4c-0.9,0-1.5-0.5-1.5-1.7v-3.3h-0.8v-0.7h0.8V482h0.9v1.5l1.9,0v0.7
				h-1.9v3.2c0,0.7,0.3,1,0.8,1c0.3,0,0.6-0.1,0.9-0.3L284,488.8z"/>
			<path fill="#414042" d="M291,489.2h-0.9v-1.3c-0.4,0.9-1.2,1.3-2.2,1.4c-1.4,0-2.2-0.9-2.2-2.3v-3.6h0.9v3.4c0,1,0.6,1.6,1.6,1.6
				c1.2,0,1.9-0.9,1.9-2.1v-2.9h0.9V489.2z"/>
			<path fill="#414042" d="M294.5,484.6c0.4-0.9,1.1-1.3,2.1-1.3v0.9c-1.2,0-2,0.7-2.1,1.9v3.1h-0.9v-5.9h0.9V484.6z"/>
			<path fill="#414042" d="M305.6,488.3c-0.5,0.6-1.2,0.9-2.1,0.9c-1.2,0-2-0.8-2-1.8c0-1,0.8-1.7,2.2-1.7h1.9v-0.3
				c0-0.9-0.5-1.4-1.6-1.4c-0.6,0-1.2,0.2-1.9,0.7l-0.4-0.6c0.8-0.5,1.4-0.8,2.4-0.8c1.4,0,2.2,0.8,2.3,2l0,3.9h-0.8V488.3z
				 M305.6,487.1v-0.7h-1.8c-1,0-1.5,0.3-1.5,0.9c0,0.6,0.5,1.1,1.3,1.1C304.6,488.5,305.3,488,305.6,487.1z"/>
			<path fill="#414042" d="M314.3,489.2h-0.9v-1.3c-0.4,0.8-1.2,1.3-2.3,1.3c-1.7,0-2.8-1.2-2.8-3c0-1.8,1.2-3,2.8-3
				c1,0,1.9,0.5,2.3,1.3v-3.7h0.9V489.2z M313.4,486.3c0-1.3-0.9-2.2-2.1-2.2c-1.2,0-2.1,0.9-2.1,2.2c0,1.3,0.9,2.2,2.1,2.2
				C312.5,488.4,313.4,487.5,313.4,486.3z"/>
			<path fill="#414042" d="M318,481.6c0,0.3-0.2,0.6-0.6,0.6c-0.3,0-0.6-0.3-0.6-0.6c0-0.3,0.2-0.6,0.6-0.6
				C317.7,481,318,481.3,318,481.6z M317,489.2v-5.9h0.9v5.9H317z"/>
			<path fill="#414042" d="M326.5,486.3c0,1.7-1.1,2.9-2.8,2.9c-1,0-1.8-0.5-2.3-1.3v3.4h-0.9v-8h0.9v1.3c0.4-0.8,1.2-1.3,2.3-1.3
				C325.4,483.3,326.5,484.5,326.5,486.3z M325.6,486.2c0-1.3-0.9-2.2-2.1-2.2c-1.2,0-2.1,0.9-2.1,2.2c0,1.3,0.9,2.2,2.1,2.2
				C324.8,488.4,325.6,487.5,325.6,486.2z"/>
			<path fill="#414042" d="M329.6,481.6c0,0.3-0.2,0.6-0.6,0.6c-0.3,0-0.6-0.3-0.6-0.6c0-0.3,0.2-0.6,0.6-0.6
				C329.3,481,329.6,481.3,329.6,481.6z M328.6,489.2v-5.9h0.9v5.9H328.6z"/>
			<path fill="#414042" d="M335.5,483.8l-0.3,0.7c-0.5-0.3-1-0.5-1.6-0.5c-0.7,0-1.2,0.2-1.2,0.8c0,1.3,3.3,0.6,3.3,2.7
				c0,1.2-1,1.7-2.1,1.7c-0.8,0-1.7-0.3-2.2-0.8l0.3-0.7c0.5,0.5,1.3,0.7,1.9,0.7c0.7,0,1.2-0.3,1.3-0.8c0-1.4-3.2-0.7-3.2-2.8
				c0-1.1,1-1.6,2-1.6C334.4,483.3,335,483.5,335.5,483.8z"/>
			<path fill="#414042" d="M342.3,484.2l-0.5,0.6c-0.4-0.4-1-0.7-1.7-0.7c-1.2,0-2.1,0.9-2.1,2.2s0.9,2.2,2.1,2.2
				c0.8,0,1.4-0.3,1.8-0.8l0.5,0.5c-0.5,0.6-1.3,1-2.3,1c-1.7,0-2.9-1.2-2.9-3c0-1.7,1.2-3,2.9-3C341,483.3,341.7,483.6,342.3,484.2
				z"/>
			<path fill="#414042" d="M345.5,481.6c0,0.3-0.2,0.6-0.6,0.6c-0.3,0-0.6-0.3-0.6-0.6c0-0.3,0.2-0.6,0.6-0.6
				C345.2,481,345.5,481.3,345.5,481.6z M344.5,489.2v-5.9h0.9v5.9H344.5z"/>
			<path fill="#414042" d="M353.4,485.6v3.6h-0.9v-3.4c0-1-0.6-1.6-1.7-1.6c-1.2,0-1.9,0.8-2,1.9v3.1H348v-5.9h0.9v1.3
				c0.4-0.9,1.2-1.3,2.3-1.3C352.5,483.3,353.4,484.2,353.4,485.6z"/>
			<path fill="#414042" d="M361,488.6c0,1.7-1.2,2.8-2.9,2.8c-0.9,0-1.7-0.3-2.4-0.8l0.4-0.7c0.6,0.5,1.2,0.7,2,0.7
				c1.3,0,2.1-0.8,2.1-2v-0.9c-0.4,0.8-1.2,1.2-2.2,1.2c-1.6,0-2.7-1.2-2.7-2.8c0-1.6,1.1-2.8,2.6-2.8c1,0,1.8,0.4,2.2,1.2v-1.2h0.9
				V488.6z M360.1,486.1c0-1.2-0.8-2.1-2-2.1c-1.2,0-2,0.9-2,2.1c0,1.2,0.8,2.1,2,2.1C359.3,488.2,360.1,487.3,360.1,486.1z"/>
			<path fill="#414042" d="M372.1,486.6h-4.8c0.2,1.1,1,1.9,2.1,1.9c0.7,0,1.4-0.3,1.8-0.7l0.5,0.5c-0.6,0.6-1.4,1-2.4,1
				c-1.7,0-2.9-1.2-2.9-3c0-1.7,1.2-3,2.9-3C371.3,483.3,372.2,484.6,372.1,486.6z M371.3,485.9c-0.1-1.1-0.8-1.8-2-1.8
				c-1.1,0-1.9,0.7-2,1.8H371.3z"/>
			<path fill="#414042" d="M374.2,489.2v-8.2h0.9v8.2H374.2z"/>
			<path fill="#414042" d="M378.8,481.6c0,0.3-0.2,0.6-0.6,0.6s-0.6-0.3-0.6-0.6c0-0.3,0.2-0.6,0.6-0.6S378.8,481.3,378.8,481.6z
				 M377.8,489.2v-5.9h0.9v5.9H377.8z"/>
			<path fill="#414042" d="M384.4,488.8c-0.4,0.3-0.9,0.4-1.3,0.4c-0.9,0-1.5-0.5-1.5-1.7v-3.3h-0.8v-0.7h0.8V482h0.9v1.5l1.9,0v0.7
				h-1.9v3.2c0,0.7,0.3,1,0.8,1c0.3,0,0.6-0.1,0.9-0.3L384.4,488.8z"/>
			<path fill="#414042" d="M386.8,488.7c0,0.2-0.1,0.3-0.2,0.5l-0.5,0.8h-0.5l0.4-0.8c-0.2-0.1-0.2-0.3-0.2-0.5
				c0-0.3,0.2-0.6,0.5-0.6C386.6,488.1,386.8,488.3,386.8,488.7z"/>
			<path fill="#414042" d="M396,483.8l-0.3,0.7c-0.5-0.3-1-0.5-1.6-0.5c-0.7,0-1.2,0.2-1.2,0.8c0,1.3,3.3,0.6,3.3,2.7
				c0,1.2-1,1.7-2.1,1.7c-0.8,0-1.7-0.3-2.2-0.8l0.3-0.7c0.5,0.5,1.3,0.7,1.9,0.7c0.7,0,1.2-0.3,1.3-0.8c0-1.4-3.2-0.7-3.2-2.8
				c0-1.1,1-1.6,2-1.6C394.8,483.3,395.5,483.5,396,483.8z"/>
			<path fill="#414042" d="M403.2,486.6h-4.8c0.2,1.1,1,1.9,2.1,1.9c0.7,0,1.4-0.3,1.8-0.7l0.5,0.5c-0.6,0.6-1.4,1-2.4,1
				c-1.7,0-2.9-1.2-2.9-3c0-1.7,1.2-3,2.9-3C402.4,483.3,403.3,484.6,403.2,486.6z M402.4,485.9c-0.1-1.1-0.8-1.8-2-1.8
				c-1.1,0-1.9,0.7-2,1.8H402.4z"/>
			<path fill="#414042" d="M410.6,489.2h-0.9v-1.3c-0.4,0.8-1.2,1.3-2.3,1.3c-1.7,0-2.8-1.2-2.8-3c0-1.8,1.2-3,2.8-3
				c1,0,1.9,0.5,2.3,1.3v-3.7h0.9V489.2z M409.8,486.3c0-1.3-0.9-2.2-2.1-2.2c-1.2,0-2.1,0.9-2.1,2.2c0,1.3,0.9,2.2,2.1,2.2
				C408.9,488.4,409.8,487.5,409.8,486.3z"/>
			<path fill="#414042" d="M422.3,489.2h-0.9v-1.3c-0.4,0.8-1.2,1.3-2.3,1.3c-1.7,0-2.8-1.2-2.8-3c0-1.8,1.2-3,2.8-3
				c1,0,1.9,0.5,2.3,1.3v-3.7h0.9V489.2z M421.5,486.3c0-1.3-0.9-2.2-2.1-2.2c-1.2,0-2.1,0.9-2.1,2.2c0,1.3,0.9,2.2,2.1,2.2
				C420.6,488.4,421.5,487.5,421.5,486.3z"/>
			<path fill="#414042" d="M430.4,486.2c0,1.8-1.2,3-3,3c-1.7,0-3-1.2-3-3c0-1.7,1.2-2.9,3-2.9C429.2,483.3,430.4,484.5,430.4,486.2
				z M425.3,486.3c0,1.3,0.9,2.2,2.1,2.2c1.2,0,2.1-0.9,2.1-2.2c0-1.3-0.9-2.2-2.1-2.2C426.2,484.1,425.3,485,425.3,486.3z"/>
			<path fill="#414042" d="M441.1,486.6h-4.8c0.2,1.1,1,1.9,2.1,1.9c0.7,0,1.4-0.3,1.8-0.7l0.5,0.5c-0.6,0.6-1.4,1-2.4,1
				c-1.7,0-2.9-1.2-2.9-3c0-1.7,1.2-3,2.9-3C440.3,483.3,441.2,484.6,441.1,486.6z M440.3,485.9c-0.1-1.1-0.8-1.8-2-1.8
				c-1.1,0-1.9,0.7-2,1.8H440.3z"/>
			<path fill="#414042" d="M444.1,481.6c0,0.3-0.2,0.6-0.6,0.6c-0.3,0-0.6-0.3-0.6-0.6c0-0.3,0.2-0.6,0.6-0.6
				C443.9,481,444.1,481.3,444.1,481.6z M443.2,489.2v-5.9h0.9v5.9H443.2z"/>
			<path fill="#414042" d="M451.8,489.2h-0.9v-1.3c-0.4,0.9-1.2,1.3-2.2,1.4c-1.4,0-2.2-0.9-2.2-2.3v-3.6h0.9v3.4
				c0,1,0.6,1.6,1.6,1.6c1.2,0,1.9-0.9,1.9-2.1v-2.9h0.9V489.2z"/>
			<path fill="#414042" d="M457.8,483.8l-0.3,0.7c-0.5-0.3-1-0.5-1.6-0.5c-0.7,0-1.2,0.2-1.2,0.8c0,1.3,3.3,0.6,3.3,2.7
				c0,1.2-1,1.7-2.1,1.7c-0.8,0-1.7-0.3-2.2-0.8l0.3-0.7c0.5,0.5,1.3,0.7,1.9,0.7c0.7,0,1.2-0.3,1.3-0.8c0-1.4-3.2-0.7-3.2-2.8
				c0-1.1,1-1.6,2-1.6C456.7,483.3,457.4,483.5,457.8,483.8z"/>
			<path fill="#414042" d="M469.7,485.6v3.6h-0.9v-3.4c0-1-0.6-1.7-1.6-1.7c-1.2,0-1.9,0.9-1.9,2.2v2.9h-0.9v-3.4
				c0-1-0.6-1.7-1.6-1.7c-1.2,0-1.9,0.9-1.9,2.2v2.9H460v-5.9h0.9v1.3c0.4-0.9,1.2-1.3,2.2-1.4c1.1,0,1.9,0.6,2.1,1.5
				c0.4-1,1.2-1.5,2.3-1.5C468.9,483.3,469.7,484.2,469.7,485.6z"/>
			<path fill="#414042" d="M477.5,486.2c0,1.8-1.2,3-3,3c-1.7,0-3-1.2-3-3c0-1.7,1.2-2.9,3-2.9C476.3,483.3,477.5,484.5,477.5,486.2
				z M472.4,486.3c0,1.3,0.9,2.2,2.1,2.2s2.1-0.9,2.1-2.2c0-1.3-0.9-2.2-2.1-2.2S472.4,485,472.4,486.3z"/>
			<path fill="#414042" d="M485,489.2h-0.9v-1.3c-0.4,0.8-1.2,1.3-2.3,1.3c-1.7,0-2.8-1.2-2.8-3c0-1.8,1.2-3,2.8-3
				c1,0,1.9,0.5,2.3,1.3v-3.7h0.9V489.2z M484.1,486.3c0-1.3-0.9-2.2-2.1-2.2c-1.2,0-2.1,0.9-2.1,2.2c0,1.3,0.9,2.2,2.1,2.2
				C483.2,488.4,484.1,487.5,484.1,486.3z"/>
		</g>
		<g>
			<path fill="#414042" d="M494.3,488.8c-0.4,0.3-0.9,0.4-1.3,0.4c-0.9,0-1.5-0.5-1.5-1.7v-3.3h-0.8v-0.7h0.8V482h0.9v1.5l1.9,0v0.7
				h-1.9v3.2c0,0.7,0.3,1,0.8,1c0.3,0,0.6-0.1,0.9-0.3L494.3,488.8z"/>
		</g>
		<g>
			<path fill="#414042" d="M501.1,486.6h-4.8c0.2,1.1,1,1.9,2.1,1.9c0.7,0,1.4-0.3,1.8-0.7l0.5,0.5c-0.6,0.6-1.4,1-2.4,1
				c-1.7,0-2.9-1.2-2.9-3c0-1.7,1.2-3,2.9-3C500.3,483.3,501.2,484.6,501.1,486.6z M500.4,485.9c-0.1-1.1-0.8-1.8-2-1.8
				c-1.1,0-1.9,0.7-2,1.8H500.4z"/>
			<path fill="#414042" d="M512.8,485.6v3.6H512v-3.4c0-1-0.6-1.7-1.6-1.7c-1.2,0-1.9,0.9-1.9,2.2v2.9h-0.9v-3.4
				c0-1-0.6-1.7-1.6-1.7c-1.2,0-1.9,0.9-1.9,2.2v2.9h-0.9v-5.9h0.9v1.3c0.4-0.9,1.2-1.3,2.2-1.4c1.1,0,1.9,0.6,2.1,1.5
				c0.4-1,1.2-1.5,2.3-1.5C512,483.3,512.8,484.2,512.8,485.6z"/>
			<path fill="#414042" d="M521.3,486.3c0,1.7-1.1,2.9-2.8,2.9c-1,0-1.8-0.5-2.3-1.3v3.4h-0.9v-8h0.9v1.3c0.4-0.8,1.2-1.3,2.3-1.3
				C520.2,483.3,521.3,484.5,521.3,486.3z M520.4,486.2c0-1.3-0.9-2.2-2.1-2.2c-1.2,0-2.1,0.9-2.1,2.2c0,1.3,0.9,2.2,2.1,2.2
				C519.6,488.4,520.4,487.5,520.4,486.2z"/>
			<path fill="#414042" d="M528.7,486.2c0,1.8-1.2,3-3,3c-1.7,0-3-1.2-3-3c0-1.7,1.2-2.9,3-2.9C527.5,483.3,528.7,484.5,528.7,486.2
				z M523.7,486.3c0,1.3,0.9,2.2,2.1,2.2s2.1-0.9,2.1-2.2c0-1.3-0.9-2.2-2.1-2.2S523.7,485,523.7,486.3z"/>
			<path fill="#414042" d="M531.7,484.6c0.4-0.9,1.1-1.3,2.1-1.3v0.9c-1.2,0-2,0.7-2.1,1.9v3.1h-0.9v-5.9h0.9V484.6z"/>
		</g>
		<g>
			<path fill="#414042" d="M164,495c0,0.3-0.2,0.6-0.6,0.6c-0.3,0-0.6-0.3-0.6-0.6c0-0.3,0.2-0.6,0.6-0.6
				C163.7,494.4,164,494.6,164,495z M163,502.5v-5.9h0.9v5.9H163z"/>
			<path fill="#414042" d="M171.8,498.9v3.6H171v-3.4c0-1-0.6-1.6-1.7-1.6c-1.2,0-1.9,0.8-2,1.9v3.1h-0.9v-5.9h0.9v1.3
				c0.4-0.9,1.2-1.3,2.3-1.3C171,496.6,171.8,497.5,171.8,498.9z"/>
			<path fill="#414042" d="M178.9,497.5l-0.5,0.6c-0.4-0.4-1-0.7-1.7-0.7c-1.2,0-2.1,0.9-2.1,2.2s0.9,2.2,2.1,2.2
				c0.8,0,1.4-0.3,1.8-0.8l0.5,0.5c-0.5,0.6-1.3,1-2.3,1c-1.7,0-2.9-1.2-2.9-3c0-1.7,1.2-3,2.9-3
				C177.6,496.6,178.4,496.9,178.9,497.5z"/>
			<path fill="#414042" d="M182.1,495c0,0.3-0.2,0.6-0.6,0.6c-0.3,0-0.6-0.3-0.6-0.6c0-0.3,0.2-0.6,0.6-0.6
				C181.9,494.4,182.1,494.6,182.1,495z M181.1,502.5v-5.9h0.9v5.9H181.1z"/>
			<path fill="#414042" d="M190,502.5h-0.9v-1.3c-0.4,0.8-1.2,1.3-2.3,1.3c-1.7,0-2.8-1.2-2.8-3c0-1.8,1.2-3,2.8-3
				c1,0,1.9,0.5,2.3,1.3v-3.7h0.9V502.5z M189.2,499.6c0-1.3-0.9-2.2-2.1-2.2c-1.2,0-2.1,0.9-2.1,2.2c0,1.3,0.9,2.2,2.1,2.2
				C188.3,501.8,189.2,500.9,189.2,499.6z"/>
			<path fill="#414042" d="M193.7,495c0,0.3-0.2,0.6-0.6,0.6c-0.3,0-0.6-0.3-0.6-0.6c0-0.3,0.2-0.6,0.6-0.6
				C193.5,494.4,193.7,494.6,193.7,495z M192.7,502.5v-5.9h0.9v5.9H192.7z"/>
			<path fill="#414042" d="M201.6,502.5h-0.9v-1.3c-0.4,0.8-1.2,1.3-2.3,1.3c-1.7,0-2.8-1.2-2.8-3c0-1.8,1.2-3,2.8-3
				c1,0,1.9,0.5,2.3,1.3v-3.7h0.9V502.5z M200.8,499.6c0-1.3-0.9-2.2-2.1-2.2c-1.2,0-2.1,0.9-2.1,2.2c0,1.3,0.9,2.2,2.1,2.2
				C199.9,501.8,200.8,500.9,200.8,499.6z"/>
			<path fill="#414042" d="M209.4,502.5h-0.9v-1.3c-0.4,0.9-1.2,1.3-2.2,1.4c-1.4,0-2.2-0.9-2.2-2.3v-3.6h0.9v3.4
				c0,1,0.6,1.6,1.6,1.6c1.2,0,1.9-0.9,1.9-2.1v-2.9h0.9V502.5z"/>
			<path fill="#414042" d="M217.5,498.9v3.6h-0.9v-3.4c0-1-0.6-1.6-1.7-1.6c-1.2,0-1.9,0.8-2,1.9v3.1h-0.9v-5.9h0.9v1.3
				c0.4-0.9,1.2-1.3,2.3-1.3C216.6,496.6,217.5,497.5,217.5,498.9z"/>
			<path fill="#414042" d="M223,502.1c-0.4,0.3-0.9,0.4-1.3,0.4c-0.9,0-1.5-0.5-1.5-1.7v-3.3h-0.8v-0.7h0.8v-1.5h0.9v1.5l1.9,0v0.7
				H221v3.2c0,0.7,0.3,1,0.8,1c0.3,0,0.6-0.1,0.9-0.3L223,502.1z"/>
			<path fill="#414042" d="M233.5,502.5h-0.9v-1.3c-0.4,0.9-1.2,1.3-2.2,1.4c-1.4,0-2.2-0.9-2.2-2.3v-3.6h0.9v3.4
				c0,1,0.6,1.6,1.6,1.6c1.2,0,1.9-0.9,1.9-2.1v-2.9h0.9V502.5z"/>
			<path fill="#414042" d="M239.2,502.1c-0.4,0.3-0.9,0.4-1.3,0.4c-0.9,0-1.5-0.5-1.5-1.7v-3.3h-0.8v-0.7h0.8v-1.5h0.9v1.5l1.9,0
				v0.7h-1.9v3.2c0,0.7,0.3,1,0.8,1c0.3,0,0.6-0.1,0.9-0.3L239.2,502.1z"/>
			<path fill="#414042" d="M244.7,502.5v-8.2h0.9v8.2H244.7z"/>
			<path fill="#414042" d="M252,501.6c-0.5,0.6-1.2,0.9-2.1,0.9c-1.2,0-2-0.8-2-1.8c0-1,0.8-1.7,2.2-1.7h1.9v-0.3
				c0-0.9-0.5-1.4-1.6-1.4c-0.6,0-1.2,0.2-1.9,0.7l-0.4-0.6c0.8-0.5,1.4-0.8,2.4-0.8c1.4,0,2.2,0.8,2.3,2l0,3.9H252V501.6z
				 M251.9,500.5v-0.7h-1.8c-1,0-1.5,0.3-1.5,0.9c0,0.6,0.5,1.1,1.3,1.1C251,501.8,251.7,501.3,251.9,500.5z"/>
			<path fill="#414042" d="M261.3,499.6c0,1.7-1.1,2.9-2.8,2.9c-1,0-1.8-0.5-2.3-1.3v1.3h-0.9v-8.2h0.9v3.7c0.4-0.8,1.2-1.3,2.3-1.3
				C260.1,496.6,261.3,497.8,261.3,499.6z M260.4,499.6c0-1.3-0.9-2.2-2.1-2.2c-1.2,0-2.1,0.9-2.1,2.2c0,1.3,0.9,2.2,2.1,2.2
				C259.5,501.7,260.4,500.8,260.4,499.6z"/>
			<path fill="#414042" d="M268.7,499.6c0,1.8-1.2,3-3,3c-1.7,0-3-1.2-3-3c0-1.7,1.2-2.9,3-2.9C267.5,496.6,268.7,497.8,268.7,499.6
				z M263.6,499.6c0,1.3,0.9,2.2,2.1,2.2c1.2,0,2.1-0.9,2.1-2.2c0-1.3-0.9-2.2-2.1-2.2C264.5,497.4,263.6,498.3,263.6,499.6z"/>
			<path fill="#414042" d="M271.6,498c0.4-0.9,1.1-1.3,2.1-1.3v0.9c-1.2,0-2,0.7-2.1,1.9v3.1h-0.9v-5.9h0.9V498z"/>
			<path fill="#414042" d="M280.5,499.9h-4.8c0.2,1.1,1,1.9,2.1,1.9c0.7,0,1.4-0.3,1.8-0.7l0.5,0.5c-0.6,0.6-1.4,1-2.4,1
				c-1.7,0-2.9-1.2-2.9-3c0-1.7,1.2-3,2.9-3C279.7,496.6,280.6,497.9,280.5,499.9z M279.7,499.2c-0.1-1.1-0.8-1.8-2-1.8
				c-1.1,0-1.9,0.7-2,1.8H279.7z"/>
			<path fill="#414042" d="M291.2,499.9h-4.8c0.2,1.1,1,1.9,2.1,1.9c0.7,0,1.4-0.3,1.8-0.7l0.5,0.5c-0.6,0.6-1.4,1-2.4,1
				c-1.7,0-2.9-1.2-2.9-3c0-1.7,1.2-3,2.9-3C290.4,496.6,291.3,497.9,291.2,499.9z M290.4,499.2c-0.1-1.1-0.8-1.8-2-1.8
				c-1.1,0-1.9,0.7-2,1.8H290.4z"/>
			<path fill="#414042" d="M296.3,502.1c-0.4,0.3-0.9,0.4-1.3,0.4c-0.9,0-1.5-0.5-1.5-1.7v-3.3h-0.8v-0.7h0.8v-1.5h0.9v1.5l1.9,0
				v0.7h-1.9v3.2c0,0.7,0.3,1,0.8,1c0.3,0,0.6-0.1,0.9-0.3L296.3,502.1z"/>
			<path fill="#414042" d="M307.1,502.5h-0.9v-1.3c-0.4,0.8-1.2,1.3-2.3,1.3c-1.7,0-2.8-1.2-2.8-3c0-1.8,1.2-3,2.8-3
				c1,0,1.9,0.5,2.3,1.3v-3.7h0.9V502.5z M306.2,499.6c0-1.3-0.9-2.2-2.1-2.2c-1.2,0-2.1,0.9-2.1,2.2c0,1.3,0.9,2.2,2.1,2.2
				C305.4,501.8,306.2,500.9,306.2,499.6z"/>
			<path fill="#414042" d="M315.2,499.6c0,1.8-1.2,3-3,3c-1.7,0-3-1.2-3-3c0-1.7,1.2-2.9,3-2.9C313.9,496.6,315.2,497.8,315.2,499.6
				z M310.1,499.6c0,1.3,0.9,2.2,2.1,2.2s2.1-0.9,2.1-2.2c0-1.3-0.9-2.2-2.1-2.2S310.1,498.3,310.1,499.6z"/>
			<path fill="#414042" d="M317.3,502.5v-8.2h0.9v8.2H317.3z"/>
			<path fill="#414042" d="M326.2,499.6c0,1.8-1.2,3-3,3c-1.7,0-3-1.2-3-3c0-1.7,1.2-2.9,3-2.9C325,496.6,326.2,497.8,326.2,499.6z
				 M321.2,499.6c0,1.3,0.9,2.2,2.1,2.2c1.2,0,2.1-0.9,2.1-2.2c0-1.3-0.9-2.2-2.1-2.2C322.1,497.4,321.2,498.3,321.2,499.6z"/>
			<path fill="#414042" d="M329.2,498c0.4-0.9,1.1-1.3,2.1-1.3v0.9c-1.2,0-2,0.7-2.1,1.9v3.1h-0.9v-5.9h0.9V498z"/>
			<path fill="#414042" d="M338.1,499.9h-4.8c0.2,1.1,1,1.9,2.1,1.9c0.7,0,1.4-0.3,1.8-0.7l0.5,0.5c-0.6,0.6-1.4,1-2.4,1
				c-1.7,0-2.9-1.2-2.9-3c0-1.7,1.2-3,2.9-3C337.2,496.6,338.1,497.9,338.1,499.9z M337.3,499.2c-0.1-1.1-0.8-1.8-2-1.8
				c-1.1,0-1.9,0.7-2,1.8H337.3z"/>
			<path fill="#414042" d="M353.4,498.9v3.6h-0.9v-3.4c0-1-0.6-1.7-1.6-1.7c-1.2,0-1.9,0.9-1.9,2.2v2.9h-0.9v-3.4
				c0-1-0.6-1.7-1.6-1.7c-1.2,0-1.9,0.9-1.9,2.2v2.9h-0.9v-5.9h0.9v1.3c0.4-0.9,1.2-1.3,2.2-1.4c1.1,0,1.9,0.6,2.1,1.5
				c0.4-1,1.2-1.5,2.3-1.5C352.6,496.6,353.4,497.5,353.4,498.9z"/>
			<path fill="#414042" d="M359.5,501.6c-0.5,0.6-1.2,0.9-2.1,0.9c-1.2,0-2-0.8-2-1.8c0-1,0.8-1.7,2.2-1.7h1.9v-0.3
				c0-0.9-0.5-1.4-1.6-1.4c-0.6,0-1.2,0.2-1.9,0.7l-0.4-0.6c0.8-0.5,1.4-0.8,2.4-0.8c1.4,0,2.2,0.8,2.3,2l0,3.9h-0.8V501.6z
				 M359.5,500.5v-0.7h-1.8c-1,0-1.5,0.3-1.5,0.9c0,0.6,0.5,1.1,1.3,1.1C358.5,501.8,359.3,501.3,359.5,500.5z"/>
			<path fill="#414042" d="M367.9,501.9c0,1.7-1.2,2.8-2.9,2.8c-0.9,0-1.7-0.3-2.4-0.8l0.4-0.7c0.6,0.5,1.2,0.7,2,0.7
				c1.3,0,2.1-0.8,2.1-2V501c-0.4,0.8-1.2,1.2-2.2,1.2c-1.6,0-2.7-1.2-2.7-2.8c0-1.6,1.1-2.8,2.6-2.8c1,0,1.8,0.4,2.2,1.2v-1.2h0.9
				V501.9z M367.1,499.5c0-1.2-0.8-2.1-2-2.1c-1.2,0-2,0.9-2,2.1c0,1.2,0.8,2.1,2,2.1C366.2,501.5,367.1,500.7,367.1,499.5z"/>
			<path fill="#414042" d="M375.8,498.9v3.6h-0.9v-3.4c0-1-0.6-1.6-1.7-1.6c-1.2,0-1.9,0.8-2,1.9v3.1h-0.9v-5.9h0.9v1.3
				c0.4-0.9,1.2-1.3,2.3-1.3C375,496.6,375.8,497.5,375.8,498.9z"/>
			<path fill="#414042" d="M381.9,501.6c-0.5,0.6-1.2,0.9-2.1,0.9c-1.2,0-2-0.8-2-1.8c0-1,0.8-1.7,2.2-1.7h1.9v-0.3
				c0-0.9-0.5-1.4-1.6-1.4c-0.6,0-1.2,0.2-1.9,0.7l-0.4-0.6c0.8-0.5,1.4-0.8,2.4-0.8c1.4,0,2.2,0.8,2.3,2l0,3.9h-0.8V501.6z
				 M381.9,500.5v-0.7h-1.8c-1,0-1.5,0.3-1.5,0.9c0,0.6,0.5,1.1,1.3,1.1C380.9,501.8,381.7,501.3,381.9,500.5z"/>
			<path fill="#414042" d="M392.5,501.6c-0.5,0.6-1.2,0.9-2.1,0.9c-1.2,0-2-0.8-2-1.8c0-1,0.8-1.7,2.2-1.7h1.9v-0.3
				c0-0.9-0.5-1.4-1.6-1.4c-0.6,0-1.2,0.2-1.9,0.7l-0.4-0.6c0.8-0.5,1.4-0.8,2.4-0.8c1.4,0,2.2,0.8,2.3,2l0,3.9h-0.8V501.6z
				 M392.5,500.5v-0.7h-1.8c-1,0-1.5,0.3-1.5,0.9c0,0.6,0.5,1.1,1.3,1.1C391.5,501.8,392.3,501.3,392.5,500.5z"/>
			<path fill="#414042" d="M395.9,502.5v-8.2h0.9v8.2H395.9z"/>
			<path fill="#414042" d="M400.5,495c0,0.3-0.2,0.6-0.6,0.6s-0.6-0.3-0.6-0.6c0-0.3,0.2-0.6,0.6-0.6S400.5,494.6,400.5,495z
				 M399.5,502.5v-5.9h0.9v5.9H399.5z"/>
			<path fill="#414042" d="M408.4,504.7h-0.9v-3.4c-0.4,0.8-1.2,1.3-2.3,1.3c-1.7,0-2.8-1.2-2.8-3c0-1.8,1.2-3,2.8-3
				c1,0,1.9,0.5,2.3,1.3v-1.3h0.9V504.7z M407.5,499.6c0-1.3-0.9-2.2-2.1-2.2c-1.2,0-2.1,0.9-2.1,2.2c0,1.3,0.9,2.2,2.1,2.2
				C406.6,501.8,407.5,500.9,407.5,499.6z"/>
			<path fill="#414042" d="M416.2,502.5h-0.9v-1.3c-0.4,0.9-1.2,1.3-2.2,1.4c-1.4,0-2.2-0.9-2.2-2.3v-3.6h0.9v3.4
				c0,1,0.6,1.6,1.6,1.6c1.2,0,1.9-0.9,1.9-2.1v-2.9h0.9V502.5z"/>
			<path fill="#414042" d="M422.5,501.6c-0.5,0.6-1.2,0.9-2.1,0.9c-1.2,0-2-0.8-2-1.8c0-1,0.8-1.7,2.2-1.7h1.9v-0.3
				c0-0.9-0.5-1.4-1.6-1.4c-0.6,0-1.2,0.2-1.9,0.7l-0.4-0.6c0.8-0.5,1.4-0.8,2.4-0.8c1.4,0,2.2,0.8,2.3,2l0,3.9h-0.8V501.6z
				 M422.5,500.5v-0.7h-1.8c-1,0-1.5,0.3-1.5,0.9c0,0.6,0.5,1.1,1.3,1.1C421.5,501.8,422.2,501.3,422.5,500.5z"/>
			<path fill="#414042" d="M426.4,502c0,0.3-0.2,0.6-0.5,0.6c-0.3,0-0.5-0.2-0.5-0.6c0-0.3,0.2-0.6,0.5-0.6
				C426.2,501.4,426.4,501.7,426.4,502z"/>
		</g>
	</g>
	<g>
		<g>
			<path fill="#414042" d="M185.8-103.9c5.9,0,9.9,3.8,9.9,9.3c0,5.5-4.1,9.3-10.1,9.3h-7.8v-18.7H185.8z M182.5-89.1h3.4
				c2.9,0,5-2.2,5-5.5c0-3.3-2.2-5.6-5.2-5.6h-3.2V-89.1z"/>
			<path fill="#414042" d="M204.3-100.2v3.7h8.9v3.7h-8.9v3.8h10.2v3.7h-14.9v-18.7h14.6v3.7H204.3z"/>
			<path fill="#414042" d="M224.2-85.3l-7.3-18.7h5.1l4.8,13.7l4.8-13.7h4.9l-7.3,18.7H224.2z"/>
			<path fill="#414042" d="M244.3-100.2v3.7h8.9v3.7h-8.9v3.8h10.2v3.7h-14.9v-18.7h14.6v3.7H244.3z"/>
			<path fill="#414042" d="M271.6-89.2v4h-12.7v-18.7h4.7v14.7H271.6z"/>
			<path fill="#414042" d="M294.1-94.6c0,5.4-4.3,9.6-10.1,9.6c-5.8,0-10.1-4.1-10.1-9.6c0-5.4,4.3-9.5,10.1-9.5
				C289.8-104.1,294.1-100,294.1-94.6z M278.8-94.6c0,3.1,2.4,5.6,5.3,5.6c2.9,0,5.2-2.4,5.2-5.6c0-3.1-2.3-5.5-5.2-5.5
				C281.2-100.1,278.8-97.8,278.8-94.6z"/>
			<path fill="#414042" d="M306.1-103.9c4.8,0,7.5,2.3,7.5,6.5c0,4.4-2.7,6.9-7.5,6.9h-3.4v5.3H298v-18.7H306.1z M302.7-94.3h3.1
				c2.1,0,3.3-1,3.3-3c0-1.9-1.2-2.9-3.3-2.9h-3.1V-94.3z"/>
			<path fill="#414042" d="M333.8-85.3l0-12.1l-4.5,10.3h-3.1l-4.5-10.3v12.1h-4.2V-104h5.2l5.1,11.1l5.1-11.1h5.2v18.7H333.8z"/>
			<path fill="#414042" d="M347.8-100.2v3.7h8.9v3.7h-8.9v3.8h10.2v3.7H343v-18.7h14.6v3.7H347.8z"/>
			<path fill="#414042" d="M375.4-85.3l-8.6-11.5v11.5h-4.5v-18.7h4.2l8.6,11.5v-11.5h4.4v18.7H375.4z"/>
			<path fill="#414042" d="M393.3-100.1v14.9h-4.7v-14.9H383v-3.8h15.9v3.8H393.3z"/>
		</g>
	</g>
	<g>
		<g>
			<path fill="#414042" d="M51.7-59.5v0.8h-4.3v-7.8h0.9v6.9H51.7z"/>
			<path fill="#414042" d="M58.9-61.5c0,1.8-1.2,3-3,3c-1.7,0-3-1.2-3-3c0-1.7,1.2-2.9,3-2.9C57.7-64.5,58.9-63.3,58.9-61.5z
				 M53.8-61.5c0,1.3,0.9,2.2,2.1,2.2c1.2,0,2.1-0.9,2.1-2.2c0-1.3-0.9-2.2-2.1-2.2C54.7-63.7,53.8-62.8,53.8-61.5z"/>
			<path fill="#414042" d="M61.8-63.2c0.4-0.9,1.1-1.3,2.1-1.3v0.9c-1.2,0-2,0.7-2.1,1.9v3.1H61v-5.9h0.9V-63.2z"/>
			<path fill="#414042" d="M70.7-61.2h-4.8c0.2,1.1,1,1.9,2.1,1.9c0.7,0,1.4-0.3,1.8-0.7l0.5,0.5c-0.6,0.6-1.4,1-2.4,1
				c-1.7,0-2.9-1.2-2.9-3c0-1.7,1.2-3,2.9-3C69.9-64.5,70.8-63.2,70.7-61.2z M69.9-61.9c-0.1-1.1-0.8-1.8-2-1.8
				c-1.1,0-1.9,0.7-2,1.8H69.9z"/>
			<path fill="#414042" d="M82.4-62.2v3.6h-0.9V-62c0-1-0.6-1.7-1.6-1.7c-1.2,0-1.9,0.9-1.9,2.2v2.9h-0.9V-62c0-1-0.6-1.7-1.6-1.7
				c-1.2,0-1.9,0.9-1.9,2.2v2.9h-0.9v-5.9h0.9v1.3c0.4-0.9,1.2-1.3,2.2-1.4c1.1,0,1.9,0.6,2.1,1.5c0.4-1,1.2-1.5,2.3-1.5
				C81.6-64.5,82.4-63.6,82.4-62.2z"/>
			<path fill="#414042" d="M89.5-66.1c0,0.3-0.2,0.6-0.6,0.6c-0.3,0-0.6-0.3-0.6-0.6c0-0.3,0.2-0.6,0.6-0.6
				C89.3-66.7,89.5-66.5,89.5-66.1z M88.5-58.6v-5.9h0.9v5.9H88.5z"/>
			<path fill="#414042" d="M98-61.5c0,1.7-1.1,2.9-2.8,2.9c-1,0-1.8-0.5-2.3-1.3v3.4h-0.9v-8H93v1.3c0.4-0.8,1.2-1.3,2.3-1.3
				C96.9-64.5,98-63.3,98-61.5z M97.1-61.5c0-1.3-0.9-2.2-2.1-2.2c-1.2,0-2.1,0.9-2.1,2.2c0,1.3,0.9,2.2,2.1,2.2
				C96.3-59.4,97.1-60.3,97.1-61.5z"/>
			<path fill="#414042" d="M103.5-64l-0.3,0.7c-0.5-0.3-1-0.5-1.6-0.5c-0.7,0-1.2,0.2-1.2,0.8c0,1.3,3.3,0.6,3.3,2.7
				c0,1.2-1,1.7-2.1,1.7c-0.8,0-1.7-0.3-2.2-0.8l0.3-0.7c0.5,0.5,1.3,0.7,1.9,0.7c0.7,0,1.2-0.3,1.3-0.8c0-1.4-3.2-0.7-3.2-2.8
				c0-1.1,1-1.6,2-1.6C102.4-64.5,103-64.3,103.5-64z"/>
			<path fill="#414042" d="M110.8-58.6h-0.9v-1.3c-0.4,0.9-1.2,1.3-2.2,1.4c-1.4,0-2.2-0.9-2.2-2.3v-3.6h0.9v3.4
				c0,1,0.6,1.6,1.6,1.6c1.2,0,1.9-0.9,1.9-2.1v-2.9h0.9V-58.6z"/>
			<path fill="#414042" d="M123.1-62.2v3.6h-0.9V-62c0-1-0.6-1.7-1.6-1.7c-1.2,0-1.9,0.9-1.9,2.2v2.9h-0.9V-62c0-1-0.6-1.7-1.6-1.7
				c-1.2,0-1.9,0.9-1.9,2.2v2.9h-0.9v-5.9h0.9v1.3c0.4-0.9,1.2-1.3,2.2-1.4c1.1,0,1.9,0.6,2.1,1.5c0.4-1,1.2-1.5,2.3-1.5
				C122.3-64.5,123.1-63.6,123.1-62.2z"/>
			<path fill="#414042" d="M134.6-58.6h-0.9v-1.3c-0.4,0.8-1.2,1.3-2.3,1.3c-1.7,0-2.8-1.2-2.8-3c0-1.8,1.2-3,2.8-3
				c1,0,1.9,0.5,2.3,1.3v-3.7h0.9V-58.6z M133.7-61.5c0-1.3-0.9-2.2-2.1-2.2c-1.2,0-2.1,0.9-2.1,2.2c0,1.3,0.9,2.2,2.1,2.2
				C132.8-59.3,133.7-60.3,133.7-61.5z"/>
			<path fill="#414042" d="M142.6-61.5c0,1.8-1.2,3-3,3c-1.7,0-3-1.2-3-3c0-1.7,1.2-2.9,3-2.9C141.4-64.5,142.6-63.3,142.6-61.5z
				 M137.6-61.5c0,1.3,0.9,2.2,2.1,2.2c1.2,0,2.1-0.9,2.1-2.2c0-1.3-0.9-2.2-2.1-2.2C138.4-63.7,137.6-62.8,137.6-61.5z"/>
			<path fill="#414042" d="M144.8-58.6v-8.2h0.9v8.2H144.8z"/>
			<path fill="#414042" d="M153.7-61.5c0,1.8-1.2,3-3,3s-3-1.2-3-3c0-1.7,1.2-2.9,3-2.9S153.7-63.3,153.7-61.5z M148.6-61.5
				c0,1.3,0.9,2.2,2.1,2.2c1.2,0,2.1-0.9,2.1-2.2c0-1.3-0.9-2.2-2.1-2.2C149.5-63.7,148.6-62.8,148.6-61.5z"/>
			<path fill="#414042" d="M156.6-63.2c0.4-0.9,1.1-1.3,2.1-1.3v0.9c-1.2,0-2,0.7-2.1,1.9v3.1h-0.9v-5.9h0.9V-63.2z"/>
			<path fill="#414042" d="M167.5-64l-0.3,0.7c-0.5-0.3-1-0.5-1.6-0.5c-0.7,0-1.2,0.2-1.2,0.8c0,1.3,3.3,0.6,3.3,2.7
				c0,1.2-1,1.7-2.1,1.7c-0.8,0-1.7-0.3-2.2-0.8l0.3-0.7c0.5,0.5,1.3,0.7,1.9,0.7c0.7,0,1.2-0.3,1.3-0.8c0-1.4-3.2-0.7-3.2-2.8
				c0-1.1,1-1.6,2-1.6C166.3-64.5,167-64.3,167.5-64z"/>
			<path fill="#414042" d="M170.6-66.1c0,0.3-0.2,0.6-0.6,0.6c-0.3,0-0.6-0.3-0.6-0.6c0-0.3,0.2-0.6,0.6-0.6
				C170.4-66.7,170.6-66.5,170.6-66.1z M169.7-58.6v-5.9h0.9v5.9H169.7z"/>
			<path fill="#414042" d="M176.2-59c-0.4,0.3-0.9,0.4-1.3,0.4c-0.9,0-1.5-0.5-1.5-1.7v-3.3h-0.8v-0.7h0.8v-1.5h0.9v1.5l1.9,0v0.7
				h-1.9v3.2c0,0.7,0.3,1,0.8,1c0.3,0,0.6-0.1,0.9-0.3L176.2-59z"/>
			<path fill="#414042" d="M185.3-59.5c-0.5,0.6-1.2,0.9-2.1,0.9c-1.2,0-2-0.8-2-1.8c0-1,0.8-1.7,2.2-1.7h1.9v-0.3
				c0-0.9-0.5-1.4-1.6-1.4c-0.6,0-1.2,0.2-1.9,0.7l-0.4-0.6c0.8-0.5,1.4-0.8,2.4-0.8c1.4,0,2.2,0.8,2.3,2l0,3.9h-0.8V-59.5z
				 M185.3-60.6v-0.7h-1.8c-1,0-1.5,0.3-1.5,0.9c0,0.6,0.5,1.1,1.3,1.1C184.3-59.3,185.1-59.8,185.3-60.6z"/>
			<path fill="#414042" d="M198.3-62.2v3.6h-0.9V-62c0-1-0.6-1.7-1.6-1.7c-1.2,0-1.9,0.9-1.9,2.2v2.9H193V-62c0-1-0.6-1.7-1.6-1.7
				c-1.2,0-1.9,0.9-1.9,2.2v2.9h-0.9v-5.9h0.9v1.3c0.4-0.9,1.2-1.3,2.2-1.4c1.1,0,1.9,0.6,2.1,1.5c0.4-1,1.2-1.5,2.3-1.5
				C197.5-64.5,198.3-63.6,198.3-62.2z"/>
			<path fill="#414042" d="M205.8-61.2h-4.8c0.2,1.1,1,1.9,2.1,1.9c0.7,0,1.4-0.3,1.8-0.7l0.5,0.5c-0.6,0.6-1.4,1-2.4,1
				c-1.7,0-2.9-1.2-2.9-3c0-1.7,1.2-3,2.9-3C205-64.5,205.9-63.2,205.8-61.2z M205.1-61.9c-0.1-1.1-0.8-1.8-2-1.8
				c-1.1,0-1.9,0.7-2,1.8H205.1z"/>
			<path fill="#414042" d="M210.9-59c-0.4,0.3-0.9,0.4-1.3,0.4c-0.9,0-1.5-0.5-1.5-1.7v-3.3h-0.8v-0.7h0.8v-1.5h0.9v1.5l1.9,0v0.7
				h-1.9v3.2c0,0.7,0.3,1,0.8,1c0.3,0,0.6-0.1,0.9-0.3L210.9-59z"/>
			<path fill="#414042" d="M213.4-59.1c0,0.2-0.1,0.3-0.2,0.5l-0.5,0.8h-0.5l0.4-0.8c-0.2-0.1-0.2-0.3-0.2-0.5
				c0-0.3,0.2-0.6,0.5-0.6C213.1-59.7,213.4-59.4,213.4-59.1z"/>
		</g>
		<g>
			<path fill="#414042" d="M223.7-63.6l-0.5,0.6c-0.4-0.4-1-0.7-1.7-0.7c-1.2,0-2.1,0.9-2.1,2.2c0,1.3,0.9,2.2,2.1,2.2
				c0.8,0,1.4-0.3,1.8-0.8l0.5,0.5c-0.5,0.6-1.3,1-2.3,1c-1.7,0-2.9-1.2-2.9-3c0-1.7,1.2-3,2.9-3C222.4-64.5,223.1-64.2,223.7-63.6z
				"/>
		</g>
		<g>
			<path fill="#414042" d="M231-61.5c0,1.8-1.2,3-3,3c-1.7,0-3-1.2-3-3c0-1.7,1.2-2.9,3-2.9C229.7-64.5,231-63.3,231-61.5z
				 M225.9-61.5c0,1.3,0.9,2.2,2.1,2.2c1.2,0,2.1-0.9,2.1-2.2c0-1.3-0.9-2.2-2.1-2.2C226.8-63.7,225.9-62.8,225.9-61.5z"/>
			<path fill="#414042" d="M238.4-62.2v3.6h-0.9V-62c0-1-0.6-1.6-1.7-1.6c-1.2,0-1.9,0.8-2,1.9v3.1H233v-5.9h0.9v1.3
				c0.4-0.9,1.2-1.3,2.3-1.3C237.6-64.5,238.4-63.6,238.4-62.2z"/>
			<path fill="#414042" d="M244.3-64l-0.3,0.7c-0.5-0.3-1-0.5-1.6-0.5c-0.7,0-1.2,0.2-1.2,0.8c0,1.3,3.3,0.6,3.3,2.7
				c0,1.2-1,1.7-2.1,1.7c-0.8,0-1.7-0.3-2.2-0.8l0.3-0.7c0.5,0.5,1.3,0.7,1.9,0.7c0.7,0,1.2-0.3,1.3-0.8c0-1.4-3.2-0.7-3.2-2.8
				c0-1.1,1-1.6,2-1.6C243.1-64.5,243.8-64.3,244.3-64z"/>
			<path fill="#414042" d="M251.5-61.2h-4.8c0.2,1.1,1,1.9,2.1,1.9c0.7,0,1.4-0.3,1.8-0.7l0.5,0.5c-0.6,0.6-1.4,1-2.4,1
				c-1.7,0-2.9-1.2-2.9-3c0-1.7,1.2-3,2.9-3C250.7-64.5,251.6-63.2,251.5-61.2z M250.7-61.9c-0.1-1.1-0.8-1.8-2-1.8
				c-1.1,0-1.9,0.7-2,1.8H250.7z"/>
			<path fill="#414042" d="M258.1-63.6l-0.5,0.6c-0.4-0.4-1-0.7-1.7-0.7c-1.2,0-2.1,0.9-2.1,2.2c0,1.3,0.9,2.2,2.1,2.2
				c0.8,0,1.4-0.3,1.8-0.8l0.5,0.5c-0.5,0.6-1.3,1-2.3,1c-1.7,0-2.9-1.2-2.9-3c0-1.7,1.2-3,2.9-3C256.8-64.5,257.6-64.2,258.1-63.6z
				"/>
		</g>
		<g>
			<path fill="#414042" d="M263.4-59c-0.4,0.3-0.9,0.4-1.3,0.4c-0.9,0-1.5-0.5-1.5-1.7v-3.3h-0.8v-0.7h0.8v-1.5h0.9v1.5l1.9,0v0.7
				h-1.9v3.2c0,0.7,0.3,1,0.8,1c0.3,0,0.6-0.1,0.9-0.3L263.4-59z"/>
		</g>
		<g>
			<path fill="#414042" d="M270.2-61.2h-4.8c0.2,1.1,1,1.9,2.1,1.9c0.7,0,1.4-0.3,1.8-0.7l0.5,0.5c-0.6,0.6-1.4,1-2.4,1
				c-1.7,0-2.9-1.2-2.9-3c0-1.7,1.2-3,2.9-3C269.4-64.5,270.3-63.2,270.2-61.2z M269.4-61.9c-0.1-1.1-0.8-1.8-2-1.8
				c-1.1,0-1.9,0.7-2,1.8H269.4z"/>
			<path fill="#414042" d="M275.3-59c-0.4,0.3-0.9,0.4-1.3,0.4c-0.9,0-1.5-0.5-1.5-1.7v-3.3h-0.8v-0.7h0.8v-1.5h0.9v1.5l1.9,0v0.7
				h-1.9v3.2c0,0.7,0.3,1,0.8,1c0.3,0,0.6-0.1,0.9-0.3L275.3-59z"/>
			<path fill="#414042" d="M282.2-58.6h-0.9v-1.3c-0.4,0.9-1.2,1.3-2.2,1.4c-1.4,0-2.2-0.9-2.2-2.3v-3.6h0.9v3.4
				c0,1,0.6,1.6,1.6,1.6c1.2,0,1.9-0.9,1.9-2.1v-2.9h0.9V-58.6z"/>
			<path fill="#414042" d="M285.7-63.2c0.4-0.9,1.1-1.3,2.1-1.3v0.9c-1.2,0-2,0.7-2.1,1.9v3.1h-0.9v-5.9h0.9V-63.2z"/>
			<path fill="#414042" d="M296.8-59.5c-0.5,0.6-1.2,0.9-2.1,0.9c-1.2,0-2-0.8-2-1.8c0-1,0.8-1.7,2.2-1.7h1.9v-0.3
				c0-0.9-0.5-1.4-1.6-1.4c-0.6,0-1.2,0.2-1.9,0.7l-0.4-0.6c0.8-0.5,1.4-0.8,2.4-0.8c1.4,0,2.2,0.8,2.3,2l0,3.9h-0.8V-59.5z
				 M296.8-60.6v-0.7H295c-1,0-1.5,0.3-1.5,0.9c0,0.6,0.5,1.1,1.3,1.1C295.8-59.3,296.6-59.8,296.8-60.6z"/>
			<path fill="#414042" d="M305.5-58.6h-0.9v-1.3c-0.4,0.8-1.2,1.3-2.3,1.3c-1.7,0-2.8-1.2-2.8-3c0-1.8,1.2-3,2.8-3
				c1,0,1.9,0.5,2.3,1.3v-3.7h0.9V-58.6z M304.6-61.5c0-1.3-0.9-2.2-2.1-2.2c-1.2,0-2.1,0.9-2.1,2.2c0,1.3,0.9,2.2,2.1,2.2
				C303.8-59.3,304.6-60.3,304.6-61.5z"/>
			<path fill="#414042" d="M309.2-66.1c0,0.3-0.2,0.6-0.6,0.6c-0.3,0-0.6-0.3-0.6-0.6c0-0.3,0.2-0.6,0.6-0.6
				C309-66.7,309.2-66.5,309.2-66.1z M308.2-58.6v-5.9h0.9v5.9H308.2z"/>
			<path fill="#414042" d="M317.7-61.5c0,1.7-1.1,2.9-2.8,2.9c-1,0-1.8-0.5-2.3-1.3v3.4h-0.9v-8h0.9v1.3c0.4-0.8,1.2-1.3,2.3-1.3
				C316.6-64.5,317.7-63.3,317.7-61.5z M316.9-61.5c0-1.3-0.9-2.2-2.1-2.2c-1.2,0-2.1,0.9-2.1,2.2c0,1.3,0.9,2.2,2.1,2.2
				C316-59.4,316.9-60.3,316.9-61.5z"/>
			<path fill="#414042" d="M320.8-66.1c0,0.3-0.2,0.6-0.6,0.6c-0.3,0-0.6-0.3-0.6-0.6c0-0.3,0.2-0.6,0.6-0.6
				C320.6-66.7,320.8-66.5,320.8-66.1z M319.8-58.6v-5.9h0.9v5.9H319.8z"/>
			<path fill="#414042" d="M326.8-64l-0.3,0.7c-0.5-0.3-1-0.5-1.6-0.5c-0.7,0-1.2,0.2-1.2,0.8c0,1.3,3.3,0.6,3.3,2.7
				c0,1.2-1,1.7-2.1,1.7c-0.8,0-1.7-0.3-2.2-0.8l0.3-0.7c0.5,0.5,1.3,0.7,1.9,0.7c0.7,0,1.2-0.3,1.3-0.8c0-1.4-3.2-0.7-3.2-2.8
				c0-1.1,1-1.6,2-1.6C325.6-64.5,326.3-64.3,326.8-64z"/>
			<path fill="#414042" d="M333.5-63.6L333-63c-0.4-0.4-1-0.7-1.7-0.7c-1.2,0-2.1,0.9-2.1,2.2c0,1.3,0.9,2.2,2.1,2.2
				c0.8,0,1.4-0.3,1.8-0.8l0.5,0.5c-0.5,0.6-1.3,1-2.3,1c-1.7,0-2.9-1.2-2.9-3c0-1.7,1.2-3,2.9-3C332.2-64.5,333-64.2,333.5-63.6z"
				/>
			<path fill="#414042" d="M336.7-66.1c0,0.3-0.2,0.6-0.6,0.6c-0.3,0-0.6-0.3-0.6-0.6c0-0.3,0.2-0.6,0.6-0.6
				C336.5-66.7,336.7-66.5,336.7-66.1z M335.7-58.6v-5.9h0.9v5.9H335.7z"/>
			<path fill="#414042" d="M344.6-62.2v3.6h-0.9V-62c0-1-0.6-1.6-1.7-1.6c-1.2,0-1.9,0.8-2,1.9v3.1h-0.9v-5.9h0.9v1.3
				c0.4-0.9,1.2-1.3,2.3-1.3C343.8-64.5,344.6-63.6,344.6-62.2z"/>
			<path fill="#414042" d="M352.2-59.2c0,1.7-1.2,2.8-2.9,2.8c-0.9,0-1.7-0.3-2.4-0.8l0.4-0.7c0.6,0.5,1.2,0.7,2,0.7
				c1.3,0,2.1-0.8,2.1-2v-0.9c-0.4,0.8-1.2,1.2-2.2,1.2c-1.6,0-2.7-1.2-2.7-2.8c0-1.6,1.1-2.8,2.6-2.8c1,0,1.8,0.4,2.2,1.2v-1.2h0.9
				V-59.2z M351.3-61.7c0-1.2-0.8-2.1-2-2.1c-1.2,0-2,0.9-2,2.1c0,1.2,0.8,2.1,2,2.1C350.5-59.6,351.3-60.5,351.3-61.7z"/>
			<path fill="#414042" d="M363.4-61.2h-4.8c0.2,1.1,1,1.9,2.1,1.9c0.7,0,1.4-0.3,1.8-0.7l0.5,0.5c-0.6,0.6-1.4,1-2.4,1
				c-1.7,0-2.9-1.2-2.9-3c0-1.7,1.2-3,2.9-3C362.5-64.5,363.4-63.2,363.4-61.2z M362.6-61.9c-0.1-1.1-0.8-1.8-2-1.8
				c-1.1,0-1.9,0.7-2,1.8H362.6z"/>
			<path fill="#414042" d="M365.5-58.6v-8.2h0.9v8.2H365.5z"/>
			<path fill="#414042" d="M370-66.1c0,0.3-0.2,0.6-0.6,0.6c-0.3,0-0.6-0.3-0.6-0.6c0-0.3,0.2-0.6,0.6-0.6
				C369.8-66.7,370-66.5,370-66.1z M369-58.6v-5.9h0.9v5.9H369z"/>
			<path fill="#414042" d="M375.6-59c-0.4,0.3-0.9,0.4-1.3,0.4c-0.9,0-1.5-0.5-1.5-1.7v-3.3h-0.8v-0.7h0.8v-1.5h0.9v1.5l1.9,0v0.7
				h-1.9v3.2c0,0.7,0.3,1,0.8,1c0.3,0,0.6-0.1,0.9-0.3L375.6-59z"/>
			<path fill="#414042" d="M378-59.1c0,0.2-0.1,0.3-0.2,0.5l-0.5,0.8h-0.5l0.4-0.8c-0.2-0.1-0.2-0.3-0.2-0.5c0-0.3,0.2-0.6,0.5-0.6
				C377.8-59.7,378-59.4,378-59.1z"/>
			<path fill="#414042" d="M387.2-64l-0.3,0.7c-0.5-0.3-1-0.5-1.6-0.5c-0.7,0-1.2,0.2-1.2,0.8c0,1.3,3.3,0.6,3.3,2.7
				c0,1.2-1,1.7-2.1,1.7c-0.8,0-1.7-0.3-2.2-0.8l0.3-0.7c0.5,0.5,1.3,0.7,1.9,0.7c0.7,0,1.2-0.3,1.3-0.8c0-1.4-3.2-0.7-3.2-2.8
				c0-1.1,1-1.6,2-1.6C386.1-64.5,386.7-64.3,387.2-64z"/>
			<path fill="#414042" d="M394.4-61.2h-4.8c0.2,1.1,1,1.9,2.1,1.9c0.7,0,1.4-0.3,1.8-0.7l0.5,0.5c-0.6,0.6-1.4,1-2.4,1
				c-1.7,0-2.9-1.2-2.9-3c0-1.7,1.2-3,2.9-3C393.6-64.5,394.5-63.2,394.4-61.2z M393.6-61.9c-0.1-1.1-0.8-1.8-2-1.8
				c-1.1,0-1.9,0.7-2,1.8H393.6z"/>
			<path fill="#414042" d="M401.8-58.6H401v-1.3c-0.4,0.8-1.2,1.3-2.3,1.3c-1.7,0-2.8-1.2-2.8-3c0-1.8,1.2-3,2.8-3
				c1,0,1.9,0.5,2.3,1.3v-3.7h0.9V-58.6z M401-61.5c0-1.3-0.9-2.2-2.1-2.2c-1.2,0-2.1,0.9-2.1,2.2c0,1.3,0.9,2.2,2.1,2.2
				C400.1-59.3,401-60.3,401-61.5z"/>
			<path fill="#414042" d="M413.5-58.6h-0.9v-1.3c-0.4,0.8-1.2,1.3-2.3,1.3c-1.7,0-2.8-1.2-2.8-3c0-1.8,1.2-3,2.8-3
				c1,0,1.9,0.5,2.3,1.3v-3.7h0.9V-58.6z M412.7-61.5c0-1.3-0.9-2.2-2.1-2.2c-1.2,0-2.1,0.9-2.1,2.2c0,1.3,0.9,2.2,2.1,2.2
				C411.8-59.3,412.7-60.3,412.7-61.5z"/>
			<path fill="#414042" d="M421.6-61.5c0,1.8-1.2,3-3,3c-1.7,0-3-1.2-3-3c0-1.7,1.2-2.9,3-2.9C420.4-64.5,421.6-63.3,421.6-61.5z
				 M416.6-61.5c0,1.3,0.9,2.2,2.1,2.2c1.2,0,2.1-0.9,2.1-2.2c0-1.3-0.9-2.2-2.1-2.2C417.4-63.7,416.6-62.8,416.6-61.5z"/>
			<path fill="#414042" d="M432.3-61.2h-4.8c0.2,1.1,1,1.9,2.1,1.9c0.7,0,1.4-0.3,1.8-0.7l0.5,0.5c-0.6,0.6-1.4,1-2.4,1
				c-1.7,0-2.9-1.2-2.9-3c0-1.7,1.2-3,2.9-3C431.5-64.5,432.4-63.2,432.3-61.2z M431.6-61.9c-0.1-1.1-0.8-1.8-2-1.8
				c-1.1,0-1.9,0.7-2,1.8H431.6z"/>
			<path fill="#414042" d="M435.4-66.1c0,0.3-0.2,0.6-0.6,0.6c-0.3,0-0.6-0.3-0.6-0.6c0-0.3,0.2-0.6,0.6-0.6
				C435.1-66.7,435.4-66.5,435.4-66.1z M434.4-58.6v-5.9h0.9v5.9H434.4z"/>
			<path fill="#414042" d="M443-58.6h-0.9v-1.3c-0.4,0.9-1.2,1.3-2.2,1.4c-1.4,0-2.2-0.9-2.2-2.3v-3.6h0.9v3.4c0,1,0.6,1.6,1.6,1.6
				c1.2,0,1.9-0.9,1.9-2.1v-2.9h0.9V-58.6z"/>
			<path fill="#414042" d="M449.1-64l-0.3,0.7c-0.5-0.3-1-0.5-1.6-0.5c-0.7,0-1.2,0.2-1.2,0.8c0,1.3,3.3,0.6,3.3,2.7
				c0,1.2-1,1.7-2.1,1.7c-0.8,0-1.7-0.3-2.2-0.8l0.3-0.7c0.5,0.5,1.3,0.7,1.9,0.7c0.7,0,1.2-0.3,1.3-0.8c0-1.4-3.2-0.7-3.2-2.8
				c0-1.1,1-1.6,2-1.6C447.9-64.5,448.6-64.3,449.1-64z"/>
			<path fill="#414042" d="M460.9-62.2v3.6H460V-62c0-1-0.6-1.7-1.6-1.7c-1.2,0-1.9,0.9-1.9,2.2v2.9h-0.9V-62c0-1-0.6-1.7-1.6-1.7
				c-1.2,0-1.9,0.9-1.9,2.2v2.9h-0.9v-5.9h0.9v1.3c0.4-0.9,1.2-1.3,2.2-1.4c1.1,0,1.9,0.6,2.1,1.5c0.4-1,1.2-1.5,2.3-1.5
				C460.1-64.5,460.9-63.6,460.9-62.2z"/>
			<path fill="#414042" d="M468.7-61.5c0,1.8-1.2,3-3,3c-1.7,0-3-1.2-3-3c0-1.7,1.2-2.9,3-2.9C467.5-64.5,468.7-63.3,468.7-61.5z
				 M463.7-61.5c0,1.3,0.9,2.2,2.1,2.2s2.1-0.9,2.1-2.2c0-1.3-0.9-2.2-2.1-2.2S463.7-62.8,463.7-61.5z"/>
			<path fill="#414042" d="M476.2-58.6h-0.9v-1.3c-0.4,0.8-1.2,1.3-2.3,1.3c-1.7,0-2.8-1.2-2.8-3c0-1.8,1.2-3,2.8-3
				c1,0,1.9,0.5,2.3,1.3v-3.7h0.9V-58.6z M475.3-61.5c0-1.3-0.9-2.2-2.1-2.2c-1.2,0-2.1,0.9-2.1,2.2c0,1.3,0.9,2.2,2.1,2.2
				C474.4-59.3,475.3-60.3,475.3-61.5z"/>
		</g>
		<g>
			<path fill="#414042" d="M485.5-59c-0.4,0.3-0.9,0.4-1.3,0.4c-0.9,0-1.5-0.5-1.5-1.7v-3.3h-0.8v-0.7h0.8v-1.5h0.9v1.5l1.9,0v0.7
				h-1.9v3.2c0,0.7,0.3,1,0.8,1c0.3,0,0.6-0.1,0.9-0.3L485.5-59z"/>
		</g>
		<g>
			<path fill="#414042" d="M492.4-61.2h-4.8c0.2,1.1,1,1.9,2.1,1.9c0.7,0,1.4-0.3,1.8-0.7l0.5,0.5c-0.6,0.6-1.4,1-2.4,1
				c-1.7,0-2.9-1.2-2.9-3c0-1.7,1.2-3,2.9-3C491.5-64.5,492.4-63.2,492.4-61.2z M491.6-61.9c-0.1-1.1-0.8-1.8-2-1.8
				c-1.1,0-1.9,0.7-2,1.8H491.6z"/>
			<path fill="#414042" d="M504.1-62.2v3.6h-0.9V-62c0-1-0.6-1.7-1.6-1.7c-1.2,0-1.9,0.9-1.9,2.2v2.9h-0.9V-62c0-1-0.6-1.7-1.6-1.7
				c-1.2,0-1.9,0.9-1.9,2.2v2.9h-0.9v-5.9h0.9v1.3c0.4-0.9,1.2-1.3,2.2-1.4c1.1,0,1.9,0.6,2.1,1.5c0.4-1,1.2-1.5,2.3-1.5
				C503.3-64.5,504.1-63.6,504.1-62.2z"/>
			<path fill="#414042" d="M512.5-61.5c0,1.7-1.1,2.9-2.8,2.9c-1,0-1.8-0.5-2.3-1.3v3.4h-0.9v-8h0.9v1.3c0.4-0.8,1.2-1.3,2.3-1.3
				C511.4-64.5,512.5-63.3,512.5-61.5z M511.7-61.5c0-1.3-0.9-2.2-2.1-2.2c-1.2,0-2.1,0.9-2.1,2.2c0,1.3,0.9,2.2,2.1,2.2
				C510.8-59.4,511.7-60.3,511.7-61.5z"/>
			<path fill="#414042" d="M520-61.5c0,1.8-1.2,3-3,3c-1.7,0-3-1.2-3-3c0-1.7,1.2-2.9,3-2.9C518.7-64.5,520-63.3,520-61.5z
				 M514.9-61.5c0,1.3,0.9,2.2,2.1,2.2c1.2,0,2.1-0.9,2.1-2.2c0-1.3-0.9-2.2-2.1-2.2C515.8-63.7,514.9-62.8,514.9-61.5z"/>
			<path fill="#414042" d="M522.9-63.2c0.4-0.9,1.1-1.3,2.1-1.3v0.9c-1.2,0-2,0.7-2.1,1.9v3.1h-0.9v-5.9h0.9V-63.2z"/>
		</g>
		<g>
			<path fill="#414042" d="M155.2-52.8c0,0.3-0.2,0.6-0.6,0.6c-0.3,0-0.6-0.3-0.6-0.6c0-0.3,0.2-0.6,0.6-0.6
				C154.9-53.4,155.2-53.1,155.2-52.8z M154.2-45.3v-5.9h0.9v5.9H154.2z"/>
			<path fill="#414042" d="M163.1-48.9v3.6h-0.9v-3.4c0-1-0.6-1.6-1.7-1.6c-1.2,0-1.9,0.8-2,1.9v3.1h-0.9v-5.9h0.9v1.3
				c0.4-0.9,1.2-1.3,2.3-1.3C162.3-51.2,163.1-50.3,163.1-48.9z"/>
			<path fill="#414042" d="M170.1-50.3l-0.5,0.6c-0.4-0.4-1-0.7-1.7-0.7c-1.2,0-2.1,0.9-2.1,2.2s0.9,2.2,2.1,2.2
				c0.8,0,1.4-0.3,1.8-0.8l0.5,0.5c-0.5,0.6-1.3,1-2.3,1c-1.7,0-2.9-1.2-2.9-3c0-1.7,1.2-3,2.9-3C168.8-51.2,169.6-50.8,170.1-50.3z
				"/>
			<path fill="#414042" d="M173.3-52.8c0,0.3-0.2,0.6-0.6,0.6c-0.3,0-0.6-0.3-0.6-0.6c0-0.3,0.2-0.6,0.6-0.6
				C173.1-53.4,173.3-53.1,173.3-52.8z M172.4-45.3v-5.9h0.9v5.9H172.4z"/>
			<path fill="#414042" d="M181.3-45.3h-0.9v-1.3c-0.4,0.8-1.2,1.3-2.3,1.3c-1.7,0-2.8-1.2-2.8-3c0-1.8,1.2-3,2.8-3
				c1,0,1.9,0.5,2.3,1.3v-3.7h0.9V-45.3z M180.4-48.2c0-1.3-0.9-2.2-2.1-2.2c-1.2,0-2.1,0.9-2.1,2.2c0,1.3,0.9,2.2,2.1,2.2
				C179.5-46,180.4-46.9,180.4-48.2z"/>
			<path fill="#414042" d="M185-52.8c0,0.3-0.2,0.6-0.6,0.6c-0.3,0-0.6-0.3-0.6-0.6c0-0.3,0.2-0.6,0.6-0.6
				C184.7-53.4,185-53.1,185-52.8z M184-45.3v-5.9h0.9v5.9H184z"/>
			<path fill="#414042" d="M192.9-45.3H192v-1.3c-0.4,0.8-1.2,1.3-2.3,1.3c-1.7,0-2.8-1.2-2.8-3c0-1.8,1.2-3,2.8-3
				c1,0,1.9,0.5,2.3,1.3v-3.7h0.9V-45.3z M192-48.2c0-1.3-0.9-2.2-2.1-2.2c-1.2,0-2.1,0.9-2.1,2.2c0,1.3,0.9,2.2,2.1,2.2
				C191.1-46,192-46.9,192-48.2z"/>
			<path fill="#414042" d="M200.7-45.3h-0.9v-1.3c-0.4,0.9-1.2,1.3-2.2,1.4c-1.4,0-2.2-0.9-2.2-2.3v-3.6h0.9v3.4
				c0,1,0.6,1.6,1.6,1.6c1.2,0,1.9-0.9,1.9-2.1v-2.9h0.9V-45.3z"/>
			<path fill="#414042" d="M208.7-48.9v3.6h-0.9v-3.4c0-1-0.6-1.6-1.7-1.6c-1.2,0-1.9,0.8-2,1.9v3.1h-0.9v-5.9h0.9v1.3
				c0.4-0.9,1.2-1.3,2.3-1.3C207.9-51.2,208.7-50.3,208.7-48.9z"/>
			<path fill="#414042" d="M214.2-45.7c-0.4,0.3-0.9,0.4-1.3,0.4c-0.9,0-1.5-0.5-1.5-1.7v-3.3h-0.8v-0.7h0.8v-1.5h0.9v1.5l1.9,0v0.7
				h-1.9v3.2c0,0.7,0.3,1,0.8,1c0.3,0,0.6-0.1,0.9-0.3L214.2-45.7z"/>
			<path fill="#414042" d="M224.8-45.3h-0.9v-1.3c-0.4,0.9-1.2,1.3-2.2,1.4c-1.4,0-2.2-0.9-2.2-2.3v-3.6h0.9v3.4
				c0,1,0.6,1.6,1.6,1.6c1.2,0,1.9-0.9,1.9-2.1v-2.9h0.9V-45.3z"/>
			<path fill="#414042" d="M230.4-45.7c-0.4,0.3-0.9,0.4-1.3,0.4c-0.9,0-1.5-0.5-1.5-1.7v-3.3h-0.8v-0.7h0.8v-1.5h0.9v1.5l1.9,0v0.7
				h-1.9v3.2c0,0.7,0.3,1,0.8,1c0.3,0,0.6-0.1,0.9-0.3L230.4-45.7z"/>
			<path fill="#414042" d="M236-45.3v-8.2h0.9v8.2H236z"/>
			<path fill="#414042" d="M243.2-46.2c-0.5,0.6-1.2,0.9-2.1,0.9c-1.2,0-2-0.8-2-1.8c0-1,0.8-1.7,2.2-1.7h1.9V-49
				c0-0.9-0.5-1.4-1.6-1.4c-0.6,0-1.2,0.2-1.9,0.7l-0.4-0.6c0.8-0.5,1.4-0.8,2.4-0.8c1.4,0,2.2,0.8,2.3,2l0,3.9h-0.8V-46.2z
				 M243.2-47.3V-48h-1.8c-1,0-1.5,0.3-1.5,0.9s0.5,1.1,1.3,1.1C242.2-46,243-46.5,243.2-47.3z"/>
			<path fill="#414042" d="M252.5-48.2c0,1.7-1.1,2.9-2.8,2.9c-1,0-1.8-0.5-2.3-1.3v1.3h-0.9v-8.2h0.9v3.7c0.4-0.8,1.2-1.3,2.3-1.3
				C251.4-51.2,252.5-49.9,252.5-48.2z M251.6-48.2c0-1.3-0.9-2.2-2.1-2.2c-1.2,0-2.1,0.9-2.1,2.2c0,1.3,0.9,2.2,2.1,2.2
				C250.8-46,251.6-46.9,251.6-48.2z"/>
			<path fill="#414042" d="M259.9-48.2c0,1.8-1.2,3-3,3c-1.7,0-3-1.2-3-3c0-1.7,1.2-2.9,3-2.9C258.7-51.1,259.9-49.9,259.9-48.2z
				 M254.9-48.2c0,1.3,0.9,2.2,2.1,2.2c1.2,0,2.1-0.9,2.1-2.2c0-1.3-0.9-2.2-2.1-2.2C255.7-50.4,254.9-49.5,254.9-48.2z"/>
			<path fill="#414042" d="M262.9-49.8c0.4-0.9,1.1-1.3,2.1-1.3v0.9c-1.2,0-2,0.7-2.1,1.9v3.1H262v-5.9h0.9V-49.8z"/>
			<path fill="#414042" d="M271.7-47.9H267c0.2,1.1,1,1.9,2.1,1.9c0.7,0,1.4-0.3,1.8-0.7l0.5,0.5c-0.6,0.6-1.4,1-2.4,1
				c-1.7,0-2.9-1.2-2.9-3c0-1.7,1.2-3,2.9-3C270.9-51.2,271.8-49.8,271.7-47.9z M271-48.6c-0.1-1.1-0.8-1.8-2-1.8
				c-1.1,0-1.9,0.7-2,1.8H271z"/>
			<path fill="#414042" d="M282.4-47.9h-4.8c0.2,1.1,1,1.9,2.1,1.9c0.7,0,1.4-0.3,1.8-0.7l0.5,0.5c-0.6,0.6-1.4,1-2.4,1
				c-1.7,0-2.9-1.2-2.9-3c0-1.7,1.2-3,2.9-3C281.6-51.2,282.5-49.8,282.4-47.9z M281.7-48.6c-0.1-1.1-0.8-1.8-2-1.8
				c-1.1,0-1.9,0.7-2,1.8H281.7z"/>
			<path fill="#414042" d="M287.5-45.7c-0.4,0.3-0.9,0.4-1.3,0.4c-0.9,0-1.5-0.5-1.5-1.7v-3.3h-0.8v-0.7h0.8v-1.5h0.9v1.5l1.9,0v0.7
				h-1.9v3.2c0,0.7,0.3,1,0.8,1c0.3,0,0.6-0.1,0.9-0.3L287.5-45.7z"/>
			<path fill="#414042" d="M298.3-45.3h-0.9v-1.3c-0.4,0.8-1.2,1.3-2.3,1.3c-1.7,0-2.8-1.2-2.8-3c0-1.8,1.2-3,2.8-3
				c1,0,1.9,0.5,2.3,1.3v-3.7h0.9V-45.3z M297.5-48.2c0-1.3-0.9-2.2-2.1-2.2c-1.2,0-2.1,0.9-2.1,2.2c0,1.3,0.9,2.2,2.1,2.2
				C296.6-46,297.5-46.9,297.5-48.2z"/>
			<path fill="#414042" d="M306.4-48.2c0,1.8-1.2,3-3,3c-1.7,0-3-1.2-3-3c0-1.7,1.2-2.9,3-2.9C305.2-51.1,306.4-49.9,306.4-48.2z
				 M301.3-48.2c0,1.3,0.9,2.2,2.1,2.2c1.2,0,2.1-0.9,2.1-2.2c0-1.3-0.9-2.2-2.1-2.2C302.2-50.4,301.3-49.5,301.3-48.2z"/>
			<path fill="#414042" d="M308.5-45.3v-8.2h0.9v8.2H308.5z"/>
			<path fill="#414042" d="M317.5-48.2c0,1.8-1.2,3-3,3c-1.7,0-3-1.2-3-3c0-1.7,1.2-2.9,3-2.9C316.2-51.1,317.5-49.9,317.5-48.2z
				 M312.4-48.2c0,1.3,0.9,2.2,2.1,2.2s2.1-0.9,2.1-2.2c0-1.3-0.9-2.2-2.1-2.2S312.4-49.5,312.4-48.2z"/>
			<path fill="#414042" d="M320.4-49.8c0.4-0.9,1.1-1.3,2.1-1.3v0.9c-1.2,0-2,0.7-2.1,1.9v3.1h-0.9v-5.9h0.9V-49.8z"/>
			<path fill="#414042" d="M329.3-47.9h-4.8c0.2,1.1,1,1.9,2.1,1.9c0.7,0,1.4-0.3,1.8-0.7l0.5,0.5c-0.6,0.6-1.4,1-2.4,1
				c-1.7,0-2.9-1.2-2.9-3c0-1.7,1.2-3,2.9-3C328.4-51.2,329.4-49.8,329.3-47.9z M328.5-48.6c-0.1-1.1-0.8-1.8-2-1.8
				c-1.1,0-1.9,0.7-2,1.8H328.5z"/>
			<path fill="#414042" d="M344.6-48.9v3.6h-0.9v-3.4c0-1-0.6-1.7-1.6-1.7c-1.2,0-1.9,0.9-1.9,2.2v2.9h-0.9v-3.4
				c0-1-0.6-1.7-1.6-1.7c-1.2,0-1.9,0.9-1.9,2.2v2.9h-0.9v-5.9h0.9v1.3c0.4-0.9,1.2-1.3,2.2-1.4c1.1,0,1.9,0.6,2.1,1.5
				c0.4-1,1.2-1.5,2.3-1.5C343.8-51.2,344.6-50.3,344.6-48.9z"/>
			<path fill="#414042" d="M350.7-46.2c-0.5,0.6-1.2,0.9-2.1,0.9c-1.2,0-2-0.8-2-1.8c0-1,0.8-1.7,2.2-1.7h1.9V-49
				c0-0.9-0.5-1.4-1.6-1.4c-0.6,0-1.2,0.2-1.9,0.7l-0.4-0.6c0.8-0.5,1.4-0.8,2.4-0.8c1.4,0,2.2,0.8,2.3,2l0,3.9h-0.8V-46.2z
				 M350.7-47.3V-48h-1.8c-1,0-1.5,0.3-1.5,0.9s0.5,1.1,1.3,1.1C349.7-46,350.5-46.5,350.7-47.3z"/>
			<path fill="#414042" d="M359.1-45.9c0,1.7-1.2,2.8-2.9,2.8c-0.9,0-1.7-0.3-2.4-0.8l0.4-0.7c0.6,0.5,1.2,0.7,2,0.7
				c1.3,0,2.1-0.8,2.1-2v-0.9c-0.4,0.8-1.2,1.2-2.2,1.2c-1.6,0-2.7-1.2-2.7-2.8c0-1.6,1.1-2.8,2.6-2.8c1,0,1.8,0.4,2.2,1.2v-1.2h0.9
				V-45.9z M358.3-48.3c0-1.2-0.8-2.1-2-2.1c-1.2,0-2,0.9-2,2.1c0,1.2,0.8,2.1,2,2.1C357.5-46.3,358.3-47.1,358.3-48.3z"/>
			<path fill="#414042" d="M367-48.9v3.6h-0.9v-3.4c0-1-0.6-1.6-1.7-1.6c-1.2,0-1.9,0.8-2,1.9v3.1h-0.9v-5.9h0.9v1.3
				c0.4-0.9,1.2-1.3,2.3-1.3C366.2-51.2,367-50.3,367-48.9z"/>
			<path fill="#414042" d="M373.2-46.2c-0.5,0.6-1.2,0.9-2.1,0.9c-1.2,0-2-0.8-2-1.8c0-1,0.8-1.7,2.2-1.7h1.9V-49
				c0-0.9-0.5-1.4-1.6-1.4c-0.6,0-1.2,0.2-1.9,0.7l-0.4-0.6c0.8-0.5,1.4-0.8,2.4-0.8c1.4,0,2.2,0.8,2.3,2l0,3.9h-0.8V-46.2z
				 M373.1-47.3V-48h-1.8c-1,0-1.5,0.3-1.5,0.9s0.5,1.1,1.3,1.1C372.2-46,372.9-46.5,373.1-47.3z"/>
			<path fill="#414042" d="M383.7-46.2c-0.5,0.6-1.2,0.9-2.1,0.9c-1.2,0-2-0.8-2-1.8c0-1,0.8-1.7,2.2-1.7h1.9V-49
				c0-0.9-0.5-1.4-1.6-1.4c-0.6,0-1.2,0.2-1.9,0.7l-0.4-0.6c0.8-0.5,1.4-0.8,2.4-0.8c1.4,0,2.2,0.8,2.3,2l0,3.9h-0.8V-46.2z
				 M383.7-47.3V-48h-1.8c-1,0-1.5,0.3-1.5,0.9s0.5,1.1,1.3,1.1C382.7-46,383.5-46.5,383.7-47.3z"/>
			<path fill="#414042" d="M387.1-45.3v-8.2h0.9v8.2H387.1z"/>
			<path fill="#414042" d="M391.7-52.8c0,0.3-0.2,0.6-0.6,0.6c-0.3,0-0.6-0.3-0.6-0.6c0-0.3,0.2-0.6,0.6-0.6
				C391.4-53.4,391.7-53.1,391.7-52.8z M390.7-45.3v-5.9h0.9v5.9H390.7z"/>
			<path fill="#414042" d="M399.6-43.1h-0.9v-3.4c-0.4,0.8-1.2,1.3-2.3,1.3c-1.7,0-2.8-1.2-2.8-3c0-1.8,1.2-3,2.8-3
				c1,0,1.9,0.5,2.3,1.3v-1.3h0.9V-43.1z M398.7-48.2c0-1.3-0.9-2.2-2.1-2.2c-1.2,0-2.1,0.9-2.1,2.2c0,1.3,0.9,2.2,2.1,2.2
				C397.9-46,398.7-46.9,398.7-48.2z"/>
			<path fill="#414042" d="M407.4-45.3h-0.9v-1.3c-0.4,0.9-1.2,1.3-2.2,1.4c-1.4,0-2.2-0.9-2.2-2.3v-3.6h0.9v3.4
				c0,1,0.6,1.6,1.6,1.6c1.2,0,1.9-0.9,1.9-2.1v-2.9h0.9V-45.3z"/>
			<path fill="#414042" d="M413.7-46.2c-0.5,0.6-1.2,0.9-2.1,0.9c-1.2,0-2-0.8-2-1.8c0-1,0.8-1.7,2.2-1.7h1.9V-49
				c0-0.9-0.5-1.4-1.6-1.4c-0.6,0-1.2,0.2-1.9,0.7l-0.4-0.6c0.8-0.5,1.4-0.8,2.4-0.8c1.4,0,2.2,0.8,2.3,2l0,3.9h-0.8V-46.2z
				 M413.7-47.3V-48h-1.8c-1,0-1.5,0.3-1.5,0.9s0.5,1.1,1.3,1.1C412.7-46,413.5-46.5,413.7-47.3z"/>
			<path fill="#414042" d="M417.6-45.8c0,0.3-0.2,0.6-0.5,0.6c-0.3,0-0.5-0.2-0.5-0.6c0-0.3,0.2-0.6,0.5-0.6
				C417.4-46.3,417.6-46.1,417.6-45.8z"/>
		</g>
	</g>
	<g>
		<g>
			
				<circle fill="none" stroke="#231F20" stroke-width="3.2" stroke-linejoin="round" stroke-dasharray="9.9219,9.9219" cx="528.5" cy="128.4" r="66.7"/>
		</g>
		<g>
			
				<rect x="2" y="174" fill="#FFFFFF" stroke="#231F20" stroke-width="3.2" stroke-linejoin="round" stroke-miterlimit="10" width="137.8" height="110"/>
			<rect x="14.2" y="186.2" fill="#EB3249" width="112.2" height="84.4"/>
			<polyline fill="none" stroke="#231F20" stroke-width="3.2" stroke-linejoin="round" stroke-miterlimit="10" points="12.9,242 
				60.3,217.5 106.5,244.1 			"/>
			<polyline fill="none" stroke="#231F20" stroke-width="3.2" stroke-linejoin="round" stroke-miterlimit="10" points="86.7,232.7 
				103.9,217.5 127.5,232.7 			"/>
			<circle fill="#FFFFFF" cx="80.7" cy="202.6" r="10.7"/>
		</g>
		<g>
			<path fill="#C4C6C7" d="M150.8,97.2v-7.8c1.1-0.5,2.8-1,4.1-1.8l5.5,5.5c0.5,0.5,1.4,0.5,1.9,0l7.9-7.9c0.5-0.5,0.5-1.4,0-1.9
				l-5.5-5.9c0.7-1.3,1.3-2.3,1.8-4.6h7.8c0.7,0,1,0,1-0.7V60.9c0-0.7-0.2-1.4-1-1.4h-7.8c-0.4-2.2-1-2.9-1.8-4.2l5.5-5.5
				c0.5-0.5,0.5-1.4,0-1.9l-7.9-7.9c-0.5-0.5-1.4-0.5-1.9,0l-5.4,5.5c-1.3-0.7-3-1.3-4.1-1.8v-7.8c0-0.7-0.8-1.9-1.5-1.9h-11.2
				c-0.7,0-1.7,1.2-1.7,1.9v7.8c-1.1,0.5-2.7,1-4.1,1.8l-5.5-5.5c-0.5-0.5-1.3-0.5-1.9,0l-7.9,7.9c-0.5,0.5-0.5,1.4,0,1.9l5.6,5.5
				c-0.7,1.3-1.3,2-1.8,4.2h-7.8c-0.7,0-2.2,0.7-2.2,1.4v11.2c0,0.7,1.5,0.7,2.2,0.7h7.8c0.5,2.2,1,3.2,1.8,4.6l-5.5,5.7
				c-0.5,0.5-0.5,1.5,0,2l7.9,8c0.5,0.5,1.4,0.5,1.9,0l5.4-5.5c1.3,0.7,3,1.3,4.1,1.8v7.8c0,0.7,0.9,1.2,1.7,1.2h11.2
				C150.1,98.4,150.8,97.9,150.8,97.2z"/>
			<path fill="#F1F2F2" stroke="#231F20" stroke-width="3.2" stroke-linejoin="round" stroke-miterlimit="10" d="M143.4,77
				c-5.6,0-10.1-4.5-10.1-10.1c0-5.6,4.5-10.1,10.1-10.1c5.6,0,10.1,4.5,10.1,10.1C153.5,72.5,149,77,143.4,77z"/>
		</g>
		<g>
			<path fill="#C4C6C7" d="M540.8,182.1v-13.6c2.2-0.8,4.6-1.8,7-3.1l9.4,9.6c0.9,0.9,2.3,0.9,3.2,0l13.7-13.8
				c0.9-0.9,0.9-2.4,0-3.3l-9.6-9.3c1.2-2.3,2.3-5.9,3-7h13.6c1.3,0,1.9-1.8,1.9-3.1v-19.5c0-1.3-0.6-1.9-1.9-1.9h-13.6
				c-0.8-4.4-1.8-5.3-3-7.6l9.6-9.7c0.9-0.9,0.9-2.4,0-3.4l-13.8-13.8c-0.9-0.9-2.4-0.9-3.3,0l-9.2,9.6c-2.3-1.2-4.8-2.3-7-3.1V75.8
				c0-1.3-1.8-2.9-3.1-2.9h-19.5c-1.3,0-3,1.6-3,2.9v13.6c-1.1,0.8-4.7,1.8-7,3.1l-9.5-9.6c-0.9-0.9-2.3-0.9-3.2,0l-13.7,13.8
				c-0.9,0.9-0.9,2.4,0,3.3l9.6,9.8c-1.2,2.3-2.3,3.1-3,7.6h-13.6c-1.3,0-2.9,0.6-2.9,1.9v19.5c0,1.3,1.6,3.1,2.9,3.1h13.6
				c0.8,1.1,1.8,4.7,3.1,7l-9.6,9.4c-0.9,0.9-0.9,2.3,0,3.2l13.8,13.7c0.9,0.9,2.4,0.9,3.3,0l9.3-9.6c2.3,1.2,5.9,2.3,7,3v13.6
				c0,1.3,1.7,3,3,3h19.5C539,185.1,540.8,183.4,540.8,182.1z"/>
			<path fill="#F1F2F2" stroke="#231F20" stroke-width="3.2" stroke-linejoin="round" stroke-miterlimit="10" d="M527.5,147.1
				c-9.6,0-17.5-7.8-17.5-17.5c0-9.7,7.8-17.5,17.5-17.5c9.7,0,17.5,7.8,17.5,17.5C545,139.2,537.2,147.1,527.5,147.1z"/>
		</g>
		<g>
			<g>
				<g>
					<path fill="none" stroke="#231F20" stroke-width="3.2" stroke-linejoin="round" d="M366.5,81c0.4-1.2,0.8-2.5,1.4-3.6"/>
					<path fill="none" stroke="#231F20" stroke-width="3.2" stroke-linejoin="round" stroke-dasharray="6.0714,6.0714" d="M371,71.4
						c1.8-2.8,4-5.4,6.5-7.7"/>
					<path fill="none" stroke="#231F20" stroke-width="3.2" stroke-linejoin="round" d="M380.2,61.5c1-0.8,2.1-1.5,3.2-2.2"/>
				</g>
			</g>
		</g>
		<g>
			<g>
				<g>
					<path fill="none" stroke="#231F20" stroke-width="3.2" stroke-linejoin="round" d="M425.1,59.2c1.1,0.7,2.2,1.4,3.2,2.2"/>
					<path fill="none" stroke="#231F20" stroke-width="3.2" stroke-linejoin="round" stroke-dasharray="6.6453,6.6453" d="
						M433.7,66.4c6.4,7,10.2,16.4,10.2,26.6c0,3.9-0.6,7.7-1.6,11.3"/>
					<path fill="none" stroke="#231F20" stroke-width="3.2" stroke-linejoin="round" d="M441.1,107.8c-0.5,1.2-1,2.4-1.6,3.5"/>
				</g>
			</g>
		</g>
		<g>
			<rect x="224.2" y="284" fill="#BCBEC0" width="63.3" height="42.2"/>
			<g>
				<path fill="#F1F2F2" d="M402,102.9c0-8.8-6.5-16.7-15.7-16.7H124.6c-9.2,0-17.1,7.9-17.1,16.7V234H402V102.9z"/>
				<path fill="#F1F2F2" stroke="#231F20" stroke-width="3.2" stroke-linejoin="round" stroke-miterlimit="10" d="M107.5,234V269
					c0,8.8,7.9,15,17.1,15h261.7c9.2,0,15.7-6.2,15.7-15V234H107.5z"/>
			</g>
			<circle fill="#BCBEC0" cx="255.4" cy="259.1" r="10.3"/>
			
				<rect x="212" y="326.2" fill="#F1F2F2" stroke="#231F20" stroke-width="3.2" stroke-linejoin="round" stroke-miterlimit="10" width="85.6" height="11.1"/>
			
				<rect x="126.4" y="104" fill="#939598" stroke="#231F20" stroke-width="3.2" stroke-linejoin="round" stroke-miterlimit="10" width="257.8" height="130"/>
			<g opacity="0.3">
				<rect x="144.2" y="120.6" fill="#F1F2F2" width="223.3" height="34.4"/>
				<rect x="144.2" y="164" fill="#F1F2F2" width="147.8" height="27.8"/>
				<rect x="306.4" y="164" fill="#F1F2F2" width="60" height="27.8"/>
				<rect x="144.2" y="201.8" fill="#F1F2F2" width="222.2" height="15.6"/>
			</g>
		</g>
		<rect x="386.4" y="150.6" fill="#E6E7E8" width="15.6" height="6.7"/>
		<rect x="107.5" y="221.8" fill="#E6E7E8" width="16.7" height="5.6"/>
		<g>
			<g>
				<path fill="#D1D3D4" d="M75.3,337c0,3,2.3,5.9,5.1,5.9h74.9c2.9,0,5.5-2.8,5.5-5.9v-13H75.3V337z"/>
				<path fill="#D1D3D4" d="M160.8,232.9c0-3-2.6-5.6-5.5-5.6H80.4c-2.9,0-5.1,2.5-5.1,5.6v13.3h85.6V232.9z"/>
				
					<rect x="75.3" y="246.2" fill="#BCBEC0" stroke="#231F20" stroke-width="3.2" stroke-linejoin="round" stroke-miterlimit="10" width="85.6" height="77.8"/>
			</g>
			
				<line fill="#F1F2F2" stroke="#231F20" stroke-width="3.2" stroke-linejoin="round" stroke-miterlimit="10" x1="106.4" y1="237.3" x2="118.6" y2="237.3"/>
			
				<line fill="#F1F2F2" stroke="#231F20" stroke-width="3.2" stroke-linejoin="round" stroke-miterlimit="10" x1="124.2" y1="237.3" x2="129.7" y2="237.3"/>
			<rect x="85.3" y="256.2" opacity="0.8" fill="#FFFFFF" width="64.4" height="32.2"/>
			<rect x="85.3" y="296.2" opacity="0.8" fill="#FFFFFF" width="64.4" height="18.9"/>
			
				<line fill="#F1F2F2" stroke="#231F20" stroke-width="3.2" stroke-linejoin="round" stroke-miterlimit="10" x1="94.2" y1="267.3" x2="106.4" y2="267.3"/>
			
				<line fill="#F1F2F2" stroke="#231F20" stroke-width="3.2" stroke-linejoin="round" stroke-miterlimit="10" x1="94.2" y1="305.1" x2="109.7" y2="305.1"/>
			
				<line fill="#F1F2F2" stroke="#231F20" stroke-width="3.2" stroke-linejoin="round" stroke-miterlimit="10" x1="125.3" y1="305.1" x2="142" y2="305.1"/>
			
				<line fill="#F1F2F2" stroke="#231F20" stroke-width="3.2" stroke-linejoin="round" stroke-miterlimit="10" x1="94.2" y1="276.2" x2="142" y2="276.2"/>
		</g>
		<g>
			<path fill="#D1D3D4" d="M250.8,80.6h10.2c0-18.9,18.5-31.1,18.5-31.1l-28.6-33.4l-28.6,33.5c0,0,18.5,12.1,18.5,31H250.8z"/>
			<g>
				
					<rect x="228.6" y="210.6" fill="#FD8A06" stroke="#231F20" stroke-width="3.2" stroke-linejoin="round" stroke-miterlimit="10" width="42.2" height="23.3"/>
				<polygon fill="#EB3249" stroke="#231F20" stroke-width="3.2" stroke-linejoin="round" stroke-miterlimit="10" points="
					270.8,90.6 267.5,90.6 267.5,80.6 232,80.6 232,90.6 228.6,90.6 228.6,200.6 270.8,200.6 				"/>
				
					<rect x="228.6" y="200.6" fill="#A7A9AC" stroke="#231F20" stroke-width="3.2" stroke-linejoin="round" stroke-miterlimit="10" width="42.2" height="10"/>
			</g>
			
				<line fill="none" stroke="#231F20" stroke-width="3.2" stroke-linejoin="round" stroke-miterlimit="10" x1="230.8" y1="90.6" x2="255.3" y2="90.6"/>
			
				<line fill="none" stroke="#231F20" stroke-width="3.2" stroke-linejoin="round" stroke-miterlimit="10" x1="250.8" y1="16.2" x2="250.8" y2="46.2"/>
			
				<circle fill="#939598" stroke="#231F20" stroke-width="3.2" stroke-linejoin="round" stroke-miterlimit="10" cx="250.9" cy="53.3" r="6.5"/>
		</g>
		<g>
			<g>
				<rect x="286.4" y="50.6" fill="#FD8A06" width="35.6" height="181.1"/>
				
					<line fill="none" stroke="#231F20" stroke-width="3.2" stroke-linejoin="round" stroke-miterlimit="10" x1="306.4" y1="64" x2="287.5" y2="64"/>
				
					<line fill="none" stroke="#231F20" stroke-width="3.2" stroke-linejoin="round" stroke-miterlimit="10" x1="302" y1="77.3" x2="287.5" y2="77.3"/>
				
					<line fill="none" stroke="#231F20" stroke-width="3.2" stroke-linejoin="round" stroke-miterlimit="10" x1="306.4" y1="92.9" x2="287.5" y2="92.9"/>
				
					<line fill="none" stroke="#231F20" stroke-width="3.2" stroke-linejoin="round" stroke-miterlimit="10" x1="302" y1="109.5" x2="287.5" y2="109.5"/>
				
					<line fill="none" stroke="#231F20" stroke-width="3.2" stroke-linejoin="round" stroke-miterlimit="10" x1="306.4" y1="124" x2="287.5" y2="124"/>
				
					<line fill="none" stroke="#231F20" stroke-width="3.2" stroke-linejoin="round" stroke-miterlimit="10" x1="302" y1="141.8" x2="287.5" y2="141.8"/>
				
					<line fill="none" stroke="#231F20" stroke-width="3.2" stroke-linejoin="round" stroke-miterlimit="10" x1="306.4" y1="157.3" x2="287.5" y2="157.3"/>
				
					<line fill="none" stroke="#231F20" stroke-width="3.2" stroke-linejoin="round" stroke-miterlimit="10" x1="302" y1="172.9" x2="287.5" y2="172.9"/>
				
					<line fill="none" stroke="#231F20" stroke-width="3.2" stroke-linejoin="round" stroke-miterlimit="10" x1="306.4" y1="188.4" x2="287.5" y2="188.4"/>
				
					<line fill="none" stroke="#231F20" stroke-width="3.2" stroke-linejoin="round" stroke-miterlimit="10" x1="302" y1="202.9" x2="287.5" y2="202.9"/>
				
					<line fill="none" stroke="#231F20" stroke-width="3.2" stroke-linejoin="round" stroke-miterlimit="10" x1="306.4" y1="220.6" x2="287.5" y2="220.6"/>
			</g>
			
				<line fill="none" stroke="#231F20" stroke-width="3.2" stroke-linejoin="round" stroke-miterlimit="10" x1="286.4" y1="50.6" x2="286.4" y2="231.8"/>
		</g>
		<g>
			<g>
				<rect x="195.3" y="207.3" fill="#D1D3D4" width="22.2" height="5.6"/>
				<rect x="195.3" y="89.5" fill="#EB3249" width="22.2" height="117.8"/>
				
					<rect x="196.4" y="212.9" fill="#939598" stroke="#231F20" stroke-width="3.2" stroke-linejoin="round" stroke-miterlimit="10" width="20" height="21.1"/>
			</g>
			<polygon fill="#F1F2F2" stroke="#231F20" stroke-width="3.2" stroke-linejoin="round" stroke-miterlimit="10" points="
				206.9,68.1 196.6,89.5 217.2,89.5 			"/>
			
				<line fill="none" stroke="#231F20" stroke-width="3.2" stroke-linejoin="round" stroke-miterlimit="10" x1="205.3" y1="89.5" x2="205.3" y2="198.4"/>
		</g>
		<g>
			<path fill="#D1D3D4" d="M527.5,167.9c0-5.9-4.5-10.6-10.4-10.6H308.6c-5.9,0-11.1,4.6-11.1,10.6v152.8h230V167.9z"/>
			<path fill="#F1F2F2" stroke="#231F20" stroke-width="3.2" stroke-linejoin="round" stroke-miterlimit="10" d="M280.8,320.6v10.6
				c0,5.9,5.2,10.5,12,10.5h240.1c6.8,0,12.4-4.6,12.4-10.5v-10.6H280.8z"/>
			
				<rect x="314.2" y="170.6" fill="#FD8A06" stroke="#231F20" stroke-width="3.2" stroke-linejoin="round" stroke-miterlimit="10" width="197.8" height="133.3"/>
			
				<line fill="none" stroke="#231F20" stroke-width="3.2" stroke-linejoin="round" stroke-miterlimit="10" x1="399.7" y1="331.8" x2="425.3" y2="331.8"/>
			<g opacity="0.3">
				<rect x="327.5" y="182.9" fill="#FFFFFF" width="173.3" height="35.6"/>
				<rect x="327.5" y="229.5" fill="#FFFFFF" width="114.4" height="31.1"/>
				<rect x="453.1" y="229.5" fill="#FFFFFF" width="46.7" height="31.1"/>
				<rect x="327.5" y="270.6" fill="#FFFFFF" width="172.2" height="17.8"/>
			</g>
		</g>
		<g>
			
				<rect x="410.8" y="118.4" fill="#FFFFFF" stroke="#231F20" stroke-width="3.2" stroke-linejoin="round" stroke-miterlimit="10" width="87.8" height="68.9"/>
			<rect x="420.8" y="125.1" fill="#EB3249" width="68.9" height="53.3"/>
			<polyline fill="none" stroke="#231F20" stroke-width="3.2" stroke-linejoin="round" stroke-miterlimit="10" points="417.8,161 
				447.5,145.5 476.6,162.3 			"/>
			<polyline fill="none" stroke="#231F20" stroke-width="3.2" stroke-linejoin="round" stroke-miterlimit="10" points="464.2,155.1 
				475,145.5 489.8,155.1 			"/>
			<circle fill="#FFFFFF" cx="460.4" cy="136.2" r="6.7"/>
		</g>
		
			<line fill="none" stroke="#231F20" stroke-width="3.2" stroke-linejoin="round" stroke-miterlimit="10" x1="337.5" y1="279.5" x2="349.7" y2="279.5"/>
		
			<line fill="none" stroke="#231F20" stroke-width="3.2" stroke-linejoin="round" stroke-miterlimit="10" x1="366.4" y1="279.5" x2="376.4" y2="279.5"/>
		
			<line fill="none" stroke="#231F20" stroke-width="3.2" stroke-linejoin="round" stroke-miterlimit="10" x1="393.1" y1="279.5" x2="405.3" y2="279.5"/>
		
			<line fill="none" stroke="#231F20" stroke-width="3.2" stroke-linejoin="round" stroke-miterlimit="10" x1="420.8" y1="279.5" x2="433.1" y2="279.5"/>
		
			<line fill="none" stroke="#231F20" stroke-width="3.2" stroke-linejoin="round" stroke-miterlimit="10" x1="393.1" y1="210.6" x2="398.6" y2="210.6"/>
		
			<line fill="none" stroke="#231F20" stroke-width="3.2" stroke-linejoin="round" stroke-miterlimit="10" x1="407.5" y1="210.6" x2="414.2" y2="210.6"/>
		
			<line fill="none" stroke="#231F20" stroke-width="3.2" stroke-linejoin="round" stroke-miterlimit="10" x1="423.1" y1="210.6" x2="428.6" y2="210.6"/>
		
			<line fill="none" stroke="#231F20" stroke-width="3.2" stroke-linejoin="round" stroke-miterlimit="10" x1="448.6" y1="279.5" x2="459.7" y2="279.5"/>
		
			<line fill="none" stroke="#231F20" stroke-width="3.2" stroke-linejoin="round" stroke-miterlimit="10" x1="475.3" y1="279.5" x2="487.5" y2="279.5"/>
		<polyline fill="none" stroke="#231F20" stroke-width="3.2" stroke-linejoin="round" stroke-miterlimit="10" points="327.5,229.5 
			327.5,260.6 442,260.6 		"/>
		<g>
			
				<line fill="none" stroke="#231F20" stroke-width="3.2" stroke-linejoin="round" stroke-miterlimit="10" x1="498.6" y1="256.2" x2="470.8" y2="256.2"/>
			
				<line fill="none" stroke="#231F20" stroke-width="3.2" stroke-linejoin="round" stroke-miterlimit="10" x1="464.2" y1="256.2" x2="454.2" y2="256.2"/>
			
				<line fill="none" stroke="#231F20" stroke-width="3.2" stroke-linejoin="round" stroke-miterlimit="10" x1="498.6" y1="246.2" x2="470.8" y2="246.2"/>
			
				<line fill="none" stroke="#231F20" stroke-width="3.2" stroke-linejoin="round" stroke-miterlimit="10" x1="464.2" y1="246.2" x2="454.2" y2="246.2"/>
			
				<line fill="none" stroke="#231F20" stroke-width="3.2" stroke-linejoin="round" stroke-miterlimit="10" x1="498.6" y1="231.8" x2="470.8" y2="231.8"/>
			
				<line fill="none" stroke="#231F20" stroke-width="3.2" stroke-linejoin="round" stroke-miterlimit="10" x1="464.2" y1="231.8" x2="454.2" y2="231.8"/>
		</g>
		<g>
			<polygon fill="#FD8A06" points="165.3,117.3 70.8,117.3 70.8,178.4 120.8,178.4 120.8,202 143.9,178.4 165.3,178.4 			"/>
			<polyline fill="none" stroke="#231F20" stroke-width="3.2" stroke-linejoin="round" stroke-miterlimit="10" points="100.2,136.1 
				89.6,146.8 100.5,157.7 			"/>
			<polyline fill="none" stroke="#231F20" stroke-width="3.2" stroke-linejoin="round" stroke-miterlimit="10" points="136.8,158.2 
				148,147.1 136.8,135.9 			"/>
			
				<line fill="none" stroke="#231F20" stroke-width="3.2" stroke-linejoin="round" stroke-miterlimit="10" x1="110.9" y1="166.3" x2="128.1" y2="127.5"/>
		</g>
		<g>
			<path fill="#FD8A06" d="M376.1,94.8c0,15.7,12.8,28.5,28.5,28.5c15.7,0,28.7-12.7,28.7-28.5c0-12.5-8-23.1-19.1-26.9V49.5h-18.9
				v18.4C384.2,71.7,376.1,82.3,376.1,94.8z"/>
			
				<rect x="395.3" y="37.3" fill="#BCBEC0" stroke="#231F20" stroke-width="3.2" stroke-linejoin="round" stroke-miterlimit="10" width="18.9" height="12.2"/>
			
				<line fill="none" stroke="#231F20" stroke-width="3.2" stroke-linejoin="round" stroke-miterlimit="10" x1="405.3" y1="49.5" x2="405.3" y2="96.2"/>
			
				<line fill="none" stroke="#231F20" stroke-width="3.2" stroke-linejoin="round" stroke-miterlimit="10" x1="409.7" y1="96.2" x2="397.5" y2="96.2"/>
			<path fill="none" stroke="#231F20" stroke-width="3.2" stroke-linejoin="round" stroke-miterlimit="10" d="M417.4,109.4
				c0,0,9.6-6.7,6-19.6"/>
			
				<line fill="none" stroke="#231F20" stroke-width="3.2" stroke-linejoin="round" stroke-miterlimit="10" x1="414.2" y1="29.5" x2="395.3" y2="29.5"/>
			
				<line fill="none" stroke="#231F20" stroke-width="3.2" stroke-linejoin="round" stroke-miterlimit="10" x1="414.2" y1="22.9" x2="395.3" y2="22.9"/>
			
				<line fill="none" stroke="#231F20" stroke-width="3.2" stroke-linejoin="round" stroke-miterlimit="10" x1="394.2" y1="1.8" x2="418.6" y2="1.8"/>
			
				<line fill="none" stroke="#231F20" stroke-width="3.2" stroke-linejoin="round" stroke-miterlimit="10" x1="405.3" y1="22.9" x2="405.3" y2="1.8"/>
		</g>
		
			<line fill="none" stroke="#231F20" stroke-width="3.2" stroke-linejoin="round" stroke-miterlimit="10" x1="104.2" y1="85.1" x2="66.4" y2="85.1"/>
		
			<line fill="none" stroke="#231F20" stroke-width="3.2" stroke-linejoin="round" stroke-miterlimit="10" x1="99.7" y1="66.2" x2="47.5" y2="66.2"/>
		
			<line fill="none" stroke="#231F20" stroke-width="3.2" stroke-linejoin="round" stroke-miterlimit="10" x1="102" y1="45.1" x2="80.8" y2="45.1"/>
		<g>
			<polygon fill="#E6E7E8" points="560.8,216.2 480.8,216.2 480.8,270.6 522,270.6 522,290.5 542.5,270.6 560.8,270.6 			"/>
			
				<line fill="none" stroke="#231F20" stroke-width="3.2" stroke-linejoin="round" stroke-miterlimit="10" x1="490.8" y1="227.3" x2="506.4" y2="227.3"/>
			
				<line fill="none" stroke="#231F20" stroke-width="3.2" stroke-linejoin="round" stroke-miterlimit="10" x1="490.8" y1="239.5" x2="552" y2="239.5"/>
			
				<line fill="none" stroke="#231F20" stroke-width="3.2" stroke-linejoin="round" stroke-miterlimit="10" x1="490.8" y1="251.8" x2="552" y2="251.8"/>
			
				<line fill="none" stroke="#231F20" stroke-width="3.2" stroke-linejoin="round" stroke-miterlimit="10" x1="490.8" y1="261.8" x2="504.2" y2="261.8"/>
			
				<line fill="none" stroke="#231F20" stroke-width="3.2" stroke-linejoin="round" stroke-miterlimit="10" x1="513.1" y1="261.8" x2="529.7" y2="261.8"/>
			
				<line fill="none" stroke="#231F20" stroke-width="3.2" stroke-linejoin="round" stroke-miterlimit="10" x1="535.3" y1="261.8" x2="552" y2="261.8"/>
			
				<line fill="none" stroke="#231F20" stroke-width="3.2" stroke-linejoin="round" stroke-miterlimit="10" x1="514.2" y1="227.3" x2="552" y2="227.3"/>
		</g>
		<g>
			<polygon fill="#E6E7E8" points="26.4,145.1 80.8,145.1 80.8,109.5 52,109.5 52,96.4 38.8,109.5 26.4,109.5 			"/>
			
				<line fill="none" stroke="#231F20" stroke-width="3.2" stroke-linejoin="round" stroke-miterlimit="10" x1="33.1" y1="126.2" x2="42" y2="126.2"/>
			
				<line fill="none" stroke="#231F20" stroke-width="3.2" stroke-linejoin="round" stroke-miterlimit="10" x1="49.7" y1="126.2" x2="57.5" y2="126.2"/>
			
				<line fill="none" stroke="#231F20" stroke-width="3.2" stroke-linejoin="round" stroke-miterlimit="10" x1="65.3" y1="126.2" x2="73.1" y2="126.2"/>
		</g>
		
			<line fill="none" stroke="#231F20" stroke-width="3.2" stroke-linejoin="round" stroke-miterlimit="10" x1="438.6" y1="40.6" x2="454.2" y2="40.6"/>
		
			<line fill="none" stroke="#231F20" stroke-width="3.2" stroke-linejoin="round" stroke-miterlimit="10" x1="458.6" y1="40.6" x2="464.2" y2="40.6"/>
		
			<line fill="none" stroke="#231F20" stroke-width="3.2" stroke-linejoin="round" stroke-miterlimit="10" x1="370.8" y1="16.2" x2="350.8" y2="16.2"/>
		
			<line fill="none" stroke="#231F20" stroke-width="3.2" stroke-linejoin="round" stroke-miterlimit="10" x1="344.2" y1="16.2" x2="337.5" y2="16.2"/>
		
			<line fill="none" stroke="#231F20" stroke-width="3.2" stroke-linejoin="round" stroke-miterlimit="10" x1="458.6" y1="17.3" x2="439.7" y2="17.3"/>
		
			<line fill="none" stroke="#231F20" stroke-width="3.2" stroke-linejoin="round" stroke-miterlimit="10" x1="433.1" y1="17.3" x2="426.4" y2="17.3"/>
		
			<line fill="none" stroke="#231F20" stroke-width="3.2" stroke-linejoin="round" stroke-miterlimit="10" x1="353.1" y1="39.5" x2="368.6" y2="39.5"/>
		
			<line fill="none" stroke="#231F20" stroke-width="3.2" stroke-linejoin="round" stroke-miterlimit="10" x1="373.1" y1="39.5" x2="378.6" y2="39.5"/>
	</g>
	<g>
		
			<line fill="none" stroke="#231F20" stroke-width="3.2" stroke-linejoin="round" stroke-miterlimit="10" stroke-dasharray="7" x1="437.8" y1="655.7" x2="437.8" y2="741.9"/>
		
			<line fill="none" stroke="#231F20" stroke-width="3.2" stroke-linejoin="round" stroke-miterlimit="10" stroke-dasharray="7" x1="88.6" y1="683.7" x2="88.6" y2="812"/>
		<g>
			<g>
				<line fill="none" stroke="#231F20" stroke-width="3.2" stroke-linejoin="round" x1="136" y1="632" x2="139.9" y2="632"/>
				
					<line fill="none" stroke="#231F20" stroke-width="3.2" stroke-linejoin="round" stroke-dasharray="7.1162,7.1162" x1="147.8" y1="632" x2="412.7" y2="632"/>
				<line fill="none" stroke="#231F20" stroke-width="3.2" stroke-linejoin="round" x1="416.6" y1="632" x2="420.5" y2="632"/>
			</g>
		</g>
		<g>
			<g>
				<rect x="619.9" y="738.7" fill="#BCBEC0" width="23.7" height="21.6"/>
				
					<line fill="none" stroke="#231F20" stroke-width="3.2" stroke-linejoin="round" stroke-miterlimit="10" x1="610.2" y1="755.9" x2="574.6" y2="755.9"/>
				
					<line fill="none" stroke="#231F20" stroke-width="3.2" stroke-linejoin="round" stroke-miterlimit="10" x1="610.2" y1="743" x2="560.6" y2="743"/>
			</g>
			
				<line fill="none" stroke="#231F20" stroke-width="3.2" stroke-linejoin="round" stroke-miterlimit="10" x1="643.1" y1="760.2" x2="619.8" y2="738.1"/>
		</g>
		<g>
			
				<rect x="483" y="768.8" fill="#F1F2F2" stroke="#231F20" stroke-width="3.2" stroke-linejoin="round" stroke-miterlimit="10" width="157.3" height="41"/>
			
				<rect x="483" y="809.8" fill="#D1D3D4" stroke="#231F20" stroke-width="3.2" stroke-linejoin="round" stroke-miterlimit="10" width="157.3" height="41"/>
			
				<rect x="483" y="850.8" fill="#F1F2F2" stroke="#231F20" stroke-width="3.2" stroke-linejoin="round" stroke-miterlimit="10" width="157.3" height="41"/>
			<circle fill="#FFFFFF" cx="610.2" cy="829.2" r="9.2"/>
			<circle fill="#FFFFFF" cx="581.1" cy="829.2" r="9.2"/>
			
				<line fill="none" stroke="#231F20" stroke-width="3.2" stroke-linejoin="round" stroke-miterlimit="10" x1="505.7" y1="864.8" x2="618.8" y2="864.8"/>
			
				<line fill="none" stroke="#231F20" stroke-width="3.2" stroke-linejoin="round" stroke-miterlimit="10" x1="505.7" y1="875.5" x2="618.8" y2="875.5"/>
			
				<line fill="none" stroke="#231F20" stroke-width="3.2" stroke-linejoin="round" stroke-miterlimit="10" x1="505.7" y1="822.7" x2="505.7" y2="835.7"/>
			
				<line fill="none" stroke="#231F20" stroke-width="3.2" stroke-linejoin="round" stroke-miterlimit="10" x1="516.4" y1="822.7" x2="516.4" y2="835.7"/>
			
				<line fill="none" stroke="#231F20" stroke-width="3.2" stroke-linejoin="round" stroke-miterlimit="10" x1="527.2" y1="822.7" x2="527.2" y2="835.7"/>
			
				<line fill="none" stroke="#231F20" stroke-width="3.2" stroke-linejoin="round" stroke-miterlimit="10" x1="538" y1="822.7" x2="538" y2="835.7"/>
			
				<line fill="none" stroke="#231F20" stroke-width="3.2" stroke-linejoin="round" stroke-miterlimit="10" x1="548.8" y1="822.7" x2="548.8" y2="835.7"/>
			
				<line fill="none" stroke="#231F20" stroke-width="3.2" stroke-linejoin="round" stroke-miterlimit="10" x1="577.9" y1="829.2" x2="584.3" y2="829.2"/>
			
				<line fill="none" stroke="#231F20" stroke-width="3.2" stroke-linejoin="round" stroke-miterlimit="10" x1="607" y1="829.2" x2="613.4" y2="829.2"/>
			<rect x="613.4" y="781.8" fill="#A7A9AC" width="4.3" height="14"/>
			<rect x="602.6" y="781.8" fill="#3B9ADA" width="4.3" height="14"/>
			<rect x="591.9" y="781.8" fill="#FFA432" width="4.3" height="14"/>
			<rect x="581.1" y="781.8" fill="#3B9ADA" width="4.3" height="14"/>
			<rect x="570.3" y="781.8" fill="#FFA432" width="4.3" height="14"/>
			
				<line fill="none" stroke="#231F20" stroke-width="3.2" stroke-linejoin="round" stroke-miterlimit="10" x1="498.1" y1="782.9" x2="561.7" y2="782.9"/>
			
				<line fill="none" stroke="#231F20" stroke-width="3.2" stroke-linejoin="round" stroke-miterlimit="10" x1="498.1" y1="793.6" x2="561.7" y2="793.6"/>
		</g>
		<g>
			<polygon fill="none" stroke="#231F20" stroke-width="3.2" stroke-linejoin="round" stroke-miterlimit="10" points="505.7,683.7 
				505.7,649.2 491.6,649.2 491.6,683.7 466.9,683.7 466.9,696.6 530.4,696.6 530.4,683.7 			"/>
			
				<line fill="none" stroke="#231F20" stroke-width="3.2" stroke-linejoin="round" stroke-miterlimit="10" x1="491.6" y1="683.7" x2="498.1" y2="683.7"/>
			
				<line fill="none" stroke="#231F20" stroke-width="3.2" stroke-linejoin="round" stroke-miterlimit="10" x1="530.4" y1="690.2" x2="545.5" y2="690.2"/>
			
				<line fill="none" stroke="#231F20" stroke-width="3.2" stroke-linejoin="round" stroke-miterlimit="10" x1="451.8" y1="690.2" x2="466.9" y2="690.2"/>
		</g>
		<g>
			<path fill="#FFFFFF" d="M393.4,619.3c10.1,0,19.5,3,27.3,8.4c5.3-6,12.5-10.2,20.7-11.6c-0.3-2.3-0.5-4.7-0.5-7.1
				c0-26.6,21.5-48.1,48.1-48.1c26.5,0,48.1,21.5,48.1,48.1c0,3.9-0.5,7.7-1.4,11.4c3.6-0.8,7.3-1.1,11.1-1.1
				c26.6,0,48.1,21.3,48.1,48.2H345.4C345.4,640.6,366.9,619.3,393.4,619.3z"/>
			<path fill="#D1D3D4" stroke="#231F20" stroke-width="3.2" stroke-linejoin="round" stroke-miterlimit="10" d="M594,667.2"/>
			<path fill="#D1D3D4" stroke="#231F20" stroke-width="3.2" stroke-linejoin="round" stroke-miterlimit="10" d="M535.7,620.4
				c0,0-5.9,4.7-7.8,5.7"/>
			<path fill="#D1D3D4" stroke="#231F20" stroke-width="3.2" stroke-linejoin="round" stroke-miterlimit="10" d="M420.7,627.6
				c0,0,2.7,4.5,2.8,8"/>
		</g>
		<g>
			<path fill="#FFFFFF" d="M192.7,656.2c-9.2,0-17.7,2.8-24.7,7.6c-4.8-5.4-11.3-9.2-18.7-10.5c0.3-2.1,0.5-4.2,0.5-6.4
				c0-24-19.5-43.5-43.5-43.5c-24,0-43.5,19.5-43.5,43.5c0,3.5,0.4,7,1.2,10.3c-3.2-0.8-6.6-1.1-10-1.1c-24,0-43.5,18.8-43.5,43.6
				h225.8C236.2,675.1,216.7,656.2,192.7,656.2z"/>
			<path fill="#D1D3D4" stroke="#231F20" stroke-width="3.2" stroke-linejoin="round" stroke-miterlimit="10" d="M11.1,699.6"/>
			<path fill="#D1D3D4" stroke="#231F20" stroke-width="3.2" stroke-linejoin="round" stroke-miterlimit="10" d="M63.9,657.3
				c0,0,5.3,4.3,7.1,5.2"/>
			<path fill="#D1D3D4" stroke="#231F20" stroke-width="3.2" stroke-linejoin="round" stroke-miterlimit="10" d="M168,663.8
				c0,0-2.4,4.1-2.5,7.3"/>
		</g>
		<g>
			<rect x="248.1" y="835.7" fill="#D1D3D4" width="61.4" height="41"/>
			<g>
				<path fill="#D1D3D4" d="M420.5,660c0-8.5-6.3-16.2-15.2-16.2H151.5c-8.9,0-16.6,7.7-16.6,16.2v127.1h285.6V660z"/>
				<path fill="#F1F2F2" stroke="#231F20" stroke-width="3.2" stroke-linejoin="round" stroke-miterlimit="10" d="M134.9,787.2v34
					c0,8.5,7.7,14.5,16.6,14.5h253.8c8.9,0,15.2-6,15.2-14.5v-34H134.9z"/>
			</g>
			<path fill="#BCBEC0" d="M288.3,811.5c0,5.5-4.5,10-10,10c-5.5,0-10-4.5-10-10c0-5.5,4.5-10,10-10
				C283.9,801.6,288.3,806,288.3,811.5z"/>
			
				<rect x="236.2" y="876.6" fill="#F1F2F2" stroke="#231F20" stroke-width="3.2" stroke-linejoin="round" stroke-miterlimit="10" width="83" height="10.8"/>
			
				<rect x="153.2" y="661.1" fill="#FFA432" stroke="#231F20" stroke-width="3.2" stroke-linejoin="round" stroke-miterlimit="10" width="250" height="126.1"/>
			<g opacity="0.5">
				<rect x="170.5" y="677.2" fill="#F79234" width="216.6" height="33.4"/>
				<rect x="264.2" y="719.3" fill="#F79234" width="49.6" height="26.9"/>
				<rect x="171.6" y="719.3" fill="#F79234" width="79.8" height="26.9"/>
				<rect x="327.8" y="719.3" fill="#F79234" width="58.2" height="26.9"/>
				<rect x="170.5" y="754.8" fill="#F79234" width="215.5" height="19.5"/>
			</g>
		</g>
		<g>
			<path fill="#D1D3D4" d="M542.3,723c0-5.7-4.3-10.2-10.1-10.2H330c-5.7,0-10.8,4.5-10.8,10.2v148.2h223.1V723z"/>
			<path fill="#F1F2F2" stroke="#231F20" stroke-width="3.2" stroke-linejoin="round" stroke-miterlimit="10" d="M303,871.2v10.3
				c0,5.7,5,10.2,11.6,10.2h232.8c6.6,0,12-4.5,12-10.2v-10.3H303z"/>
			
				<rect x="335.4" y="725.7" fill="#18AFFE" stroke="#231F20" stroke-width="3.2" stroke-linejoin="round" stroke-miterlimit="10" width="191.8" height="129.3"/>
			
				<line fill="none" stroke="#231F20" stroke-width="3.2" stroke-linejoin="round" stroke-miterlimit="10" x1="418.4" y1="882" x2="443.1" y2="882"/>
			<rect x="494.9" y="737.6" opacity="0.2" fill="#FFFFFF" width="21.6" height="34.5"/>
			<rect x="348.3" y="737.6" opacity="0.2" fill="#FFFFFF" width="140.1" height="34.5"/>
			<rect x="348.3" y="782.9" opacity="0.2" fill="#FFFFFF" width="37.7" height="30.2"/>
			<rect x="393.6" y="782.9" opacity="0.2" fill="#FFFFFF" width="121.8" height="30.2"/>
			<rect x="348.3" y="822.7" opacity="0.2" fill="#FFFFFF" width="167" height="17.2"/>
		</g>
		<g>
			
				<rect x="49.8" y="769.9" fill="#F1F2F2" stroke="#231F20" stroke-width="3.2" stroke-linejoin="round" stroke-miterlimit="10" width="157.3" height="41"/>
			
				<rect x="49.8" y="810.9" fill="#D1D3D4" stroke="#231F20" stroke-width="3.2" stroke-linejoin="round" stroke-miterlimit="10" width="157.3" height="41"/>
			
				<rect x="49.8" y="851.8" fill="#F1F2F2" stroke="#231F20" stroke-width="3.2" stroke-linejoin="round" stroke-miterlimit="10" width="157.3" height="41"/>
			<circle fill="#FFFFFF" cx="176.9" cy="830.3" r="9.2"/>
			<circle fill="#FFFFFF" cx="147.8" cy="830.3" r="9.2"/>
			
				<line fill="none" stroke="#231F20" stroke-width="3.2" stroke-linejoin="round" stroke-miterlimit="10" x1="72.4" y1="865.8" x2="185.6" y2="865.8"/>
			
				<line fill="none" stroke="#231F20" stroke-width="3.2" stroke-linejoin="round" stroke-miterlimit="10" x1="72.4" y1="876.6" x2="185.6" y2="876.6"/>
			
				<line fill="none" stroke="#231F20" stroke-width="3.2" stroke-linejoin="round" stroke-miterlimit="10" x1="72.4" y1="823.8" x2="72.4" y2="836.7"/>
			
				<line fill="none" stroke="#231F20" stroke-width="3.2" stroke-linejoin="round" stroke-miterlimit="10" x1="83.2" y1="823.8" x2="83.2" y2="836.7"/>
			
				<line fill="none" stroke="#231F20" stroke-width="3.2" stroke-linejoin="round" stroke-miterlimit="10" x1="94" y1="823.8" x2="94" y2="836.7"/>
			
				<line fill="none" stroke="#231F20" stroke-width="3.2" stroke-linejoin="round" stroke-miterlimit="10" x1="104.7" y1="823.8" x2="104.7" y2="836.7"/>
			
				<line fill="none" stroke="#231F20" stroke-width="3.2" stroke-linejoin="round" stroke-miterlimit="10" x1="115.5" y1="823.8" x2="115.5" y2="836.7"/>
			
				<line fill="none" stroke="#231F20" stroke-width="3.2" stroke-linejoin="round" stroke-miterlimit="10" x1="144.6" y1="830.3" x2="151.1" y2="830.3"/>
			
				<line fill="none" stroke="#231F20" stroke-width="3.2" stroke-linejoin="round" stroke-miterlimit="10" x1="173.7" y1="830.3" x2="180.2" y2="830.3"/>
			<rect x="180.2" y="782.9" fill="#A7A9AC" width="4.3" height="14"/>
			<rect x="169.4" y="782.9" fill="#3B9ADA" width="4.3" height="14"/>
			<rect x="158.6" y="782.9" fill="#FFA432" width="4.3" height="14"/>
			<rect x="147.8" y="782.9" fill="#3B9ADA" width="4.3" height="14"/>
			<rect x="137.1" y="782.9" fill="#FFA432" width="4.3" height="14"/>
			
				<line fill="none" stroke="#231F20" stroke-width="3.2" stroke-linejoin="round" stroke-miterlimit="10" x1="64.9" y1="783.9" x2="128.4" y2="783.9"/>
			
				<line fill="none" stroke="#231F20" stroke-width="3.2" stroke-linejoin="round" stroke-miterlimit="10" x1="64.9" y1="794.7" x2="128.4" y2="794.7"/>
		</g>
		<g>
			<path fill="#FFA432" d="M12.1,839.7c-11.5,0-20.8,9.3-20.8,20.8c0,6.3,2.8,11.9,7.2,15.7c2.4-2.4,6.3-4.2,8.2-5.1
				c1.7-0.8,2.3-2.1,2.4-3.1c-2.1-1.5-3.5-3.9-3.5-5.7v-8.8c0,0-0.8-7.3,6.5-7.3c7.3,0,6.5,7.3,6.5,7.3v8.8c0,1.9-1,4.3-3.1,5.7
				c0.2,0.9,0.9,2.3,2.7,3.1c1.8,0.8,5.5,2.5,7.9,4.7c4.2-3.8,6.8-9.3,6.8-15.4C32.9,849,23.6,839.7,12.1,839.7z"/>
			<path fill="none" stroke="#231F20" stroke-width="3.2" stroke-linejoin="round" stroke-miterlimit="10" d="M16.4,868
				C16.4,868,16.4,868,16.4,868c0,0-0.7,0-0.7,0c2.1-1.5,2.8-3.9,2.8-5.7v-8.8c0,0,0.8-7.3-6.5-7.3c-7.3,0-6.5,7.3-6.5,7.3v8.8
				c0,1.9,1.4,4.3,3.5,5.7c0,0,0,0,0,0c0,0,0,0,0,0c-0.2,0.9-0.7,2.3-2.4,3.1c-1.9,0.8-5.8,2.6-8.2,5.1c3.7,3.2,8.4,5.1,13.6,5.1
				c5.4,0,10.3-2.1,14-5.4c-2.4-2.2-5.8-3.9-7.6-4.7C16.8,870.3,16.4,869,16.4,868z"/>
		</g>
		<g>
			<path fill="#18AFFE" d="M123.7,694.2c-14.2,0-25.6,11.5-25.6,25.6c0,7.7,3.4,14.6,8.8,19.3c3-3,7.8-5.2,10.1-6.2
				c2.1-1,2.8-2.6,3-3.8c-2.5-1.8-4.4-4.8-4.4-7.1v-10.8c0,0-0.9-9,8.1-9c9,0,8.1,9,8.1,9v10.8c0,2.3-1.3,5.3-3.8,7.1
				c0.2,1.1,1.1,2.8,3.2,3.8c2.2,1,6.8,3.1,9.8,5.8c5.1-4.7,8.4-11.4,8.4-18.9C149.3,705.7,137.8,694.2,123.7,694.2z"/>
			<path fill="none" stroke="#231F20" stroke-width="3.2" stroke-linejoin="round" stroke-miterlimit="10" d="M128.3,729.2
				C128.3,729.2,128.3,729.1,128.3,729.2c0,0-0.5,0-0.5,0c2.5-1.8,3.8-4.8,3.8-7.1v-10.8c0,0,0.9-9-8.1-9c-9,0-8.1,9-8.1,9v10.8
				c0,2.3,1.8,5.3,4.4,7.1c0,0,0,0,0,0c0,0,0,0,0,0c-0.2,1.1-0.8,2.8-3,3.8c-2.3,1-7.1,3.3-10.1,6.2c4.5,3.9,10.4,6.3,16.8,6.3
				c6.7,0,12.7-2.5,17.3-6.7c-3-2.8-7.5-4.8-9.7-5.8C129.2,732,128.5,730.3,128.3,729.2z"/>
		</g>
		<g>
			<path fill="#FFA432" d="M116,593.6c-11.9,0-21.5,9.6-21.5,21.5c0,6.5,2.9,12.3,7.4,16.2c2.5-2.5,6.5-4.4,8.5-5.2
				c1.8-0.8,2.3-2.2,2.5-3.2c-2.1-1.5-3.7-4-3.7-5.9v-9.1c0,0-0.5-7.5,7-7.5c7.5,0,7,7.5,7,7.5v9.1c0,1.9-1.3,4.4-3.4,5.9
				c0.2,1,0.8,2.4,2.6,3.2c1.8,0.8,5.6,2.6,8.2,4.9c4.3-3.9,7-9.6,7-15.9C137.4,603.2,127.8,593.6,116,593.6z"/>
			<path fill="none" stroke="#231F20" stroke-width="3.2" stroke-linejoin="round" stroke-miterlimit="10" d="M119.9,622.9
				C119.9,622.9,119.8,622.9,119.9,622.9c0,0-0.2,0-0.2,0c2.1-1.5,3.4-4,3.4-5.9v-9.1c0,0,0.5-7.5-7-7.5c-7.5,0-7,7.5-7,7.5v9.1
				c0,1.9,1.6,4.4,3.7,5.9c0,0,0,0,0,0c0,0,0,0,0,0c-0.2,1-0.7,2.4-2.5,3.2c-1.9,0.9-6,2.7-8.5,5.2c3.8,3.3,8.7,5.3,14.1,5.3
				c5.6,0,10.7-2.1,14.5-5.6c-2.5-2.3-6.3-4.1-8.1-4.9C120.6,625.3,120,623.9,119.9,622.9z"/>
		</g>
		<g>
			
				<rect x="-22.4" y="614.7" fill="#FFFFFF" stroke="#231F20" stroke-width="3.2" stroke-linejoin="round" stroke-miterlimit="10" width="77.6" height="61.4"/>
			<rect x="-16" y="621.2" fill="#D1D3D4" width="63.6" height="47.4"/>
			<polyline fill="none" stroke="#231F20" stroke-width="3.2" stroke-linejoin="round" stroke-miterlimit="10" points="-16.3,652.7 
				10.1,639 36,653.9 			"/>
			<polyline fill="none" stroke="#231F20" stroke-width="3.2" stroke-linejoin="round" stroke-miterlimit="10" points="24.9,647.5 
				34.5,639 47.7,647.5 			"/>
			<circle fill="#FFFFFF" cx="21.5" cy="630.6" r="6"/>
		</g>
		<g>
			<polyline fill="none" stroke="#231F20" stroke-width="3.2" stroke-linejoin="round" stroke-miterlimit="10" points="-6.3,696.6 
				72.4,696.6 72.4,747.3 			"/>
			<polygon fill="#FFA432" points="65.9,703.1 -18.1,703.1 -18.1,758.1 26.1,758.1 26.1,778.5 46.5,758.1 65.9,758.1 			"/>
			<polygon fill="#18AFFE" points="-28.9,743 16.4,743 16.4,773.2 -6.3,773.2 -6.3,783.8 -18.4,773.2 -28.9,773.2 			"/>
			
				<line fill="none" stroke="#231F20" stroke-width="3.2" stroke-linejoin="round" stroke-miterlimit="10" x1="-7.3" y1="726.8" x2="56.2" y2="726.8"/>
			
				<line fill="none" stroke="#231F20" stroke-width="3.2" stroke-linejoin="round" stroke-miterlimit="10" x1="-7.3" y1="715" x2="56.2" y2="715"/>
			
				<line fill="none" stroke="#231F20" stroke-width="3.2" stroke-linejoin="round" stroke-miterlimit="10" x1="-7.3" y1="737.6" x2="56.2" y2="737.6"/>
			
				<line fill="none" stroke="#231F20" stroke-width="3.2" stroke-linejoin="round" stroke-miterlimit="10" x1="-7.3" y1="751.6" x2="8.8" y2="751.6"/>
			
				<line fill="none" stroke="#231F20" stroke-width="3.2" stroke-linejoin="round" stroke-miterlimit="10" x1="16.4" y1="748.4" x2="32.5" y2="748.4"/>
			
				<line fill="none" stroke="#231F20" stroke-width="3.2" stroke-linejoin="round" stroke-miterlimit="10" x1="40.1" y1="748.4" x2="56.2" y2="748.4"/>
			
				<line fill="none" stroke="#231F20" stroke-width="3.2" stroke-linejoin="round" stroke-miterlimit="10" x1="8.8" y1="762.4" x2="-22.4" y2="762.4"/>
		</g>
		<g>
			<polyline fill="none" stroke="#231F20" stroke-width="3.2" stroke-linejoin="round" stroke-miterlimit="10" points="524,668.6 
				602.6,668.6 602.6,719.3 			"/>
			<polygon fill="#18AFFE" points="596.2,675.1 512.1,675.1 512.1,730 556.3,730 556.3,750.5 576.8,730 596.2,730 			"/>
			<polygon fill="#FFA432" points="501.3,715 546.6,715 546.6,745.1 524,745.1 524,755.8 511.8,745.1 501.3,745.1 			"/>
			
				<line fill="none" stroke="#231F20" stroke-width="3.2" stroke-linejoin="round" stroke-miterlimit="10" x1="522.9" y1="698.8" x2="586.5" y2="698.8"/>
			
				<line fill="none" stroke="#231F20" stroke-width="3.2" stroke-linejoin="round" stroke-miterlimit="10" x1="522.9" y1="686.9" x2="586.5" y2="686.9"/>
			
				<line fill="none" stroke="#231F20" stroke-width="3.2" stroke-linejoin="round" stroke-miterlimit="10" x1="522.9" y1="709.6" x2="586.5" y2="709.6"/>
			
				<line fill="none" stroke="#231F20" stroke-width="3.2" stroke-linejoin="round" stroke-miterlimit="10" x1="522.9" y1="723.6" x2="539.1" y2="723.6"/>
			
				<line fill="none" stroke="#231F20" stroke-width="3.2" stroke-linejoin="round" stroke-miterlimit="10" x1="546.6" y1="720.3" x2="562.8" y2="720.3"/>
			
				<line fill="none" stroke="#231F20" stroke-width="3.2" stroke-linejoin="round" stroke-miterlimit="10" x1="570.3" y1="720.3" x2="586.5" y2="720.3"/>
			
				<line fill="none" stroke="#231F20" stroke-width="3.2" stroke-linejoin="round" stroke-miterlimit="10" x1="539.1" y1="734.4" x2="507.8" y2="734.4"/>
		</g>
		<g>
			<g>
				
					<rect x="437.8" y="582.4" fill="none" stroke="#231F20" stroke-width="3.2" stroke-linejoin="round" stroke-miterlimit="10" width="29.1" height="26.9"/>
				
					<line fill="none" stroke="#231F20" stroke-width="3.2" stroke-linejoin="round" stroke-miterlimit="10" x1="424.8" y1="604" x2="335.4" y2="604"/>
				
					<line fill="none" stroke="#231F20" stroke-width="3.2" stroke-linejoin="round" stroke-miterlimit="10" x1="424.8" y1="587.8" x2="380.6" y2="587.8"/>
			</g>
			
				<line fill="none" stroke="#231F20" stroke-width="3.2" stroke-linejoin="round" stroke-miterlimit="10" x1="466.7" y1="609.5" x2="437.6" y2="581.9"/>
		</g>
		<g>
			<g>
				<g>
					
						<rect x="172.6" y="586.7" fill="none" stroke="#231F20" stroke-width="3.2" stroke-linejoin="round" stroke-miterlimit="10" width="29.1" height="26.9"/>
					
						<line fill="none" stroke="#231F20" stroke-width="3.2" stroke-linejoin="round" stroke-miterlimit="10" x1="214.7" y1="592.1" x2="258.9" y2="592.1"/>
					
						<line fill="none" stroke="#231F20" stroke-width="3.2" stroke-linejoin="round" stroke-miterlimit="10" x1="214.7" y1="608.3" x2="276.1" y2="608.3"/>
				</g>
				
					<line fill="none" stroke="#231F20" stroke-width="3.2" stroke-linejoin="round" stroke-miterlimit="10" x1="172.8" y1="586.2" x2="201.9" y2="613.8"/>
			</g>
			
				<line fill="none" stroke="#231F20" stroke-width="3.2" stroke-linejoin="round" stroke-miterlimit="10" x1="264.2" y1="592.1" x2="276.1" y2="592.1"/>
		</g>
		<g>
			<g>
				<rect x="-54.8" y="802.3" fill="#A7A9AC" width="23.7" height="21.6"/>
				
					<line fill="none" stroke="#231F20" stroke-width="3.2" stroke-linejoin="round" stroke-miterlimit="10" x1="-21.4" y1="806.6" x2="21.8" y2="806.6"/>
				
					<line fill="none" stroke="#231F20" stroke-width="3.2" stroke-linejoin="round" stroke-miterlimit="10" x1="-21.4" y1="819.5" x2="39" y2="819.5"/>
			</g>
			
				<line fill="none" stroke="#231F20" stroke-width="3.2" stroke-linejoin="round" stroke-miterlimit="10" x1="-54.4" y1="802.8" x2="-31.1" y2="824.9"/>
		</g>
		<g>
			
				<line fill="none" stroke="#231F20" stroke-width="3.2" stroke-linejoin="round" stroke-miterlimit="10" x1="302.8" y1="603.9" x2="314.2" y2="615.2"/>
			
				<line fill="none" stroke="#231F20" stroke-width="3.2" stroke-linejoin="round" stroke-miterlimit="10" x1="302.8" y1="615.2" x2="314.2" y2="603.9"/>
		</g>
		<g>
			
				<line fill="none" stroke="#231F20" stroke-width="3.2" stroke-linejoin="round" stroke-miterlimit="10" x1="-60.4" y1="713.8" x2="-49" y2="725.2"/>
			
				<line fill="none" stroke="#231F20" stroke-width="3.2" stroke-linejoin="round" stroke-miterlimit="10" x1="-60.4" y1="725.2" x2="-49" y2="713.8"/>
		</g>
		<g>
			
				<line fill="none" stroke="#231F20" stroke-width="3.2" stroke-linejoin="round" stroke-miterlimit="10" x1="65.7" y1="575.8" x2="77.1" y2="587.2"/>
			
				<line fill="none" stroke="#231F20" stroke-width="3.2" stroke-linejoin="round" stroke-miterlimit="10" x1="65.7" y1="587.2" x2="77.1" y2="575.8"/>
		</g>
		<g>
			
				<line fill="none" stroke="#231F20" stroke-width="3.2" stroke-linejoin="round" stroke-miterlimit="10" x1="586.2" y1="589.8" x2="597.6" y2="601.2"/>
			
				<line fill="none" stroke="#231F20" stroke-width="3.2" stroke-linejoin="round" stroke-miterlimit="10" x1="586.2" y1="601.2" x2="597.6" y2="589.8"/>
		</g>
		<g>
			
				<line fill="none" stroke="#231F20" stroke-width="3.2" stroke-linejoin="round" stroke-miterlimit="10" x1="645.5" y1="691.2" x2="656.9" y2="702.5"/>
			
				<line fill="none" stroke="#231F20" stroke-width="3.2" stroke-linejoin="round" stroke-miterlimit="10" x1="645.5" y1="702.5" x2="656.9" y2="691.2"/>
		</g>
		<rect x="134.9" y="762.4" fill="#BCBEC0" width="16.2" height="5.4"/>
		<rect x="405.4" y="707.4" fill="#BCBEC0" width="15.1" height="5.4"/>
	</g>
	<g>
	</g>
	<g>
	</g>
	<g>
	</g>
	<g>
	</g>
	<g>
	</g>
	<g>
	</g>
</g>
</svg>
