<?xml version="1.0" encoding="utf-8"?>
<!-- Generator: Adobe Illustrator 18.0.0, SVG Export Plug-In . SVG Version: 6.00 Build 0)  -->
<!DOCTYPE svg PUBLIC "-//W3C//DTD SVG 1.1//EN" "http://www.w3.org/Graphics/SVG/1.1/DTD/svg11.dtd">
<svg version="1.1" id="Layer_1" xmlns="http://www.w3.org/2000/svg" xmlns:xlink="http://www.w3.org/1999/xlink" x="0px" y="0px"
	 viewBox="-11 457 578 315" enable-background="new -11 457 578 315" xml:space="preserve">
<g>
	<path fill="#F7943D" d="M220,514h112.9l2.2,140.8c0,0-14.5,19.6-23.9,17.5c-9.4-2.1-93.4,1.4-93.4,1.4V513.8"/>
	<path fill="#F78F23" d="M213.6,632.8c0,0-26.7,16.6-6.9,37.7H226c0,0-5.5-23.9,0.9-35.9L213.6,632.8z"/>
	<path fill="#E92E4D" d="M296.5,635.8h-73c0,0-5.3,34,6.7,36.8h73.6C303.8,672.8,283.6,664.5,296.5,635.8z"/>
	<polygon fill="#C93452" points="228.4,642.3 292.7,643.3 298.2,636.3 227,634.6 	"/>
	<path fill="#EC8023" d="M216.7,635.8l-11.4,2.8l-3.7,20.3l6.4,11.5l7.8,3.2C215.9,673.7,198.8,651.8,216.7,635.8z"/>
	<g opacity="0.24">
		<path fill="#E98B30" d="M238.8,548.2h81.1c0.1,0,0.1-0.1,0.1-0.1v-3.3c0-0.1-0.1-0.1-0.1-0.1h-81.1c-0.1,0-0.1,0.1-0.1,0.1v3.3
			C238.6,548.2,238.7,548.2,238.8,548.2z"/>
		<path fill="#E98B30" d="M238.8,533h81.1c0.1,0,0.1-0.1,0.1-0.1v-3.3c0-0.1-0.1-0.1-0.1-0.1h-81.1c-0.1,0-0.1,0.1-0.1,0.1v3.3
			C238.6,532.8,238.7,533,238.8,533z"/>
		<path fill="#E98B30" d="M238.8,565.2h81.1c0.1,0,0.1-0.1,0.1-0.1v-3.3c0-0.1-0.1-0.1-0.1-0.1h-81.1c-0.1,0-0.1,0.1-0.1,0.1v3.3
			C238.6,565.1,238.7,565.2,238.8,565.2z"/>
		<path fill="#E98B30" d="M238.8,582.1h81.1c0.1,0,0.1-0.1,0.1-0.1v-3.3c0-0.1-0.1-0.1-0.1-0.1h-81.1c-0.1,0-0.1,0.1-0.1,0.1v3.3
			C238.6,582,238.7,582.1,238.8,582.1z"/>
		<path fill="#E98B30" d="M238.8,599h81.1c0.1,0,0.1-0.1,0.1-0.1v-3.3c0-0.1-0.1-0.1-0.1-0.1h-81.1c-0.1,0-0.1,0.1-0.1,0.1v3.3
			C238.6,599,238.7,599,238.8,599z"/>
		<path fill="#E98B30" d="M238.8,615.8h81.1c0.1,0,0.1-0.1,0.1-0.1v-3.3c0-0.1-0.1-0.1-0.1-0.1h-81.1c-0.1,0-0.1,0.1-0.1,0.1v3.3
			C238.6,615.8,238.7,615.8,238.8,615.8z"/>
	</g>
	<g>
		<path fill="#EA852A" d="M238.1,545.7h81.1c0.1,0,0.1-0.1,0.1-0.1v-3.3c0-0.1-0.1-0.1-0.1-0.1h-81.1c-0.1,0-0.1,0.1-0.1,0.1v3.3
			C238,545.7,238.1,545.7,238.1,545.7z"/>
		<path fill="#EA852A" d="M238.1,530.5h81.1c0.1,0,0.1-0.1,0.1-0.1v-3.3c0-0.1-0.1-0.1-0.1-0.1h-81.1c-0.1,0-0.1,0.1-0.1,0.1v3.3
			L238.1,530.5z"/>
		<path fill="#EA852A" d="M238.1,562.6h81.1c0.1,0,0.1-0.1,0.1-0.1v-3.3c0-0.1-0.1-0.1-0.1-0.1h-81.1c-0.1,0-0.1,0.1-0.1,0.1v3.3
			C238,562.6,238.1,562.6,238.1,562.6z"/>
		<path fill="#EA852A" d="M238.1,579.6h81.1c0.1,0,0.1-0.1,0.1-0.1v-3.3c0-0.1-0.1-0.1-0.1-0.1h-81.1c-0.1,0-0.1,0.1-0.1,0.1v3.3
			L238.1,579.6z"/>
		<path fill="#EA852A" d="M238.1,596.5h81.1c0.1,0,0.1-0.1,0.1-0.1v-3.3c0-0.1-0.1-0.1-0.1-0.1h-81.1c-0.1,0-0.1,0.1-0.1,0.1v3.3
			L238.1,596.5z"/>
		<path fill="#EA852A" d="M238.1,613.5h81.1c0.1,0,0.1-0.1,0.1-0.1v-3.3c0-0.1-0.1-0.1-0.1-0.1h-81.1c-0.1,0-0.1,0.1-0.1,0.1v3.3
			L238.1,613.5z"/>
	</g>
	<path opacity="0.32" fill="#EB7F23" enable-background="new    " d="M323.3,516.5v112.6c0,0,3.1,32.3-22,35.4l2.5,8.3
		c0,0,26.9,3.6,32.5-25v-135l-14.3-1.3L323.3,516.5z"/>
	<path fill="#594A42" d="M328.7,494.9c-1.3,0-2.4,1.1-2.4,2.4c0,0.6,0.3,1.2,0.6,1.6c-3.5,2.4-11.2,7-17.3,5.8
		c-6.2-1.3-4.8-13.5-3.7-19.4c0.1,0,0.3,0.1,0.4,0.1c1.7,0,3.1-1.4,3.1-3.1s-1.4-3.1-3.1-3.1s-3.1,1.4-3.1,3.1c0,1.1,0.6,2,1.4,2.6
		c-3.4,4.7-10.8,14-16,14.2c-5.5,0.3-9.7-17.5-11.3-25.2c1.8-0.3,3.1-1.8,3.1-3.7c0-2.1-1.7-3.8-3.8-3.8c-2.1,0-3.8,1.7-3.8,3.8
		c0,1.9,1.3,3.4,3.1,3.7c-1.6,7.7-5.8,25.5-11.3,25.2c-5.2-0.2-12.6-9.5-16-14.2c0.9-0.6,1.5-1.5,1.5-2.6c0-1.7-1.4-3.1-3.1-3.1
		s-3.1,1.4-3.1,3.1s1.4,3.1,3.1,3.1c0.1,0,0.3,0,0.4-0.1c1,5.9,2.4,18.2-3.7,19.4c-6.2,1.3-14.1-3.6-17.5-5.9
		c0.3-0.4,0.5-0.9,0.5-1.5c0-1.3-1.1-2.4-2.4-2.4s-2.4,1.1-2.4,2.4s1.1,2.4,2.4,2.4c0.4,0,0.9-0.1,1.2-0.3c1.8,3.5,2.8,7.1,3.4,10.3
		h95.5c0.6-3.2,1.5-6.7,3.3-10.2c0.3,0.1,0.6,0.2,1,0.2c1.3,0,2.4-1.1,2.4-2.4C331.1,496,330,494.9,328.7,494.9z"/>
	<g>
		<path fill="#594A42" d="M143.9,693.8l8.5,24.7l8.6-24.7h9.2l-13.4,34.2h-9.2l-13.3-34.2H143.9z"/>
		<path fill="#594A42" d="M188.7,720.8c4,0,6.6-2.7,6.6-7.1V694h8.9v19.8c0,9-6.1,14.7-15.6,14.7c-9.7,0-15.8-5.7-15.8-14.7V694h8.9
			v19.8C181.8,718.2,184.7,720.8,188.7,720.8z"/>
		<path fill="#594A42" d="M232.2,722.1h-14.8l-2.4,6.1h-9.2l14.7-34.2h9.2l14.4,34.2h-9.5L232.2,722.1z M229.5,715.2l-4.7-12.2
			l-4.8,12.2H229.5z"/>
		<path fill="#594A42" d="M275.8,705.8c0,8.1-5,12.7-13.8,12.7h-6.1v9.5H247v-34.2h15C270.9,693.8,275.8,698.3,275.8,705.8z
			 M267.3,706.3c0-3.4-2.1-5.1-5.7-5.1H256v10.5h5.6C265.2,711.4,267.3,709.7,267.3,706.3z"/>
		<path fill="#594A42" d="M300.5,722.1h-14.8l-2.4,6.1h-9.2l14.7-34.2h9.2l14.4,34.2h-9.5L300.5,722.1z M297.8,715.2l-4.7-12.2
			l-4.8,12.2H297.8z"/>
		<path fill="#594A42" d="M344.1,705.8c0,8.1-5,12.7-13.8,12.7h-6.1v9.5h-8.9v-34.2h15C339.1,693.8,344.1,698.3,344.1,705.8z
			 M335.6,706.3c0-3.4-2.1-5.1-5.7-5.1h-5.6v10.5h5.6C333.5,711.4,335.6,709.7,335.6,706.3z"/>
		<path fill="#594A42" d="M375.5,693.8v7.1h-18.1v6.4h16.3v7.1l-16.3,0.1v6.5h18.5v7.1h-27.5v-34.2L375.5,693.8L375.5,693.8z"/>
		<path fill="#594A42" d="M401.9,728.1l-5-9.5h-0.2h-6.5v9.5h-8.9v-34.2h15.4c9.1,0,14.2,4.4,14.2,12c0,5.1-2.2,9-6.1,11l7.1,11.2
			H401.9L401.9,728.1z M390.3,711.4h6.5c3.6,0,5.7-1.8,5.7-5.3c0-3.4-2.1-5.1-5.7-5.1h-6.5V711.4L390.3,711.4z"/>
	</g>
	<path fill="#594A42" d="M207.5,665.7c-4.8-6.8-4.8-18.9,0-25.7c1.9-2.7,4.4-4.1,7.8-4.1c2.7,0,5.4,0,8.1,0
		c-2.5,6.5-6.4,19.2-2.7,28.6c0.8,2,1.9,3.7,3.2,5.2c-2.9,0-5.8,0-8.6,0C211.8,669.7,209.4,668.3,207.5,665.7z M296.5,669.7
		c-0.7,0-1.3,0-1.8,0c-19.8,0-39.7,0-59.5,0c-2.9-1.4-7.1-5-8.1-7.6c-3-7.7,1.2-20.5,3.7-26.2c21.3,0,42.6,0,63.8,0c0.6,0,1.2,0,2,0
		C289.8,647.2,289.8,658.3,296.5,669.7z M336.4,507.8H219.7l0,0c-1.8,1-2.4,2.5-2.4,4.6c0.1,37.2,0,74.4,0,111.6c0,0.6,0,1.2,0,1.8
		h6.8l0,0V514.7l0,0h107.8c0,0.4,0.1,0.6,0.1,1c0,43.6,0.1,87.1,0,130.7c0,11.2-7.9,20.6-18.9,22.9c-6.2,1.3-9.5,0.1-12.3-5.5
		c-2.1-4.3-2.6-9.2-2-14c1-7.2,3.4-13.3,9.8-13.8c2.3-0.2,3.7-2.7,2.7-4.7c-0.8-1.7-2.3-2-3.9-2c-30.9,0-61.8,0-92.7,0
		c-4.4,0-8.1,1.7-11,5c-4.1,4.4-5.9,9.8-6.5,15.8c-0.6,6.9,0.7,13.4,4.6,19.2c2.4,3.7,5.8,6.1,10.1,7.2l0,0h99.2l0,0
		c1.4-0.3,2.9-0.5,4.3-0.8c13.8-3.4,23.4-15.5,23.4-29.8c0-44.4,0-88.8,0.1-133.1C338.8,510.5,338.2,508.9,336.4,507.8L336.4,507.8z
		"/>
</g>
<g>
	<path fill="#594A42" d="M100.3,738.1l0,2.9h-9.5v5.5h8.6v2.8h-8.6v7.7h-3.2v-18.9H100.3z"/>
	<path fill="#594A42" d="M121.6,747.6c0,5.4-4.4,9.6-10,9.6s-10-4.2-10-9.6c0-5.4,4.4-9.5,10-9.5S121.6,742.2,121.6,747.6z
		 M104.8,747.6c0,3.8,3.1,6.7,6.8,6.7c3.7,0,6.7-3,6.7-6.7s-3-6.7-6.7-6.7C107.9,740.9,104.8,743.8,104.8,747.6z"/>
	<path fill="#594A42" d="M137,757l-3.5-5.7c-0.3,0-0.6,0-0.9,0h-4.5v5.7H125v-18.9h7.7c4.8,0,7.6,2.3,7.6,6.5c0,3-1.4,5.2-3.9,6.1
		l4.2,6.3H137z M132.7,748.4c2.9,0,4.6-1.2,4.6-3.8c0-2.5-1.7-3.7-4.6-3.7h-4.5v7.5H132.7z"/>
	<path fill="#594A42" d="M158,738.1v2.9h-10.3v5.1h9.2v2.8h-9.2v5.2h10.6v2.9h-13.8v-18.9H158z"/>
	<path fill="#594A42" d="M174.9,738.1l0,2.9h-9.5v5.5h8.6v2.8h-8.6v7.7h-3.2v-18.9H174.9z"/>
	<path fill="#594A42" d="M189.8,757l-3.5-5.7c-0.3,0-0.6,0-0.9,0H181v5.7h-3.2v-18.9h7.7c4.8,0,7.6,2.3,7.6,6.5c0,3-1.4,5.2-3.9,6.1
		l4.2,6.3H189.8z M185.4,748.4c2.9,0,4.6-1.2,4.6-3.8c0-2.5-1.7-3.7-4.6-3.7H181v7.5H185.4z"/>
	<path fill="#594A42" d="M215.7,747.6c0,5.4-4.4,9.6-10,9.6s-10-4.2-10-9.6c0-5.4,4.4-9.5,10-9.5S215.7,742.2,215.7,747.6z
		 M199,747.6c0,3.8,3.1,6.7,6.8,6.7c3.7,0,6.7-3,6.7-6.7s-3-6.7-6.7-6.7C202,740.9,199,743.8,199,747.6z"/>
	<path fill="#594A42" d="M222.3,738.1l10.1,13.6v-13.6h3.1V757h-3.1l-10.1-13.6V757h-3.2v-18.9H222.3z"/>
	<path fill="#594A42" d="M253.4,738.1v2.9h-6v16h-3.2v-16h-6v-2.9H253.4z"/>
	<path fill="#594A42" d="M282.7,747.6c0,5.4-4.4,9.6-10,9.6s-10-4.2-10-9.6c0-5.4,4.4-9.5,10-9.5S282.7,742.2,282.7,747.6z
		 M265.9,747.6c0,3.8,3.1,6.7,6.8,6.7c3.7,0,6.7-3,6.7-6.7s-3-6.7-6.7-6.7C269,740.9,265.9,743.8,265.9,747.6z"/>
	<path fill="#594A42" d="M298.8,738.1l0,2.9h-9.5v5.5h8.6v2.8h-8.6v7.7h-3.2v-18.9H298.8z"/>
	<path fill="#594A42" d="M313,738.1V757h-3.2v-18.9H313z"/>
	<path fill="#594A42" d="M321.1,738.1l10.1,13.6v-13.6h3.1V757h-3.1l-10.1-13.6V757h-3.2v-18.9H321.1z"/>
	<path fill="#594A42" d="M342.4,738.1l10.1,13.6v-13.6h3.1V757h-3.1l-10.1-13.6V757h-3.2v-18.9H342.4z"/>
	<path fill="#594A42" d="M379.2,747.6c0,5.4-4.4,9.6-10,9.6c-5.6,0-10-4.2-10-9.6c0-5.4,4.4-9.5,10-9.5
		C374.8,738,379.2,742.2,379.2,747.6z M362.4,747.6c0,3.8,3.1,6.7,6.8,6.7s6.7-3,6.7-6.7s-3-6.7-6.7-6.7
		C365.4,740.9,362.4,743.8,362.4,747.6z"/>
	<path fill="#594A42" d="M383.3,738.1l5.8,15.4l5.9-15.4h3.3l-7.6,18.9h-3.3l-7.5-18.9H383.3z"/>
	<path fill="#594A42" d="M411.8,752.7h-9.5l-1.8,4.3h-3.3l8.3-18.9h3.3L417,757h-3.4L411.8,752.7z M410.6,749.9l-3.6-8.4l-3.6,8.4
		H410.6z"/>
	<path fill="#594A42" d="M430.6,738.1v2.9h-6v16h-3.2v-16h-6v-2.9H430.6z"/>
	<path fill="#594A42" d="M436.5,738.1V757h-3.2v-18.9H436.5z"/>
	<path fill="#594A42" d="M459.9,747.6c0,5.4-4.4,9.6-10,9.6c-5.6,0-10-4.2-10-9.6c0-5.4,4.4-9.5,10-9.5
		C455.5,738,459.9,742.2,459.9,747.6z M443.1,747.6c0,3.8,3.1,6.7,6.8,6.7s6.7-3,6.7-6.7s-3-6.7-6.7-6.7
		C446.2,740.9,443.1,743.8,443.1,747.6z"/>
	<path fill="#594A42" d="M466.4,738.1l10.1,13.6v-13.6h3.1V757h-3.1l-10.1-13.6V757h-3.2v-18.9H466.4z"/>
</g>
</svg>
