<?xml version="1.0" encoding="utf-8"?>
<!-- Generator: Adobe Illustrator 18.0.0, SVG Export Plug-In . SVG Version: 6.00 Build 0)  -->
<!DOCTYPE svg PUBLIC "-//W3C//DTD SVG 1.1//EN" "http://www.w3.org/Graphics/SVG/1.1/DTD/svg11.dtd">
<svg version="1.1" id="Layer_1" xmlns="http://www.w3.org/2000/svg" xmlns:xlink="http://www.w3.org/1999/xlink" x="0px" y="0px"
	 viewBox="38 468 540 324" enable-background="new 38 468 540 324" xml:space="preserve">
<g>
	<path fill="#F7943D" d="M245.4,529.4h119.5l2.3,149.1c0,0-15.4,20.8-25.3,18.5c-10-2.2-98.9,1.5-98.9,1.5V529.2"/>
	<path fill="#F78F23" d="M238.6,655.2c0,0-28.3,17.6-7.3,39.9h20.4c0,0-5.8-25.3,1-38L238.6,655.2z"/>
	<path fill="#E92E4D" d="M326.4,658.4h-77.3c0,0-5.6,36,7.1,39h77.9C334.1,697.6,312.7,688.8,326.4,658.4z"/>
	<polygon fill="#C93452" points="254.3,665.3 322.4,666.4 328.2,658.9 252.8,657.1 	"/>
	<path fill="#EC8023" d="M241.9,658.4l-12.1,3l-3.9,21.5l6.8,12.2l8.3,3.4C241.1,698.5,223,675.4,241.9,658.4z"/>
	<g opacity="0.24">
		<path fill="#E98B30" d="M265.3,565.7h85.9c0.1,0,0.1-0.1,0.1-0.1v-3.5c0-0.1-0.1-0.1-0.1-0.1h-85.9c-0.1,0-0.1,0.1-0.1,0.1v3.5
			C265.1,565.7,265.2,565.7,265.3,565.7z"/>
		<path fill="#E98B30" d="M265.3,549.6h85.9c0.1,0,0.1-0.1,0.1-0.1V546c0-0.1-0.1-0.1-0.1-0.1h-85.9c-0.1,0-0.1,0.1-0.1,0.1v3.5
			C265.1,549.4,265.2,549.6,265.3,549.6z"/>
		<path fill="#E98B30" d="M265.3,583.7h85.9c0.1,0,0.1-0.1,0.1-0.1v-3.5c0-0.1-0.1-0.1-0.1-0.1h-85.9c-0.1,0-0.1,0.1-0.1,0.1v3.5
			C265.1,583.6,265.2,583.7,265.3,583.7z"/>
		<path fill="#E98B30" d="M265.3,601.6h85.9c0.1,0,0.1-0.1,0.1-0.1V598c0-0.1-0.1-0.1-0.1-0.1h-85.9c-0.1,0-0.1,0.1-0.1,0.1v3.5
			C265.1,601.4,265.2,601.6,265.3,601.6z"/>
		<path fill="#E98B30" d="M265.3,619.4h85.9c0.1,0,0.1-0.1,0.1-0.1v-3.5c0-0.1-0.1-0.1-0.1-0.1h-85.9c-0.1,0-0.1,0.1-0.1,0.1v3.5
			C265.1,619.4,265.2,619.4,265.3,619.4z"/>
		<path fill="#E98B30" d="M265.3,637.2h85.9c0.1,0,0.1-0.1,0.1-0.1v-3.5c0-0.1-0.1-0.1-0.1-0.1h-85.9c-0.1,0-0.1,0.1-0.1,0.1v3.5
			C265.1,637.2,265.2,637.2,265.3,637.2z"/>
	</g>
	<g>
		<path fill="#EA852A" d="M264.6,563h85.9c0.1,0,0.1-0.1,0.1-0.1v-3.5c0-0.1-0.1-0.1-0.1-0.1h-85.9c-0.1,0-0.1,0.1-0.1,0.1v3.5
			C264.5,563,264.6,563,264.6,563z"/>
		<path fill="#EA852A" d="M264.6,546.9h85.9c0.1,0,0.1-0.1,0.1-0.1v-3.5c0-0.1-0.1-0.1-0.1-0.1h-85.9c-0.1,0-0.1,0.1-0.1,0.1v3.5
			L264.6,546.9z"/>
		<path fill="#EA852A" d="M264.6,580.9h85.9c0.1,0,0.1-0.1,0.1-0.1v-3.5c0-0.1-0.1-0.1-0.1-0.1h-85.9c-0.1,0-0.1,0.1-0.1,0.1v3.5
			C264.5,580.9,264.6,580.9,264.6,580.9z"/>
		<path fill="#EA852A" d="M264.6,598.9h85.9c0.1,0,0.1-0.1,0.1-0.1v-3.5c0-0.1-0.1-0.1-0.1-0.1h-85.9c-0.1,0-0.1,0.1-0.1,0.1v3.5
			L264.6,598.9z"/>
		<path fill="#EA852A" d="M264.6,616.8h85.9c0.1,0,0.1-0.1,0.1-0.1v-3.5c0-0.1-0.1-0.1-0.1-0.1h-85.9c-0.1,0-0.1,0.1-0.1,0.1v3.5
			L264.6,616.8z"/>
		<path fill="#EA852A" d="M264.6,634.8h85.9c0.1,0,0.1-0.1,0.1-0.1v-3.5c0-0.1-0.1-0.1-0.1-0.1h-85.9c-0.1,0-0.1,0.1-0.1,0.1v3.5
			L264.6,634.8z"/>
	</g>
	<path opacity="0.32" fill="#EB7F23" enable-background="new    " d="M354.8,532.1v119.2c0,0,3.3,34.2-23.3,37.5l2.6,8.8
		c0,0,28.5,3.8,34.4-26.5V528.2l-15.1-1.4L354.8,532.1z"/>
	<path fill="#594A42" d="M360.5,509.2c-1.4,0-2.5,1.2-2.5,2.5c0,0.6,0.3,1.3,0.6,1.7c-3.7,2.5-11.9,7.4-18.3,6.1
		c-6.6-1.4-5.1-14.3-3.9-20.5c0.1,0,0.3,0.1,0.4,0.1c1.8,0,3.3-1.5,3.3-3.3s-1.5-3.3-3.3-3.3c-1.8,0-3.3,1.5-3.3,3.3
		c0,1.2,0.6,2.1,1.5,2.8c-3.6,5-11.4,14.8-16.9,15c-5.8,0.3-10.3-18.5-12-26.7c1.9-0.3,3.3-1.9,3.3-3.9c0-2.2-1.8-4-4-4
		c-2.2,0-4,1.8-4,4c0,2,1.4,3.6,3.3,3.9c-1.7,8.2-6.1,27-12,26.7c-5.5-0.2-13.3-10.1-16.9-15c1-0.6,1.6-1.6,1.6-2.8
		c0-1.8-1.5-3.3-3.3-3.3s-3.3,1.5-3.3,3.3s1.5,3.3,3.3,3.3c0.1,0,0.3,0,0.4-0.1c1.1,6.2,2.5,19.3-3.9,20.5
		c-6.6,1.4-14.9-3.8-18.5-6.2c0.3-0.4,0.5-1,0.5-1.6c0-1.4-1.2-2.5-2.5-2.5c-1.4,0-2.5,1.2-2.5,2.5s1.2,2.5,2.5,2.5
		c0.4,0,1-0.1,1.3-0.3c1.9,3.7,3,7.5,3.6,10.9h101.1c0.6-3.4,1.6-7.1,3.5-10.8c0.3,0.1,0.6,0.2,1.1,0.2c1.4,0,2.5-1.2,2.5-2.5
		C363,510.4,361.9,509.2,360.5,509.2z"/>
	<g>
		<path fill="#FFFFFF" d="M164.8,719.8l9,26.2l9.1-26.2h9.7L178.5,756h-9.7l-14.1-36.2H164.8z"/>
		<path fill="#FFFFFF" d="M212.3,748.4c4.2,0,7-2.9,7-7.5V720h9.4v21c0,9.5-6.5,15.6-16.5,15.6c-10.3,0-16.7-6-16.7-15.6v-21h9.4v21
			C205,745.7,208,748.4,212.3,748.4z"/>
		<path fill="#FFFFFF" d="M258.3,749.8h-15.7l-2.5,6.5h-9.7l15.6-36.2h9.7l15.2,36.2h-10.1L258.3,749.8z M255.5,742.5l-5-12.9
			l-5.1,12.9H255.5z"/>
		<path fill="#FFFFFF" d="M304.5,732.5c0,8.6-5.3,13.4-14.6,13.4h-6.5V756H274v-36.2h15.9C299.3,719.8,304.5,724.6,304.5,732.5z
			 M295.5,733.1c0-3.6-2.2-5.4-6-5.4h-5.9v11.1h5.9C293.3,738.5,295.5,736.7,295.5,733.1z"/>
		<path fill="#FFFFFF" d="M330.6,749.8H315l-2.5,6.5h-9.7l15.6-36.2h9.7l15.2,36.2h-10.1L330.6,749.8z M327.8,742.5l-5-12.9
			l-5.1,12.9H327.8z"/>
		<path fill="#FFFFFF" d="M376.8,732.5c0,8.6-5.3,13.4-14.6,13.4h-6.5V756h-9.4v-36.2h15.9C371.5,719.8,376.8,724.6,376.8,732.5z
			 M367.8,733.1c0-3.6-2.2-5.4-6-5.4h-5.9v11.1h5.9C365.6,738.5,367.8,736.7,367.8,733.1z"/>
		<path fill="#FFFFFF" d="M410.1,719.8v7.5h-19.2v6.8h17.3v7.5l-17.3,0.1v6.9h19.6v7.5h-29.1v-36.2L410.1,719.8L410.1,719.8z"/>
		<path fill="#FFFFFF" d="M438,756.1l-5.3-10.1h-0.2h-6.9v10.1h-9.4v-36.2h16.3c9.6,0,15,4.7,15,12.7c0,5.4-2.3,9.5-6.5,11.6
			l7.5,11.9H438L438,756.1z M425.7,738.5h6.9c3.8,0,6-1.9,6-5.6c0-3.6-2.2-5.4-6-5.4h-6.9V738.5L425.7,738.5z"/>
	</g>
	<path fill="#594A42" d="M232.2,690.1c-5.1-7.2-5.1-20,0-27.2c2-2.9,4.7-4.3,8.3-4.3c2.9,0,5.7,0,8.6,0c-2.6,6.9-6.8,20.3-2.9,30.3
		c0.8,2.1,2,3.9,3.4,5.5c-3.1,0-6.1,0-9.1,0C236.7,694.3,234.2,692.8,232.2,690.1z M326.4,694.3c-0.7,0-1.4,0-1.9,0c-21,0-42,0-63,0
		c-3.1-1.5-7.5-5.3-8.6-8c-3.2-8.2,1.3-21.7,3.9-27.7c22.6,0,45.1,0,67.6,0c0.6,0,1.3,0,2.1,0C319.3,670.5,319.3,682.2,326.4,694.3z
		 M368.7,522.9H245.1l0,0c-1.9,1.1-2.5,2.6-2.5,4.9c0.1,39.4,0,78.8,0,118.2c0,0.6,0,1.3,0,1.9h7.2l0,0V530.2l0,0h114.1
		c0,0.4,0.1,0.6,0.1,1.1c0,46.2,0.1,92.2,0,138.4c0,11.9-8.4,21.8-20,24.2c-6.6,1.4-10.1,0.1-13-5.8c-2.2-4.6-2.8-9.7-2.1-14.8
		c1.1-7.6,3.6-14.1,10.4-14.6c2.4-0.2,3.9-2.9,2.9-5c-0.8-1.8-2.4-2.1-4.1-2.1c-32.7,0-65.4,0-98.2,0c-4.7,0-8.6,1.8-11.6,5.3
		c-4.3,4.7-6.2,10.4-6.9,16.7c-0.6,7.3,0.7,14.2,4.9,20.3c2.5,3.9,6.1,6.5,10.7,7.6l0,0h105l0,0c1.5-0.3,3.1-0.5,4.6-0.8
		c14.6-3.6,24.8-16.4,24.8-31.6c0-47,0-94,0.1-140.9C371.2,525.7,370.6,524,368.7,522.9L368.7,522.9z"/>
</g>
<g>
	<path fill="#FFFFFF" d="M118.7,766.7v3.1h-10.1v5.8h9.1v3h-9.1v8.2h-3.4v-20H118.7z"/>
	<path fill="#FFFFFF" d="M141.2,776.8c0,5.7-4.7,10.2-10.6,10.2s-10.6-4.4-10.6-10.2c0-5.7,4.7-10.1,10.6-10.1
		S141.2,771.1,141.2,776.8z M123.4,776.8c0,4,3.3,7.1,7.2,7.1s7.1-3.2,7.1-7.1c0-3.9-3.2-7.1-7.1-7.1
		C126.7,769.7,123.4,772.8,123.4,776.8z"/>
	<path fill="#FFFFFF" d="M157.5,786.7l-3.7-6c-0.3,0-0.6,0-1,0h-4.8v6h-3.3v-20h8.2c5.1,0,8,2.4,8,6.9c0,3.2-1.5,5.5-4.1,6.5
		l4.4,6.7L157.5,786.7L157.5,786.7z M153,777.6c3.1,0,4.9-1.3,4.9-4c0-2.6-1.8-3.9-4.9-3.9h-4.8v7.9H153z"/>
	<path fill="#FFFFFF" d="M179.8,766.7v3.1h-10.9v5.4h9.7v3h-9.7v5.5h11.2v3.1h-14.6v-20H179.8z"/>
	<path fill="#FFFFFF" d="M197.7,766.7v3.1h-10.1v5.8h9.1v3h-9.1v8.2h-3.4v-20H197.7z"/>
	<path fill="#FFFFFF" d="M213.4,786.7l-3.7-6c-0.3,0-0.6,0-1,0h-4.7v6h-3.4v-20h8.2c5.1,0,8,2.4,8,6.9c0,3.2-1.5,5.5-4.1,6.5
		l4.4,6.7L213.4,786.7L213.4,786.7z M208.8,777.6c3.1,0,4.9-1.3,4.9-4c0-2.6-1.8-3.9-4.9-3.9h-4.7v7.9H208.8z"/>
	<path fill="#FFFFFF" d="M240.9,776.8c0,5.7-4.7,10.2-10.6,10.2c-5.9,0-10.6-4.4-10.6-10.2c0-5.7,4.7-10.1,10.6-10.1
		C236.2,766.7,240.9,771.1,240.9,776.8z M223.2,776.8c0,4,3.3,7.1,7.2,7.1c3.9,0,7.1-3.2,7.1-7.1c0-3.9-3.2-7.1-7.1-7.1
		C226.3,769.7,223.2,772.8,223.2,776.8z"/>
	<path fill="#FFFFFF" d="M247.8,766.7l10.7,14.4v-14.4h3.3v20h-3.3l-10.7-14.4v14.4h-3.4v-20H247.8z"/>
	<path fill="#FFFFFF" d="M280.8,766.7v3.1h-6.4v16.9H271v-16.9h-6.4v-3.1H280.8z"/>
	<path fill="#FFFFFF" d="M311.8,776.8c0,5.7-4.7,10.2-10.6,10.2c-5.9,0-10.6-4.4-10.6-10.2c0-5.7,4.7-10.1,10.6-10.1
		C307.1,766.7,311.8,771.1,311.8,776.8z M294,776.8c0,4,3.3,7.1,7.2,7.1c3.9,0,7.1-3.2,7.1-7.1c0-3.9-3.2-7.1-7.1-7.1
		C297.3,769.7,294,772.8,294,776.8z"/>
	<path fill="#FFFFFF" d="M328.8,766.7v3.1h-10.1v5.8h9.1v3h-9.1v8.2h-3.4v-20H328.8z"/>
	<path fill="#FFFFFF" d="M343.9,766.7v20h-3.4v-20H343.9z"/>
	<path fill="#FFFFFF" d="M352.5,766.7l10.7,14.4v-14.4h3.3v20h-3.3l-10.7-14.4v14.4h-3.4v-20H352.5z"/>
	<path fill="#FFFFFF" d="M375,766.7l10.7,14.4v-14.4h3.3v20h-3.3L375,772.3v14.4h-3.4v-20H375z"/>
	<path fill="#FFFFFF" d="M414,776.8c0,5.7-4.7,10.2-10.6,10.2s-10.6-4.4-10.6-10.2c0-5.7,4.7-10.1,10.6-10.1
		C409.3,766.6,414,771.1,414,776.8z M396.2,776.8c0,4,3.3,7.1,7.2,7.1s7.1-3.2,7.1-7.1c0-3.9-3.2-7.1-7.1-7.1
		C399.4,769.7,396.2,772.8,396.2,776.8z"/>
	<path fill="#FFFFFF" d="M418.3,766.7l6.1,16.3l6.2-16.3h3.5l-8,20h-3.5l-7.9-20H418.3z"/>
	<path fill="#FFFFFF" d="M448.5,782.2h-10.1l-1.9,4.6H433l8.8-20h3.5l8.7,20h-3.6L448.5,782.2z M447.2,779.2l-3.8-8.9l-3.8,8.9
		H447.2z"/>
	<path fill="#FFFFFF" d="M468.4,766.7v3.1H462v16.9h-3.4v-16.9h-6.4v-3.1H468.4z"/>
	<path fill="#FFFFFF" d="M474.6,766.7v20h-3.4v-20H474.6z"/>
	<path fill="#FFFFFF" d="M499.4,776.8c0,5.7-4.7,10.2-10.6,10.2s-10.6-4.4-10.6-10.2c0-5.7,4.7-10.1,10.6-10.1
		C494.8,766.6,499.4,771.1,499.4,776.8z M481.6,776.8c0,4,3.3,7.1,7.2,7.1s7.1-3.2,7.1-7.1c0-3.9-3.2-7.1-7.1-7.1
		C484.9,769.7,481.6,772.8,481.6,776.8z"/>
	<path fill="#FFFFFF" d="M506.3,766.7l10.7,14.4v-14.4h3.3v20H517l-10.7-14.4v14.4h-3.4v-20H506.3z"/>
</g>
</svg>
