<?xml version="1.0" encoding="utf-8"?>
<!-- Generator: Adobe Illustrator 18.0.0, SVG Export Plug-In . SVG Version: 6.00 Build 0)  -->
<!DOCTYPE svg PUBLIC "-//W3C//DTD SVG 1.1//EN" "http://www.w3.org/Graphics/SVG/1.1/DTD/svg11.dtd">
<svg version="1.1" id="Layer_1" xmlns="http://www.w3.org/2000/svg" xmlns:xlink="http://www.w3.org/1999/xlink" x="0px" y="0px"
	 viewBox="0 0 612 792" enable-background="new 0 0 612 792" xml:space="preserve">
<g>
	<polygon fill="#FD8A06" points="454.1,218.3 394.8,198.6 315.9,238.1 256.6,218.3 148.1,257.8 148.1,356.5 454.1,356.5 	"/>
	<polygon fill="#FD8A06" points="513.3,702 513.3,603.3 612,603.3 	"/>
</g>
<g>
	<path fill="#333333" d="M98.7,90v414.6H29.6C13.3,504.6,0,517.9,0,534.2c0,16.3,13.3,29.6,29.6,29.6h29.6v9.9
		c0,16.3,13.3,29.6,29.6,29.6h9.9V702h414.6v-19.7H118.5v-79h47.9l2.9-4.9c3.6-6.2,13.3-6.2,16.9,0l2.8,4.9h28.2v-19.7h-17.5
		c-5.6-6.2-13.6-9.9-22-9.9c-8.4,0-16.4,3.7-22,9.9h-37.3v-19.7h317.7c4.1,11.5,14.9,19.7,27.8,19.7c11.2,0,20.8-6.3,25.9-15.5
		l34.6,17.3l63.9-51.1l-63.9-51.1l-34.6,17.3c-5-9.2-14.7-15.5-25.9-15.5c-12.9,0-23.7,8.3-27.8,19.7H118.5V109.7h473.8v493.5H612
		V90H98.7z M29.6,544.1c-5.4,0-9.9-4.4-9.9-9.9c0-5.4,4.4-9.9,9.9-9.9h29.6v19.7H29.6z M98.7,583.5h-9.9c-5.4,0-9.9-4.4-9.9-9.9
		v-9.9h19.7V583.5z M544.4,524.3h-21.2v19.7h21.2l-22.4,18l-28.4-14.2v-27.3l28.4-14.2L544.4,524.3z M463.9,504.6
		c5.4,0,9.9,4.4,9.9,9.9v39.5c0,5.4-4.4,9.9-9.9,9.9s-9.9-4.4-9.9-9.9v-39.5C454.1,509,458.5,504.6,463.9,504.6z M434.3,544.1H79
		v-19.7h355.4V544.1z"/>
	<path fill="#333333" d="M351.7,267l7.3-18.3l-23.5-9.4l59.7-29.9l58.8,23.5v-93.5h-306v133L256.6,229L351.7,267z M311.7,229.7
		l-16.5-6.6c7.4-9.1,18.5-14.7,30.5-14.7c6.5,0,12.7,1.6,18.2,4.5l-32.5,16.2L311.7,229.7z M167.8,159.1h266.5v44.6l-39.9-16
		L364,203c-10.5-9.1-23.9-14.3-38.2-14.3c-20.1,0-38.6,10.3-49.4,26.8l-19.7-7.9l-88.8,35.5V159.1z"/>
	<rect x="473.8" y="139.4" fill="#333333" width="88.8" height="19.7"/>
	<rect x="473.8" y="188.7" fill="#333333" width="88.8" height="19.7"/>
	<rect x="473.8" y="238.1" fill="#333333" width="88.8" height="19.7"/>
	<rect x="473.8" y="287.4" fill="#333333" width="88.8" height="19.7"/>
	<rect x="473.8" y="336.8" fill="#333333" width="88.8" height="19.7"/>
	<polygon fill="#333333" points="197.4,455.2 197.4,405.9 227,405.9 227,386.1 148.1,386.1 148.1,405.9 177.7,405.9 177.7,455.2 	
		"/>
	<rect x="256.6" y="386.1" fill="#333333" width="306" height="19.7"/>
	<rect x="256.6" y="435.5" fill="#333333" width="306" height="19.7"/>
</g>
</svg>
