<?xml version="1.0" encoding="utf-8"?>
<!-- Generator: Adobe Illustrator 18.0.0, SVG Export Plug-In . SVG Version: 6.00 Build 0)  -->
<!DOCTYPE svg PUBLIC "-//W3C//DTD SVG 1.1//EN" "http://www.w3.org/Graphics/SVG/1.1/DTD/svg11.dtd">
<svg version="1.1" xmlns="http://www.w3.org/2000/svg" xmlns:xlink="http://www.w3.org/1999/xlink" x="0px" y="0px"
	 viewBox="0 0 512 512" enable-background="new 0 0 512 512" xml:space="preserve">
<g id="Layer_2">
	<rect x="51" y="387" fill="#FD8A06" stroke="#000000" stroke-miterlimit="10" width="187.4" height="50"/>
</g>
<g id="Capa_1">
	<g>
		<path fill="#333333" d="M494.3,313.9l-25-25c-9.9-9.9-27.2-9.9-37.1,0L297,424.1l-18.6,68.4l-4.6,4.6c-3.4,3.4-3.4,8.9-0.1,12.3
			l0,0.2l0.2,0c1.7,1.7,3.9,2.5,6.1,2.5c2.2,0,4.5-0.9,6.2-2.6l4.6-4.6l68.3-18.6L494.3,351C504.6,340.8,504.6,324.1,494.3,313.9z
			 M317.3,428.6l90-90l37.3,37.3l-90,90L317.3,428.6z M309.3,445.6l28.3,28.3l-38.9,10.6L309.3,445.6z M481.9,338.6L457,363.5
			l-37.3-37.3l24.9-24.9c3.3-3.3,9-3.3,12.2,0l25,25C485.3,329.7,485.3,335.2,481.9,338.6z"/>
		<path fill="#333333" d="M71.5,316.3h228.5c4.9,0,8.8-3.9,8.8-8.8s-3.9-8.8-8.8-8.8H71.5c-4.9,0-8.8,3.9-8.8,8.8
			S66.6,316.3,71.5,316.3z"/>
		<path fill="#333333" d="M264.8,351.5H71.5c-4.9,0-8.8,3.9-8.8,8.8c0,4.9,3.9,8.8,8.8,8.8h193.3c4.9,0,8.8-3.9,8.8-8.8
			C273.6,355.4,269.6,351.5,264.8,351.5z"/>
		<path fill="#333333" d="M71.5,158.2h114.2c4.9,0,8.8-3.9,8.8-8.8c0-4.9-3.9-8.8-8.8-8.8H71.5c-4.9,0-8.8,3.9-8.8,8.8
			C62.7,154.2,66.6,158.2,71.5,158.2z"/>
		<path fill="#333333" d="M185.7,421.8c4.9,0,8.8-3.9,8.8-8.8c0-4.9-3.9-8.8-8.8-8.8H71.5c-4.9,0-8.8,3.9-8.8,8.8
			c0,4.9,3.9,8.8,8.8,8.8H185.7z"/>
		<path fill="#333333" d="M326.3,193.3H71.5c-4.9,0-8.8,3.9-8.8,8.8c0,4.9,3.9,8.8,8.8,8.8h254.8c4.9,0,8.8-3.9,8.8-8.8
			C335.1,197.2,331.2,193.3,326.3,193.3z"/>
		<path fill="#333333" d="M71.5,263.6h123c4.9,0,8.8-3.9,8.8-8.8s-3.9-8.8-8.8-8.8h-123c-4.9,0-8.8,3.9-8.8,8.8
			S66.6,263.6,71.5,263.6z"/>
		<path fill="#333333" d="M335.1,254.8c0-4.9-3.9-8.8-8.8-8.8h-61.5c-4.9,0-8.8,3.9-8.8,8.8s3.9,8.8,8.8,8.8h61.5
			C331.2,263.6,335.1,259.7,335.1,254.8z"/>
		<path fill="#333333" d="M235.9,261c1.6-1.7,2.5-4,2.5-6.2s-1-4.6-2.5-6.2c-3.3-3.3-9.2-3.3-12.5,0c-1.6,1.7-2.5,4-2.5,6.2
			c0,2.4,1,4.6,2.5,6.2c1.7,1.6,4,2.5,6.2,2.5C231.9,263.6,234.2,262.6,235.9,261z"/>
		<path fill="#333333" d="M229.6,492.1H27.5V70.3h61.5v17.6c0,4.9,3.9,8.8,8.8,8.8h202.1c4.9,0,8.8-3.9,8.8-8.8V70.3h61.5v193.3
			c0,4.9,3.9,8.8,8.8,8.8c4.9,0,8.8-3.9,8.8-8.8V61.5c0-4.9-3.9-8.8-8.8-8.8h-70.3V35.1c0-4.9-3.9-8.8-8.8-8.8h-52.7V8.8
			c0-4.9-3.9-8.8-8.8-8.8h-79.1c-4.9,0-8.8,3.9-8.8,8.8v17.6H97.8c-4.9,0-8.8,3.9-8.8,8.8v17.6H18.8c-4.9,0-8.8,3.9-8.8,8.8v439.3
			c0,4.9,3.9,8.8,8.8,8.8h210.9c4.9,0,8.8-3.9,8.8-8.8C238.4,496,234.5,492.1,229.6,492.1z M168.1,17.6h61.5v17.6v17.6h-61.5V35.1
			V17.6z M106.6,43.9h43.9v17.6c0,4.9,3.9,8.8,8.8,8.8h79.1c4.9,0,8.8-3.9,8.8-8.8V43.9h43.9v17.6v17.6H106.6V61.5L106.6,43.9
			L106.6,43.9z"/>
	</g>
</g>
</svg>
