<?xml version="1.0" encoding="utf-8"?>
<!-- Generator: Adobe Illustrator 18.0.0, SVG Export Plug-In . SVG Version: 6.00 Build 0)  -->
<!DOCTYPE svg PUBLIC "-//W3C//DTD SVG 1.1//EN" "http://www.w3.org/Graphics/SVG/1.1/DTD/svg11.dtd">
<svg version="1.1" id="Layer_1" xmlns="http://www.w3.org/2000/svg" xmlns:xlink="http://www.w3.org/1999/xlink" x="0px" y="0px"
	 viewBox="0 0 612 792" enable-background="new 0 0 612 792" xml:space="preserve">
<g>
	<g>
		<path fill="#FD8A06" d="M365.2,465.1v-59.2h-34.1c-1.7-5.6-4-10.9-6.7-16l24.2-24.2l-41.9-41.9L282.5,348
			c-5.1-2.7-10.4-4.9-16-6.7v-34.1h-59.2v34.1c-5.6,1.7-10.9,4-16,6.7l-24.2-24.2l-41.9,41.9l24.2,24.2c-2.7,5.1-4.9,10.4-6.7,16
			h-34.1v9.9v39.5v9.9h34.1c1.7,5.6,4,10.9,6.7,16l-24.2,24.2l41.9,41.9l24.2-24.2c5.1,2.7,10.4,4.9,16,6.7v34.1h59.2v-34.1
			c5.6-1.7,10.9-4,16-6.7l24.2,24.2l41.9-41.9l-24.2-24.2c2.7-5.1,4.9-10.4,6.7-16C331.1,465.1,365.2,465.1,365.2,465.1z
			 M286.3,455.2h-4.2c-7.6,17.4-25,29.6-45.2,29.6s-37.6-12.2-45.2-29.6h-4.2l-59.2-19.7l59.2-19.7h4.2c7.6-17.4,25-29.6,45.2-29.6
			s37.6,12.2,45.2,29.6h4.2v19.7l0,0v0V455.2z"/>
		<path fill="#333333" d="M572.5,405.9h-19.7H533h-19.7h-19.7h-29.6v-227c0-16.3-13.3-29.6-29.6-29.6h-80.8
			c-4.1-11.5-14.9-19.7-27.8-19.7h-29.6v-9.9c0-16.3-13.3-29.6-29.6-29.6h-59.2c-16.3,0-29.6,13.3-29.6,29.6v9.9h-29.6
			c-12.9,0-23.7,8.3-27.8,19.7H39.5c-16.3,0-29.6,13.3-29.6,29.6v493.5c0,16.3,13.3,29.6,29.6,29.6h394.8
			c16.3,0,29.6-13.3,29.6-29.6V465.1h29.6h19.7H533h19.7h19.7c16.3,0,29.6-13.3,29.6-29.6C602.1,419.2,588.8,405.9,572.5,405.9z
			 M444.2,178.8v227h-29.6V198.6h-61c1.1-3.1,1.8-6.4,1.8-9.9V169h79C439.8,169,444.2,173.4,444.2,178.8z M138.2,159.1
			c0-5.4,4.4-9.9,9.9-9.9h49.4v-29.6c0-5.4,4.4-9.9,9.9-9.9h59.2c5.4,0,9.9,4.4,9.9,9.9v29.6h49.4c5.4,0,9.9,4.4,9.9,9.9v29.6
			c0,5.4-4.4,9.9-9.9,9.9H148.1c-5.4,0-9.9-4.4-9.9-9.9V159.1z M444.2,672.4c0,5.4-4.4,9.9-9.9,9.9H39.5c-5.4,0-9.9-4.4-9.9-9.9
			V178.8c0-5.4,4.4-9.9,9.9-9.9h79v19.7c0,3.5,0.7,6.8,1.8,9.9h-61v454.1h355.4V465.1h29.6V672.4z M493.5,445.4H365.2v19.7h29.6
			v167.8H79V218.3h69.1h177.7h69.1v187.5h-29.6v19.7h128.3V445.4z M533,445.4h-19.7v-19.7H533V445.4z M572.5,445.4h-19.7v-19.7h19.7
			c5.4,0,9.9,4.4,9.9,9.9C582.4,440.9,578,445.4,572.5,445.4z"/>
		<path fill="#333333" d="M236.9,376.3c-21.3,0-40.6,11.5-51.1,29.7l-88.6,29.6l88.6,29.6c10.5,18.2,29.9,29.7,51.1,29.7
			c32.7,0,59.2-26.6,59.2-59.2S269.6,376.3,236.9,376.3z M276.4,435.5c0,3.4-0.6,6.7-1.4,9.9h-77.6v-19.7H275
			C275.8,428.8,276.4,432.1,276.4,435.5z M262.7,405.9h-51.9c7.1-6.2,16.3-9.9,26.1-9.9C246.8,396,255.8,399.8,262.7,405.9z
			 M177.7,429.4v12.1l-18.1-6L177.7,429.4z M210.8,465.1h51.9c-6.9,6.1-15.9,9.9-25.8,9.9C227.1,475,217.9,471.3,210.8,465.1z"/>
	</g>
</g>
</svg>
