<?xml version="1.0" encoding="utf-8"?>
<!-- Generator: Adobe Illustrator 18.0.0, SVG Export Plug-In . SVG Version: 6.00 Build 0)  -->
<!DOCTYPE svg PUBLIC "-//W3C//DTD SVG 1.1//EN" "http://www.w3.org/Graphics/SVG/1.1/DTD/svg11.dtd">
<svg version="1.1" xmlns="http://www.w3.org/2000/svg" xmlns:xlink="http://www.w3.org/1999/xlink" x="0px" y="0px"
	 viewBox="0 0 512 512" enable-background="new 0 0 512 512" xml:space="preserve">
<g id="Layer_2">
	<rect x="37" y="74" fill="#FD8A06" stroke="#000000" stroke-miterlimit="10" width="309" height="57"/>
</g>
<g id="Layer_1">
	<g>
		<g>
			<g>
				<path fill="#333333" d="M326.5,225.8c4.6,0,8.4-3.7,8.4-8.4c0-4.6-3.7-8.4-8.4-8.4h-59.8c-4.6,0-8.4,3.7-8.4,8.4
					s3.7,8.4,8.4,8.4H326.5z"/>
				<path fill="#333333" d="M64.4,110.5h262.2c4.6,0,8.4-3.7,8.4-8.4c0-4.6-3.7-8.4-8.4-8.4H64.4c-4.6,0-8.4,3.7-8.4,8.4
					C56,106.7,59.8,110.5,64.4,110.5z"/>
				<path fill="#333333" d="M64.4,187.3h262.2c4.6,0,8.4-3.7,8.4-8.4s-3.7-8.4-8.4-8.4H64.4c-4.6,0-8.4,3.7-8.4,8.4
					C56,183.6,59.8,187.3,64.4,187.3z"/>
				<path fill="#333333" d="M64.4,225.8h177.1c4.6,0,8.4-3.7,8.4-8.4s-3.7-8.4-8.4-8.4H64.4c-4.6,0-8.4,3.7-8.4,8.4
					S59.8,225.8,64.4,225.8z"/>
				<path fill="#333333" d="M326.5,362.8h-85.1c-4.6,0-8.4,3.7-8.4,8.4s3.7,8.4,8.4,8.4h85.1c4.6,0,8.4-3.7,8.4-8.4
					C334.9,366.6,331.1,362.8,326.5,362.8z"/>
				<path fill="#333333" d="M326.5,324.4H169.1c-4.6,0-8.4,3.7-8.4,8.4c0,4.6,3.7,8.4,8.4,8.4h157.4c4.6,0,8.4-3.7,8.4-8.4
					C334.9,328.1,331.1,324.4,326.5,324.4z"/>
				<path fill="#333333" d="M171.8,255.9c0,4.6,3.7,8.4,8.4,8.4h146.4c4.6,0,8.4-3.7,8.4-8.4c0-4.6-3.7-8.4-8.4-8.4H180.1
					C175.5,247.5,171.8,251.3,171.8,255.9z"/>
				<path fill="#333333" d="M64.4,418h262.2c4.6,0,8.4-3.7,8.4-8.4c0-4.6-3.7-8.4-8.4-8.4H64.4c-4.6,0-8.4,3.7-8.4,8.4
					S59.8,418,64.4,418z"/>
				<path fill="#333333" d="M64.4,264.2H156c4.6,0,8.4-3.7,8.4-8.4c0-4.6-3.7-8.4-8.4-8.4H64.4c-4.6,0-8.4,3.7-8.4,8.4
					C56,260.5,59.8,264.2,64.4,264.2z"/>
				<path fill="#333333" d="M503.6,1.6H129.4c-4.6,0-8.4,3.7-8.4,8.4v16.2H8.4c-4.6,0-8.4,3.7-8.4,8.4v467.6c0,4.6,3.7,8.4,8.4,8.4
					h374.2c4.6,0,8.4-3.7,8.4-8.4v-16.2h112.7c4.6,0,8.4-3.7,8.4-8.4V9.9C512,5.3,508.3,1.6,503.6,1.6z M374.2,493.7H16.7V42.8
					h357.5V493.7z M495.3,469.2H390.9v-75.7h56.7c4.6,0,8.4-3.7,8.4-8.4s-3.7-8.4-8.4-8.4h-56.7V355h56.7c4.6,0,8.4-3.7,8.4-8.4
					s-3.7-8.4-8.4-8.4h-56.7v-21.7h56.7c4.6,0,8.4-3.7,8.4-8.4s-3.7-8.4-8.4-8.4h-56.7v-21.7h7.3c4.6,0,8.4-3.7,8.4-8.4
					c0-4.6-3.7-8.4-8.4-8.4h-7.3v-21.7h56.7c4.6,0,8.4-3.7,8.4-8.4s-3.7-8.4-8.4-8.4h-56.7v-21.7h56.7c4.6,0,8.4-3.7,8.4-8.4
					s-3.7-8.4-8.4-8.4h-56.7v-21.7h56.7c4.6,0,8.4-3.7,8.4-8.4s-3.7-8.4-8.4-8.4h-56.7v-21.7h56.7c4.6,0,8.4-3.7,8.4-8.4
					c0-4.6-3.7-8.4-8.4-8.4h-56.7V85.9h56.7c4.6,0,8.4-3.7,8.4-8.4s-3.7-8.4-8.4-8.4h-56.7V34.5c0-4.6-3.7-8.4-8.4-8.4H137.8v-7.8
					h357.5V469.2z"/>
				<path fill="#333333" d="M64.4,456.4h164c4.6,0,8.4-3.7,8.4-8.4s-3.7-8.4-8.4-8.4h-164c-4.6,0-8.4,3.7-8.4,8.4
					C56,452.7,59.8,456.4,64.4,456.4z"/>
				<path fill="#333333" d="M64.4,341.1h74c4.6,0,8.4-3.7,8.4-8.4c0-4.6-3.7-8.4-8.4-8.4h-74c-4.6,0-8.4,3.7-8.4,8.4
					C56,337.4,59.8,341.1,64.4,341.1z"/>
				<path fill="#333333" d="M64.4,379.5h147.1c4.6,0,8.4-3.7,8.4-8.4s-3.7-8.4-8.4-8.4H64.4c-4.6,0-8.4,3.7-8.4,8.4
					S59.8,379.5,64.4,379.5z"/>
			</g>
		</g>
	</g>
</g>
</svg>
