<?xml version="1.0" encoding="utf-8"?>
<!-- Generator: Adobe Illustrator 18.0.0, SVG Export Plug-In . SVG Version: 6.00 Build 0)  -->
<!DOCTYPE svg PUBLIC "-//W3C//DTD SVG 1.1//EN" "http://www.w3.org/Graphics/SVG/1.1/DTD/svg11.dtd">
<svg version="1.1" xmlns="http://www.w3.org/2000/svg" xmlns:xlink="http://www.w3.org/1999/xlink" x="0px" y="0px"
	 viewBox="0 0 512 512" enable-background="new 0 0 512 512" xml:space="preserve">
<g id="Layer_2">
	<rect x="51" y="313.3" fill="#FD8A06" stroke="#000000" stroke-miterlimit="10" width="412" height="58.8"/>
</g>
<g id="Layer_1">
	<g>
		<g>
			<path fill="#333333" d="M474,167.3h-13.7l-330-139c-9.4-3.9-19.7-4-29.1-0.2C91.8,32,84.4,39.3,80.5,48.6L30.2,168.1
				C13,171.7,0,187,0,205.3v243.3c0,21,17.1,38,38,38h436c21,0,38-17.1,38-38V205.3C512,184.4,494.9,167.3,474,167.3z M94.5,54.5
				c2.4-5.6,6.8-10,12.4-12.3c5.6-2.3,11.8-2.3,17.5,0.1l296.7,124.9H313.7L87.2,71.9L94.5,54.5z M81.3,85.9l193.2,81.4H131.1
				l-71.4-30.1L81.3,85.9z M53.8,151.2l38.1,16.1H47L53.8,151.2z M496.8,448.6c0,12.6-10.2,22.8-22.8,22.8H38
				c-12.6,0-22.8-10.2-22.8-22.8V205.3c0-12.6,10.2-22.8,22.8-22.8h90h221.8H474c12.6,0,22.8,10.2,22.8,22.8L496.8,448.6
				L496.8,448.6z"/>
		</g>
	</g>
	<g>
		<g>
			<rect x="89.7" y="336.6" fill="#333333" width="15.2" height="15.2"/>
		</g>
	</g>
	<g>
		<g>
			<rect x="120.1" y="336.6" fill="#333333" width="15.2" height="15.2"/>
		</g>
	</g>
	<g>
		<g>
			<rect x="59.3" y="336.6" fill="#333333" width="15.2" height="15.2"/>
		</g>
	</g>
	<g>
		<g>
			<rect x="226.3" y="336.6" fill="#333333" width="15.2" height="15.2"/>
		</g>
	</g>
	<g>
		<g>
			<rect x="165.4" y="336.6" fill="#333333" width="15.2" height="15.2"/>
		</g>
	</g>
	<g>
		<g>
			<rect x="195.8" y="336.6" fill="#333333" width="15.2" height="15.2"/>
		</g>
	</g>
	<g>
		<g>
			<rect x="332.4" y="336.6" fill="#333333" width="15.2" height="15.2"/>
		</g>
	</g>
	<g>
		<g>
			<rect x="302" y="336.6" fill="#333333" width="15.2" height="15.2"/>
		</g>
	</g>
	<g>
		<g>
			<rect x="271.5" y="336.6" fill="#333333" width="15.2" height="15.2"/>
		</g>
	</g>
	<g>
		<g>
			<rect x="377.7" y="336.6" fill="#333333" width="15.2" height="15.2"/>
		</g>
	</g>
	<g>
		<g>
			<rect x="438.5" y="336.6" fill="#333333" width="15.2" height="15.2"/>
		</g>
	</g>
	<g>
		<g>
			<rect x="408.1" y="336.6" fill="#333333" width="15.2" height="15.2"/>
		</g>
	</g>
	<g>
		<g>
			<path fill="#333333" d="M134.3,227.1H73.5c-15.4,0-27.9,12.5-27.9,27.9v30.4c0,15.4,12.5,27.9,27.9,27.9h60.8
				c15.4,0,27.9-12.5,27.9-27.9V255C162.2,239.6,149.7,227.1,134.3,227.1z M101.4,242.3h15.2v32.4h-15.2V242.3z M86.2,298.1H73.5
				c-7,0-12.7-5.7-12.7-12.7v-11.7h25.3L86.2,298.1L86.2,298.1z M86.2,258.5H60.8V255c0-7,5.7-12.7,12.7-12.7h12.7
				C86.2,242.3,86.2,258.5,86.2,258.5z M134.3,298.1h-32.9V290h44.8C144.3,294.7,139.7,298.1,134.3,298.1z M147,274.8h-15.2v-32.4
				h2.5c7,0,12.7,5.7,12.7,12.7L147,274.8L147,274.8z"/>
		</g>
	</g>
	<g>
		<g>
			<path fill="#333333" d="M434.4,372.1c-7.2,0-14,1.9-19.9,5.3c-5.9-3.4-12.6-5.3-19.9-5.3c-22.1,0-40,18-40,40s18,40,40,40
				c7.2,0,14-1.9,19.9-5.3c5.9,3.4,12.6,5.3,19.9,5.3c22.1,0,40-18,40-40S456.5,372.1,434.4,372.1z M402.2,435.8
				c-2.4,0.8-4.9,1.2-7.5,1.2c-13.7,0-24.8-11.1-24.8-24.8c0-13.7,11.1-24.8,24.8-24.8c2.6,0,5.1,0.4,7.5,1.2
				c-4.9,6.6-7.8,14.8-7.8,23.7S397.3,429.2,402.2,435.8z M414.6,427c-3.1-4.1-5-9.3-5-14.9s1.8-10.7,5-14.9c3.1,4.1,5,9.3,5,14.9
				C419.5,417.7,417.7,422.9,414.6,427z M434.4,437c-2.6,0-5.1-0.4-7.5-1.2c4.9-6.6,7.8-14.8,7.8-23.7s-2.9-17-7.8-23.7
				c2.4-0.8,4.9-1.2,7.5-1.2c13.7,0,24.8,11.1,24.8,24.8C459.3,425.8,448.1,437,434.4,437z"/>
		</g>
	</g>
</g>
</svg>
