<?xml version="1.0" encoding="utf-8"?>
<!-- Generator: Adobe Illustrator 18.0.0, SVG Export Plug-In . SVG Version: 6.00 Build 0)  -->
<!DOCTYPE svg PUBLIC "-//W3C//DTD SVG 1.1//EN" "http://www.w3.org/Graphics/SVG/1.1/DTD/svg11.dtd">
<svg version="1.1" id="Layer_1" xmlns="http://www.w3.org/2000/svg" xmlns:xlink="http://www.w3.org/1999/xlink" x="0px" y="0px"
	 viewBox="0 0 612 792" enable-background="new 0 0 612 792" xml:space="preserve">
<path fill="#333333" d="M483.5,343.1l50-163.8l-29.1-73.2l-65,44.5l-57.2,187.2h-6.8V220.6l10.6-52.9L326.2,96l-59.8,71.8l10.6,52.9
	v117.2h-15.3L213.8,90L78.5,116.2l43.1,222.4c-18,3.7-31.5,19.6-31.5,38.6c0,18.3,12.6,33.6,29.5,38V663c0,21.5,17.5,39,39,39h276.4
	c21.5,0,39-17.5,39-39V415.1c16.9-4.4,29.5-19.7,29.5-38C503.4,362.6,495.4,349.9,483.5,343.1z M510.8,186.3l-46.3,151.5
	c-0.2,0-0.3,0-0.5,0H444l48-157.2L510.8,186.3z M506.4,164.4l-36.2-11l25-17.1L506.4,164.4z M454.3,169.1l18.8,5.7l-49.8,163h-20.6
	L454.3,169.1z M296.7,229.5h59.1v19.7h-59.1L296.7,229.5L296.7,229.5z M326.2,126.8l38.6,46.4l-7.3,36.7h-21.5v-29.5h-19.7v29.5
	h-21.5l-7.3-36.7L326.2,126.8z M296.7,268.9h59.1v68.9h-59.1L296.7,268.9L296.7,268.9z M198.2,113.1l43.5,224.7H141.4l-2.5-12.7
	l29-5.6l-3.8-19.3l-29,5.6l-3.7-19.3l48.3-9.4l-3.8-19.3l-48.3,9.4l-3.7-19.3l29-5.6l-3.8-19.3l-29,5.6l-3.7-19.3l48.3-9.4
	l-3.8-19.3l-48.3,9.4l-3.8-19.3l29-5.6l-3.8-19.3l-29,5.6l-3.7-19.3L198.2,113.1z M434.9,682.3H158.5c-10.6,0-19.3-8.7-19.3-19.3
	V416.5h315V663C454.2,673.7,445.5,682.3,434.9,682.3z M464.1,396.8H129.4c-10.9,0-19.7-8.8-19.7-19.7s8.8-19.7,19.7-19.7h136.2H277
	h98.4h88.6c1.4,0,3,0.2,5,0.7l0.8,0.2c8.1,2.5,14,9.9,14,18.7C483.7,388,474.9,396.8,464.1,396.8z"/>
<rect x="168.7" y="475.6" fill="#FD8A06" width="255.9" height="108.3"/>
</svg>
