<?xml version="1.0" encoding="utf-8"?>
<!-- Generator: Adobe Illustrator 18.0.0, SVG Export Plug-In . SVG Version: 6.00 Build 0)  -->
<!DOCTYPE svg PUBLIC "-//W3C//DTD SVG 1.1//EN" "http://www.w3.org/Graphics/SVG/1.1/DTD/svg11.dtd">
<svg version="1.1" id="Layer_1" xmlns="http://www.w3.org/2000/svg" xmlns:xlink="http://www.w3.org/1999/xlink" x="0px" y="0px"
	 viewBox="0 0 5000 5000" enable-background="new 0 0 5000 5000" xml:space="preserve">
<rect display="none" fill="#92D1D7" width="5000" height="5000"/>
<path fill="#B4E1E5" d="M711.8,2713.1L966,3148.1c35.5,60.7,15.9,138.4-43.6,173.1c-55.6,32.5-126.7,16.2-164.8-35.6
	c-67.5,34.7-152.1,9.7-191.7-57.9c-10.2-17.4-16.7-36.7-19.3-56.5c-67.7-3-130-40.7-165-100.5c-56-95.8-25.2-218.4,68.7-273.3
	c8.9-5.2,18.4-9.8,28.2-13.5c-3.6-47.5,19.9-93.8,60.9-117.8C599,2631.4,676.3,2652.5,711.8,2713.1z M774.6,3260
	c27.6,47.2,87.5,63.8,133.6,36.8c46.1-26.9,61.1-87.3,33.5-134.5l-254.2-434.9c-27.6-47.2-87.5-63.8-133.6-36.8
	c-34.3,20.1-52.7,60.5-45.9,100.5l2.1,12.1l-11.7,3.7c-11.8,3.7-23.1,8.7-33.6,14.9c-80.4,47-106.7,152.2-58.5,234.6
	c32.1,54.9,90.8,88.1,153.3,86.7l14-0.3l0.5,14c0.7,19.8,6.4,39.4,16.5,56.7c33,56.5,104.7,76.2,159.8,44c1.5-0.9,3-1.8,4.3-2.7
	l12.4-8L774.6,3260z"/>
<path fill="#B4E1E5" d="M2010.8,892.1c-3,0-6-0.9-8.6-2.8c-4.5-3.3-6.7-8.8-5.8-14.2l37.3-217.2L1875.9,504c-4-3.9-5.4-9.7-3.7-14.9
	c1.7-5.3,6.3-9.1,11.7-9.9l218.1-31.7l97.5-197.6c2.5-5,7.5-8.1,13.1-8.1c5.5,0,10.6,3.1,13.1,8.1l97.5,197.6l218.1,31.7
	c5.5,0.8,10,4.6,11.7,9.9c1.7,5.3,0.3,11.1-3.7,14.9l-157.8,153.8l37.3,217.2c0.9,5.5-1.3,11-5.8,14.2c-4.5,3.3-10.4,3.7-15.3,1.1
	l-195.1-102.6l-195.1,102.6C2015.5,891.6,2013.2,892.1,2010.8,892.1z M1917.4,503.8l142.2,138.6c3.4,3.3,5,8.2,4.2,12.9L2030.2,851
	l175.8-92.4c4.2-2.2,9.3-2.2,13.5,0l175.7,92.4l-33.6-195.7c-0.8-4.7,0.8-9.5,4.2-12.9L2508,503.8l-196.5-28.6
	c-4.7-0.7-8.8-3.7-11-8l-87.9-178.1l-87.9,178.1c-2.1,4.3-6.2,7.3-11,8L1917.4,503.8z"/>
<path fill="#B4E1E5" d="M3735.1,3964.8c4.9,1.9,10.1,3.1,15.4,3.6c11.5,1,22.8-1.6,32.6-7.5l464.7-276.7c11-6.6,19.4-16.9,23.7-29.1
	c1.1-3.3,1.9-6.2,2.4-9.1c0.3-1.9,0.5-3.9,0.6-6.3c0.5-10.8-2.1-21.4-7.6-30.7L4091,3313.6c-4.8-8.1-11.8-14.9-20-19.6
	c-4.6-2.6-9.6-4.5-14.7-5.7c-13.9-3.2-28.3-1-40.5,6.2l-464.7,276.7c-11,6.5-19.4,16.8-23.6,28.9c-1.8,5-2.8,10.1-3.1,15.4
	c-0.6,10.9,2.1,21.6,7.6,30.9l175.9,295.4C3714.1,3952.3,3723.5,3960.3,3735.1,3964.8z M3997.7,3591.9l69.8-271.9
	c1.5,1.6,2.8,3.4,3.9,5.3l175.9,295.4c2.1,3.6,3.5,7.5,4.1,11.6L3997.7,3591.9z M3826.2,3694.6l-87.2,246.9
	c-4.8-2.7-8.7-6.6-11.6-11.4l-175.9-295.4c-1.8-3.1-3.1-6.4-3.8-9.9L3826.2,3694.6z M4246.6,3654.6c-2.7,4.1-6.2,7.5-10.4,10
	l-464.7,276.7c-2.9,1.7-6.1,3-9.4,3.7l122.9-348L4246.6,3654.6z M3975.1,3588.3l-102-16.2c-2-0.3-3.9,0.8-4.6,2.7l-34.7,98.2
	l-282.4-70.8c2.7-4.7,6.6-8.6,11.3-11.5l464.7-276.7c5.8-3.4,12.4-4.9,19.1-4.4L3975.1,3588.3z"/>
<g>
	<g>
		<path fill="#B4E1E5" d="M1572.4,3943.7h-44.9c-0.7-2.3-1.5-4.6-2.3-6.9l36.3-26.4c2.3-1.6,3.8-4.1,4.2-6.8
			c0.4-2.8-0.2-5.5-1.9-7.8l-54.3-74.7c-2-2.7-5.1-4.3-8.5-4.3c-2.2,0-4.3,0.7-6.1,2l-36.4,26.4c-1.9-1.4-3.9-2.8-5.8-4.2l13.9-42.8
			c1.8-5.5-1.2-11.4-6.7-13.2l-87.9-28.5c-1-0.3-2.1-0.5-3.2-0.5c-4.5,0-8.5,2.9-9.9,7.2l-13.9,42.8c-2.4,0-4.8,0-7.2,0l-13.9-42.8
			c-1.4-4.3-5.4-7.2-9.9-7.2c-1.1,0-2.2,0.2-3.2,0.5l-87.9,28.5c-2.7,0.9-4.8,2.7-6.1,5.2c-1.3,2.5-1.5,5.3-0.6,8l13.9,42.8
			c-2,1.4-3.9,2.8-5.8,4.2l-36.4-26.4c-1.8-1.3-3.9-2-6.1-2c-3.3,0-6.5,1.6-8.5,4.3l-54.3,74.7c-1.6,2.3-2.3,5-1.9,7.8
			c0.4,2.7,2,5.2,4.2,6.8l36.4,26.4c-0.8,2.3-1.6,4.6-2.3,6.9h-44.9c-5.8,0-10.5,4.7-10.5,10.5v92.4c0,5.8,4.7,10.5,10.5,10.5h44.9
			c0.7,2.3,1.4,4.5,2.3,6.9l-36.4,26.4c-4.7,3.4-5.7,9.9-2.3,14.6l54.3,74.7c2,2.7,5.1,4.3,8.5,4.3c2.2,0,4.3-0.7,6.1-2l36.4-26.4
			c1.9,1.4,3.8,2.8,5.9,4.2l-13.9,42.8c-0.9,2.6-0.6,5.5,0.6,8c1.3,2.5,3.4,4.3,6.1,5.2l87.9,28.5c1.1,0.3,2.1,0.5,3.2,0.5
			c4.5,0,8.5-2.9,9.9-7.2l13.9-42.8c2.4,0,4.8,0,7.2,0l13.9,42.8c1.4,4.3,5.4,7.2,9.9,7.2c1.1,0,2.2-0.2,3.2-0.5l87.9-28.5
			c2.7-0.9,4.8-2.7,6.1-5.2c1.3-2.5,1.5-5.3,0.6-8l-13.9-42.8c2-1.4,4-2.8,5.9-4.2l36.3,26.4c2.2,1.6,5,2.3,7.8,1.9
			c2.8-0.4,5.2-1.9,6.8-4.2l54.3-74.8c1.6-2.3,2.3-5,1.9-7.8c-0.4-2.8-1.9-5.2-4.2-6.8l-36.3-26.4c0.8-2.3,1.6-4.6,2.3-6.9h44.9
			c5.8,0,10.5-4.7,10.5-10.5v-92.4C1582.9,3948.4,1578.2,3943.7,1572.4,3943.7z M1509.5,4043.9c-1.6,6.5-3.8,13.1-6.5,19.8
			c-1.8,4.4-0.3,9.5,3.6,12.3l34.3,24.9l-42,57.8l-34.3-24.9c-3.8-2.7-9.2-2.6-12.8,0.4c-5.2,4.3-10.7,8.3-17,12.3
			c-4,2.6-5.8,7.5-4.3,12l13.1,40.4l-68,22.1l-13.1-40.4c-1.4-4.3-5.4-7.2-10-7.2c-0.2,0-0.4,0-0.6,0c-7.3,0.5-13.4,0.5-20.9,0
			c-4.8-0.3-9.1,2.7-10.6,7.2l-13.2,40.4l-68-22.1l13.1-40.4c1.5-4.5-0.3-9.5-4.3-12c-6.3-4.1-11.9-8.1-17-12.3
			c-3.6-3-9-3.1-12.8-0.4l-34.3,24.9l-42-57.8l34.3-24.9c3.8-2.8,5.3-7.8,3.6-12.3c-2.8-7.1-4.9-13.6-6.5-19.9
			c-1.2-4.6-5.3-7.8-10.1-7.8h-42.4v-71.5h42.4c4.8,0,8.9-3.2,10.1-7.8c1.6-6.3,3.8-12.9,6.5-19.9c1.7-4.4,0.2-9.5-3.6-12.3
			l-34.3-24.9l42-57.8l34.3,24.9c3.8,2.7,9.2,2.5,12.8-0.4c5.2-4.2,10.9-8.4,17-12.2c4-2.6,5.8-7.5,4.3-12.1l-13.1-40.4l68-22.1
			l13.2,40.4c1.5,4.5,5.7,7.5,10.6,7.2c6.9-0.4,13.8-0.4,20.8,0c4.8,0.4,9.1-2.7,10.6-7.2l13.1-40.4l68,22.1l-13.1,40.4
			c-1.5,4.5,0.3,9.5,4.3,12.1c6,3.8,11.7,7.9,16.9,12.2c3.6,3,9,3.1,12.8,0.4l34.3-24.9l42,57.8l-34.3,24.9
			c-3.9,2.8-5.3,7.9-3.6,12.3c2.7,6.7,4.9,13.4,6.5,19.8c1.2,4.6,5.3,7.9,10.1,7.9h42.4v71.5h-42.4
			C1514.8,4036.1,1510.6,4039.3,1509.5,4043.9z"/>
		<path fill="#B4E1E5" d="M1341.4,3875.8c-68.7,0-124.6,55.9-124.6,124.6s55.9,124.6,124.6,124.6c68.7,0,124.6-55.9,124.6-124.6
			S1410.1,3875.8,1341.4,3875.8z M1341.4,4104c-57.2,0-103.6-46.5-103.6-103.7c0-57.2,46.5-103.7,103.6-103.7
			s103.7,46.5,103.7,103.7C1445.1,4057.5,1398.6,4104,1341.4,4104z"/>
	</g>
</g>
<g>
	<g>
		<path fill="#B4E1E5" d="M1030.8,3392.8l-124.4,166.4c-32.6-14-68.2-19-103.4-14.3c-107.8,14.2-184,113.4-169.8,221.2
			c14.2,107.8,113.4,184,221.2,169.8c107.8-14.2,184-113.4,169.8-221.2c-3.8-28.6-13.6-55.5-29.1-79.9l128.8-172.4
			c9.1-12.2,13.1-27.3,11.1-42.4c-2.1-15.7-10.2-29.5-22.8-39c-12.4-9.3-27.8-13.2-43.1-11
			C1053.6,3372.3,1040.1,3380.4,1030.8,3392.8z M905.2,3581.5l5.3,2.6c1.4,0.7,3.1,0.3,4-1l132.9-177.8c6-8,14.7-13.2,24.6-14.6
			c9.9-1.4,19.7,1.1,27.8,7.1c8.1,6.1,13.4,15,14.7,25.1c1.3,9.7-1.3,19.4-7.1,27.3l-136.2,182.3c-0.5,0.7-0.7,1.5-0.6,2.4
			c0.1,0.5,0.2,1,0.5,1.4l2.9,4.2c16.1,23.3,26.1,49.2,29.8,77.1c12.7,96.5-55.5,185.3-151.9,197.9
			c-96.5,12.7-185.3-55.5-197.9-151.9c-12.7-96.5,55.5-185.2,151.9-197.9C839.8,3561,874.2,3566.5,905.2,3581.5z"/>
		<path fill="#B4E1E5" d="M697.1,3757.7c9.6,72.6,76.4,123.9,149,114.3c72.6-9.6,123.9-76.4,114.3-149
			c-3.2-24.5-13.3-47.7-29.2-66.9c-9.6-11.6-20.8-21.4-33.5-29.1c-25.8-15.7-56.5-22.2-86.4-18.3
			C738.8,3618.3,687.5,3685.1,697.1,3757.7z M814.1,3629.3c25.6-3.4,50.8,2,72.9,15.4c10.6,6.5,20.2,14.8,28.3,24.6
			c13.4,16.3,21.9,35.8,24.6,56.4c8.1,61.3-35.2,117.7-96.5,125.7c-61.3,8.1-117.7-35.2-125.7-96.5
			C709.6,3693.8,752.9,3637.4,814.1,3629.3z"/>
	</g>
</g>
<g>
	<g>
		<path fill="#B4E1E5" d="M1924.4,4462.9c53.3,10,104.8-25.1,114.8-78.4c10-53.3-25.1-104.8-78.4-114.8
			c-53.3-10.1-104.8,25.1-114.8,78.4C1836,4401.3,1871.2,4452.8,1924.4,4462.9z M1864.5,4351.5c8.1-43.1,49.8-71.6,93-63.4
			c43.1,8.1,71.6,49.8,63.4,92.9c-8.1,43.1-49.8,71.6-92.9,63.4C1884.8,4436.3,1856.3,4394.6,1864.5,4351.5z"/>
		<path fill="#B4E1E5" d="M1737.3,4454.6c29.6,61.3,84,106.8,145.6,121.7c0.1,0,0.1,0,0.2,0l28.2,5.3c0.1,0,0.1,0,0.2,0
			c64.7,8.8,133.4-15.3,183.8-64.5c46.1-45.1,68.7-104.5,62.1-163.1c-8.2-54.2-25.7-109.6-54.9-174.4c-7.9-17.6-16.8-36-27.8-57.8
			c-8.8-17.5-17.6-34.4-25.9-50.1l-6.5-12.5c-8.9-17-18.2-34.6-27.1-52.2l-1.2-2.3c-0.6-1.1-1.6-1.9-2.9-2.1l-11.3-2.1
			c-1.2-0.2-2.5,0.1-3.5,1l-2,1.8c-17.7,16.2-36.2,32.3-54,47.9l-0.6,0.5c-13.5,11.8-27.9,24.4-42.3,37.3
			c-17.8,15.9-33,30-46.6,43.3c-53.6,52.1-91.2,99.5-118.4,149.1l-0.2,0.4C1707.9,4334.6,1709.7,4397.6,1737.3,4454.6z
			 M1749.1,4290.2c26.2-47.7,62.7-93.5,114.8-144.2c13.5-13.1,28.5-27.1,46.1-42.8c14.1-12.6,28.6-25.3,42.1-37.2l0.6-0.5
			c16.1-14.1,32.8-28.7,49-43.3c8,15.5,16.1,31,24,46l6.5,12.4c8.3,15.8,17.1,32.8,25.7,49.8c10.9,21.6,19.6,39.8,27.4,57.1
			c28.5,63.1,45.5,116.9,53.4,169.1c6,52.6-14.7,106.2-56.6,147.2c-46.3,45.2-109,67.4-167.8,59.4l-27.4-5.2
			c-56-13.6-105.6-55.3-132.7-111.6C1729.1,4394.6,1727.3,4337.6,1749.1,4290.2z"/>
	</g>
</g>
<g>
	<g>
		
			<rect x="3704.3" y="897.1" transform="matrix(-0.7081 -0.7061 0.7061 -0.7081 5940.7437 4271.7266)" fill="#B4E1E5" width="297.9" height="21.8"/>
		
			<rect x="3473.6" y="1128.5" transform="matrix(-0.7081 -0.7061 0.7061 -0.7081 5383.2139 4504.0469)" fill="#B4E1E5" width="297.9" height="21.8"/>
		
			<rect x="3678.7" y="922.8" transform="matrix(-0.7081 -0.7061 0.7061 -0.7081 5878.7852 4297.5493)" fill="#B4E1E5" width="297.9" height="21.8"/>
		
			<rect x="3653.1" y="948.5" transform="matrix(-0.7081 -0.7061 0.7061 -0.7081 5816.8271 4323.3672)" fill="#B4E1E5" width="297.9" height="21.8"/>
		
			<rect x="3550.5" y="1051.3" transform="matrix(-0.7081 -0.7061 0.7061 -0.7081 5569.0581 4426.6079)" fill="#B4E1E5" width="297.9" height="21.8"/>
		
			<rect x="3524.9" y="1077" transform="matrix(-0.7081 -0.7061 0.7061 -0.7081 5507.106 4452.4214)" fill="#B4E1E5" width="297.9" height="21.8"/>
		
			<rect x="3499.2" y="1102.7" transform="matrix(-0.7081 -0.7061 0.7061 -0.7081 5445.1479 4478.2412)" fill="#B4E1E5" width="297.9" height="21.8"/>
		
			<rect x="3627.4" y="974.2" transform="matrix(-0.7081 -0.7061 0.7061 -0.7081 5754.9033 4349.165)" fill="#B4E1E5" width="297.9" height="21.8"/>
		
			<rect x="3601.8" y="999.9" transform="matrix(-0.7081 -0.7061 0.7061 -0.7081 5692.9502 4374.9829)" fill="#B4E1E5" width="297.9" height="21.8"/>
		
			<rect x="3576.1" y="1025.6" transform="matrix(-0.7081 -0.7061 0.7061 -0.7081 5630.9907 4400.8032)" fill="#B4E1E5" width="297.9" height="21.8"/>
		<path fill="#B4E1E5" d="M4178.2,1034l-265.5-264.7l-52,52.1l-93.2-92.9l-322.3,323.2l265.5,264.7l52-52.1l93.2,92.9L4178.2,1034z
			 M3476.1,1051.6l291.5-292.3l234.6,234l-291.5,292.3L3476.1,1051.6z M3799.6,1227.3l65.9,65.8l15.4-15.4l-65.9-65.8l10.3-10.3
			l65.9,65.8l15.4-15.4l-65.9-65.8l10.3-10.3l65.9,65.8l15.4-15.4l-65.9-65.8l10.3-10.3l65.9,65.8l15.4-15.4l-65.9-65.8l10.3-10.3
			l65.9,65.8l15.4-15.4l-65.9-65.8l10.3-10.3l65.9,65.8l15.4-15.4l-65.9-65.8l10.3-10.3l65.9,65.8l15.4-15.4l-65.9-65.8l10.3-10.3
			l65.9,65.8l15.4-15.4l-65.9-65.8l10.3-10.3l65.9,65.8l15.4-15.4l-65.9-65.8l10.3-10.3l65.9,65.8l15.4-15.4l-211-210.4l-12.7,12.7
			l-11.8-11.8l36.6-36.7l234.6,234l-291.5,292.3l-77.8-77.5L3799.6,1227.3z"/>
	</g>
</g>
<g>
	<g>
		<path fill="#B4E1E5" d="M4681.8,2408.6l-72.5-394.3l-476.6,30.6l92.8,504.5L4681.8,2408.6z M4658.9,2394.7l-417.8,129l-84.6-460.2
			l436.4-28.1L4658.9,2394.7z"/>
		<path fill="#B4E1E5" d="M4499.3,2090.9c-33.7,5.2-109.5,22.2-148.8,73.5c-21.4,27.9-28.7,61.7-21.6,100.3
			c7.1,38.7,26,68.2,56.1,87.8c55.2,35.9,132.4,28.5,166,23c4.4,4.7,10.9,6.9,17.4,5.8c10.4-1.9,17.2-11.9,15.3-22.2
			c-1.9-10.4-11.9-17.2-22.2-15.3c-6.6,1.2-11.9,5.7-14.3,11.8c-31.4,5-102.7,11.5-151.1-20c-25.3-16.4-41.2-41.5-47.2-74.4
			c-6-32.8-0.1-61.1,17.7-84.3c34.3-44.7,103.9-60.6,135.3-65.6c4.3,5.3,11.3,7.9,18.1,6.6c10.4-1.9,17.2-11.9,15.3-22.2
			c-1.9-10.4-11.9-17.2-22.2-15.3C4507,2081.3,4501.9,2085.4,4499.3,2090.9z"/>
	</g>
</g>
<g>
	<g>
		<path fill="#B4E1E5" d="M3418.6,3951.1c-149.9,0-271.8,121.9-271.8,271.8s121.9,271.8,271.8,271.8
			c149.9,0,271.8-121.9,271.8-271.8S3568.5,3951.1,3418.6,3951.1z M3668.1,4222.9c0,137.6-111.9,249.5-249.5,249.5
			c-137.6,0-249.5-111.9-249.5-249.5c0-137.6,111.9-249.5,249.5-249.5C3556.2,3973.4,3668.1,4085.3,3668.1,4222.9z"/>
		<path fill="#B4E1E5" d="M3372.7,4166.8l-1.1,0.5l-117.6,181l-20.6,32.3l35.5-14.9l196.7-87.1l117.6-181l20.6-32.3l-35.5,14.9
			L3372.7,4166.8z M3294.3,4328.9l93-143.2l155.6-68.9l-93,143.2L3294.3,4328.9z"/>
		<path fill="#B4E1E5" d="M3418.6,4198.7c-15.3,0-27.7,12.4-27.7,27.7s12.4,27.7,27.7,27.7c15.3,0,27.7-12.4,27.7-27.7
			S3433.9,4198.7,3418.6,4198.7z"/>
	</g>
</g>
<g>
	<g>
		<path fill="#B4E1E5" d="M4354.4,2638.8c-1.4-0.3-143.5-30.1-170.4,76.1c-26.9,106.2,112.3,147.5,113.7,147.9l6.1,1.8
			c1.1,0.3,2.3,0.3,3.4-0.1c0.7,0.6,1.5,1.1,2.4,1.3l166.7,42.2c0.2,0,0.4,0.1,0.6,0.1l1.2,0.2c0.2,0,0.3,0,0.5,0.1
			c1.2,0.1,119,5.8,141.5-83.1c22.5-88.9-80.4-139.1-81.5-139.6c-0.3-0.2-0.7-0.3-1-0.4l-171.3-43.5c-0.9-0.2-1.9-0.2-2.8,0
			c-0.8-0.8-1.8-1.4-2.9-1.7L4354.4,2638.8z M4378,2669.1l151.4,38.3c4.3,2.2,25.3,13.7,43.1,32.6c23.5,24.9,31.8,51.6,24.8,79.4
			c-16.5,65.3-103.6,65.7-116.3,65.4l-148-37.5L4378,2669.1z M4292.7,2836c-30.8-12-102.9-47.8-85.8-115.3
			c17.4-68.6,97.6-65.2,130.3-60.8L4292.7,2836z"/>
		<path fill="#B4E1E5" d="M4059.3,2787.8l12.8-50.5l13.2,3.3c3,0.8,6.1-1.1,6.9-4.1l7.4-29.2l45.3,11.5c-7,36.2-1.5,69,16.1,97.3
			c39.2,63,124.8,81.8,128.4,82.6c5.5,1.2,11-2.3,12.4-7.9c0-0.1,0-0.1,0.1-0.2c1.2-5.6-2.4-11.2-8.1-12.4
			c-0.8-0.2-80.3-17.5-114.9-73.1c-16.2-26.1-20-56.9-11.3-91.6c8.8-34.7,26.9-60.4,53.8-76.4c56.9-33.6,136.4-13.8,137.2-13.6
			c5.6,1.5,11.4-1.9,12.8-7.7c1.3-5.5-2.1-11.2-7.5-12.7c-3.6-0.9-88.2-22.5-153.1,15.8c-27.7,16.4-47.5,41.2-59,73.9l-45.7-11.6
			l7.4-29.2c0.8-3-1.1-6.1-4.1-6.9l-13.2-3.3l12.8-50.5c0.8-3-1.1-6.1-4.1-6.9l-9.6-2.4c-3-0.8-6.1,1.1-6.9,4.1l-49.7,196.4
			c-0.8,3,1.1,6.1,4.1,6.9l9.6,2.4C4055.5,2792.6,4058.6,2790.8,4059.3,2787.8z"/>
	</g>
</g>
<path fill="#B4E1E5" d="M2858.2,4455.8l-0.7-10.4c-2-31.1-8.6-60.9-19.7-88.5l-6.8-16.9c-0.2-0.7-0.5-1.4-0.9-2l-6.4-12.4
	c-0.4-0.8-1-1.4-1.7-1.9l-2.8-4.8c-49.1-85.8-137.2-140.8-235.7-147.2l-9.7-0.6c-0.8-0.5-1.8-0.8-2.8-0.8h-12.9c-1,0-2,0.3-2.8,0.8
	l-9.7,0.6c-98.5,6.4-186.6,61.4-235.7,147.2l-2.8,4.8c-0.7,0.5-1.2,1.1-1.6,1.9l-7.8,15.1c-0.1,0.2-0.2,0.3-0.2,0.5l-6.2,15.7
	c-11,27.7-17.5,57.5-19.5,88.5l-0.6,10c-0.4,0.8-0.6,1.6-0.6,2.5v12.9c0,0.9,0.2,1.8,0.6,2.5l0.6,10c2,31.1,8.6,60.8,19.5,88.5
	l6.2,15.8c0.1,0.2,0.1,0.3,0.2,0.5l7.7,14.9c0.4,0.8,1,1.5,1.7,2l2.7,4.8c49.1,85.9,137.2,141,235.7,147.3l10.1,0.7
	c0.7,0.4,1.6,0.6,2.4,0.6h12.9c0.9,0,1.7-0.2,2.4-0.6l10.1-0.7c98.6-6.4,186.7-61.5,235.7-147.3l2.7-4.8c0.7-0.5,1.3-1.2,1.7-2
	l6.7-12.9c0.2-0.3,0.3-0.7,0.4-1l6.9-17.3c11.1-27.6,17.7-57.3,19.7-88.5l0.7-10.4c0.3-0.6,0.4-1.3,0.4-2.1v-12.9
	C2858.6,4457.1,2858.5,4456.4,2858.2,4455.8z M2686.4,4606l-3.8,10.1c-23.1,61.1-57.3,101.1-96.4,112.7l-9.5,2.8V4606H2686.4z
	 M2576.6,4322.5V4197l9.5,2.8c39,11.5,73.3,51.5,96.4,112.7l3.8,10.1H2576.6z M2707.2,4452.3h-130.5v-105.6h116.3l1.4,5.6
	c7,27.5,11.2,58.5,12.5,92.3L2707.2,4452.3z M2707.2,4476.3l-0.3,7.7c-1.3,34.1-5.4,64.3-12.5,92.3l-1.4,5.6h-116.3v-105.6H2707.2z
	 M2733.3,4452.3l-0.3-7.1c-1.2-31.6-5.1-61.7-11.5-89.4l-2.1-9.1h86.8l2,4.3c13.5,28.7,21.6,60.1,24,93.4l0.6,8H2733.3z
	 M2721.5,4572.8c6.4-27.6,10.2-57.7,11.5-89.4l0.3-7.1h99.6l-0.6,8c-2.5,33.2-10.5,64.6-24,93.4l-2,4.3h-86.8L2721.5,4572.8z
	 M2783.7,4310.8l8.2,11.7h-79.5l-1.7-5.1c-11-33.3-24.8-61.5-41.1-83.9l-17.2-23.6l26.4,12.5
	C2721.6,4242.7,2756.8,4272.5,2783.7,4310.8z M2669.6,4694.9c16.4-22.5,30.2-50.7,41.1-83.9l1.7-5.1h79.5l-8.2,11.7
	c-26.7,38.1-62.9,68.6-104.9,88.4l-26.2,12.4L2669.6,4694.9z M2552.7,4606v125.5l-9.5-2.8c-39-11.5-73.3-51.5-96.4-112.7l-3.8-10.1
	H2552.7z M2396.1,4476.3l0.2,7.2c1,30.7,4.9,60.7,11.4,89.4l2.1,9.1h-87l-2-4.3c-13.3-28.8-21.4-60.2-23.8-93.3l-0.6-8H2396.1z
	 M2442.9,4322.5l3.8-10.1c23.2-61.2,57.4-101.2,96.4-112.6l9.5-2.8v125.5H2442.9z M2422,4452.3l0.3-7.8c1.5-34.7,5.7-64.9,12.6-92.3
	l1.4-5.6h116.3v105.6H2422z M2435,4576.3c-7-27.6-11.1-57.7-12.6-92.3l-0.3-7.8h130.7v105.6h-116.3L2435,4576.3z M2407.8,4355.8
	c-6.6,28.7-10.4,58.7-11.4,89.4l-0.2,7.2h-99.6l0.6-8c2.5-33.2,10.5-64.6,23.8-93.4l2-4.3h87L2407.8,4355.8z M2459.7,4233.5
	c-16.4,22.5-30.3,50.8-41.2,83.9l-1.7,5.1h-79.4l8.2-11.7c26.9-38.5,62.2-68.2,104.9-88.4l26.3-12.5L2459.7,4233.5z M2345.6,4617.7
	l-8.2-11.7h79.4l1.7,5.1c10.8,32.9,24.7,61.2,41.2,83.9l17,23.4l-26.2-12.3C2408,4686.1,2372.8,4656.4,2345.6,4617.7z"/>
<g>
	<g>
		<polygon fill="#B4E1E5" points="411.2,1882.1 408.4,1905.1 623.3,1930.9 646.5,1737.8 623.5,1735 603.1,1905.2 		"/>
		<path fill="#B4E1E5" d="M320.3,1879.6c-18.9,157.5,93.8,301,251.3,319.9c157.5,18.9,301-93.8,319.9-251.3
			c18.9-157.5-93.8-301-251.3-319.9C482.8,1609.4,339.2,1722.1,320.3,1879.6z M637.5,1651.3c144.8,17.4,248.5,149.4,231.1,294.2
			c-17.4,144.8-149.4,248.5-294.2,231.1c-144.8-17.4-248.5-149.4-231.1-294.2C360.7,1737.5,492.7,1633.9,637.5,1651.3z"/>
	</g>
</g>
<g>
	<g>
		<path fill="#B4E1E5" d="M2966,318.5l-201.7,442.8l455.2,207.4l201.7-442.8L2966,318.5z M2792.2,750.8l184.3-404.5l417,190
			l-184.3,404.5L2792.2,750.8z"/>
		<path fill="#B4E1E5" d="M2840.4,681l381.4,173.8l143.5-314.9l-381.4-173.8L2840.4,681z M2868.3,670.6l126-276.6l343.2,156.4
			l-126,276.6L2868.3,670.6z"/>
		<path fill="#B4E1E5" d="M3022.5,552.5c21.9,10,47.8,0.3,57.7-21.6c10-21.9,0.3-47.7-21.6-57.7c-21.9-10-47.7-0.3-57.7,21.6
			C2991,516.6,3000.7,542.5,3022.5,552.5z M3049.9,492.3c11.3,5.2,16.3,18.5,11.2,29.8c-5.2,11.3-18.5,16.3-29.9,11.2
			c-11.3-5.1-16.3-18.5-11.1-29.8C3025.2,492.2,3038.6,487.2,3049.9,492.3z"/>
		<path fill="#B4E1E5" d="M3136.2,623.5l-33.1-54.9l-66.6,40.8l-24.6-37.8l-84.2,53.9l-4.8,10.5l308.6,140.6l-15.1-204.3
			L3136.2,623.5z M2960,629.8l45.6-29.2L3030,638l66-40.4l33.3,55.3l68.8-43.9l9.9,133.8L2960,629.8z"/>
	</g>
</g>
<g>
	<g>
		<path fill="#535253" d="M4089.2,3536.3l61.7-147.7l16.9-40.4l84.3-201.6l16.9-40.4l61.7-147.7c8-19.1-1-41.2-20.2-49.2
			l-171.4-71.6c-75.4,66-148.4,169.8-201.1,296c-52.8,126.2-75.4,251-69.4,351.1l171.4,71.6
			C4059.2,3564.5,4081.2,3555.5,4089.2,3536.3z"/>
		<path fill="#676767" d="M4139.2,2837.7l-8.3-3.5c-75.4,66-148.4,169.8-201.1,296c-52.8,126.2-75.4,251-69.4,351.1l8.3,3.5
			c-6-100.1,16.6-224.9,69.4-351.1C3990.9,3007.5,4063.8,2903.8,4139.2,2837.7z"/>
	</g>
	<g>
		
			<rect x="4207" y="3153.1" transform="matrix(0.9226 0.3857 -0.3857 0.9226 1586.8301 -1385.1185)" fill="none" width="77" height="218.5"/>
		<path fill="#2E2E2E" d="M4323.2,3176.4l-84.3,201.6l-71.1-29.7l-16.9,40.4l76.9,32.1c19.1,8,41.2-1,49.2-20.2l89.1-213.1
			c8-19.1-1-41.2-20.2-49.2l-76.9-32.1l-16.9,40.4L4323.2,3176.4z"/>
	</g>
	<path fill="#535253" d="M4130.9,2834.3l-201.4-84.2c-19.1-8-41.2,1-49.2,20.2L3638.8,3348c-8,19.1,1,41.2,20.2,49.2l201.4,84.2
		c-6-100.1,16.6-224.9,69.4-351.1C3982.5,3004.1,4055.5,2900.3,4130.9,2834.3z"/>
	<path fill="#261B1A" d="M3986,2954.6c-19.2-8-28.2-30-20.2-49.2l11.9-28.4c8-19.1,30-28.2,49.2-20.2l78.3,32.7
		c19.1,8,28.2,30,20.2,49.2l-11.9,28.4c-8,19.1-30,28.2-49.2,20.2L3986,2954.6z"/>
	
		<rect x="4173.9" y="2867" transform="matrix(-0.3857 0.9226 -0.9226 -0.3857 8565.9414 262.4242)" fill="#261B1A" width="43.4" height="232.1"/>
	<path fill="#494848" d="M4003,2944c-13.9-5.8-20.6-21.2-15.1-34.5l8.2-19.6c5.5-13.2,21.3-19.2,35.1-13.4l56.7,23.7
		c13.9,5.8,20.6,21.2,15.1,34.4l-8.2,19.6c-5.5,13.2-21.3,19.2-35.1,13.4L4003,2944z"/>
	<g>
		<path fill="#261B1A" d="M3802,3394.5c-19.1-8-28.2-30-20.2-49.2l11.9-28.4c8-19.1,30-28.2,49.2-20.2l78.3,32.7
			c19.1,8,28.2,30,20.2,49.2l-11.9,28.4c-8,19.1-30,28.2-49.2,20.2L3802,3394.5z"/>
		
			<rect x="3990" y="3306.9" transform="matrix(-0.3857 0.9226 -0.9226 -0.3857 8717.1074 1041.8938)" fill="#261B1A" width="43.4" height="232.1"/>
		<path fill="#494848" d="M3819.1,3383.9c-13.9-5.8-20.6-21.2-15.1-34.4l8.2-19.6c5.5-13.2,21.3-19.2,35.1-13.4l56.7,23.7
			c13.9,5.8,20.6,21.2,15.1,34.4l-8.2,19.6c-5.5,13.2-21.3,19.2-35.1,13.4L3819.1,3383.9z"/>
	</g>
</g>
<g>
	<g>
		<path fill="none" d="M4316.3,1755.5l-22.7-66.2c-30.5,16.8-106.3,66.4-133.4,156.1c31.6-31.9,72.9-59.2,121.5-77.8
			C4283.4,1766.9,4298.9,1761.5,4316.3,1755.5z"/>
		<path fill="none" d="M4409.1,2132.9c-50.4,15.6-100.6,19.6-145.7,13.8c76.5,54.1,166.7,46.8,201.1,41.3l-22.7-66.2
			C4425.2,2127.4,4410.7,2132.4,4409.1,2132.9z"/>
		<path fill="#E2A23A" d="M4492.9,2204c1.7-3.2,2.1-7,0.9-10.4l-27.5-80.2c14.4-4.9,26.1-8.9,27.5-9.4l-62.8-183.2l-519.1,178
			l31.8,92.7c3.7,10.9,15.6,16.7,26.5,13c10.9-3.7,16.7-15.6,13-26.5l-11.1-32.5c1.5,0.1,3.1-0.1,4.6-0.6c6-2.1,9.2-8.6,7.2-14.7
			l-7.5-21.9l138-47.3c20.4,33.6,54.3,58.6,96.3,73.2c108.9,114.3,272.1,76.6,274.1,76.1C4488.2,2209.5,4491.2,2207.2,4492.9,2204z
			 M4263.5,2146.6c45.1,5.9,95.3,1.8,145.7-13.8c1.5-0.5,16.1-5.4,32.7-11.1l22.7,66.2C4430.2,2193.4,4340,2200.8,4263.5,2146.6z"/>
		<path fill="#FFD00F" d="M4368.2,1737.6c-1.6,0.5-13.2,4.6-27.5,9.5l-27.5-80.2c-1.2-3.4-3.7-6.2-7.1-7.7
			c-3.3-1.4-7.1-1.4-10.4,0.1c-1.9,0.8-153.8,71.2-169.7,228.3c-24.2,37.3-35.7,77.9-31.1,116.9l-138,47.3l-7.5-21.9
			c-2.1-6-8.6-9.2-14.7-7.2c-1.5,0.5-2.9,1.3-4,2.3l-11.1-32.5c-3.7-10.9-15.6-16.7-26.5-13c-10.9,3.7-16.7,15.6-13,26.5l31.8,92.7
			l519.1-178L4368.2,1737.6z M4293.6,1689.3l22.7,66.2c-17.4,6-32.8,11.4-34.7,12.1c-48.5,18.6-89.9,46-121.5,77.8
			C4187.3,1755.7,4263,1706.1,4293.6,1689.3z"/>
	</g>
	
		<rect x="3708.8" y="2054.4" transform="matrix(0.3244 0.9459 -0.9459 0.3244 4612.2778 -2228.4565)" fill="#416079" width="314.7" height="120.2"/>
	
		<rect x="3616.7" y="2119.2" transform="matrix(0.3244 0.9459 -0.9459 0.3244 4585.041 -2137.1636)" fill="#2C445D" width="343.9" height="43.7"/>
	<path fill="#E2A23A" d="M3896.4,2202.8c-18.4,6.3-38.4-3.5-44.7-21.9l-37.7-110c-6.3-18.4,3.5-38.4,21.9-44.7l0,0
		c18.4-6.3,38.4,3.5,44.7,21.9l37.7,110C3924.6,2176.5,3914.8,2196.5,3896.4,2202.8L3896.4,2202.8z"/>
</g>
<g>
	<path fill="#F38020" d="M3840.1,2606.7c-66.6,0-156.4-94.5-156.4-94.5s89.8-94.5,156.4-94.5s84.9,42.3,84.9,94.5
		C3925.1,2564.4,3906.8,2606.7,3840.1,2606.7z"/>
	<path fill="#EEB31F" d="M3853.3,2577.5c-46,0-107.9-65.2-107.9-65.2s61.9-65.2,107.9-65.2c46,0,58.6,29.2,58.6,65.2
		C3911.9,2548.3,3899.3,2577.5,3853.3,2577.5z"/>
	<path fill="#F7CB6B" d="M3875.3,2550c-26.6,0-62.5-37.8-62.5-37.8s35.9-37.8,62.5-37.8c26.6,0,34,16.9,34,37.8
		C3909.3,2533.1,3902,2550,3875.3,2550z"/>
	<g>
		<g>
			<path fill="#E93859" d="M4078.6,2435.1c0,0-68.2-130.1-216.1-130.1c0,0-16.3,8.1,3.3,21.1c19.5,13,73.1,24.4,73.1,107.4
				L4078.6,2435.1z"/>
			<path fill="#BB3548" d="M4078.6,2588.7c0,0-68.2,130.1-216.1,130.1c0,0-16.3-8.1,3.3-21.1c19.5-13,73.1-24.4,73.1-107.4
				L4078.6,2588.7z"/>
		</g>
		<g>
			<path fill="#DBDAD9" d="M4222.3,2656.4c60.5,0,117.5-10.2,167.4-25.5v-119h-50.6c0,44-35.7,79.7-79.6,79.7
				c-44,0-79.6-35.7-79.6-79.7h-255.9v77.9C3986.8,2629.8,4097,2656.4,4222.3,2656.4z"/>
			<path fill="#FFFFFF" d="M4259.4,2432.2c44,0,79.6,35.7,79.6,79.7h50.6v-119c-49.8-15.3-106.8-25.5-167.4-25.5
				c-125.3,0-235.4,26.5-298.4,66.6v77.9h255.9C4179.8,2467.9,4215.5,2432.2,4259.4,2432.2z"/>
			<path fill="#E6C536" d="M3923.7,2435.2c0-2-1.6-3.6-3.6-3.6h-17c-2,0-3.6,1.6-3.6,3.6v76.8h24.3V2435.2z"/>
			<path fill="#CDAF2F" d="M3923.7,2588.6v-76.7h-24.3v76.7c0,2,1.6,3.6,3.6,3.6h17C3922,2592.2,3923.7,2590.6,3923.7,2588.6z"/>
			<path fill="#CDAF2F" d="M4259.4,2566.5c-30.1,0-54.6-24.5-54.6-54.6h-25.1c0,44,35.7,79.7,79.6,79.7c44,0,79.6-35.7,79.6-79.7
				H4314C4314,2542.1,4289.6,2566.5,4259.4,2566.5z"/>
			<path fill="#E6C536" d="M4259.4,2432.2c-44,0-79.6,35.7-79.6,79.7h25.1c0-30.2,24.4-54.6,54.6-54.6c30.1,0,54.6,24.5,54.6,54.6
				h25.1C4339.1,2467.9,4303.4,2432.2,4259.4,2432.2z"/>
			<path fill="#82CFD0" d="M4259.4,2566.5c30.1,0,54.6-24.5,54.6-54.6h-109.1C4204.9,2542.1,4229.3,2566.5,4259.4,2566.5z"/>
			<path fill="#A5DBE2" d="M4259.4,2457.3c-30.1,0-54.6,24.5-54.6,54.6H4314C4314,2481.8,4289.6,2457.3,4259.4,2457.3z"/>
		</g>
	</g>
	<g>
		<path fill="#BB3548" d="M4576.4,2511.9h-186.8v119C4500.8,2596.9,4576.4,2537.9,4576.4,2511.9z"/>
		<path fill="#E93859" d="M4576.4,2511.9c0-26-75.6-85-186.8-119v119H4576.4L4576.4,2511.9z"/>
		<path fill="#BB3548" d="M4038.1,2516.9c0.1-0.4,0.2-0.8,0.2-1.3v-0.1v-3.6h-182.4v4.1v0.1c0,2.3,1.9,4.1,4.1,4.1h5.5l8,0.2
			l146.7,11.5C4035.1,2532,4037.5,2519.5,4038.1,2516.9z"/>
		<path fill="#E93859" d="M4038.3,2507.8v-0.1c0-0.4-0.1-0.9-0.2-1.3c-0.2-0.7-0.5-1.5-1-2.3c-1.5-4.5-5.4-12.2-17.1-12.2
			l-146.8,11.5l-7.4,0.1h-5.5c-1.7,0-3.2,1.1-3.8,2.6c-0.3,0.6-0.5,1.3-0.5,2v0.1v3.6h182.4V2507.8z"/>
	</g>
</g>
<g>
	<path fill="#FFFFFF" d="M3231.6,3582.5c0.2,1.6,55.1,303,55.1,303l-124.5,35.4l-17.3-321.6c0,0-0.1-3.1-0.3-4.6
		c-3.4-24,13.4-46.2,37.4-49.6C3206,3541.7,3228.2,3558.4,3231.6,3582.5z"/>
	<g>
		<g>
			<polygon fill="#DBDAD9" points="3489.3,3931.8 3489.3,3931.8 3481.9,3929.2 3455.8,3828.9 3773.9,3587.5 3840.1,3842.5 			"/>
			<polygon fill="#FFFFFF" points="3906.3,4097.5 3510.1,4037.9 3484,3937.6 3489.3,3931.8 3840.1,3842.5 			"/>
		</g>
		<g>
			<g>
				<path fill="#154F69" d="M3512.8,4030.4c3.7,14.1-3.1,28-15.1,31.1l-314.7,80.1c-12,3.1-24.7-5.9-28.3-20l-27.4-105.5l358.1-91.1
					L3512.8,4030.4z"/>
				<path fill="#0D3344" d="M3127.4,4016l-27.3-105.3c-3.7-14.1,3.1-28,15.1-31.1l314.7-80.1c12-3.1,24.7,5.9,28.3,20l27.3,105.3
					L3127.4,4016z"/>
			</g>
			<path fill="#FFFFFF" d="M3387,4036.8c-3.4-12.9-15-21.1-26-18.4l-86.8,22.1c-11,2.8-17.2,15.6-13.8,28.5l0,0
				c3.4,12.9,15,21.2,26,18.4l86.8-22.1C3384.2,4062.5,3390.4,4049.7,3387,4036.8L3387,4036.8z"/>
		</g>
		<path fill="#0D3344" d="M3799.5,3589.8c-2.8-10.8-12.5-17.7-21.7-15.3l0,0c-9.2,2.3-14.4,13-11.5,23.8l128.1,493.5
			c2.8,10.8,12.5,17.7,21.7,15.4l0,0c9.2-2.3,14.4-13,11.5-23.8L3799.5,3589.8z"/>
		<g>
			<g>
				<path fill="#DBDAD9" d="M3048.5,4036.2c-11.5-44.3,9.1-88.1,46.3-100.1l43,165.7C3099.3,4109,3059.9,4080.5,3048.5,4036.2z"/>
			</g>
		</g>
		<g>
			<path fill="#DBDAD9" d="M3998.6,3974.4c0.7,7-1.9,11.8-6,10.7l-64.5-17.6c-4-1.1-7.9-7.7-8.6-14.7c-0.6-5.8,1.1-10.1,4-10.8
				c0.6-0.2,1.3-0.2,2,0l64.5,17.6C3994.1,3960.8,3997.9,3967.4,3998.6,3974.4z"/>
			<path fill="#DBDAD9" d="M3913.8,3647.9c-2.8-6.5-7.5-9.4-10.5-6.6l-47.9,46.2c-3,2.9-3.2,10.5-0.4,17c2.3,5.3,5.9,8.3,8.7,7.6
				c0.6-0.2,1.2-0.5,1.7-1l47.9-46.2C3916.5,3662.1,3916.6,3654.4,3913.8,3647.9z"/>
			<path fill="#DBDAD9" d="M3963.1,3823.1l-62.8,16c-3.6,0.9-8.1-4-9.9-11.1c-1.8-7.1-0.4-13.5,3.3-14.5l62.8-16
				c3.7-0.9,8.1,4,9.9,11.1C3968.3,3815.7,3966.8,3822.1,3963.1,3823.1z"/>
		</g>
	</g>
</g>
<g>
	<g>
		<g>
			<path fill="#2C445D" d="M1605.6,3406.5c5.3-3.1,12.1-1.4,15.2,3.9l31,52.8c3.1,5.3,1.3,12.1-4,15.2l-19.2,11.3
				c-5.3,3.1-12.1,1.3-15.2-4l-31-52.8c-3.1-5.3-1.3-12.1,4-15.2L1605.6,3406.5z"/>
			<path fill="#2C445D" d="M1299.5,2885.7c5.3-3.1,12.1-1.3,15.2,3.9l31,52.8c3.1,5.3,1.3,12.1-4,15.2l-19.2,11.3
				c-5.3,3.1-12.1,1.3-15.2-4l-31-52.8c-3.1-5.3-1.3-12.1,4-15.2L1299.5,2885.7z"/>
		</g>
		<g>
			<g>
				<polygon fill="#2C445D" points="1105.7,3549.3 1143.5,3613.6 1038.9,3688.3 1008.8,3637.2 				"/>
				<polygon fill="#2C445D" points="973.8,3325 936.1,3260.7 819.9,3315.7 849.9,3366.8 				"/>
			</g>
		</g>
		<g>
			<path fill="#416079" d="M1017.8,3671.8l-194-330c-16.9-28.8-5.1-67.1,26.5-85.7l1.7-1c1.2-2,2.5-4,4-6
				c7.7-10.6,7.1-17.5,0.9-27.8c-37.2-62.3-73.7-124.9-110.5-187.4c-2.7-4.6-6.3-8.8-9.6-13.5c-57.8,32.8-91.3,78.6-93.2,146.2
				c-2.1,73,20.4,139.5,55.3,200.9c79.2,139.6,160.6,277.9,243.9,415.1c36.1,59.5,86.3,106.8,149.3,139.4c59,30.5,112.3,17,165-17.7
				c-42.5-72.3-84.5-143.7-126.2-214.7c-9.9,1.5-19,2.1-27.3,1.9C1072.3,3708.5,1034.3,3700,1017.8,3671.8z"/>
			<path fill="#2C445D" d="M750.9,3014.7c41.5,70.6,83.1,141.3,125.3,213.2c52.2-23.5,54-29.2,26.3-76.4
				c-24.9-42.4-49.8-84.8-74.8-127.2C805.5,2986.7,784.3,2984,750.9,3014.7z"/>
			<path fill="#2C445D" d="M1143.9,3682.6c41.8,71.2,83.7,142.4,125.5,213.4c46.5-20.5,51-33.5,26.8-74.7
				c-24.2-41.2-48.4-82.4-72.7-123.6C1202.1,3661.4,1181.1,3657.3,1143.9,3682.6z"/>
		</g>
		<path fill="#DFEDF9" d="M1087.4,3409.2c47.1,80.2,150.4,107,230.5,59.8c80.2-47.1,107-150.4,59.8-230.5
			c-47.1-80.2-150.4-107-230.5-59.8C1067,3225.7,1040.2,3329,1087.4,3409.2z M1328.2,3267.6c31.2,53.2,13.5,121.6-39.7,152.8
			c-53.2,31.2-121.6,13.5-152.8-39.7c-31.2-53.1-13.5-121.6,39.7-152.8C1228.6,3196.7,1297,3214.4,1328.2,3267.6z"/>
		<path fill="#416079" d="M940.6,3187.1l-32.8,87.1l87.5,148.8l35.3,60l87.5,148.8l92,13.7l304.2-59.3l139.2-81.8l-373.8-636
			l-139.2,81.8L940.6,3187.1z M1377.7,3238.5c47.1,80.2,20.3,183.4-59.8,230.5c-80.2,47.1-183.4,20.3-230.5-59.8
			c-47.1-80.2-20.3-183.4,59.8-230.5C1227.3,3131.5,1330.6,3158.3,1377.7,3238.5z"/>
		<path fill="#2C445D" d="M1136.3,3380.4c31.2,53.2,99.7,70.9,152.8,39.7c53.1-31.2,70.9-99.7,39.7-152.8
			c-31.2-53.1-99.7-70.9-152.8-39.7C1122.8,3258.8,1105.1,3327.2,1136.3,3380.4z"/>
		<g>
			<g>
				<path fill="#2C445D" d="M1100.8,3374.2c11.1-6.5,25.4-2.8,32,8.3c6.5,11.1,2.8,25.4-8.3,32c-11.1,6.5-25.4,2.8-32-8.3
					C1086,3395,1089.7,3380.7,1100.8,3374.2z"/>
				<path fill="#2C445D" d="M1340.6,3233.2c11.1-6.5,25.4-2.8,31.9,8.3c6.5,11.1,2.8,25.4-8.3,32c-11.1,6.5-25.4,2.8-32-8.3
					C1325.8,3254,1329.5,3239.7,1340.6,3233.2z"/>
			</g>
		</g>
		<g>
			<g>
				<path fill="#2C445D" d="M1182.2,3192.1c6.5,11.1,2.8,25.4-8.3,32c-11.1,6.5-25.4,2.8-32-8.3c-6.5-11.1-2.8-25.4,8.3-32
					C1161.4,3177.2,1175.7,3181,1182.2,3192.1z"/>
				<path fill="#2C445D" d="M1323.2,3431.9c6.5,11.1,2.8,25.4-8.3,32c-11.1,6.5-25.4,2.8-32-8.3c-6.5-11.1-2.8-25.4,8.3-32
					C1302.3,3417.1,1316.6,3420.8,1323.2,3431.9z"/>
			</g>
		</g>
		<g>
			<g>
				<path fill="#2C445D" d="M1103.8,3266.3c12.5,3.2,20,16,16.7,28.5c-3.2,12.5-16,20-28.5,16.7c-12.5-3.2-20-16-16.7-28.5
					C1078.6,3270.5,1091.3,3263,1103.8,3266.3z"/>
				<path fill="#2C445D" d="M1373.1,3336.2c12.5,3.2,20,16,16.7,28.5c-3.2,12.5-16,20-28.5,16.7c-12.5-3.2-20-16-16.7-28.5
					C1347.8,3340.4,1360.6,3332.9,1373.1,3336.2z"/>
			</g>
		</g>
		<g>
			<g>
				<path fill="#2C445D" d="M1290.1,3195c-3.2,12.5-16,20-28.5,16.7c-12.5-3.2-20-16-16.7-28.5c3.2-12.5,16-20,28.5-16.7
					C1285.9,3169.8,1293.3,3182.6,1290.1,3195z"/>
				<path fill="#2C445D" d="M1220.2,3464.3c-3.2,12.5-16,20-28.5,16.7c-12.5-3.2-20-16-16.7-28.5c3.2-12.5,16-20,28.5-16.7
					C1216,3439.1,1223.5,3451.8,1220.2,3464.3z"/>
			</g>
		</g>
		<g>
			<g>
				<path fill="#2C445D" d="M1134.3,3222.6c10.4,7.6,12.6,22.2,5,32.6c-7.6,10.4-22.2,12.6-32.6,5c-10.4-7.6-12.6-22.3-5-32.6
					C1109.3,3217.2,1123.9,3215,1134.3,3222.6z"/>
				<path fill="#2C445D" d="M1358.5,3387.4c10.4,7.6,12.6,22.2,5,32.6c-7.6,10.4-22.3,12.6-32.6,5c-10.4-7.6-12.6-22.2-5-32.6
					C1333.5,3382,1348.1,3379.7,1358.5,3387.4z"/>
			</g>
		</g>
		<g>
			<g>
				<path fill="#2C445D" d="M1333.8,3225.6c-7.6,10.4-22.2,12.6-32.6,5c-10.4-7.6-12.6-22.2-5-32.6c7.6-10.4,22.3-12.6,32.6-5
					C1339.2,3200.5,1341.4,3215.2,1333.8,3225.6z"/>
				<path fill="#2C445D" d="M1169,3449.7c-7.6,10.4-22.3,12.6-32.6,5c-10.4-7.6-12.6-22.2-5-32.6c7.6-10.4,22.2-12.6,32.6-5
					C1174.4,3424.7,1176.6,3439.3,1169,3449.7z"/>
			</g>
		</g>
		<g>
			<g>
				<path fill="#2C445D" d="M1228.9,3464.8c-1.8-12.8,7.1-24.6,19.9-26.4c12.8-1.8,24.6,7.1,26.4,19.9c1.8,12.8-7.1,24.6-19.9,26.4
					C1242.5,3486.5,1230.7,3477.6,1228.9,3464.8z"/>
				<path fill="#2C445D" d="M1190,3189.3c-1.8-12.8,7.1-24.6,19.9-26.4c12.8-1.8,24.6,7.1,26.4,19.9c1.8,12.8-7.1,24.6-19.9,26.4
					C1203.7,3211,1191.8,3202.1,1190,3189.3z"/>
			</g>
		</g>
		<g>
			<g>
				<path fill="#2C445D" d="M1091.6,3320.1c12.8-1.8,24.6,7.1,26.4,19.9c1.8,12.8-7.1,24.6-19.9,26.4c-12.8,1.8-24.6-7.1-26.4-19.9
					C1069.9,3333.7,1078.8,3321.9,1091.6,3320.1z"/>
				<path fill="#2C445D" d="M1367,3281.3c12.8-1.8,24.6,7.1,26.4,19.9c1.8,12.8-7.1,24.6-19.9,26.4c-12.8,1.8-24.6-7.1-26.4-19.9
					C1345.4,3294.9,1354.3,3283.1,1367,3281.3z"/>
			</g>
		</g>
	</g>
	<path fill="#DFEDF9" d="M1188.8,3249.5c40.6-23.9,92.8-10.3,116.7,30.3c23.9,40.6,10.3,92.8-30.3,116.7
		c-40.6,23.9-92.8,10.3-116.7-30.3C1134.6,3325.7,1148.2,3273.4,1188.8,3249.5z"/>
</g>
<g>
	<g>
		<path fill="#CB2627" d="M2052.7,3983.3c-2.6,4.8-5.3,9.5-8.2,14.1c-1.8-7.4-4-14.7-6.7-21.9c-5.7-15.2-13.3-30.1-22.3-44.5
			c58.1-122.2,44.5-197.5,29.4-233.6c26,50.3,70.9,166.7,8.5,284.8C2053.2,3982.4,2052.9,3982.9,2052.7,3983.3z"/>
		<path fill="#E7ECEC" d="M1693.6,4113.2c0,0,203.6,41,308.9-156.5c0.2-0.4,0.5-0.8,0.7-1.3c4.4-8.4,8.5-16.6,12.3-24.6
			c9,14.4,16.6,29.3,22.3,44.5c2.7,7.3,5,14.6,6.7,21.9C1955.8,4138.5,1747.1,4134.1,1693.6,4113.2z"/>
		<path fill="#D9E1E3" d="M2044.5,3997.4c1.4,6.1,2.6,12.2,3.3,18.3c-80.3,120.6-220.4,153.2-360.5,114.4l-119,225.3l19.6,10.4
			c15.9,8.4,22,28.2,13.6,44.1c-8.4,16-28.2,22-44.1,13.6l-84.2-44.5l-84.3-44.5c-15.9-8.4-22.1-28.1-13.6-44.1
			c8.4-15.9,28.2-22,44.1-13.6l19.7,10.4l119-225.3c-115.5-97.7-167.2-238.9-101.5-378.6c0.6,3.1,1.7,7.5,3.6,12.6
			c-85.9,199,114,372.2,114,372.2l-120.8,228.6c0,0-52-29.8-61.8-11.2c0,0-18,27.7,0.5,37.5c18.5,9.8,96.2,50.8,96.2,50.8
			l149.7-283.3c0,0-122.4-154.4-73.7-312.5c3,0.7,6.1,1.4,9.3,2c36.2,7.1,72.2,7.8,106.8,6.6c71.6-2.5,137-13,185.1,9.7
			c49.4,23.3,112.2,74.4,150.1,134.7c-3.8,8-7.9,16.2-12.3,24.6c-0.2,0.4-0.5,0.8-0.7,1.3c-105.3,197.5-308.9,156.5-308.9,156.5
			C1747.1,4134.1,1955.8,4138.5,2044.5,3997.4z"/>
		<path fill="#E7ECEC" d="M1638,4090.4l-149.7,283.3c0,0-77.7-41-96.2-50.8c-18.5-9.8-0.5-37.5-0.5-37.5
			c9.8-18.5,61.8,11.2,61.8,11.2l120.8-228.6c0,0-199.9-173.2-114-372.2c8.6,23.9,33.4,65.3,104,82.1
			C1515.6,3936,1638,4090.4,1638,4090.4z"/>
	</g>
	<g>
		<path fill="#E7EBEA" d="M2044.9,3697.3c-8.5-16.5-15-25.9-15-25.9S2037.5,3679.7,2044.9,3697.3z"/>
	</g>
	<g>
		<path fill="#E7ECEC" d="M1928,3565.1c0,0-0.9,0-2.6,0c-2.4-1.4-4.7-2.8-7.1-4.2C1924.6,3563.5,1928,3565.1,1928,3565.1z"/>
		<g>
			<path fill="#BE2626" d="M2063.7,3989.1c-5,9.3-10.3,18.1-15.9,26.5c-0.7-6.1-1.8-12.2-3.3-18.3c2.9-4.5,5.6-9.2,8.2-14.1
				c0.2-0.4,0.5-0.8,0.7-1.3c62.4-118.1,17.5-234.5-8.5-284.8c-7.3-17.5-15-25.9-15-25.9s6.5,9.4,15,25.9
				c15.1,36.2,28.7,111.5-29.4,233.6c-37.8-60.3-100.7-111.4-150.1-134.7c-48.1-22.7-113.5-12.2-185.1-9.7
				c-34.6,1.2-70.6,0.6-106.8-6.6c-3.2-0.6-6.3-1.3-9.3-2c4.5-14.4,10.3-28.9,17.9-43.3c0.2-0.3,0.3-0.6,0.5-0.9
				c85.6-161.9,315.9-168.4,342.8-168.6c152.5,91.2,224,262.4,139.8,421.7C2064.8,3987.6,2064.2,3988.3,2063.7,3989.1z"/>
			<path fill="#92D1D7" d="M1470,3675.3C1470,3675.4,1470,3675.4,1470,3675.3c-3.6,6.9-6.9,13.7-9.8,20.4c-1.9-5.2-3-9.5-3.6-12.6
				c1.8-3.9,3.8-7.8,5.8-11.8c0.4-0.8,0.7-1.7,1.1-2.5c87.8-166.2,275.8-202.9,442-115.1c1,0.5,1.9,1.1,2.9,1.7
				c3.4,1.8,6.7,3.7,10,5.5C1863.7,3538.6,1593,3442.6,1470,3675.3z"/>
		</g>
		<path fill="#CB2627" d="M1582.6,3733.7c-0.2,0.3-0.3,0.6-0.5,0.9c-7.5,14.4-13.4,28.9-17.9,43.3c-70.6-16.9-95.4-58.2-104-82.1
			c2.9-6.8,6.2-13.6,9.8-20.4c0,0,0,0,0,0c123-232.7,393.7-136.7,448.3-114.4c2.4,1.4,4.8,2.8,7.1,4.2
			C1898.5,3565.3,1668.2,3571.8,1582.6,3733.7z"/>
	</g>
	<circle fill="#FFF8F6" cx="1826.7" cy="3621.9" r="41.9"/>
	<path fill="#FFF8F6" d="M1690.1,3673.9c-10.1,19-33.7,26.3-52.7,16.3c-19-10.1-26.3-33.7-16.3-52.7s33.7-26.3,52.7-16.3
		C1692.9,3631.2,1700.2,3654.8,1690.1,3673.9z M1678.4,3667.7c6.6-12.6,1.8-28.2-10.8-34.9c-12.6-6.6-28.2-1.8-34.9,10.8
		c-6.6,12.6-1.8,28.2,10.8,34.9C1656.1,3685.1,1671.8,3680.3,1678.4,3667.7z"/>
	<g>
		<path fill="#CB2627" d="M1477.7,4268.3c-0.4,0.7-0.7,1.4-1,2.1c-5.1-10.4-5.4-23,0.5-34.1c9.7-18.3,32.3-25.3,50.6-15.6
			c8.4,4.5,14.5,11.7,17.6,20C1519.5,4232.4,1490.8,4243.5,1477.7,4268.3z"/>
		<path fill="#BE2626" d="M1543.4,4271.3c-9.7,18.3-32.4,25.3-50.7,15.6c-7.3-3.8-12.7-9.7-16.1-16.6c0.3-0.7,0.7-1.4,1-2.1
			c13.1-24.8,41.9-35.9,67.7-27.7C1549,4250.3,1548.6,4261.5,1543.4,4271.3z"/>
	</g>
	<g>
		<path fill="#CB2627" d="M1633.6,3984.2c-1.8,3.4-3.3,6.9-4.5,10.5c-7.6-15.2-8.1-33.7,0.5-49.8c14-26.5,46.9-36.6,73.4-22.6
			c12.5,6.6,21.3,17.3,25.7,29.7C1693.7,3935.9,1651.8,3949.8,1633.6,3984.2z"/>
		<path fill="#BE2626" d="M1725.6,3995.6c-14,26.5-46.9,36.6-73.4,22.6c-10.4-5.5-18.2-13.8-23.1-23.6c1.2-3.6,2.7-7,4.5-10.5
			c18.2-34.5,60-48.4,95-32.3C1733.6,3965.8,1733,3981.6,1725.6,3995.6z"/>
	</g>
</g>
<g>
	<g>
		<path fill="#35495E" d="M3025.1,4293.8h-917.7v-560h424c7-8.8,20-14.7,34.9-14.7c14.9,0,27.9,5.9,34.9,14.7h423.9V4293.8z"/>
		<rect x="2128.3" y="3755" fill="#C1B49F" width="875.9" height="529.1"/>
		<path fill="#DA4643" d="M2644.7,3786.6c0,0,11.1-63.9-8.3-106.9l38.9,27.8l26.4-29.2c0,0,16.7,48.6,4.2,111.1L2644.7,3786.6z"/>
		<path fill="#D0C2A7" d="M2128.3,4294.5v-541.1c0,0,210.7,80.7,435.2,1.4v539.6C2563.5,4294.4,2316.6,4319.9,2128.3,4294.5z"/>
		<path fill="#DFDAC3" d="M2142.9,4303.5v-541.1c0,0,236.8,79.2,420.7-7.5l0.6,539.5C2564.2,4294.4,2220.6,4339.4,2142.9,4303.5z"/>
		<path fill="#EEE7D8" d="M2181.7,4370.8l1.5-538.1c0,0,260.8,21,380.4-77.7l-0.2,539.4C2563.3,4294.4,2362.6,4399.2,2181.7,4370.8z
			"/>
		<path fill="#FFFFF9" d="M2263.1,4415.5V3870c0,0,170.4,23.9,300.4-115.1l1.4,540.8C2564.9,4295.6,2457.4,4430.5,2263.1,4415.5z"/>
	</g>
	<g>
		<path fill="#D0C2A7" d="M2999.1,4292V3751c0,0-213,83.1-435.7,3.9l2.2,537.2C2565.7,4292,2810.8,4317.4,2999.1,4292z"/>
		<path fill="#DFDAC3" d="M2986.1,4301V3760c0,0-238.8,81.6-422.6-5l1.1,537.1C2564.6,4292.1,2908.4,4336.9,2986.1,4301z"/>
		<path fill="#EEE7D8" d="M2945.3,4368.9l-1.5-538.1c0,0-260.7,22.7-380.3-75.9l0.6,539.3
			C2564.2,4294.2,2764.4,4397.3,2945.3,4368.9z"/>
	</g>
</g>
<g>
	<g>
		<g>
			
				<rect x="3306.1" y="1076.9" transform="matrix(0.8362 0.5485 -0.5485 0.8362 1224.7794 -1812.2137)" fill="#00A4A1" width="679.4" height="134.3"/>
			
				<rect x="3318.5" y="1017.4" transform="matrix(0.5485 -0.8362 0.8362 0.5485 448.3508 3544.4233)" fill="#FFFFFF" width="375.3" height="679.4"/>
		</g>
		<g>
			<g>
				
					<rect x="3304.9" y="1075.9" transform="matrix(0.8362 0.5485 -0.5485 0.8362 1154.0515 -1648.5205)" fill="#D7DBDF" width="63.1" height="63.1"/>
				
					<rect x="3764.6" y="1377.5" transform="matrix(0.8362 0.5485 -0.5485 0.8362 1394.739 -1851.2448)" fill="#D7DBDF" width="63.1" height="63.1"/>
				
					<rect x="3396.8" y="1136.2" transform="matrix(0.8362 0.5485 -0.5485 0.8362 1202.1688 -1689.0492)" fill="#D7DBDF" width="63.1" height="63.1"/>
				
					<rect x="3488.8" y="1196.5" transform="matrix(0.8362 0.5485 -0.5485 0.8362 1250.3442 -1729.6233)" fill="#D7DBDF" width="63.1" height="63.1"/>
				
					<rect x="3580.7" y="1256.8" transform="matrix(0.8362 0.5485 -0.5485 0.8362 1298.4818 -1770.1683)" fill="#D7DBDF" width="63.1" height="63.1"/>
				
					<rect x="3672.6" y="1317.1" transform="matrix(0.8362 0.5485 -0.5485 0.8362 1346.6073 -1810.7043)" fill="#00A4A1" width="63.1" height="63.1"/>
			</g>
		</g>
		<g>
			<g>
				
					<rect x="3241.9" y="1172" transform="matrix(0.8362 0.5485 -0.5485 0.8362 1196.3826 -1598.188)" fill="#D7DBDF" width="63.1" height="63.1"/>
				
					<rect x="3701.6" y="1473.5" transform="matrix(0.8362 0.5485 -0.5485 0.8362 1437.0896 -1800.9293)" fill="#D7DBDF" width="63.1" height="63.1"/>
				
					<rect x="3333.8" y="1232.3" transform="matrix(0.8362 0.5485 -0.5485 0.8362 1244.6024 -1638.7936)" fill="#D7DBDF" width="63.1" height="63.1"/>
				
					<rect x="3425.7" y="1292.6" transform="matrix(0.8362 0.5485 -0.5485 0.8362 1292.6654 -1679.2845)" fill="#D7DBDF" width="63.1" height="63.1"/>
				
					<rect x="3517.7" y="1352.9" transform="matrix(0.8362 0.5485 -0.5485 0.8362 1340.7926 -1719.8228)" fill="#00A4A1" width="63.1" height="63.1"/>
				
					<rect x="3609.6" y="1413.2" transform="matrix(0.8362 0.5485 -0.5485 0.8362 1388.9806 -1760.4034)" fill="#00A4A1" width="63.1" height="63.1"/>
			</g>
		</g>
		<g>
			<g>
				
					<rect x="3180.3" y="1265.8" transform="matrix(0.8362 0.5485 -0.5485 0.8362 1237.7825 -1549.0769)" fill="#D7DBDF" width="63.1" height="63.1"/>
				
					<rect x="3640" y="1567.4" transform="matrix(0.8362 0.5485 -0.5485 0.8362 1478.4491 -1751.7906)" fill="#D7DBDF" width="63.1" height="63.1"/>
				
					<rect x="3272.3" y="1326.1" transform="matrix(0.8362 0.5485 -0.5485 0.8362 1285.9291 -1589.6287)" fill="#D7DBDF" width="63.1" height="63.1"/>
				
					<rect x="3364.2" y="1386.4" transform="matrix(0.8362 0.5485 -0.5485 0.8362 1334.0433 -1630.1577)" fill="#D7DBDF" width="63.1" height="63.1"/>
				
					<rect x="3456.1" y="1446.7" transform="matrix(0.8362 0.5485 -0.5485 0.8362 1382.2351 -1670.7397)" fill="#D7DBDF" width="63.1" height="63.1"/>
				
					<rect x="3548.1" y="1507" transform="matrix(0.8362 0.5485 -0.5485 0.8362 1430.4114 -1711.3104)" fill="#D7DBDF" width="63.1" height="63.1"/>
			</g>
		</g>
	</g>
	<g>
		<g>
			<path fill="#505251" d="M3495.4,1041.8c-10.8,16.5-33,21.1-49.5,10.3c-16.5-10.8-21.1-33-10.3-49.5c10.8-16.5,33-21.1,49.5-10.3
				C3501.6,1003.2,3506.2,1025.3,3495.4,1041.8z"/>
			<path fill="#D7DBDF" d="M3491.1,1034.3c-5.7,8.6-17.3,11-25.9,5.4l-15.6-10.3c-8.6-5.7-11-17.3-5.4-25.9l53-80.7
				c5.7-8.6,17.3-11,25.9-5.4l15.6,10.2c8.6,5.7,11,17.3,5.4,25.9L3491.1,1034.3z"/>
		</g>
		<g>
			<path fill="#505251" d="M3859.2,1280.5c-10.8,16.5-33,21.1-49.5,10.3c-16.5-10.8-21.1-33-10.3-49.5c10.8-16.5,33-21.1,49.5-10.3
				C3865.4,1241.9,3870,1264,3859.2,1280.5z"/>
			<path fill="#D7DBDF" d="M3855,1273c-5.7,8.6-17.2,11-25.9,5.4l-15.6-10.3c-8.6-5.7-11-17.3-5.4-25.9l53-80.7
				c5.7-8.6,17.3-11,25.9-5.4l15.6,10.3c8.6,5.7,11,17.2,5.4,25.9L3855,1273z"/>
		</g>
	</g>
</g>
<g>
	<g>
		<g>
			<g>
				<polygon fill="#25364B" points="1178.8,1668.9 1158.4,1708.9 1079.8,1668.6 1100.2,1628.7 				"/>
				<g>
					<path fill="#25364B" d="M810.9,1763c112.5,57.6,250.6,13.1,308.2-99.4c57.6-112.5,13.1-250.5-99.5-308.2
						c-112.5-57.6-250.5-13.1-308.2,99.4C653.9,1567.4,698.4,1705.3,810.9,1763z M746.5,1472.7c47.8-93.3,162.1-130.1,255.3-82.4
						c93.2,47.7,130.1,162,82.4,255.3c-47.7,93.3-162.1,130.1-255.3,82.4C735.6,1680.3,698.7,1566,746.5,1472.7z"/>
					<path fill="#C9E8EA" d="M1001.8,1390.3c93.2,47.7,130.1,162,82.4,255.3l-337.7-172.9C794.2,1379.5,908.5,1342.6,1001.8,1390.3z
						"/>
					<path fill="#B4D5D6" d="M746.5,1472.7l337.7,172.9c-47.7,93.3-162.1,130.1-255.3,82.4C735.6,1680.3,698.7,1566,746.5,1472.7z"
						/>
				</g>
			</g>
			<path fill="#FFFFFF" d="M1052.1,1513.1c6.4-1.6,10.6-8,9.3-14.6c-0.4-2.3-11.4-57.3-63.7-84.2c-72.6-37.3-135.8-3.8-138.5-2.3
				c-6.1,3.3-8.4,11-5,17.1c3.3,6.1,11,8.4,17.1,5c2.2-1.2,54.4-28.5,114.8,2.6c41.4,21.3,50.3,66,50.4,66.5
				c1.3,6.9,7.9,11.3,14.7,10.1C1051.6,1513.2,1051.9,1513.2,1052.1,1513.1z"/>
			<path fill="#BCBDBF" d="M726.2,1606.2c-26.5-104.8,37.2-211.7,142-238.2c104.8-26.5,211.7,37.1,238.2,142
				c26.5,104.8-37.1,211.7-142,238.2C859.7,1774.7,752.8,1711,726.2,1606.2z M735.2,1603.9c25.3,99.9,127.1,160.6,227,135.3
				c99.9-25.3,160.6-127.2,135.3-227.1c-25.3-99.9-127.2-160.6-227.1-135.3C770.6,1402.2,709.9,1504,735.2,1603.9z"/>
		</g>
	</g>
	<g>
		<path fill="#F37820" d="M1225.3,1654.4c-3.2-1.4-5-2.3-5-2.3s-9-2.1-20.7-0.6c-17.9,1.9-34.5,12.3-43.4,29.5c0,0,0,0,0,0
			c0,0,0,0,0,0c-8.9,17.2-7.8,36.8,1,52.5c5.6,10.5,12.5,16.6,12.5,16.6s2.6,1.5,7.2,4.2c0.1-0.4,0.1-0.8,0.3-1.2L1225.3,1654.4z"/>
		<path fill="#F37820" d="M1459.8,1762.1c-2-1.6-4.3-3.1-6.9-4.4c-0.7-0.4-1.3-0.8-2-1.1c-0.6-0.3-1.3-0.5-2-0.8
			c-1.5-0.7-3.1-1.5-4.6-2.1c-34.7-15.6-141.8-64.1-194.3-88l-48.5,99.5c-0.5,1-1.3,1.8-2,2.6c50.4,29.5,150,87.6,182.4,106.7
			c1.4,0.9,2.9,1.7,4.4,2.6c0.6,0.3,1.2,0.8,1.8,1.1c0.7,0.4,1.4,0.6,2.1,0.9c2.6,1.3,5.1,2.4,7.6,3.1c19.8,6.7,41.2,3.8,58.2-6.9
			c0.2-0.1,0.4-0.2,0.5-0.3c3-1.9,5.9-4.2,8.6-6.6c0.3-0.3,0.6-0.6,1-0.9c2.6-2.4,5.1-5.1,7.3-8c0.3-0.3,0.5-0.7,0.7-1
			c2.3-3,4.3-6.2,6.1-9.6c0,0,0,0,0,0c0,0,0,0,0,0c1.8-3.4,3.2-7,4.3-10.6c0.1-0.4,0.3-0.8,0.4-1.2c1.1-3.5,1.8-7,2.3-10.6
			c0.1-0.4,0.1-0.9,0.2-1.3c0.4-3.6,0.6-7.3,0.4-10.9c0-0.2,0-0.4,0-0.6C1486.7,1793.5,1476.7,1774.4,1459.8,1762.1z"/>
		<path fill="#25364B" d="M1250.1,1665.7c-11.1-5-19.8-9-24.8-11.2l-48.1,98.8c-0.2,0.4-0.2,0.8-0.3,1.2c5.2,3.1,13.1,7.7,22.8,13.3
			c0.7-0.8,1.5-1.6,2-2.6L1250.1,1665.7z"/>
	</g>
</g>
<g>
	<path fill="#ECF6F8" d="M1469.6,1185c0,0,12.6-90,12-121.8c-0.6-31.8-22.1-59.2-22.1-59.2l-79.7-99.9l-137.5,89.6l-0.3-0.4
		l-1.8,1.8l-2.1,1.4l0.3,0.4L1120.4,1111l79.7,99.9c0,0,22,27,52.9,34.7c30.9,7.7,121.4,15.4,121.4,15.4s26.9,2.3,60.7,42.3
		c31.5,41.8,27.7,68.5,27.7,68.5s-12.6,90-12,121.8c0.6,31.8,22.1,59.2,22.1,59.2l79.7,99.9l137.5-89.6l0.3,0.4l1.8-1.8l2.1-1.4
		l-0.3-0.4l117.9-114.2l-79.7-99.9c0,0-22-27-52.9-34.7c-30.9-7.7-121.4-15.4-121.4-15.4s-26.9-2.3-60.7-42.3
		C1465.8,1211.7,1469.6,1185,1469.6,1185z"/>
	<g>
		<path fill="#4E596A" d="M1091,1092.7c-4.2,3.4-4.1,10.6,0.3,16.1l13.4,16.8c4.4,5.5,11.4,7.3,15.6,3.9l138.8-110.7l-29.3-36.8
			L1091,1092.7z"/>
		<path fill="#2E3C51" d="M1397.5,892l-13.4-16.8c-4.4-5.5-11.4-7.3-15.6-3.9L1229.8,982l29.3,36.8l138.7-110.7
			C1402.1,904.8,1401.9,897.5,1397.5,892z"/>
		<path fill="#2E3C51" d="M1841.3,1464.1c4.2-3.4,4.1-10.6-0.3-16.1l-13.4-16.8c-4.4-5.5-11.4-7.3-15.6-3.9L1673.2,1538l29.3,36.8
			L1841.3,1464.1z"/>
		<path fill="#4E596A" d="M1534.8,1664.8l13.4,16.8c4.4,5.5,11.4,7.3,15.6,3.9l138.8-110.7l-29.3-36.8l-138.8,110.7
			C1530.2,1652.1,1530.4,1659.3,1534.8,1664.8z"/>
	</g>
	<g>
		<g>
			<path fill="#E3A625" d="M1202.2,1164.5c5.7,6.5,41.8,46.4,89.8,52.9c53.4,7.2,133.4,9.9,133.4,9.9L1308,1080.1L1202.2,1164.5z"/>
		</g>
		<g>
			<path fill="#CD962A" d="M1413.8,995.7c5.1,7,35.9,51.1,31.6,99.3c-4.8,53.7-20,132.3-20,132.3L1308,1080.1L1413.8,995.7z"/>
		</g>
	</g>
	<g>
		<g>
			<path fill="#CD962A" d="M1746.2,1412.5c-5.7-6.5-41.8-46.4-89.8-52.8c-53.4-7.2-133.4-9.9-133.4-9.9l117.4,147.1L1746.2,1412.5z"
				/>
		</g>
		<g>
			<path fill="#E3A625" d="M1534.6,1581.3c-5.1-7-35.9-51-31.6-99.3c4.8-53.7,20-132.3,20-132.3l117.4,147.1L1534.6,1581.3z"/>
		</g>
	</g>
	<g>
		<path fill="#CD962A" d="M1443.4,1243.1c-1.9-2.4-4.9-3.1-6.7-1.7l6.8,8.5C1445.3,1248.5,1445.2,1245.4,1443.4,1243.1z"/>
		<path fill="#E3A625" d="M1436.8,1248.3c1.9,2.4,4.9,3.1,6.7,1.7l-6.8-8.5C1434.9,1242.8,1435,1245.9,1436.8,1248.3z"/>
		<path fill="#E3A625" d="M1466.9,1286c1.9,2.4,4.9,3.1,6.7,1.7l-6.8-8.5C1465,1280.6,1465.1,1283.6,1466.9,1286z"/>
		<path fill="#CD962A" d="M1473.5,1280.8c-1.9-2.4-4.9-3.1-6.7-1.7l6.8,8.5C1475.4,1286.2,1475.3,1283.2,1473.5,1280.8z"/>
		<path fill="#CD962A" d="M1503.6,1318.5c-1.9-2.4-4.9-3.1-6.7-1.7l6.8,8.5C1505.5,1324,1505.4,1320.9,1503.6,1318.5z"/>
		<path fill="#E3A625" d="M1497,1323.7c1.9,2.4,4.9,3.1,6.7,1.7l-6.8-8.5C1495.1,1318.3,1495.2,1321.4,1497,1323.7z"/>
	</g>
</g>
<g>
	<g>
		<path fill="#179BB9" d="M746.5,2012.9c-5.9,9.8-9.6,20.9-9.6,32.8v781.2c0,15.8,6.1,30.1,16.1,41.9l303.2-396.1l0.4-1.4l0.9,1.4
			l26.6-34.7l-27.9-35.2l-0.9,1.4l-0.4-1.4L746.5,2012.9z"/>
		<path fill="#179BB9" d="M754.2,2868.8c0,0-366.3-378.5-366.3-434.1c0-55.6,359.8-421.8,359.8-421.8L754.2,2868.8z"/>
		<g>
			<rect x="650.5" y="2155.8" fill="#FFFFFF" width="642.3" height="550.5"/>
			<rect x="706.2" y="2194.7" fill="#FFD062" width="28.7" height="472.7"/>
			<rect x="837.8" y="2194.7" fill="#FFD062" width="28.7" height="472.7"/>
			<rect x="772" y="2194.7" fill="#FFD062" width="28.7" height="472.7"/>
			<rect x="903.6" y="2194.7" fill="#FFD062" width="28.7" height="472.7"/>
			<rect x="965.2" y="2194.7" fill="#FFD062" width="28.7" height="472.7"/>
			<rect x="1031" y="2194.7" fill="#FFD062" width="28.7" height="472.7"/>
		</g>
		<g>
			<polygon fill="#63BAC8" points="1040.4,2494.8 1031.3,2506.8 1040.4,2494.9 			"/>
			<polygon fill="#599CB3" points="946.2,2617.9 946.3,2617.9 1031.3,2506.8 			"/>
			<path fill="#EE803F" d="M1040.4,2494.8L1040.4,2494.8l-9.1,11.9l-85,111.1l-192,250.9c14.5,17.1,37.5,28.3,63.6,28.3h433.8
				c22.7,0,43.1-8.4,57.6-21.9l-195-311.8l-56.8-90.8L1040.4,2494.8z"/>
			<path fill="#EE803F" d="M747.8,2012.9l230.6,291.5l0,0l48.8,61.6l24.8,31.4l4.1,5.2l70.3-110.4l185.7-291.6
				c-14.6-15.2-36.2-25.1-60.6-25.1H817.8C787.3,1975.5,761.2,1990.8,747.8,2012.9z"/>
			<path fill="#D86E38" d="M1126.5,2292.2l-70.3,110.4l-4.1-5.2c0.2,0.3,18.1,29.1,18.1,43.4c0,14.3-29.5,53.7-29.7,54l17-22.2
				l56.8,90.8l195,311.8c13.6-12.6,22.1-29.5,22.1-48.2v-781.2c0-17.2-7.3-32.8-19.1-45L1126.5,2292.2z"/>
		</g>
	</g>
</g>
<g>
	<g>
		<g>
			<polygon fill-rule="evenodd" clip-rule="evenodd" fill="#A4A2A2" points="2052.9,1113.9 1883,1179.2 1926.5,1292.5 1929,1291.5 
				1960.4,1305.5 1998.1,1295.5 1999.9,1300.3 2020.6,1289.6 2043.1,1283.7 2041.3,1278.9 2075.9,1261.1 2089.9,1229.7 
				2096.4,1227.2 			"/>
			<g>
				<g>
					<path fill="#CAC9C7" d="M2094.1,1143.6c4.3,11.1-1.3,23.5-12.4,27.8l-185.7,71.4c-11.1,4.3-23.5-1.3-27.8-12.4l0,0
						c-4.3-11.1,1.3-23.5,12.3-27.8l185.7-71.4C2077.4,1127,2089.8,1132.6,2094.1,1143.6L2094.1,1143.6z"/>
					<path fill="#CAC9C7" d="M2115.6,1199.5c4.3,11.1-1.3,23.5-12.4,27.8l-185.7,71.4c-11.1,4.3-23.5-1.3-27.7-12.3l0,0
						c-4.3-11.1,1.3-23.5,12.3-27.8l185.8-71.4C2098.9,1182.9,2111.3,1188.5,2115.6,1199.5L2115.6,1199.5z"/>
					<path fill="#CAC9C7" d="M2086.6,1269.2c4.3,11.1-1.3,23.5-12.4,27.8l-88.5,34c-11.1,4.3-23.5-1.3-27.8-12.3l0,0
						c-4.3-11.1,1.3-23.5,12.4-27.8l88.5-34C2069.9,1252.6,2082.3,1258.2,2086.6,1269.2L2086.6,1269.2z"/>
				</g>
				<path fill="#FFD00F" d="M1751.4,589.2C1751.4,589.2,1751.4,589.2,1751.4,589.2c-128,49.2-192.9,191.4-144.6,317
					c24.8,64.5,79.2,124.8,145.6,161.2l2.9,1.8c8.9,5.3,87.1,52.9,105.2,100.2c3.3,8.7,12.2,13.7,21.1,12.6l0.2,0.6l35.3-13.6
					l5.7-2.2l5.8-2.2l32.3-12.4l6-2.3l9.4-3.6l22.8-8.8l5.8-2.2l27.7-10.7l7.5-2.9l-0.5-1.2l15.2-6.1c5.8-5.5,7.7-14,4.8-21.4
					c-16.1-41.8,2.6-118.7,11.1-144.8c0.4-1.3,0.6-2.6,0.7-3.1l0.6-3c23.7-71.1,23.4-150.9-0.9-214.1
					C2022.9,602.1,1879.5,540,1751.4,589.2z"/>
			</g>
			<path fill="#A3832F" d="M1970.1,888.4c-0.7-2.1-5.7-14.7-17.2-20.1c-6.8-3.2-14.3-3.2-22.4-0.1c-10.6,4.1-17.8,10.8-21.3,19.9
				c-6.7,17.4,2.7,37.3,3.9,39.8l1.2,3.1l-24.4,9.4l-5.8,2.2l-24.4,9.4l-1.2-3.1c-0.8-2.7-7.2-23.7-23.8-32.2
				c-8.7-4.4-18.5-4.6-29.1-0.5c-8.1,3.1-13.7,8.2-16.6,15.1c-4.9,11.7-0.1,24.4,0.7,26.5c0.6,1.9,3.9,11.3,13.3,16
				c7.2,3.6,15.9,3.5,25.8-0.3l25.8-9.9l76.7,199.6l8.3-3.2l-76.7-199.6l24.4-9.4l5.8-2.2l24.4-9.4l76.7,199.6l8.3-3.2l-76.7-199.6
				l25.8-9.9c9.9-3.8,16.4-9.6,19.4-17.1C1974.7,899.4,1970.9,890.2,1970.1,888.4z M1849.9,951.4l1.4,3.8l-25.8,9.9
				c-7.4,2.9-13.7,3.1-18.5,0.7c-6.7-3.3-8.9-10.7-8.9-10.8l-0.1-0.3l-0.1-0.3c0-0.1-4.5-10.9-0.7-19.8c2-4.6,5.7-7.9,11.5-10.2
				c8.2-3.1,15.5-3.1,21.9,0.1C1844.4,931.7,1849.8,951.3,1849.9,951.4z M1962.6,906c-2,5-6.8,9-14.2,11.9l-25.8,9.9l-1.5-3.8
				c-0.1-0.2-9.2-18.4-3.6-32.8c2.6-6.6,8-11.6,16.1-14.7c5.8-2.2,10.8-2.3,15.4-0.2c8.8,4.1,12.7,15.1,12.7,15.2l0.1,0.3l0.1,0.3
				C1962,892.1,1965.3,899.1,1962.6,906z"/>
		</g>
	</g>
	<path fill="#F4E5A9" d="M1722.4,978.4c-3.8,1.3-8,0.8-11.5-1.7c-0.8-0.6-20.8-15.1-41.4-42.3c-27.3-35.9-42.9-77.4-45.2-119.8
		c-1.3-24.2,3.1-48.2,13.1-71.3c7.9-18.2,19.2-35.9,33.7-52.5c24.5-28.1,49.6-43.5,50.6-44.1c6-3.7,13.8-1.8,17.5,4.2
		c3.7,6,1.8,13.8-4.2,17.5c-0.4,0.3-23.3,14.5-45.2,39.7c-28.6,33-42.1,68.4-40.1,105.2c4.9,90.4,75.4,142.3,76.1,142.8
		c5.7,4.1,7,12.1,2.9,17.8C1727,976.1,1724.8,977.6,1722.4,978.4z"/>
</g>
<g>
	<g>
		<path fill="#B4E1E5" d="M1100.8,1241.8c-4.9,3.8-10.7,5.9-16.9,6c-22.5,1.2-45.2,2.4-68,3.5l-0.7,0c-30.2,1.5-60.4,3-90.5,4.4
			c-1.8,0.1-3.6,0.9-6.2,2.9c-1.1,0.8-2.1,1.7-3.2,2.6c-2.9,2.5-5.9,4.8-8.6,6.3c-50.5,38-121,47.7-179.9,24.7
			c-35.4-13-67.6-38.2-90.6-71.1c-28.9-34.1-45.3-79.1-45.1-123.5c-0.2-56.5,25.9-111.6,70-147.3c15.9-12.5,33.2-26,53.1-41.4
			c8.9-6.9,17.8-13.7,26.7-20.6l15-11.6c19.8-15.3,39.6-30.6,59.4-45.9l0.9-0.7c22.2-17.1,48.7-29.6,76.8-36.1
			c58.3-12.8,127,6.2,170.9,47.3l0.4,0.4c7.6,8.1,11.7,12.6,16.7,19.1c31.5,36.5,48.6,70.4,53.8,106.8
			c8.3,52.8-7.2,108.8-41.5,149.8c-10,13.2-22.4,23.3-34.3,32.5l-10.3,7.9c-0.2,0.2-0.4,0.3-0.6,0.5c7.3,4.9,15,9.4,22.4,13.9
			c10.8,6.4,22,13.1,32.4,20.8l0.3,0.3c6.7,5.6,10.4,13.6,10.2,22.6C1113.3,1226.2,1108.4,1235.9,1100.8,1241.8z M908.2,1245.4
			c3.7-2.9,8.9-6.2,15.8-6.4c30.1-1.4,60.2-2.9,90.4-4.4l0.7,0c22.8-1.2,45.5-2.3,68.2-3.6c2.8-0.1,5.1-0.9,7.2-2.5
			c3.6-2.8,6-7.7,6.1-12.4c0-2.6-0.6-6.3-3.9-9.2c-9.7-7.2-19.9-13.3-30.7-19.7c-11-6.5-22.3-13.3-32.9-21.2l-8.6-6.4l8.3-6.8
			c3.2-2.6,6.5-5.2,9.8-7.8l10.3-7.9c11-8.5,22.6-17.8,31.3-29.5l0.3-0.3c31.3-37.4,45.4-88.4,37.8-136.6
			c-4.8-33.2-20.7-64.5-50-98.5l-0.3-0.4c-4.8-6.3-8.7-10.5-15.6-17.9c-40-37.4-102.5-54.7-155.4-43c-25.7,5.9-50,17.4-70.2,33
			l-0.8,0.7c-19.8,15.4-39.6,30.7-59.4,46l-15,11.6c-8.9,6.9-17.8,13.7-26.7,20.6c-19.8,15.3-37.1,28.8-52.8,41.2
			c-40,32.4-63.8,82.6-63.6,134.1c-0.2,40.6,14.9,81.7,41.3,112.8l0.3,0.3l0.2,0.3c21.1,30.2,50.5,53.4,83,65.3
			c53.9,21.1,118.3,12.1,164.2-22.7l1.1-0.7c1.7-0.9,4-2.8,6.2-4.6C905.7,1247.4,906.9,1246.4,908.2,1245.4z"/>
		<path fill="#B4E1E5" d="M1102.1,1243.5c-5.3,4.1-11.5,6.3-18.1,6.5c-21.8,1.2-44,2.3-66.1,3.4l-2.5,0.1c-30.6,1.6-61,3.1-90.6,4.4
			c-1.3,0-2.7,0.8-5,2.5c-1,0.8-2.1,1.7-3.1,2.5c-1.5,1.2-2.6,2.2-3.8,3.1c-1.9,1.5-3.5,2.6-5,3.4c-51,38.3-122.4,48.1-181.9,24.9
			c-35.7-13.1-68.3-38.6-91.5-71.8c-29.2-34.5-45.8-79.9-45.5-124.8c-0.2-57.2,26.2-112.8,70.8-148.9c15.7-12.4,33.1-25.9,53.1-41.4
			c8.9-6.9,17.8-13.7,26.7-20.6l15-11.6c19.8-15.3,39.6-30.5,59.3-45.9l0.9-0.7c22.4-17.3,49.3-30,77.7-36.5
			c59-13,128.4,6.3,172.8,47.9l0.4,0.4c7.8,8.3,11.8,12.8,16.9,19.3c31.7,36.7,49,71,54.2,107.8c8.4,53.4-7.3,110-41.9,151.5
			c-10.1,13.3-22.7,23.5-34.7,32.8l-8.6,6.6c6.5,4.2,13.2,8.2,19.7,12.1l0.2,0.1c10.8,6.5,22.1,13.1,32.6,21l0.4,0.3
			c7.3,6,11.2,14.7,11,24.3C1115.4,1226.8,1110.3,1237.2,1102.1,1243.5z M917.2,1257.1c3-2.3,5.1-3.3,7.4-3.4
			c29.5-1.4,59.9-2.9,90.5-4.4l2.5-0.1c22.2-1.1,44.3-2.3,66.2-3.5c5.7-0.1,11.1-2.1,15.7-5.6c7.1-5.5,11.7-14.6,11.8-23.8
			c0.1-8.3-3.2-15.8-9.4-20.9l-0.3-0.2c-10.3-7.6-21.4-14.3-32.2-20.7l-0.2-0.1c-7.4-4.4-15-9-22.3-13.8c-0.6-0.4-0.9-1-0.9-1.7
			c0-0.7,0.3-1.3,0.8-1.8l11-8.4c11.8-9.1,24.1-19.1,33.9-32.1c33.9-40.6,49.2-96,41-148.2c-5.2-36-22.1-69.6-53.3-105.8
			c-5-6.5-9-10.9-16.7-19.1l-0.3-0.3c-43.4-40.6-111.3-59.4-168.9-46.8c-27.8,6.4-54.1,18.8-76,35.7l-0.9,0.7
			c-19.7,15.4-39.5,30.6-59.4,45.9l-15,11.6c-8.9,6.8-17.8,13.7-26.7,20.6c-20,15.5-37.4,29-53,41.4
			c-43.5,35.3-69.4,89.7-69.2,145.6c-0.2,43.9,16,88.4,44.6,122.1c0,0,0.1,0.1,0.1,0.2c22.8,32.5,54.6,57.5,89.6,70.3
			c58.2,22.7,128,13.2,177.9-24.4c0.1-0.1,0.2-0.1,0.2-0.2c1.3-0.8,2.8-1.8,4.6-3.2c1.1-0.8,2.2-1.8,3.6-2.9
			C915.1,1258.9,916.1,1258,917.2,1257.1z M1091.8,1230.1c-2.5,1.9-5.2,2.9-8.4,3c-21.3,1.1-42.7,2.2-64.1,3.3l-4.8,0.2
			c-30.4,1.6-60.9,3-90.4,4.4c-6.4,0.2-11.1,3.3-14.6,6c-1.3,1-2.5,2-3.7,3c-1.3,1.1-2.3,1.9-3.2,2.6c-1.3,1-2.4,1.8-3.3,2.3l-1,0.6
			c-46.5,35.2-111.7,44.3-166.2,23c-32.8-12-62.6-35.5-83.9-66l-0.2-0.2l-0.2-0.2c-26.8-31.5-42-73.1-41.8-114.2
			c-0.2-52.1,23.9-102.9,64.4-135.7c15.9-12.5,33.2-26,52.9-41.2c8.9-6.9,17.8-13.7,26.7-20.6l16.8-12.9
			c19.2-14.8,38.5-29.7,57.7-44.6l0.9-0.7c20.5-15.8,45.1-27.4,71-33.4c53.6-11.8,116.8,5.7,157.4,43.5c7.1,7.6,10.9,11.8,15.9,18.1
			l0.3,0.3c29.6,34.3,45.7,65.9,50.5,99.5c7.7,48.8-6.7,100.5-38.3,138.3l-0.2,0.3c-8.9,11.8-20.5,21.2-31.7,29.8l-10.3,7.9
			c-2.7,2.1-6.2,4.8-9.7,7.7l-6.2,5.1l6.4,4.8c10.6,7.9,21.9,14.6,32.7,21.1c10.9,6.5,21.2,12.6,30.9,19.9c0,0,0.1,0.1,0.1,0.1
			c4,3.4,4.7,7.8,4.7,10.8C1098.6,1221.4,1095.9,1226.9,1091.8,1230.1z M906.9,1243.7c4-3.1,9.5-6.6,17-6.9
			c29.5-1.4,59.9-2.9,90.3-4.4l4.7-0.2c21.4-1.1,42.8-2.2,64.2-3.3c2.4-0.1,4.2-0.7,6-2.1c3.1-2.4,5.2-6.6,5.3-10.7
			c0-3.1-1-5.6-3.2-7.5c-9.5-7.1-19.7-13.1-30.4-19.5c-11-6.6-22.4-13.3-33.2-21.4l-8.6-6.4c-0.5-0.4-0.8-1-0.9-1.7
			c0-0.7,0.3-1.3,0.8-1.7l8.3-6.9c3.5-2.9,7.1-5.7,9.8-7.8l10.3-7.9c10.9-8.4,22.3-17.7,30.9-29.1l0.3-0.4
			c30.9-36.9,44.9-87.4,37.4-135c-4.7-32.8-20.4-63.7-49.5-97.4l-0.3-0.4c-4.8-6.3-8.6-10.4-15.5-17.8
			c-39.4-36.8-101.1-53.9-153.4-42.4c-25.4,5.9-49.4,17.2-69.4,32.6l-0.8,0.7c-19.2,14.9-38.4,29.8-57.7,44.6l-16.8,12.9
			c-8.9,6.9-17.8,13.7-26.7,20.6c-19.7,15.2-37,28.7-52.8,41.2c-39.5,32-63,81.5-62.8,132.4c-0.2,40.1,14.7,80.7,40.8,111.4l0.3,0.3
			c0,0.1,0.1,0.1,0.1,0.2l0.2,0.3c20.8,29.9,49.9,52.8,82,64.5c53.2,20.8,116.8,12,162.2-22.4c0,0,0.1-0.1,0.1-0.1l1.1-0.7
			c0.1,0,0.1-0.1,0.2-0.1c0.7-0.4,1.6-1,2.8-1.9c1-0.8,2-1.6,3-2.5C904.2,1245.9,905.5,1244.8,906.9,1243.7z"/>
	</g>
</g>
<g>
	<g>
		<path fill="#B4E1E5" d="M4256,1339.8l3-2l-12.4-19l-3,2c-15.2-13.9-38.4-16-55.9-4.6l-34.3,22.4c-17.5,11.4-24.9,33.5-18.3,53
			l-269.1,175.7l12.4,19l269.1-175.6c15.2,13.9,38.4,16.1,55.9,4.6l34.3-22.4C4255.3,1381.4,4262.6,1359.3,4256,1339.8z
			 M4225.4,1373.9l-34.3,22.4c-9.1,6-21.3,4.7-29-3.1c-2.2-2.2-3.9-4.9-5.1-7.8c-4-10.1-0.3-21.8,8.9-27.8l34.3-22.4
			c9.1-6,21.3-4.7,29,3.1c1.1,1.1,2.1,2.3,3,3.7c0.9,1.3,1.6,2.7,2.2,4.2C4238.2,1356.2,4234.5,1367.9,4225.4,1373.9z"/>
		<path fill="#B4E1E5" d="M4166.2,1780.8l267.9-174.8l-12.4-19l-267.9,174.8c-15.2-13.9-38.4-16-55.9-4.6l-34.3,22.4
			c-17.5,11.4-24.9,33.5-18.3,53l-4.3,2.8l12.4,19l4.3-2.8c15.2,13.9,38.4,16,55.9,4.6l34.3-22.4
			C4165.5,1822.4,4172.8,1800.3,4166.2,1780.8z M4135.6,1814.9l-34.3,22.4c-9.1,6-21.3,4.7-29-3.1c-2.2-2.2-4-4.9-5.1-7.8
			c-4-10.1-0.3-21.8,8.9-27.8l34.3-22.4c9.1-6,21.3-4.7,29,3.1c1.1,1.1,2.1,2.3,3,3.7c0.9,1.3,1.6,2.7,2.2,4.2
			C4148.4,1797.2,4144.7,1808.9,4135.6,1814.9z"/>
		<path fill="#B4E1E5" d="M4210.5,1560.8l136.1-88.8l-12.4-19l-136.1,88.8c-15.2-13.9-38.4-16-55.9-4.6l-34.3,22.4
			c-17.5,11.4-24.9,33.5-18.3,53l-136.1,88.8l12.4,19l136.1-88.8c15.2,13.9,38.4,16.1,55.9,4.6l34.3-22.4
			C4209.7,1602.4,4217.1,1580.2,4210.5,1560.8z M4179.8,1594.8l-34.3,22.4c-9.1,6-21.3,4.7-29-3.1c-2.2-2.2-4-4.9-5.1-7.8
			c-4-10.1-0.3-21.8,8.9-27.8l34.3-22.4c9.1-6,21.3-4.7,29,3.1c1.1,1.1,2.1,2.3,3,3.7c0.9,1.3,1.6,2.7,2.2,4.2
			C4192.7,1577.2,4189,1588.8,4179.8,1594.8z"/>
	</g>
</g>
<g>
	<g>
		<path fill="#B4E1E5" d="M1337.4,689.3l73.1,68.4L1617,590.9l-112.5-112.5L1337.4,689.3z M1586.3,589.2l-174.8,141.2l-46.3-43.3
			l141-178L1586.3,589.2z"/>
		<path fill="#B4E1E5" d="M1699.9,382.2c-25.4-17.5-50.1-26.4-73.3-26.4c-81,0-114.3,104.4-115.6,108.8l-1.8,5.8l115.5,119.6
			l4.9-0.4c55-4.9,99.1-40.6,112.3-91C1753.8,452.9,1737.8,408.3,1699.9,382.2z M1632.5,568.7l-99.9-103.5
			c7.8-20.7,37.8-88.7,94-88.7c19,0,39.7,7.7,61.7,22.7c30.5,21,43.4,57.1,33.7,94.3C1713.5,525.6,1685.6,562,1632.5,568.7z"/>
		<path fill="#B4E1E5" d="M1479.1,771.8c-5.9-5.5-12.9-8.2-20.8-8.2c-16,0-33,11.4-49.4,22.5c-13.3,8.9-28.3,19.1-38.3,19.1
			c-1.6,0-3-0.3-4.2-0.8c-14.8-6.4-6.8-45.5,3.2-69.9l2.2-5.2l-19-7.8l-2.2,5.2c-3.3,8.1-31.6,79.8,7.7,96.6
			c3.8,1.6,7.9,2.5,12.3,2.5c16.3,0,33.4-11.5,49.9-22.6c13.8-9.3,28-18.9,37.7-18.9c2.9,0,5.2,0.9,7.1,2.7
			c23.4,21.5,21.2,54.5,21.1,54.8l-0.5,5.6l20.4,1.8l0.5-5.6C1506.9,841.8,1510.2,800.4,1479.1,771.8z"/>
	</g>
</g>
<g>
	
		<rect x="2246.3" y="551" transform="matrix(0.6967 0.7173 -0.7173 0.6967 1543.2684 -1555.2682)" fill="#264C6A" width="729.3" height="993.1"/>
	<g>
		
			<rect x="2293.6" y="639.9" transform="matrix(0.6967 0.7173 -0.7173 0.6967 1548.2946 -1542.3508)" fill="#FFFCF4" width="609.3" height="840.1"/>
		<g>
			
				<rect x="2245.2" y="1073" transform="matrix(0.6967 0.7173 -0.7173 0.6967 1496.8527 -1376.3085)" fill="#898286" width="261.8" height="18.2"/>
			
				<rect x="2224.9" y="1092.7" transform="matrix(0.6967 0.7173 -0.7173 0.6967 1504.8317 -1355.7683)" fill="#898286" width="261.8" height="18.2"/>
			
				<rect x="2204.6" y="1112.4" transform="matrix(0.6967 0.7173 -0.7173 0.6967 1512.8208 -1335.2406)" fill="#898286" width="261.8" height="18.3"/>
			
				<rect x="2184.3" y="1132.1" transform="matrix(0.6967 0.7173 -0.7173 0.6967 1520.7966 -1314.7089)" fill="#898286" width="261.8" height="18.2"/>
			
				<rect x="2164" y="1151.8" transform="matrix(0.6967 0.7173 -0.7173 0.6967 1528.7786 -1294.1807)" fill="#898286" width="261.8" height="18.2"/>
			
				<rect x="2143.8" y="1171.5" transform="matrix(0.6967 0.7173 -0.7173 0.6967 1536.7678 -1273.651)" fill="#898286" width="261.8" height="18.2"/>
			
				<rect x="2123.5" y="1191.2" transform="matrix(0.6967 0.7173 -0.7173 0.6967 1544.7479 -1253.1196)" fill="#898286" width="261.8" height="18.2"/>
			
				<rect x="2103.2" y="1210.9" transform="matrix(0.6967 0.7173 -0.7173 0.6967 1552.7308 -1232.589)" fill="#898286" width="261.8" height="18.3"/>
		</g>
		<g>
			
				<rect x="2447.5" y="1281.2" transform="matrix(0.6967 0.7173 -0.7173 0.6967 1707.5492 -1458.2329)" fill="#898286" width="261.8" height="18.2"/>
			
				<rect x="2427.2" y="1300.9" transform="matrix(0.6967 0.7173 -0.7173 0.6967 1715.5316 -1437.6942)" fill="#898286" width="261.8" height="18.3"/>
			
				<rect x="2406.9" y="1320.6" transform="matrix(0.6967 0.7173 -0.7173 0.6967 1723.5179 -1417.1654)" fill="#898286" width="261.8" height="18.3"/>
			
				<rect x="2386.6" y="1340.3" transform="matrix(0.6967 0.7173 -0.7173 0.6967 1731.5001 -1396.6356)" fill="#898286" width="261.8" height="18.2"/>
			
				<rect x="2366.3" y="1360" transform="matrix(0.6967 0.7173 -0.7173 0.6967 1739.4823 -1376.1075)" fill="#898286" width="261.8" height="18.2"/>
			
				<rect x="2346" y="1379.7" transform="matrix(0.6967 0.7173 -0.7173 0.6967 1747.4655 -1355.576)" fill="#898286" width="261.8" height="18.2"/>
			
				<rect x="2325.7" y="1399.4" transform="matrix(0.6967 0.7173 -0.7173 0.6967 1755.4548 -1335.0469)" fill="#898286" width="261.8" height="18.2"/>
		</g>
		
			<rect x="2354.2" y="910.2" transform="matrix(0.6967 0.7173 -0.7173 0.6967 1389.1726 -1423.6886)" fill="#EAA79F" width="48.2" height="41.7"/>
		
			<rect x="2310.7" y="952.5" transform="matrix(0.6967 0.7173 -0.7173 0.6967 1406.286 -1379.6759)" fill="#83CEEC" width="48.2" height="41.7"/>
		
			<rect x="2550.7" y="1112.5" transform="matrix(0.6967 0.7173 -0.7173 0.6967 1593.8572 -1503.2754)" fill="#C8DB58" width="48.2" height="41.7"/>
		
			<rect x="2507.2" y="1154.7" transform="matrix(0.6967 0.7173 -0.7173 0.6967 1610.9896 -1459.2695)" fill="#F1BA59" width="48.2" height="41.7"/>
		
			<rect x="2404.2" y="979.3" transform="matrix(0.6967 0.7173 -0.7173 0.6967 1446.3174 -1445.3613)" fill="#BFBFBF" width="56.6" height="16.9"/>
		
			<rect x="2359.8" y="1023.1" transform="matrix(0.6967 0.7173 -0.7173 0.6967 1463.778 -1400.4554)" fill="#BFBFBF" width="56.6" height="15.6"/>
		
			<rect x="2596.6" y="1177.5" transform="matrix(0.6967 0.7173 -0.7173 0.6967 1646.8242 -1523.3237)" fill="#BFBFBF" width="56.7" height="16.9"/>
		
			<rect x="2552.3" y="1221.3" transform="matrix(0.6967 0.7173 -0.7173 0.6967 1664.2856 -1478.4052)" fill="#BFBFBF" width="56.7" height="15.6"/>
		<g>
			
				<rect x="2441.3" y="943" transform="matrix(0.6967 0.7173 -0.7173 0.6967 1506.4165 -1658.9907)" fill="#898286" width="547.8" height="18.2"/>
			
				<rect x="2421" y="962.7" transform="matrix(0.6967 0.7173 -0.7173 0.6967 1514.4004 -1638.4521)" fill="#898286" width="547.8" height="18.3"/>
			
				<rect x="2400.7" y="982.4" transform="matrix(0.6967 0.7173 -0.7173 0.6967 1522.3842 -1617.9237)" fill="#898286" width="547.8" height="18.2"/>
			
				<rect x="2380.4" y="1002.1" transform="matrix(0.6967 0.7173 -0.7173 0.6967 1530.3687 -1597.3932)" fill="#898286" width="547.8" height="18.2"/>
			
				<rect x="2360.2" y="1021.8" transform="matrix(0.6967 0.7173 -0.7173 0.6967 1538.3497 -1576.866)" fill="#898286" width="547.8" height="18.2"/>
			
				<rect x="2339.9" y="1041.5" transform="matrix(0.6967 0.7173 -0.7173 0.6967 1546.3297 -1556.3331)" fill="#898286" width="547.8" height="18.2"/>
			
				<rect x="2319.6" y="1061.2" transform="matrix(0.6967 0.7173 -0.7173 0.6967 1554.3123 -1535.8032)" fill="#898286" width="547.8" height="18.2"/>
		</g>
		<g>
			<g>
				<g>
					<g>
						
							<rect x="2775.4" y="851.6" transform="matrix(0.6967 0.7173 -0.7173 0.6967 1523.366 -1813.9375)" fill="#898286" width="263.2" height="86.1"/>
					</g>
				</g>
			</g>
			
				<rect x="2724.9" y="935.4" transform="matrix(0.6967 0.7173 -0.7173 0.6967 1544.2615 -1760.2109)" fill="#BFBFBF" width="257.9" height="21.7"/>
			
				<rect x="2677.6" y="981.3" transform="matrix(0.6967 0.7173 -0.7173 0.6967 1562.8666 -1712.3595)" fill="#BFBFBF" width="257.9" height="21.7"/>
			
				<rect x="2701.3" y="958.3" transform="matrix(0.6967 0.7173 -0.7173 0.6967 1553.556 -1736.2814)" fill="#BFBFBF" width="257.9" height="21.7"/>
		</g>
		<g>
			<g>
				
					<rect x="2636.1" y="682.4" transform="matrix(0.6967 0.7173 -0.7173 0.6967 1329.7815 -1758.9343)" fill="#BFBFBF" width="218.1" height="21.7"/>
				
					<rect x="2588.8" y="728.3" transform="matrix(0.6967 0.7173 -0.7173 0.6967 1348.395 -1711.0883)" fill="#BFBFBF" width="218.1" height="21.7"/>
				
					<rect x="2612.4" y="705.3" transform="matrix(0.6967 0.7173 -0.7173 0.6967 1339.0929 -1735.014)" fill="#BFBFBF" width="218.1" height="21.7"/>
			</g>
			<g>
				
					<rect x="2564.7" y="751.7" transform="matrix(0.6967 0.7173 -0.7173 0.6967 1357.8958 -1686.6659)" fill="#BFBFBF" width="218.1" height="21.7"/>
				
					<rect x="2517.4" y="797.7" transform="matrix(0.6967 0.7173 -0.7173 0.6967 1376.5009 -1638.8168)" fill="#BFBFBF" width="218.1" height="21.7"/>
				
					<rect x="2541" y="774.7" transform="matrix(0.6967 0.7173 -0.7173 0.6967 1367.1943 -1662.7391)" fill="#BFBFBF" width="218.1" height="21.7"/>
			</g>
		</g>
	</g>
	<path fill="#FFFFFF" d="M3024.4,873.1l-227-233.8c-4.6-4.7-4.5-12.3,0.2-16.9l39.3-38.2c4.7-4.6,12.3-4.5,16.9,0.2l227,233.8
		c4.6,4.7,4.5,12.3-0.2,16.9l-39.3,38.2C3036.6,877.9,3029,877.8,3024.4,873.1z M2847.8,590.3c-1.4-1.4-3.6-1.4-5-0.1l-39.3,38.2
		c-1.4,1.4-1.4,3.6-0.1,5l227,233.8c1.4,1.4,3.6,1.4,5,0.1l39.3-38.2c1.4-1.4,1.4-3.6,0.1-5L2847.8,590.3z"/>
	<path fill="#0D1C2D" d="M2845.9,637.6c1.7,12.2,1.7,24.5-0.1,36.7L2991,823.6c12.2-1.4,24.5-1.1,36.6,1c9.1,9,23.8,9.1,33,0.1
		l16.9-16.5c9.4-9.1,9.6-24,0.5-33.4l-181-186.3c-9.1-9.4-24-9.6-33.4-0.5l-16.9,16.5C2837.5,613.5,2837.2,628.2,2845.9,637.6z"/>
</g>
<g>
	<path fill="#2E3C51" d="M1078.5,2441.7c0,785.8,637,1422.9,1422.8,1422.9c785.8,0,1422.8-637,1422.8-1422.9
		c0-785.8-637-1422.8-1422.8-1422.8C1715.5,1018.9,1078.5,1655.9,1078.5,2441.7z"/>
	<path fill="#C6D8DD" d="M1516.8,1682.1c-6.1,54.4-9.3,109.6-9.3,165.6c0,815.7,661.2,1476.9,1476.9,1476.9
		c163.3,0,320.5-26.6,467.4-75.6c-228.4,269.6-569.4,440.7-950.4,440.7c-687.7,0-1245.3-557.5-1245.3-1245.3
		C1256.1,2157.3,1353.4,1892.8,1516.8,1682.1z"/>
	<path fill="#FFFFFF" d="M1507.5,1847.7c0-56,3.2-111.2,9.3-165.6c227.8-293.7,584.1-482.8,984.6-482.8
		c687.7,0,1245.3,557.5,1245.3,1245.2c0,306.8-110.9,587.5-294.9,804.5c-146.9,49-304.1,75.6-467.4,75.6
		C2168.7,3324.6,1507.5,2663.4,1507.5,1847.7z"/>
	<g>
		<g>
			<path fill="#2E3C51" d="M2401.6,1344.7c0,55.1,44.7,99.8,99.8,99.8c55.1,0,99.8-44.7,99.8-99.8c0-55.1-44.7-99.8-99.8-99.8
				C2446.2,1245,2401.6,1289.7,2401.6,1344.7z"/>
			<path fill="#2E3C51" d="M2401.6,3544.3c0,55.1,44.7,99.8,99.8,99.8c55.1,0,99.8-44.7,99.8-99.8c0-55.1-44.7-99.8-99.8-99.8
				C2446.2,3444.5,2401.6,3489.2,2401.6,3544.3z"/>
		</g>
	</g>
	<g>
		<g>
			<path fill="#2E3C51" d="M1401.6,2544.3c55.1,0,99.8-44.7,99.8-99.8c0-55.1-44.6-99.7-99.8-99.7c-55.1,0-99.8,44.6-99.8,99.7
				C1301.8,2499.6,1346.5,2544.3,1401.6,2544.3z"/>
			<path fill="#2E3C51" d="M3601.1,2544.3c55,0,99.7-44.7,99.7-99.8c0-55.1-44.7-99.8-99.7-99.8c-55.1,0-99.8,44.7-99.8,99.8
				C3501.3,2499.6,3546,2544.3,3601.1,2544.3z"/>
		</g>
	</g>
	<path fill="#F05727" d="M2961,1521.3c0,34.2,27.8,61.9,61.9,61.9c34.2,0,61.9-27.7,61.9-61.9c0-34.2-27.7-61.9-61.9-61.9
		C2988.8,1459.3,2961,1487,2961,1521.3z"/>
	<path fill="#F05727" d="M3360.1,1961.6c0,34.2,27.7,61.9,61.9,61.9c34.2,0,61.9-27.7,61.9-61.9c0-34.2-27.7-61.9-61.9-61.9
		C3387.9,1899.7,3360.1,1927.4,3360.1,1961.6z"/>
	<path fill="#F05727" d="M1529.9,2890.5c0,34.2,27.7,61.9,61.9,61.9c34.2,0,61.9-27.8,61.9-61.9c0-34.2-27.8-61.9-61.9-61.9
		C1557.6,2828.5,1529.9,2856.3,1529.9,2890.5z"/>
	<path fill="#F05727" d="M1929,3330.8c0,34.2,27.7,61.9,61.9,61.9c34.2,0,61.9-27.7,61.9-61.9c0-34.2-27.7-61.9-61.9-61.9
		C1956.7,3268.9,1929,3296.6,1929,3330.8z"/>
	<path fill="#F05727" d="M3394.5,2835.4c-34.2,0-61.9,27.7-61.9,61.9c0,34.2,27.7,61.9,61.9,61.9c34.2,0,61.9-27.7,61.9-61.9
		C3456.4,2863.2,3428.7,2835.4,3394.5,2835.4z"/>
	<path fill="#F05727" d="M2954.2,3234.5c-34.2,0-61.9,27.7-61.9,61.9c0,34.2,27.8,61.9,61.9,61.9c34.2,0,61.9-27.7,61.9-61.9
		C3016.1,3262.2,2988.3,3234.5,2954.2,3234.5z"/>
	<path fill="#F05727" d="M2025.3,1404.3c-34.2,0-61.9,27.7-61.9,61.9c0,34.2,27.7,61.9,61.9,61.9c34.2,0,61.9-27.7,61.9-61.9
		C2087.2,1432,2059.5,1404.3,2025.3,1404.3z"/>
	<path fill="#F05727" d="M1585,1803.4c-34.2,0-62,27.7-62,61.9c0,34.2,27.7,61.9,62,61.9c34.2,0,61.9-27.7,61.9-61.9
		C1646.9,1831.1,1619.1,1803.4,1585,1803.4z"/>
	<path fill="#2E3C51" d="M2009.2,3181.3l419.2-694.8c-4.3-10.4-6.7-21.7-6.7-33.7v-6c0-48.6,39.4-87.9,88-87.9
		c48.5,0,88,39.4,88,87.9v6c0,48.6-39.4,88-88,88c-5.7,0-11.2-0.6-16.5-1.6l-413,684.4c-11.7,19.6-37,26-56.6,14.3
		C2003.9,3226.3,1997.5,3200.9,2009.2,3181.3z"/>
	<path fill="#F05727" d="M2366.1,2446.4c0,74.1,60.1,134.2,134.2,134.2c74.1,0,134.2-60.1,134.2-134.2c0-57.2-35.8-105.9-86.2-125.2
		c0-0.7,0.2-1.4,0.2-2.1v-527.2c0-26.6-21.5-48.1-48.1-48.1c-26.6,0-48.2,21.6-48.2,48.1v527.2c0,0.7,0.2,1.4,0.2,2.1
		C2401.9,2340.6,2366.1,2389.3,2366.1,2446.4z M2431.5,2446.4c0-38,30.8-68.8,68.8-68.8c38,0,68.8,30.8,68.8,68.8
		c0,38-30.8,68.8-68.8,68.8C2462.3,2515.3,2431.5,2484.4,2431.5,2446.4z"/>
</g>
<g>
</g>
<g>
</g>
<g>
</g>
<g>
</g>
<g>
</g>
<g>
</g>
<g>
</g>
<g>
</g>
<g>
</g>
<g>
</g>
<g>
</g>
<g>
</g>
<g>
</g>
<g>
</g>
<g>
</g>
</svg>
