<?xml version="1.0" encoding="iso-8859-1"?>
<svg xmlns="http://www.w3.org/2000/svg" xmlns:xlink="http://www.w3.org/1999/xlink" version="1.1" viewBox="0 0 470 470" enable-background="new 0 0 470 470" width="512px" height="512px">
  <g>
    <path d="m421.051,87.299h-105.767v-28.334c0-25.731-20.935-46.666-46.666-46.666h-67.236c-25.731,0-46.666,20.935-46.666,46.666v28.334h-105.767c-26.99,0-48.949,21.959-48.949,48.949v313.953c0,4.143 3.357,7.5 7.5,7.5h455c4.143,0 7.5-3.357 7.5-7.5v-313.953c0-26.99-21.959-48.949-48.949-48.949zm33.949,355.402h-440v-306.453c0-18.72 15.229-33.949 33.949-33.949h372.102c18.72,0 33.949,15.229 33.949,33.949v306.453zm-186.382-415.402c17.461,2.13163e-14 31.666,14.205 31.666,31.666v28.334h-15v-28.334c0-9.189-7.477-16.666-16.666-16.666h-67.236c-9.189,0-16.666,7.477-16.666,16.666v28.334h-15v-28.334c0-17.461 14.205-31.666 31.666-31.666h67.236zm-11.856,60v-7.5c0-4.143-3.357-7.5-7.5-7.5s-7.5,3.357-7.5,7.5v7.5h-13.523v-7.5c0-4.143-3.357-7.5-7.5-7.5s-7.5,3.357-7.5,7.5v7.5h-13.522v-28.334c0-0.919 0.747-1.666 1.666-1.666h67.236c0.919,0 1.666,0.747 1.666,1.666v28.334h-13.523z" fill="#333333"/>
    <path d="m108.949,132.299h312.102c2.178,0 3.949,1.771 3.949,3.949v283.953c0,4.143 3.357,7.5 7.5,7.5s7.5-3.357 7.5-7.5v-283.953c0-10.448-8.501-18.949-18.949-18.949h-312.102c-4.143,0-7.5,3.357-7.5,7.5 0.002,4.144 3.358,7.5 7.5,7.5z" fill="#333333"/>
    <path d="M45,420.201V136.248c0-2.178,1.771-3.949,3.949-3.949h30c4.142,0,7.499-3.356,7.5-7.498c0-4.145-3.357-7.502-7.5-7.502h-30   C38.501,117.299,30,125.8,30,136.248v283.953c0,4.143,3.357,7.5,7.5,7.5S45,424.344,45,420.201z" fill="#333333"/>
  </g>
</svg>
