<?xml version="1.0" encoding="utf-8"?>
<!-- Generator: Adobe Illustrator 18.0.0, SVG Export Plug-In . SVG Version: 6.00 Build 0)  -->
<!DOCTYPE svg PUBLIC "-//W3C//DTD SVG 1.1//EN" "http://www.w3.org/Graphics/SVG/1.1/DTD/svg11.dtd">
<svg version="1.1" id="Layer_1" xmlns="http://www.w3.org/2000/svg" xmlns:xlink="http://www.w3.org/1999/xlink" x="0px" y="0px"
	 viewBox="0 0 612 792" enable-background="new 0 0 612 792" xml:space="preserve">
<circle fill="#FD8A06" cx="128.3" cy="257.8" r="79"/>
<g>
	<path fill="#333333" d="M533,90.1L83.9,90C37.6,90,0,127.6,0,173.9V702h463.9V302.6l20.5-13.6l38.8,19.4l39.5-19.7l49.4,24.7V173.9
		C612,129.3,577,92.7,533,90.1z M444.2,173.9v508.4H19.7V173.9c0-35.4,28.8-64.2,64.2-64.2h390.2
		C455.8,125.2,444.2,148.2,444.2,173.9z M592.3,281.3l-29.6-14.8l-39.5,19.7L483,266.2l-19,12.7V173.9c0-35.4,28.8-64.2,64.2-64.2
		c35.4,0,64.2,28.8,64.2,64.2V281.3z"/>
	<polygon fill="#333333" points="293.2,304.3 335.6,261.9 378,304.3 391.9,290.3 349.6,247.9 391.9,205.6 378,191.6 335.6,234 
		293.2,191.6 279.3,205.6 321.7,247.9 279.3,290.3 	"/>
	<polygon fill="#333333" points="185.1,215 170.3,201.9 99.8,281.2 87.2,262.2 70.8,273.2 97.6,313.4 	"/>
	<rect x="49.4" y="336.8" fill="#333333" width="157.9" height="19.7"/>
	<rect x="49.4" y="386.1" fill="#333333" width="157.9" height="19.7"/>
	<rect x="49.4" y="435.5" fill="#333333" width="157.9" height="19.7"/>
	<rect x="49.4" y="484.8" fill="#333333" width="157.9" height="19.7"/>
	<rect x="49.4" y="534.2" fill="#333333" width="157.9" height="19.7"/>
	<rect x="49.4" y="583.5" fill="#333333" width="79" height="19.7"/>
	<rect x="256.6" y="336.8" fill="#333333" width="157.9" height="19.7"/>
	<rect x="256.6" y="386.1" fill="#333333" width="157.9" height="19.7"/>
	<rect x="256.6" y="435.5" fill="#333333" width="157.9" height="19.7"/>
	<rect x="256.6" y="484.8" fill="#333333" width="118.5" height="19.7"/>
</g>
</svg>
