<?xml version="1.0" encoding="utf-8"?>
<!-- Generator: Adobe Illustrator 18.0.0, SVG Export Plug-In . SVG Version: 6.00 Build 0)  -->
<!DOCTYPE svg PUBLIC "-//W3C//DTD SVG 1.1//EN" "http://www.w3.org/Graphics/SVG/1.1/DTD/svg11.dtd">
<svg version="1.1" id="Layer_1" xmlns="http://www.w3.org/2000/svg" xmlns:xlink="http://www.w3.org/1999/xlink" x="0px" y="0px"
	 viewBox="0 0 612 792" enable-background="new 0 0 612 792" xml:space="preserve">
<g>
	<g>
		<rect x="177.7" y="297.3" fill="#FD8A06" width="207.3" height="138.2"/>
		<path fill="#333333" d="M572.5,90H59.2c-16.3,0-29.6,13.3-29.6,29.6v286.3c0,16.3,13.3,29.6,29.6,29.6h79v177.7H9.9v19.7
			C9.9,671,40.9,702,79,702h276.4c38.1,0,69.1-31,69.1-69.1V435.5h148.1c16.3,0,29.6-13.3,29.6-29.6V119.6
			C602.1,103.3,588.8,90,572.5,90z M49.4,405.9V119.6c0-5.4,4.4-9.9,9.9-9.9h49.4v306H59.2C53.8,415.7,49.4,411.3,49.4,405.9z
			 M79,682.3c-27.2,0-49.4-22.1-49.4-49.4h246.8c0,19.3,8,36.8,20.8,49.4H79z M404.7,632.9c0,27.2-22.1,49.4-49.4,49.4h-9.9
			c-27.2,0-49.4-22.1-49.4-49.4v-19.7H157.9V297.3c0-27.2,22.1-49.4,49.4-49.4h218.2c-12.8,12.5-20.8,30-20.8,49.4L404.7,632.9
			L404.7,632.9z M454.1,228.2H207.3c-10.6,0-20.6,2.5-29.6,6.8v-26.5h276.4L454.1,228.2L454.1,228.2z M454.1,252.1v15.6h-19.5
			C439.6,261,446.3,255.5,454.1,252.1z M424.5,297.3c0-3.4,0.3-6.7,1-9.9h48.4v-39.5v-19.7v-39.5H157.9V249
			c-12.2,12.5-19.7,29.5-19.7,48.3v118.5h-9.9v-306h355.4v306h-59.2V297.3z M582.4,267.7v138.2c0,5.4-4.4,9.9-9.9,9.9h-69.1V267.7
			V109.7h69.1c5.4,0,9.9,4.4,9.9,9.9V267.7z"/>
		<rect x="69.1" y="198.6" fill="#333333" width="19.7" height="79"/>
		<rect x="69.1" y="297.3" fill="#333333" width="19.7" height="29.6"/>
		<path fill="#333333" d="M542.9,228.2c-21.8,0-39.5,17.7-39.5,39.5s17.7,39.5,39.5,39.5s39.5-17.7,39.5-39.5
			C582.4,245.9,564.7,228.2,542.9,228.2z M542.9,287.4c-10.9,0-19.7-8.9-19.7-19.7c0-10.9,8.9-19.7,19.7-19.7
			c10.9,0,19.7,8.9,19.7,19.7S553.8,287.4,542.9,287.4z"/>
		<rect x="177.7" y="465.1" fill="#333333" width="207.3" height="19.7"/>
		<rect x="177.7" y="514.5" fill="#333333" width="207.3" height="19.7"/>
		<rect x="177.7" y="563.8" fill="#333333" width="207.3" height="19.7"/>
	</g>
</g>
</svg>
