<?xml version="1.0" encoding="utf-8"?>
<!-- Generator: Adobe Illustrator 18.0.0, SVG Export Plug-In . SVG Version: 6.00 Build 0)  -->
<!DOCTYPE svg PUBLIC "-//W3C//DTD SVG 1.1//EN" "http://www.w3.org/Graphics/SVG/1.1/DTD/svg11.dtd">
<svg version="1.1" id="Layer_1" xmlns="http://www.w3.org/2000/svg" xmlns:xlink="http://www.w3.org/1999/xlink" x="0px" y="0px"
	 viewBox="0 0 612 792" enable-background="new 0 0 612 792" xml:space="preserve">
<path fill="#FD8A06" d="M330.7,546.3v66.8l-9.9,0H123.4l0-35.5l98.5-53c24.9-13.4,54.6-13.4,79.5,0l24.2,13L330.7,546.3z"/>
<g>
	<circle fill="#333333" cx="261.6" cy="405.9" r="9.9"/>
	<circle fill="#333333" cx="261.6" cy="445.4" r="9.9"/>
	<circle fill="#333333" cx="261.6" cy="484.8" r="9.9"/>
	<path fill="#333333" d="M567.6,534.2h-33l23.3-23.3L502.1,455l-23.3,23.3v-33h-29.6v-11.3c17-4.4,29.6-19.7,29.6-38.1
		s-12.6-33.7-29.6-38.1V141.5c6-5.4,9.9-13.2,9.9-21.9c0-16.3-13.3-29.6-29.6-29.6H93.8c-16.3,0-29.6,13.3-29.6,29.6
		c0,8.7,3.9,16.5,9.9,21.9v216.4c-17,4.4-29.6,19.7-29.6,38.1c0,18.4,12.6,33.7,29.6,38.1v216.4c-6,5.4-9.9,13.2-9.9,21.9
		c0,16.3,13.3,29.6,29.6,29.6h306h19.7h59.2v-33l23.3,23.3l55.8-55.8l-23.3-23.3h33V534.2z M459,396c0,10.9-8.9,19.7-19.7,19.7
		c-10.9,0-19.7-8.9-19.7-19.7s8.9-19.7,19.7-19.7C450.1,376.3,459,385.1,459,396z M429.4,357.9c-17,4.4-29.6,19.7-29.6,38.1
		c0,18.4,12.6,33.7,29.6,38.1v11.3h-29.6v33l-7.9-7.9c-10.4-28.5-30.4-52.2-56.6-66.8l-13.8-7.7l13.8-7.7
		c39.8-22.1,64.5-64.1,64.5-109.6l0.1-129.5h29.5V357.9z M320.6,510.9l23.3,23.3h-23.1h-9.9v9.9v59.2H143l0.1-90
		c0-38.3,20.8-73.8,54.4-92.4l29.3-16.3c3.1-1.7,5.1-5,5.1-8.6c0-3.6-1.9-6.9-5.1-8.6l-29.3-16.3c-33.1-18.4-53.7-53.2-54.3-91
		l118.4,27.3L380,280.1c-0.5,37.8-21.2,72.6-54.3,91l-29.3,16.3c-3.1,1.7-5.1,5-5.1,8.6s1.9,6.9,5.1,8.6l29.3,16.3
		c17.9,9.9,32.3,24.9,41.8,43l-40,40L320.6,510.9z M143,623h191.1l-13.5,13.5l6.3,6.3H143L143,623z M143.1,259.8l-0.1-71.1h237.2
		l-0.1,71.1l-118.5,27.4L143.1,259.8z M380.2,169H143l0-19.7h237.2L380.2,169z M93.8,109.7h335.6c5.4,0,9.9,4.4,9.9,9.9
		c0,5.4-4.4,9.9-9.9,9.9h-39.3h-257H93.8c-5.4,0-9.9-4.4-9.9-9.9C83.9,114.2,88.3,109.7,93.8,109.7z M64.2,396
		c0-10.9,8.9-19.7,19.7-19.7s19.7,8.9,19.7,19.7s-8.9,19.7-19.7,19.7S64.2,406.9,64.2,396z M93.8,434.1c17-4.4,29.6-19.7,29.6-38.1
		s-12.6-33.7-29.6-38.1V149.2h29.5l0.1,129.5c0,45.5,24.7,87.5,64.5,109.6l13.8,7.7l-13.8,7.7c-39.8,22.1-64.5,64.1-64.5,109.6
		l-0.1,129.5H93.8V434.1z M93.8,682.3c-5.4,0-9.9-4.4-9.9-9.9c0-5.4,4.4-9.9,9.9-9.9h39.3h213.5l19.7,19.7H93.8z M399.8,682.3h-13.3
		l13.3-13.3V682.3z M547.8,593.4H516l-2.3,6.6c-0.9,2.6-2,5.2-3.2,7.7l-3,6.3l22.5,22.5l-27.9,27.9l-22.5-22.5l-6.3,3
		c-2.5,1.2-5,2.3-7.6,3.2l-6.6,2.3v31.9h-39.5v-31.9l-6.6-2.3c-2.6-0.9-5.2-2-7.6-3.2l-6.3-3l-22.5,22.5l-18.7-18.7l-2.9-2.9
		l-6.3-6.3L371,614l-3-6.3c-1.2-2.5-2.3-5-3.2-7.7l-2.3-6.6h-7h-24.9v-39.5h24.9h7l2.3-6.6c0.9-2.6,2-5.2,3.2-7.7l3-6.3l-22.5-22.5
		l27.9-27.9l0.1,0.1l0,0l22.5,22.5l6.3-3c2.5-1.2,5-2.3,7.7-3.2l6.6-2.3v-31.9H459V497l6.6,2.3c2.6,0.9,5.2,2,7.6,3.2l6.3,3
		l22.5-22.5l27.9,27.9l-22.5,22.5l3,6.3c1.2,2.5,2.3,5,3.2,7.7l2.3,6.6h31.9V593.4z"/>
	<path fill="#333333" d="M439.3,524.3c-27.2,0-49.4,22.1-49.4,49.4S412,623,439.3,623c27.2,0,49.4-22.1,49.4-49.4
		S466.5,524.3,439.3,524.3z M439.3,603.3c-16.3,0-29.6-13.3-29.6-29.6s13.3-29.6,29.6-29.6c16.3,0,29.6,13.3,29.6,29.6
		S455.6,603.3,439.3,603.3z"/>
</g>
</svg>
