<?xml version="1.0" encoding="utf-8"?>
<!-- Generator: Adobe Illustrator 18.0.0, SVG Export Plug-In . SVG Version: 6.00 Build 0)  -->
<!DOCTYPE svg PUBLIC "-//W3C//DTD SVG 1.1//EN" "http://www.w3.org/Graphics/SVG/1.1/DTD/svg11.dtd">
<svg version="1.1" id="Layer_1" xmlns="http://www.w3.org/2000/svg" xmlns:xlink="http://www.w3.org/1999/xlink" x="0px" y="0px"
	 viewBox="0 0 612 792" enable-background="new 0 0 612 792" xml:space="preserve">
<g>
	<g>
		<circle fill="#FD8A06" cx="239.5" cy="376.4" r="127.4"/>
		<path fill="#333333" d="M484.6,445c-20.4,0-39.7,5-56.9,13.6c11.3-25.8,17.3-53.5,17.3-82.2c0-44.4-14.3-85.4-38.3-119.1
			l12.8-12.8l17.3,17.3l41.6-41.6l-83.2-83.2l-41.6,41.6L371,196l-15.1,12.8c-24.8-17.7-47.8-29.9-87-35.2v-22.7h29.4V92.1H180.7
			v58.8h19.6v22.7c-29.4,5.3-57.6,17.4-82.3,35L106.4,196l17.9-17.3L83,137.1L0,220.2l41.7,41.6L59,244.5l12.6,12.6
			c-24.1,33.7-38.4,74.8-38.4,119.3c0,95,65.7,177.6,157.3,199.8v6h19.6v39.2h9.8v19.6h-19.6v58.8h254.9v-3.6
			c9.5,2.2,19.3,3.6,29.4,3.6c70.3,0,127.4-57.2,127.4-127.4S554.8,445,484.6,445z M317.9,641.1v-19.6h19.6v19.6H317.9z
			 M308.1,543.1v19.6h-19.6v-19.6H308.1z M327.7,562.7v-19.6h19.6v19.6H327.7z M327.7,582.3v19.6h-19.6v-19.6H327.7z M347.3,601.9
			v-19.6h10.3c0.5,6.7,1.5,13.2,3.1,19.6H347.3z M337.5,523.4v-19.6h19.6v19.6H337.5z M317.9,523.4h-19.6v-19.6h19.6V523.4z
			 M278.7,523.4h-19.6v-19.6h19.6V523.4z M239.5,523.4h-19.6v-19.6h19.6V523.4z M268.9,543.1v19.6h-19.6v-19.6H268.9z M288.5,582.3
			v19.6h-19.6v-19.6H288.5z M298.3,621.5v19.6h-19.6v-19.6H298.3L298.3,621.5z M278.7,660.7v19.6h-19.6v-19.6H278.7z M298.3,660.7
			h19.6v19.6h-19.6V660.7z M337.5,660.7h19.6v19.6h-19.6V660.7z M357.1,641.1v-19.6h9.8c2.9,6.9,6.4,13.4,10.4,19.6H357.1z
			 M376.7,503.8h0.6c-0.2,0.3-0.4,0.7-0.6,1V503.8z M395.2,164.8l55.5,55.5l-13.9,13.9l-55.5-55.5L395.2,164.8z M384.8,209.8
			l20.8,20.8l-11.2,11.2c-6.4-7.4-13.4-14.4-20.8-20.8L384.8,209.8z M200.3,131.3v-19.6h78.4v19.6h-5.3h-68.6H200.3z M219.9,170.5
			v-19.6h29.4v19.6H219.9z M27.9,220.2l55.5-55.5l13.9,13.9l-55.5,55.5L27.9,220.2z M72.9,230.6l20.8-20.8l11,11
			c-7.4,6.4-14.4,13.4-20.8,20.8L72.9,230.6z M52.8,376.4c0-102.7,83.6-186.3,186.3-186.3s186.3,83.6,186.3,186.3
			c0,38.9-12.1,76.1-34.8,107.8H200.3v39.2h-9.8v32.6C110.1,534.4,52.8,460.7,52.8,376.4z M210.1,543.1h19.6v19.6h-19.6V543.1z
			 M249.3,582.3v19.6h-19.6v-19.6H249.3z M239.5,621.5h19.6v19.6h-19.6V621.5z M219.9,660.7h19.6v19.6h-19.6V660.7z M376.7,680.3
			v-19.6h16.1c7.2,7.5,15.3,14,24.1,19.6H376.7z M484.6,680.3c-59.5,0-107.8-48.4-107.8-107.8c0-59.5,48.4-107.8,107.8-107.8
			c59.5,0,107.8,48.4,107.8,107.8S544,680.3,484.6,680.3z"/>
		<path fill="#333333" d="M509.1,494h-14.7v-19.6h-19.6V494H460c-24.3,0-44.1,19.8-44.1,44.1c0,24.3,19.8,44.1,44.1,44.1h49
			c13.5,0,24.5,11,24.5,24.5c0,13.5-11,24.5-24.5,24.5h-49c-13.5,0-24.5-11-24.5-24.5v-4.9h-19.6v4.9c0,24.3,19.8,44.1,44.1,44.1
			h14.7v19.6h19.6v-19.6h14.7c24.3,0,44.1-19.8,44.1-44.1s-19.8-44.1-44.1-44.1h-49c-13.5,0-24.5-11-24.5-24.5
			c0-13.5,11-24.5,24.5-24.5h49c13.5,0,24.5,11,24.5,24.5v4.9h19.6v-4.9C553.2,513.8,533.4,494,509.1,494z"/>
		<path fill="#333333" d="M209.7,376.4c0,16.2,13.2,29.4,29.4,29.4s29.4-13.2,29.4-29.4c0-16.2-13.2-29.4-29.4-29.4
			c-4.2,0-8.2,0.9-11.9,2.5l-69-77.7l-14.7,13l69.5,78.2C211,367.1,209.7,371.6,209.7,376.4z M248.9,376.4c0,5.4-4.4,9.8-9.8,9.8
			s-9.8-4.4-9.8-9.8c0-5.4,4.4-9.8,9.8-9.8C244.5,366.6,248.9,371,248.9,376.4z"/>
	</g>
</g>
</svg>
