<?xml version="1.0" encoding="utf-8"?>
<!-- Generator: Adobe Illustrator 18.0.0, SVG Export Plug-In . SVG Version: 6.00 Build 0)  -->
<!DOCTYPE svg PUBLIC "-//W3C//DTD SVG 1.1//EN" "http://www.w3.org/Graphics/SVG/1.1/DTD/svg11.dtd">
<svg version="1.1" xmlns="http://www.w3.org/2000/svg" xmlns:xlink="http://www.w3.org/1999/xlink" x="0px" y="0px"
	 viewBox="0 0 612 792" enable-background="new 0 0 612 792" xml:space="preserve">
<g id="Layer_2">
	<circle fill="#FD8708" cx="307.9" cy="394.6" r="121.3"/>
</g>
<g id="Layer_1">
	<g>
		<g>
			<g>
				<path d="M559.4,194.3c-84.2-23.1-168.9-59-244.9-103.9c-4-2.4-9.1-2.4-13.1,0C223.2,136.6,143,170.6,56.4,194.3
					c-5.6,1.5-9.5,6.6-9.5,12.4v131.5c0,135.5,62.5,225.1,114.9,276.5c56.4,55.3,122.2,85.9,146,85.9c23.9,0,89.6-30.6,146-85.9
					c52.4-51.4,114.9-141,114.9-276.5V206.7C568.9,200.9,565,195.8,559.4,194.3z M543.1,338.3c0,126.5-58.3,210.2-107.2,258.1
					c-55.5,54.4-114.8,78.5-128,78.5c-13.2,0-72.5-24.1-128-78.5C131,548.4,72.7,464.8,72.7,338.3V216.5
					c82.8-23.5,159.9-56.3,235.2-100.1c73.4,42.6,154.4,77,235.2,100.1V338.3z"/>
				<path d="M193.8,215.1c-2.6-6.6-10.1-9.9-16.7-7.3c-23,9.1-46.6,17.4-70.2,24.8c-5.4,1.7-9,6.7-9,12.3v49.7
					c0,7.1,5.8,12.9,12.9,12.9c7.1,0,12.9-5.8,12.9-12.9v-40.3c21.1-6.8,42.2-14.4,62.9-22.5C193.2,229.1,196.4,221.7,193.8,215.1z"
					/>
				<path d="M218.3,217.5c1.7,0,3.5-0.3,5.2-1.1l0.2-0.1c6.5-2.9,9.4-10.4,6.6-16.9c-2.9-6.5-10.5-9.5-17-6.6l-0.2,0.1
					c-6.5,2.8-9.5,10.4-6.6,16.9C208.6,214.6,213.3,217.5,218.3,217.5z"/>
				<path d="M461.3,503.7c-5.9-3.9-13.9-2.2-17.8,3.7c-10.6,16.2-23.1,31.8-37,46.2c-11.5,11.9-23.9,22.9-36.9,32.9
					c-5.7,4.3-6.7,12.4-2.4,18c2.5,3.3,6.4,5.1,10.2,5.1c2.7,0,5.5-0.9,7.8-2.6c14.1-10.7,27.5-22.6,39.8-35.4
					c15.1-15.6,28.5-32.4,40-50C468.9,515.6,467.3,507.6,461.3,503.7z"/>
				<path d="M339.7,606.7l-0.7,0.4c-6.2,3.6-8.3,11.4-4.7,17.6c2.4,4.1,6.7,6.4,11.2,6.4c2.2,0,4.4-0.6,6.4-1.7l0.9-0.5
					c6.1-3.6,8.2-11.5,4.6-17.6C353.7,605.2,345.8,603.1,339.7,606.7z"/>
				<path d="M256.4,379.2c-4.6-4.6-10.8-7.2-17.4-7.2s-12.7,2.6-17.4,7.2c-9.6,9.6-9.6,25.2,0,34.8l44.7,44.7
					c4.6,4.6,10.8,7.2,17.4,7.2c6.6,0,12.7-2.6,17.4-7.2l93.2-93.2c9.6-9.6,9.6-25.2,0-34.8c-4.6-4.6-10.8-7.2-17.4-7.2
					c-6.6,0-12.7,2.6-17.4,7.2l-75.8,75.8L256.4,379.2z M370.2,341.3c1.8-1.8,4.2-2.8,6.7-2.8c2.5,0,4.9,1,6.7,2.8
					c3.7,3.7,3.7,9.7,0,13.4l-93.2,93.2c-1.8,1.8-4.2,2.8-6.7,2.8s-4.9-1-6.7-2.8l-44.7-44.7c-3.7-3.7-3.7-9.7,0-13.4
					c1.8-1.8,4.2-2.8,6.7-2.8c2.5,0,4.9,1,6.7,2.8l32.6,32.6c1.4,1.4,3.3,2.2,5.3,2.2s3.9-0.8,5.3-2.2L370.2,341.3z"/>
			</g>
		</g>
	</g>
</g>
</svg>
