<?xml version="1.0" encoding="utf-8"?>
<!-- Generator: Adobe Illustrator 18.0.0, SVG Export Plug-In . SVG Version: 6.00 Build 0)  -->
<!DOCTYPE svg PUBLIC "-//W3C//DTD SVG 1.1//EN" "http://www.w3.org/Graphics/SVG/1.1/DTD/svg11.dtd">
<svg version="1.1" xmlns="http://www.w3.org/2000/svg" xmlns:xlink="http://www.w3.org/1999/xlink" x="0px" y="0px"
	 viewBox="0 0 512 512" enable-background="new 0 0 512 512" xml:space="preserve">
<g id="Layer_2">
	<rect x="50" y="397" fill="#FD8A06" stroke="#000000" stroke-miterlimit="10" width="292.1" height="39"/>
</g>
<g id="Capa_1">
	<g>
		<g>
			<g>
				<path fill="#333333" d="M448.6,222.7c-4.4,0-8-3.6-8-8c0-4.4,3.6-8,8-8H496v-25.3h-36.3c-4.4,0-8-3.6-8-8s3.6-8,8-8h44.1h0.2
					c4.4,0,8,3.6,8,8v41.1v0.2c0,4.4-3.6,8-8,8L448.6,222.7L448.6,222.7z M327.8,165.3c4.4,0,8,3.6,8,8c0,4.4-3.6,8-8,8H16v25.3
					h300.7c4.4,0,8,3.6,8,8c0,4.4-3.6,8-8,8H8.2H8c-4.4,0-8-3.6-8-8v-41.1v-0.2c0-4.4,3.6-8,8-8L327.8,165.3L327.8,165.3z"/>
				<path fill="#333333" d="M433.9,82.9l-30.2-8.1l-67.2,251l3.8,46.3l26.4-38.2L433.9,82.9L433.9,82.9z M400.2,57.3l45.6,12.2
					c4.3,1.1,6.8,5.5,5.7,9.8l-69.7,260.1l0,0c-0.2,0.9-0.6,1.7-1.1,2.5L341,399.2c-1.3,2.1-3.5,3.6-6.2,3.9
					c-4.4,0.3-8.2-2.9-8.6-7.3l-5.7-70c-0.1-0.9,0-1.8,0.3-2.7L390.4,63C391.5,58.7,395.9,56.2,400.2,57.3z"/>
				<path fill="#333333" d="M333,331.6c-3.6,2.5-8.6,1.6-11.1-2c-2.5-3.6-1.6-8.6,2-11.1c1.8-1.3,3.7-2.4,5.6-3.3
					c8.4-3.9,17.9-4.4,26.5-2.1c8.7,2.3,16.6,7.5,22,15.1c1.2,1.8,2.4,3.7,3.3,5.7c1.8,4,0.1,8.8-3.9,10.6c-4,1.8-8.8,0.1-10.6-3.9
					c-0.5-1.1-1.2-2.2-1.8-3.2c-3.1-4.4-7.8-7.4-13-8.8c-5.2-1.4-10.9-1.1-15.7,1.1C335,330.3,334,331,333,331.6z"/>
				<path fill="#333333" d="M326.4,393c1.1-4.3,5.5-6.8,9.8-5.7c4.3,1.1,6.8,5.5,5.7,9.8l-4.9,18.2c-1.1,4.3-5.5,6.8-9.8,5.7
					c-4.3-1.1-6.8-5.5-5.7-9.8L326.4,393z"/>
				<path fill="#333333" d="M445.8,69.5c4.3,1.1,6.8,5.5,5.7,9.8c-1.1,4.3-5.5,6.8-9.8,5.7l-11.4-3.1l-11.4-3.1l-11.4-3.1l-11.4-3.1
					c-4.3-1.1-6.8-5.5-5.7-9.8l3.8-14.2l3.8-14.2l3.8-14.3L405.7,6c1.1-4.3,5.5-6.8,9.8-5.7l11.4,3.1l11.4,3.1l11.4,3.1l11.4,3.1
					c4.3,1.1,6.8,5.5,5.7,9.8l-3.8,14.2l-3.8,14.2c-1.1,4.3-5.5,6.8-9.8,5.7c-4.3-1.1-6.8-5.5-5.7-9.8l3.8-14.2l1.8-6.5l-3.7-1
					l-11.4-3.1l-11.4-3.1l-3.7-1l-1.8,6.5l-3.8,14.3l-3.8,14.2l-1.8,6.5l3.7,1l11.4,3.1l11.4,3.1L445.8,69.5z"/>
				<path fill="#333333" d="M482.8,37.6c1.1-4.3,5.5-6.8,9.8-5.7c4.3,1.1,6.8,5.5,5.7,9.8L472.1,139c-1.1,4.3-5.5,6.8-9.8,5.7
					c-4.3-1.1-6.8-5.5-5.7-9.8L482.8,37.6z"/>
				<path fill="#333333" d="M487.7,50.2c4.3,1.1,6.8,5.5,5.7,9.8c-1.1,4.3-5.5,6.8-9.8,5.7l-34.2-9.2c-4.3-1.1-6.8-5.5-5.7-9.8
					c1.1-4.3,5.5-6.8,9.8-5.6L487.7,50.2z"/>
				<path fill="#333333" d="M287,408.7c4.4,0,8,3.6,8,8s-3.6,8-8,8H70c-4.4,0-8-3.6-8-8s3.6-8,8-8H287z"/>
				<path fill="#333333" d="M442,305.3c4.4,0,8,3.6,8,8c0,4.4-3.6,8-8,8h-19.9c-4.4,0-8-3.6-8-8c0-4.4,3.6-8,8-8H442L442,305.3z
					 M290.2,305.3c4.4,0,8,3.6,8,8c0,4.4-3.6,8-8,8H70c-4.4,0-8-3.6-8-8c0-4.4,3.6-8,8-8H290.2z"/>
				<path fill="#333333" d="M442,264c4.4,0,8,3.6,8,8c0,4.4-3.6,8-8,8h-8.8c-4.4,0-8-3.6-8-8c0-4.4,3.6-8,8-8H442L442,264z
					 M301.3,264c4.4,0,8,3.6,8,8c0,4.4-3.6,8-8,8H70c-4.4,0-8-3.6-8-8c0-4.4,3.6-8,8-8H301.3z"/>
				<path fill="#333333" d="M0,256c0-4.4,3.6-8,8-8s8,3.6,8,8v227.3c0,3.5,1.4,6.6,3.7,8.9l0.3,0.4c2.2,2.1,5.3,3.4,8.6,3.4h454.7
					c3.5,0,6.6-1.4,8.9-3.7l0,0c2.3-2.3,3.7-5.5,3.7-8.9V256c0-4.4,3.6-8,8-8c4.4,0,8,3.6,8,8v227.3c0,7.8-3.2,15-8.4,20.2l0,0
					c-5.2,5.2-12.3,8.4-20.2,8.4H28.7c-7.6,0-14.5-3-19.7-7.9l-0.6-0.5C3.2,498.4,0,491.2,0,483.3V256z"/>
				<path fill="#333333" d="M442,346.7c4.4,0,8,3.6,8,8c0,4.4-3.6,8-8,8h-28.3c-4.4,0-8-3.6-8-8c0-4.4,3.6-8,8-8H442L442,346.7z
					 M289.5,346.7c4.4,0,8,3.6,8,8c0,4.4-3.6,8-8,8H70c-4.4,0-8-3.6-8-8c0-4.4,3.6-8,8-8H289.5L289.5,346.7z"/>
			</g>
		</g>
	</g>
</g>
</svg>
