<?xml version="1.0" encoding="utf-8"?>
<!-- Generator: Adobe Illustrator 18.0.0, SVG Export Plug-In . SVG Version: 6.00 Build 0)  -->
<!DOCTYPE svg PUBLIC "-//W3C//DTD SVG 1.1//EN" "http://www.w3.org/Graphics/SVG/1.1/DTD/svg11.dtd">
<svg version="1.1" id="Layer_1" xmlns="http://www.w3.org/2000/svg" xmlns:xlink="http://www.w3.org/1999/xlink" x="0px" y="0px"
	 viewBox="0 0 612 792" enable-background="new 0 0 612 792" xml:space="preserve">
<g>
	<g>
		<polygon fill="#FD8A06" points="306,287.4 207.3,504.6 246.8,642.8 365.2,642.8 404.7,504.6 		"/>
		<path fill="#333333" d="M315.9,446.8V297.3h-19.7v149.5c-17,4.4-29.6,19.7-29.6,38.1c0,21.8,17.7,39.5,39.5,39.5
			c21.8,0,39.5-17.7,39.5-39.5C345.5,466.5,332.9,451.2,315.9,446.8z M306,504.6c-10.9,0-19.7-8.9-19.7-19.7
			c0-10.9,8.9-19.7,19.7-19.7c10.9,0,19.7,8.9,19.7,19.7S316.9,504.6,306,504.6z"/>
		<path fill="#333333" d="M408.9,198.6h125.5c4.4,17,19.7,29.6,38.1,29.6c21.8,0,39.5-17.7,39.5-39.5s-17.7-39.5-39.5-39.5
			c-18.3,0-33.7,12.6-38.1,29.6H345.5v-29.6h-79v29.1l-189,0.5c-4.4-17-19.7-29.6-38.1-29.6C17.7,149.2,0,166.9,0,188.7
			s17.7,39.5,39.5,39.5c18.4,0,33.7-12.6,38.1-29.6l126.5-0.3C106.8,236.6,38,328,30.4,435.5H0v79h79v-79H50.2
			c9-118.5,98.3-215.7,216.4-233.9v26.6h79v-26.6c118,18.1,207.4,115.3,216.4,233.9H533v79h79v-79h-30.4
			C574.1,328.3,505.6,237.2,408.9,198.6z M572.5,169c10.9,0,19.7,8.9,19.7,19.7c0,10.9-8.9,19.7-19.7,19.7
			c-10.9,0-19.7-8.9-19.7-19.7C552.8,177.8,561.6,169,572.5,169z M39.5,208.5c-10.9,0-19.7-8.9-19.7-19.7S28.6,169,39.5,169
			s19.7,8.9,19.7,19.7C59.2,199.6,50.4,208.5,39.5,208.5z M59.2,455.2v39.5H19.7v-39.5h9.9h19.7H59.2z M325.7,208.5h-39.5V169h39.5
			V208.5z M592.3,455.2v39.5h-39.5v-39.5h9.9h19.7H592.3z"/>
	</g>
</g>
</svg>
