<?xml version="1.0" encoding="utf-8"?>
<!-- Generator: Adobe Illustrator 18.0.0, SVG Export Plug-In . SVG Version: 6.00 Build 0)  -->
<!DOCTYPE svg PUBLIC "-//W3C//DTD SVG 1.1//EN" "http://www.w3.org/Graphics/SVG/1.1/DTD/svg11.dtd">
<svg version="1.1" xmlns="http://www.w3.org/2000/svg" xmlns:xlink="http://www.w3.org/1999/xlink" x="0px" y="0px"
	 viewBox="0 0 512 512" enable-background="new 0 0 512 512" xml:space="preserve">
<g id="Layer_2">
	<rect x="49" y="382" fill="#FD8A06" stroke="#000000" stroke-miterlimit="10" width="205" height="55"/>
</g>
<g id="Layer_1">
	<g>
		<g>
			<rect x="70.5" y="72.7" fill="#333333" width="104.2" height="15.6"/>
		</g>
	</g>
	<g>
		<g>
			<rect x="230" y="39.3" fill="#333333" width="15.6" height="15.6"/>
		</g>
	</g>
	<g>
		<g>
			<rect x="254" y="39.3" fill="#333333" width="16.7" height="15.6"/>
		</g>
	</g>
	<g>
		<g>
			<rect x="279" y="39.3" fill="#333333" width="15.6" height="15.6"/>
		</g>
	</g>
	<g>
		<g>
			<rect x="70.5" y="103.9" fill="#333333" width="32.3" height="15.6"/>
		</g>
	</g>
	<g>
		<g>
			<rect x="70.5" y="151.9" fill="#333333" width="87.5" height="15.6"/>
		</g>
	</g>
	<g>
		<g>
			<rect x="174.8" y="151.9" fill="#333333" width="47.9" height="15.6"/>
		</g>
	</g>
	<g>
		<g>
			<rect x="70.5" y="184.2" fill="#333333" width="119.8" height="15.6"/>
		</g>
	</g>
	<g>
		<g>
			<rect x="206" y="184.2" fill="#333333" width="57.3" height="15.6"/>
		</g>
	</g>
	<g>
		<g>
			<rect x="70.5" y="216.5" fill="#333333" width="32.3" height="15.6"/>
		</g>
	</g>
	<g>
		<g>
			<rect x="118.5" y="216.5" fill="#333333" width="111.5" height="15.6"/>
		</g>
	</g>
	<g>
		<g>
			<rect x="70.5" y="247.7" fill="#333333" width="192.8" height="15.6"/>
		</g>
	</g>
	<g>
		<g>
			<rect x="70.5" y="280" fill="#333333" width="71.9" height="15.6"/>
		</g>
	</g>
	<g>
		<g>
			<rect x="158.1" y="280" fill="#333333" width="16.7" height="15.6"/>
		</g>
	</g>
	<g>
		<g>
			<rect x="70.5" y="312.3" fill="#333333" width="159.4" height="15.6"/>
		</g>
	</g>
	<g>
		<g>
			<rect x="70.5" y="399.9" fill="#333333" width="55.2" height="15.6"/>
		</g>
	</g>
	<g>
		<g>
			<rect x="70.5" y="343.6" fill="#333333" width="39.6" height="15.6"/>
		</g>
	</g>
	<g>
		<g>
			<path fill="#333333" d="M498.6,133.4c-9.3-9.3-24.5-9.3-33.8,0l-5.7,5.7l-17-17l-62.2,62.2l11.2,11.2l51-51l45.3,45.3l11.2-11.2
				l-5.7-5.7l5.7-5.7C508,157.9,508,142.8,498.6,133.4z M487.5,156.1l-5.7,5.7l-11.5-11.5l5.7-5.7c3.2-3.2,8.3-3.2,11.5,0
				C490.6,147.8,490.6,152.9,487.5,156.1z"/>
		</g>
	</g>
	<g>
		<g>
			<path fill="#333333" d="M475.9,189.9l-33.8-33.8L357.2,241l-5.7-5.7l-17.3,17.3V0H6.4v512h327.9V342.9l62.4-62.4l-5.7-5.7
				L475.9,189.9z M318.5,496.2L318.5,496.2H22.2V15.8h296.3v252.6l-46,46l5.7,5.7l-11.9,11.9l-26.7,40l4.7,4.7l-11.4,11.4l11.2,11.2
				l11.4-11.4l4.7,4.7l40-26.7l11.9-11.9l5.7,5.7l0.9-0.9L318.5,496.2L318.5,496.2z M289.3,331.3l11.5,11.5L290,353.6L262,372.2
				l-2.2-2.2l18.6-27.9L289.3,331.3z M318.8,336h-0.3v0.3l-0.9,0.9l-22.8-22.8l56.7-56.7l22.8,22.8L318.8,336z M368.4,252.2
				l73.7-73.7l11.5,11.5l-73.7,73.7L368.4,252.2z"/>
		</g>
	</g>
	<g>
		<g>
			<polygon fill="#333333" points="228.2,392.9 219.6,399.9 183.1,399.9 183.1,415.5 225.1,415.5 238,405 			"/>
		</g>
	</g>
</g>
</svg>
